<svg width="20" height="20" viewBox="0 0 20 20" fill="none" xmlns="http://www.w3.org/2000/svg">
<g id="Frame">
<g id="Group">
<path id="Vector" d="M10.0004 13.6875C11.0004 13.6875 11.9379 13.3125 12.6254 12.5938C13.3129 11.9062 13.6879 11 13.6567 10.0312V4.0625C13.6567 2.03125 12.0004 0.40625 10.0004 0.40625C7.96919 0.40625 6.34419 2.0625 6.34419 4.0625V10C6.31294 12.0312 7.96919 13.6875 10.0004 13.6875ZM7.40669 4.0625C7.40669 2.65625 8.56294 1.5 9.96919 1.5C11.3754 1.5 12.5317 2.65625 12.5317 4.0625V10.0312C12.5317 10.7188 12.2817 11.3438 11.8129 11.8438C11.3129 12.3438 10.6567 12.625 9.96919 12.625C8.56294 12.625 7.40669 11.4688 7.40669 10.0625V4.0625Z" fill="#13484E"/>
<path id="Vector_2" d="M16.4687 9.84375C16.4687 9.53125 16.2187 9.28125 15.9062 9.28125C15.5937 9.28125 15.3437 9.53125 15.3437 9.84375C15.3437 12.8125 12.9375 15.2188 9.9375 15.2188C6.96875 15.2188 4.5625 12.8125 4.5625 9.84375C4.5625 9.53125 4.3125 9.28125 4 9.28125C3.6875 9.28125 3.4375 9.53125 3.4375 9.84375C3.4375 13.2188 6.03125 16 9.34375 16.2813V18.5H7.15625C6.84375 18.5 6.59375 18.75 6.59375 19.0625C6.59375 19.375 6.84375 19.625 7.15625 19.625H12.625C12.9375 19.625 13.1875 19.375 13.1875 19.0625C13.1875 18.75 12.9375 18.5 12.625 18.5H10.4375V16.2813C13.8437 16.0313 16.4687 13.25 16.4687 9.84375Z" fill="#13484E"/>
</g>
</g>
</svg>
