<svg width="24" height="25" viewBox="0 0 24 25" fill="none" xmlns="http://www.w3.org/2000/svg">
<g id="Frame">
<g id="Group">
<path id="Vector" d="M11.9921 23.4912H4.2084C3.7161 23.4912 3.30565 23.2611 3.11035 22.8755C2.91512 22.4901 2.97249 22.0229 3.26383 21.626L4.24208 20.2971C2.16786 18.2371 0.992188 15.4339 0.992188 12.4912C0.992188 6.4258 5.92672 1.49121 11.9921 1.49121C18.0576 1.49121 22.9922 6.4258 22.9922 12.4912C22.9922 18.5567 18.0576 23.4912 11.9921 23.4912ZM11.9921 21.8072C17.129 21.8072 21.3082 17.6281 21.3082 12.4912C21.3082 7.35437 17.129 3.17524 11.9921 3.17524C6.85529 3.17524 2.67621 7.35437 2.67621 12.4912C2.67621 15.2051 3.85694 17.7788 5.91566 19.5527L6.50642 20.0616L5.22151 21.8072H11.9921Z" fill="black"/>
<path id="Vector_2" d="M9.05889 12.4912C9.05889 13.1385 8.53426 13.6632 7.88698 13.6632C7.23959 13.6632 6.71484 13.1385 6.71484 12.4912C6.71484 11.8438 7.23959 11.3191 7.88698 11.3191C8.53426 11.3191 9.05889 11.8439 9.05889 12.4912Z" fill="black"/>
<path id="Vector_3" d="M11.9923 13.663C12.6395 13.663 13.1643 13.1383 13.1643 12.4911C13.1643 11.8438 12.6395 11.3191 11.9923 11.3191C11.345 11.3191 10.8203 11.8438 10.8203 12.4911C10.8203 13.1383 11.345 13.663 11.9923 13.663Z" fill="black"/>
<path id="Vector_4" d="M16.0978 13.6631C16.7451 13.6631 17.2698 13.1384 17.2698 12.4911C17.2698 11.8438 16.7451 11.3191 16.0978 11.3191C15.4505 11.3191 14.9258 11.8438 14.9258 12.4911C14.9258 13.1384 15.4505 13.6631 16.0978 13.6631Z" fill="black"/>
</g>
</g>
</svg>
