<svg width="20" height="20" viewBox="0 0 20 20" fill="#13484E" xmlns="http://www.w3.org/2000/svg">
<g id="Frame" clip-path="url(#clip0_972_737)">
<g id="Group">
<path id="Vector" d="M9.99961 14C9.77883 14 9.59961 14.1792 9.59961 14.4C9.59961 14.6208 9.77883 14.8 9.99961 14.8C10.2204 14.8 10.3996 14.6208 10.3996 14.4C10.3996 14.1792 10.2204 14 9.99961 14Z" fill="#13484E"/>
<path id="Vector_2" d="M10.0002 15.2C10.442 15.2 10.8002 14.8418 10.8002 14.4C10.8002 13.9581 10.442 13.6 10.0002 13.6C9.55837 13.6 9.2002 13.9581 9.2002 14.4C9.2002 14.8418 9.55837 15.2 10.0002 15.2Z" fill="#13484E"/>
<path id="Vector_3" d="M10 0C4.48559 0 0 4.48559 0 10C0 15.5144 4.48559 20 10 20C15.5144 20 20 15.5144 20 10C20 4.48559 15.5144 0 10 0ZM10 19.2C4.92719 19.2 0.8 15.0728 0.8 10C0.8 4.92719 4.92719 0.8 10 0.8C15.0728 0.8 19.2 4.92719 19.2 10C19.2 15.0728 15.0728 19.2 10 19.2Z" fill="#13484E"/>
<path id="Vector_4" d="M12.7546 7.09515C12.557 5.96797 11.6314 5.04234 10.5042 4.84394C9.67297 4.69836 8.83457 4.92074 8.2002 5.45433C7.565 5.98875 7.2002 6.77035 7.2002 7.59992C7.2002 7.8207 7.37941 7.99992 7.6002 7.99992C7.82098 7.99992 8.0002 7.8207 8.0002 7.59992C8.0002 7.00711 8.26102 6.44871 8.71539 6.06793C9.17617 5.68152 9.7634 5.52633 10.3666 5.63273C11.1682 5.77351 11.8266 6.43273 11.9682 7.23433C12.1202 8.10152 11.7266 8.93355 10.9642 9.35273C10.1098 9.82394 9.60023 10.6375 9.60023 11.5999V12.3999C9.60023 12.6207 9.77945 12.7999 10.0002 12.7999C10.221 12.7999 10.4002 12.6207 10.3986 12.3999V11.5295C10.3986 10.9327 10.7546 10.3807 11.349 10.0527C12.3993 9.47515 12.9641 8.28637 12.7546 7.09515Z" fill="#13484E"/>
</g>
</g>
<defs>
<clipPath id="clip0_972_737">
<rect width="20" height="20" fill="white"/>
</clipPath>
</defs>
</svg>
