<svg width="24" height="25" viewBox="0 0 24 25" fill="none" xmlns="http://www.w3.org/2000/svg">
<g id="Frame" clip-path="url(#clip0_805_1853)">
<g id="Group">
<path id="Vector" d="M17.0625 2.21069C16.1133 2.2118 15.1744 2.40735 14.3037 2.7853C13.433 3.16324 12.649 3.71556 12 4.40819C11.0489 3.39311 9.8146 2.68738 8.45735 2.38264C7.1001 2.07789 5.68258 2.1882 4.38881 2.69924C3.09504 3.21028 1.98478 4.09844 1.20215 5.24844C0.419527 6.39844 0.000684862 7.75715 0 9.14819C0 16.0557 11.1412 22.8357 11.625 23.1019C11.7416 23.172 11.8752 23.209 12.0112 23.209C12.1473 23.209 12.2809 23.172 12.3975 23.1019C12.8588 22.8357 24 16.0557 24 9.14819C23.998 7.30886 23.2665 5.54544 21.9659 4.24483C20.6653 2.94423 18.9018 2.21268 17.0625 2.21069ZM12 21.5757C10.0612 20.3382 1.5 14.5557 1.5 9.14819C1.50096 7.99317 1.86969 6.86846 2.55276 5.93707C3.23582 5.00567 4.19772 4.31598 5.29906 3.96794C6.4004 3.61991 7.58395 3.63162 8.67819 4.00137C9.77243 4.37113 10.7205 5.07972 11.385 6.02444C11.4542 6.12271 11.5461 6.2029 11.6528 6.25825C11.7595 6.3136 11.8779 6.3425 11.9981 6.3425C12.1183 6.3425 12.2368 6.3136 12.3435 6.25825C12.4502 6.2029 12.542 6.12271 12.6112 6.02444C13.2752 5.07809 14.2235 4.36797 15.3184 3.99718C16.4134 3.62638 17.598 3.61421 18.7004 3.96243C19.8027 4.31065 20.7654 5.00113 21.4486 5.93364C22.1319 6.86616 22.5002 7.99216 22.5 9.14819C22.5 14.5519 13.9388 20.3344 12 21.5757Z" fill="black"/>
</g>
</g>
<defs>
<clipPath id="clip0_805_1853">
<rect width="24" height="24" fill="black" transform="translate(0 0.710693)"/>
</clipPath>
</defs>
</svg>
