<svg width="10" height="10" viewBox="0 0 10 10" fill="none" xmlns="http://www.w3.org/2000/svg">
<g id="Frame" clip-path="url(#clip0_1027_728)">
<g id="Group">
<path id="Vector" d="M9.2589 0.788276L9.21175 0.741108C8.22367 -0.247036 6.61585 -0.247036 5.62769 0.741108L3.93165 2.43712C3.67339 2.69539 3.4732 3.00789 3.34693 3.34816C3.01482 3.47091 2.70347 3.66531 2.43712 3.93166L0.741108 5.62767C-0.247036 6.61582 -0.247036 8.22365 0.741108 9.21173L0.788257 9.25888C1.28228 9.75296 1.93132 10 2.58029 10C3.22931 10 3.87828 9.75296 4.37236 9.25888L6.06837 7.56287C6.32656 7.30468 6.52683 6.9921 6.6531 6.65183C6.98521 6.52908 7.29664 6.33468 7.5629 6.06834L9.25892 4.37232C10.2471 3.38418 10.2471 1.77642 9.25892 0.788257L9.2589 0.788276ZM5.65507 7.14957L3.95906 8.84566C3.19886 9.60583 1.96183 9.60591 1.20158 8.84566L1.15441 8.79849C0.394155 8.03824 0.394155 6.80113 1.15441 6.04093L2.85042 4.34492C3.6107 3.58464 4.84765 3.58472 5.60792 4.34492L5.65507 4.39207C5.82285 4.55997 5.95872 4.75695 6.05607 4.97343C5.96504 5.00829 5.86837 5.02613 5.77089 5.02607C5.55802 5.02607 5.3579 4.94314 5.20738 4.79261C5.19799 4.78336 5.18797 4.77477 5.1774 4.76689C4.91998 4.52337 4.58498 4.38947 4.22915 4.38947C3.93335 4.38947 3.65191 4.48201 3.41738 4.65306C3.41669 4.65361 3.41601 4.65406 3.41523 4.65458C3.35747 4.69684 3.30303 4.74346 3.25242 4.79406L1.60349 6.443C1.34263 6.70386 1.1989 7.05078 1.1989 7.41972C1.1989 7.78867 1.34265 8.13558 1.60357 8.3965C1.86449 8.65744 2.21132 8.80109 2.58027 8.80109C2.94931 8.80109 3.29623 8.65744 3.55707 8.3965L5.20722 6.74634C5.39218 6.78828 5.58124 6.80944 5.77089 6.80943C5.82382 6.80943 5.87679 6.80761 5.92966 6.80433C5.85144 6.9294 5.75933 7.04521 5.65507 7.14957ZM6.52513 4.60195C6.40547 4.37219 6.25144 4.16205 6.06835 3.97878L6.02121 3.93164C5.83817 3.74832 5.62801 3.59426 5.39812 3.47486L6.85624 2.01681C7.00677 1.86628 7.20689 1.78335 7.41976 1.78335C7.63263 1.78335 7.83273 1.86628 7.98326 2.01673C8.29392 2.32748 8.29392 2.83308 7.98326 3.14375L6.52513 4.60195ZM3.47498 5.39808C3.59463 5.6278 3.74864 5.83791 3.93167 6.02117L3.97882 6.06832C4.16697 6.25646 4.37753 6.40867 4.60191 6.52509L3.14386 7.98322C2.99333 8.13375 2.79322 8.21662 2.58027 8.21662C2.36742 8.21662 2.1673 8.13367 2.01685 7.98322C1.86624 7.83269 1.78339 7.63257 1.78339 7.41972C1.78339 7.20687 1.86632 7.00673 2.01677 6.85621L3.47498 5.39808ZM8.84568 3.95902L7.14958 5.65511C6.63195 6.17269 5.89333 6.33779 5.23462 6.15048C5.2151 6.14223 5.19473 6.13612 5.17388 6.13226C4.88779 6.0407 4.61871 5.88171 4.3921 5.65511L4.34496 5.60789C4.17717 5.43999 4.0413 5.243 3.94396 5.02652C4.03499 4.99166 4.13166 4.97382 4.22914 4.97388C4.44201 4.97388 4.64212 5.05681 4.79265 5.20734C4.80201 5.21655 4.81197 5.22511 4.82247 5.23298C5.07998 5.4765 5.41505 5.61056 5.77089 5.61056C6.06667 5.61056 6.34812 5.518 6.58265 5.34689C6.6412 5.30426 6.69635 5.25715 6.74759 5.20597L8.39654 3.55703C8.93511 3.01847 8.93511 2.14216 8.39654 1.60351C8.13562 1.34259 7.78872 1.19894 7.41976 1.19894C7.0508 1.19894 6.70388 1.34259 6.44296 1.60353L4.79279 3.25371C4.55598 3.20012 4.31275 3.18057 4.07042 3.19564C4.14861 3.07058 4.2407 2.95476 4.34494 2.85041L6.04095 1.15439C6.80123 0.394136 8.03826 0.394136 8.79851 1.15439L8.84566 1.20156C9.60585 1.96173 9.60585 3.19876 8.84566 3.95904L8.84568 3.95902Z" fill="black"/>
</g>
</g>
<defs>
<clipPath id="clip0_1027_728">
<rect width="10" height="10" fill="white"/>
</clipPath>
</defs>
</svg>
