<svg width="20" height="20" viewBox="0 0 20 20" fill="#13484E" xmlns="http://www.w3.org/2000/svg">
<g id="Frame" clip-path="url(#clip0_972_689)">
<g id="Group">
<g id="Group_2">
<path id="Vector" d="M1 16.3333H2.66667V18.3333C2.6672 18.7752 2.84296 19.1988 3.15541 19.5113C3.46785 19.8237 3.89147 19.9995 4.33333 20H15.6667C16.1085 19.9995 16.5321 19.8237 16.8446 19.5113C17.157 19.1988 17.3328 18.7752 17.3333 18.3333V16.3333H19C19.2652 16.3333 19.5196 16.228 19.7071 16.0404C19.8946 15.8529 20 15.5985 20 15.3333V12C20 11.7348 19.8946 11.4804 19.7071 11.2929C19.5196 11.1054 19.2652 11 19 11H17.3333V9C17.3328 8.55814 17.157 8.13452 16.8446 7.82207C16.5321 7.50963 16.1085 7.33386 15.6667 7.33333V5.66667C15.6667 2.537 13.1297 0 10 0C6.87033 0 4.33333 2.537 4.33333 5.66667V7.33333C3.89147 7.33386 3.46785 7.50963 3.15541 7.82207C2.84296 8.13452 2.6672 8.55814 2.66667 9V11H1C0.734784 11 0.48043 11.1054 0.292893 11.2929C0.105357 11.4804 0 11.7348 0 12L0 15.3333C0 15.5985 0.105357 15.8529 0.292893 16.0404C0.48043 16.228 0.734784 16.3333 1 16.3333ZM16.6667 18.3333C16.6667 18.5986 16.5613 18.8529 16.3738 19.0404C16.1862 19.228 15.9319 19.3333 15.6667 19.3333H4.33333C4.06812 19.3333 3.81376 19.228 3.62623 19.0404C3.43869 18.8529 3.33333 18.5986 3.33333 18.3333V16.3333H16.6667V18.3333ZM5 5.66667C5 2.90533 7.23867 0.666667 10 0.666667C12.7613 0.666667 15 2.90533 15 5.66667V7.33333H13.6667V5.66667C13.6667 3.64167 12.025 2 10 2C7.975 2 6.33333 3.64167 6.33333 5.66667V7.33333H5V5.66667ZM7 7.33333V5.66667C7 4.87102 7.31607 4.10796 7.87868 3.54535C8.44129 2.98274 9.20435 2.66667 10 2.66667C10.7956 2.66667 11.5587 2.98274 12.1213 3.54535C12.6839 4.10796 13 4.87102 13 5.66667V7.33333H7ZM3.33333 9C3.33333 8.73478 3.43869 8.48043 3.62623 8.29289C3.81376 8.10536 4.06812 8 4.33333 8H15.6667C15.9319 8 16.1862 8.10536 16.3738 8.29289C16.5613 8.48043 16.6667 8.73478 16.6667 9V11H3.33333V9ZM0.666667 12C0.666667 11.9116 0.701786 11.8268 0.764298 11.7643C0.82681 11.7018 0.911595 11.6667 1 11.6667H19C19.0884 11.6667 19.1732 11.7018 19.2357 11.7643C19.2982 11.8268 19.3333 11.9116 19.3333 12V15.3333C19.3333 15.4217 19.2982 15.5065 19.2357 15.569C19.1732 15.6315 19.0884 15.6667 19 15.6667H1C0.911595 15.6667 0.82681 15.6315 0.764298 15.569C0.701786 15.5065 0.666667 15.4217 0.666667 15.3333V12Z" fill="#13484E"/>
<path id="Vector_2" d="M1.38907 14.5183C1.41336 14.5547 1.44458 14.586 1.48097 14.6104C1.51735 14.6347 1.55817 14.6517 1.60111 14.6602C1.64404 14.6688 1.68824 14.6688 1.73119 14.6603C1.77413 14.6518 1.81498 14.6349 1.8514 14.6106L2.33307 14.2893V14.6666C2.33307 14.755 2.36818 14.8398 2.4307 14.9023C2.49321 14.9648 2.57799 15 2.6664 15C2.7548 15 2.83959 14.9648 2.9021 14.9023C2.96461 14.8398 2.99973 14.755 2.99973 14.6666V14.2893L3.4814 14.6106C3.55495 14.6597 3.64498 14.6775 3.73169 14.6602C3.81839 14.6429 3.89467 14.5918 3.94373 14.5183C3.9928 14.4447 4.01063 14.3547 3.99332 14.268C3.976 14.1813 3.92495 14.105 3.8514 14.056L3.2664 13.6666L3.8504 13.2773C3.88682 13.253 3.9181 13.2218 3.94245 13.1854C3.9668 13.149 3.98374 13.1082 3.99232 13.0652C4.00089 13.0223 4.00093 12.9781 3.99242 12.9352C3.98391 12.8922 3.96703 12.8514 3.94273 12.815C3.91844 12.7785 3.88721 12.7473 3.85083 12.7229C3.81444 12.6986 3.77362 12.6816 3.73069 12.673C3.68776 12.6645 3.64356 12.6644 3.60061 12.6729C3.55767 12.6814 3.51682 12.6983 3.4804 12.7226L2.99973 13.044V12.6666C2.99973 12.5782 2.96461 12.4934 2.9021 12.4309C2.83959 12.3684 2.7548 12.3333 2.6664 12.3333C2.57799 12.3333 2.49321 12.3684 2.4307 12.4309C2.36818 12.4934 2.33307 12.5782 2.33307 12.6666V13.044L1.8514 12.7226C1.77785 12.6736 1.68781 12.6557 1.60111 12.673C1.5144 12.6904 1.43813 12.7414 1.38907 12.815C1.34 12.8885 1.32216 12.9785 1.33948 13.0652C1.3568 13.152 1.40785 13.2282 1.4814 13.2773L2.0664 13.6666L1.4814 14.056C1.44497 14.0803 1.41369 14.1115 1.38934 14.1479C1.36499 14.1842 1.34804 14.2251 1.33946 14.268C1.33089 14.3109 1.33086 14.3551 1.33937 14.3981C1.34788 14.441 1.36477 14.4819 1.38907 14.5183ZM5.05573 14.5183C5.08002 14.5547 5.11125 14.586 5.14763 14.6104C5.18402 14.6347 5.22484 14.6517 5.26777 14.6602C5.31071 14.6688 5.35491 14.6688 5.39785 14.6603C5.4408 14.6518 5.48165 14.6349 5.51807 14.6106L5.99973 14.2893V14.6666C5.99973 14.755 6.03485 14.8398 6.09736 14.9023C6.15988 14.9648 6.24466 15 6.33307 15C6.42147 15 6.50626 14.9648 6.56877 14.9023C6.63128 14.8398 6.6664 14.755 6.6664 14.6666V14.2893L7.14807 14.6106C7.22162 14.6597 7.31165 14.6775 7.39836 14.6602C7.48506 14.6429 7.56133 14.5918 7.6104 14.5183C7.65946 14.4447 7.6773 14.3547 7.65998 14.268C7.64267 14.1813 7.59162 14.105 7.51807 14.056L6.93307 13.6666L7.51707 13.2773C7.55349 13.253 7.58476 13.2218 7.60911 13.1854C7.63346 13.149 7.65041 13.1082 7.65898 13.0652C7.66756 13.0223 7.66759 12.9781 7.65909 12.9352C7.65058 12.8922 7.63369 12.8514 7.6094 12.815C7.5851 12.7785 7.55387 12.7473 7.51749 12.7229C7.48111 12.6986 7.44029 12.6816 7.39736 12.673C7.35442 12.6645 7.31022 12.6644 7.26728 12.6729C7.22433 12.6814 7.18349 12.6983 7.14707 12.7226L6.6664 13.044V12.6666C6.6664 12.5782 6.63128 12.4934 6.56877 12.4309C6.50626 12.3684 6.42147 12.3333 6.33307 12.3333C6.24466 12.3333 6.15988 12.3684 6.09736 12.4309C6.03485 12.4934 5.99973 12.5782 5.99973 12.6666V13.044L5.51807 12.7226C5.44451 12.6736 5.35448 12.6557 5.26778 12.673C5.18107 12.6904 5.1048 12.7414 5.05573 12.815C5.00667 12.8885 4.98883 12.9785 5.00615 13.0652C5.02346 13.152 5.07451 13.2282 5.14807 13.2773L5.73307 13.6666L5.14907 14.056C5.11256 14.0802 5.08119 14.1113 5.05674 14.1477C5.03229 14.184 5.01524 14.2248 5.00657 14.2678C4.99791 14.3107 4.99779 14.3549 5.00622 14.3979C5.01466 14.4409 5.03148 14.4818 5.05573 14.5183ZM12.3891 14.5183C12.4134 14.5547 12.4446 14.586 12.481 14.6104C12.5173 14.6347 12.5582 14.6517 12.6011 14.6602C12.644 14.6688 12.6882 14.6688 12.7312 14.6603C12.7741 14.6518 12.815 14.6349 12.8514 14.6106L13.3331 14.2893V14.6666C13.3331 14.755 13.3682 14.8398 13.4307 14.9023C13.4932 14.9648 13.578 15 13.6664 15C13.7548 15 13.8396 14.9648 13.9021 14.9023C13.9646 14.8398 13.9997 14.755 13.9997 14.6666V14.2893L14.4814 14.6106C14.555 14.6597 14.645 14.6775 14.7317 14.6602C14.8184 14.6429 14.8947 14.5918 14.9437 14.5183C14.9928 14.4447 15.0106 14.3547 14.9933 14.268C14.976 14.1813 14.925 14.105 14.8514 14.056L14.2664 13.6666L14.8504 13.2773C14.8868 13.253 14.9181 13.2218 14.9424 13.1854C14.9668 13.149 14.9837 13.1082 14.9923 13.0652C15.0009 13.0223 15.0009 12.9781 14.9924 12.9352C14.9839 12.8922 14.967 12.8514 14.9427 12.815C14.9184 12.7785 14.8872 12.7473 14.8508 12.7229C14.8144 12.6986 14.7736 12.6816 14.7307 12.673C14.6878 12.6645 14.6436 12.6644 14.6006 12.6729C14.5577 12.6814 14.5168 12.6983 14.4804 12.7226L13.9997 13.044V12.6666C13.9997 12.5782 13.9646 12.4934 13.9021 12.4309C13.8396 12.3684 13.7548 12.3333 13.6664 12.3333C13.578 12.3333 13.4932 12.3684 13.4307 12.4309C13.3682 12.4934 13.3331 12.5782 13.3331 12.6666V13.044L12.8514 12.7226C12.7778 12.6736 12.6878 12.6557 12.6011 12.673C12.5144 12.6904 12.4381 12.7414 12.3891 12.815C12.34 12.8885 12.3222 12.9785 12.3395 13.0652C12.3568 13.152 12.4078 13.2282 12.4814 13.2773L13.0664 13.6666L12.4824 14.056C12.4459 14.0802 12.4145 14.1113 12.3901 14.1477C12.3656 14.184 12.3486 14.2248 12.3399 14.2678C12.3312 14.3107 12.3311 14.3549 12.3396 14.3979C12.348 14.4409 12.3648 14.4818 12.3891 14.5183ZM8.7224 14.5183C8.74669 14.5547 8.77792 14.586 8.8143 14.6104C8.85068 14.6347 8.89151 14.6517 8.93444 14.6602C8.97737 14.6688 9.02157 14.6688 9.06452 14.6603C9.10747 14.6518 9.14831 14.6349 9.18473 14.6106L9.6664 14.2893V14.6666C9.6664 14.755 9.70152 14.8398 9.76403 14.9023C9.82654 14.9648 9.91133 15 9.99973 15C10.0881 15 10.1729 14.9648 10.2354 14.9023C10.2979 14.8398 10.3331 14.755 10.3331 14.6666V14.2893L10.8147 14.6106C10.8883 14.6597 10.9783 14.6775 11.065 14.6602C11.1517 14.6429 11.228 14.5918 11.2771 14.5183C11.3261 14.4447 11.344 14.3547 11.3267 14.268C11.3093 14.1813 11.2583 14.105 11.1847 14.056L10.5997 13.6666L11.1837 13.2773C11.2202 13.253 11.2514 13.2218 11.2758 13.1854C11.3001 13.149 11.3171 13.1082 11.3257 13.0652C11.3342 13.0223 11.3343 12.9781 11.3258 12.9352C11.3172 12.8922 11.3004 12.8514 11.2761 12.815C11.2518 12.7785 11.2205 12.7473 11.1842 12.7229C11.1478 12.6986 11.107 12.6816 11.064 12.673C11.0211 12.6645 10.9769 12.6644 10.9339 12.6729C10.891 12.6814 10.8502 12.6983 10.8137 12.7226L10.3331 13.044V12.6666C10.3331 12.5782 10.2979 12.4934 10.2354 12.4309C10.1729 12.3684 10.0881 12.3333 9.99973 12.3333C9.91133 12.3333 9.82654 12.3684 9.76403 12.4309C9.70152 12.4934 9.6664 12.5782 9.6664 12.6666V13.044L9.18473 12.7226C9.11118 12.6736 9.02115 12.6557 8.93444 12.673C8.84774 12.6904 8.77146 12.7414 8.7224 12.815C8.67333 12.8885 8.6555 12.9785 8.67281 13.0652C8.69013 13.152 8.74118 13.2282 8.81473 13.2773L9.39973 13.6666L8.81573 14.056C8.77923 14.0802 8.74785 14.1113 8.7234 14.1477C8.69895 14.184 8.68191 14.2248 8.67324 14.2678C8.66457 14.3107 8.66445 14.3549 8.67289 14.3979C8.68132 14.4409 8.69815 14.4818 8.7224 14.5183ZM5.33307 8.66663H4.33307C4.24466 8.66663 4.15988 8.70174 4.09736 8.76426C4.03485 8.82677 3.99973 8.91155 3.99973 8.99996V9.99996C3.99973 10.0884 4.03485 10.1731 4.09736 10.2357C4.15988 10.2982 4.24466 10.3333 4.33307 10.3333C4.42147 10.3333 4.50626 10.2982 4.56877 10.2357C4.63128 10.1731 4.6664 10.0884 4.6664 9.99996V9.33329H5.33307C5.42147 9.33329 5.50626 9.29817 5.56877 9.23566C5.63128 9.17315 5.6664 9.08836 5.6664 8.99996C5.6664 8.91155 5.63128 8.82677 5.56877 8.76426C5.50626 8.70174 5.42147 8.66663 5.33307 8.66663ZM16.3331 15H18.3331C18.4215 15 18.5063 14.9648 18.5688 14.9023C18.6313 14.8398 18.6664 14.755 18.6664 14.6666C18.6664 14.5782 18.6313 14.4934 18.5688 14.4309C18.5063 14.3684 18.4215 14.3333 18.3331 14.3333H16.3331C16.2447 14.3333 16.1599 14.3684 16.0974 14.4309C16.0349 14.4934 15.9997 14.5782 15.9997 14.6666C15.9997 14.755 16.0349 14.8398 16.0974 14.9023C16.1599 14.9648 16.2447 15 16.3331 15Z" fill="#13484E"/>
</g>
</g>
</g>
<defs>
<clipPath id="clip0_972_689">
<rect width="20" height="20" fill="#13484E"/>
</clipPath>
</defs>
</svg>
