<svg width="20" height="20" viewBox="0 0 20 20" fill="none" xmlns="http://www.w3.org/2000/svg">
<g id="Frame" clip-path="url(#clip0_1775_2765)">
<g id="Group">
<path id="Vector" d="M3.54534 7.12119C3.69685 7.1818 3.87867 7.09089 3.93928 6.93938L4.42412 5.69695H6.1514L6.63625 6.93938C6.69685 7.09089 6.87867 7.1818 7.03019 7.12119C7.1817 7.06059 7.27261 6.87877 7.212 6.72725L5.54534 2.54543C5.51503 2.42422 5.39382 2.36362 5.27261 2.36362C5.1514 2.36362 5.03018 2.45453 4.99988 2.54543C4.39382 4.1515 3.96958 5.1818 3.36352 6.75756C3.30291 6.87877 3.39382 7.06059 3.54534 7.12119ZM5.27261 3.48483L5.90897 5.12119H4.66655L5.27261 3.48483ZM2.42412 11.1818H10.4847C10.6665 11.1818 10.7878 11.0606 10.7878 10.8788C10.7878 10.697 10.6665 10.5757 10.4847 10.5757H2.42412C2.24231 10.5757 2.12109 10.697 2.12109 10.8788C2.12109 11.0606 2.24231 11.1818 2.42412 11.1818ZM2.42412 13.4242H8.72715C8.90897 13.4242 9.03018 13.303 9.03018 13.1212C9.03018 12.9394 8.90897 12.8182 8.72715 12.8182H2.42412C2.24231 12.8182 2.12109 12.9394 2.12109 13.1212C2.12109 13.303 2.24231 13.4242 2.42412 13.4242ZM2.42412 8.96968H12.212C12.3938 8.96968 12.515 8.84847 12.515 8.66665C12.515 8.48483 12.3938 8.36362 12.212 8.36362H2.42412C2.24231 8.36362 2.12109 8.48483 2.12109 8.66665C2.12109 8.84847 2.24231 8.96968 2.42412 8.96968ZM2.12109 17.5757C2.12109 17.7576 2.24231 17.8788 2.42412 17.8788H12.212C12.3938 17.8788 12.515 17.7576 12.515 17.5757C12.515 17.3939 12.3938 17.2727 12.212 17.2727H2.42412C2.24231 17.2727 2.12109 17.3939 2.12109 17.5757Z" fill="#13484E"/>
<path id="Vector_2" d="M19.4239 5.87877L18.7573 5.2121C18.3936 4.84846 17.7876 4.84846 17.4239 5.2121L14.333 8.30301V4.69695C14.333 4.60604 14.3027 4.54543 14.2421 4.48483L10.1512 0.393918C10.0906 0.333312 10.03 0.303009 9.9391 0.303009H1.21183C0.696674 0.303009 0.302734 0.696948 0.302734 1.2121V18.7879C0.302734 19.303 0.696674 19.6969 1.21183 19.6969H13.4239C13.9391 19.6969 14.333 19.303 14.333 18.7879V12.303L19.4239 7.2121C19.6058 7.03028 19.6967 6.78786 19.6967 6.54543C19.6967 6.30301 19.6058 6.06058 19.4239 5.87877ZM11.9694 13.8182L10.8179 12.6666L16.6967 6.78786L17.8482 7.93937L11.9694 13.8182ZM10.4846 13.1818L11.4239 14.1212L9.81789 14.7879L10.4846 13.1818ZM10.2421 1.33331L13.2724 4.36361H10.5452C10.3633 4.36361 10.2421 4.2424 10.2421 4.06058V1.33331ZM13.727 18.7879C13.727 18.9394 13.6058 19.0909 13.4239 19.0909H1.21183C1.06031 19.0909 0.908795 18.9697 0.908795 18.7879V1.2121C0.908795 1.06058 1.03001 0.90907 1.21183 0.90907H9.63607V4.06058C9.63607 4.57574 10.03 4.96968 10.5452 4.96968H13.6967V8.87877C10.0906 12.5151 10.1209 12.4242 10.0906 12.5151L9.09061 15.0303H2.42395C2.24213 15.0303 2.12092 15.1515 2.12092 15.3333C2.12092 15.5151 2.24213 15.6363 2.42395 15.6363C9.69667 15.6363 9.30273 15.6666 9.39364 15.606L12.0603 14.5151C12.1815 14.4545 12.2724 14.3333 13.6967 12.9091V18.7879H13.727ZM18.9997 6.78786L18.2724 7.51513L17.1209 6.36361L17.8482 5.63634C17.9694 5.51513 18.2118 5.51513 18.333 5.63634L18.9997 6.30301C19.0603 6.36361 19.0906 6.45452 19.0906 6.54543C19.0906 6.63634 19.0603 6.72725 18.9997 6.78786Z" fill="#13484E"/>
</g>
</g>
<defs>
<clipPath id="clip0_1775_2765">
<rect width="20" height="20" fill="white"/>
</clipPath>
</defs>
</svg>
