<svg width="22" height="6" viewBox="0 0 22 6" fill="none" xmlns="http://www.w3.org/2000/svg">
<g id="Group 1000009286">
<path id="&#239;&#133;&#129;" d="M12.9959 2.67829C12.9959 2.04916 12.7539 1.51682 12.3184 1.03287C11.8344 0.59732 11.3021 0.355347 10.673 0.355347C9.99544 0.355347 9.4631 0.59732 9.02755 1.03287C8.5436 1.51682 8.35003 2.04916 8.35003 2.67829C8.35003 3.35581 8.5436 3.88816 9.02755 4.32371C9.4631 4.80765 9.99544 5.00123 10.673 5.00123C11.3021 5.00123 11.8344 4.80765 12.3184 4.32371C12.7539 3.88816 12.9959 3.35581 12.9959 2.67829ZM18.8033 0.355347C19.4324 0.355347 19.9647 0.59732 20.4487 1.03287C20.8842 1.51682 21.1262 2.04916 21.1262 2.67829C21.1262 3.35581 20.8842 3.88816 20.4487 4.32371C19.9647 4.80765 19.4324 5.00123 18.8033 5.00123C18.1257 5.00123 17.5934 4.80765 17.1579 4.32371C16.6739 3.88816 16.4803 3.35581 16.4803 2.67829C16.4803 2.04916 16.6739 1.51682 17.1579 1.03287C17.5934 0.59732 18.1257 0.355347 18.8033 0.355347ZM2.54267 0.355347C3.1718 0.355347 3.70414 0.59732 4.18809 1.03287C4.62364 1.51682 4.86561 2.04916 4.86561 2.67829C4.86561 3.35581 4.62364 3.88816 4.18809 4.32371C3.70414 4.80765 3.1718 5.00123 2.54267 5.00123C1.86514 5.00123 1.3328 4.80765 0.897251 4.32371C0.413305 3.88816 0.219727 3.35581 0.219727 2.67829C0.219727 2.04916 0.413305 1.51682 0.897251 1.03287C1.3328 0.59732 1.86514 0.355347 2.54267 0.355347Z" fill="#13484E"/>
</g>
</svg>


