<svg width="20" height="20" viewBox="0 0 20 20" fill="none" xmlns="http://www.w3.org/2000/svg">
<g id="Frame" clip-path="url(#clip0_972_702)">
<g id="Group">
<path id="Vector" d="M5.7832 9.24695H7.46125C7.62309 9.24695 7.75422 9.11578 7.75422 8.95398C7.75422 8.79218 7.62309 8.66101 7.46125 8.66101H5.7832C5.62137 8.66101 5.49023 8.79218 5.49023 8.95398C5.49023 9.11578 5.62137 9.24695 5.7832 9.24695ZM5.7832 10.6668H12.5984C12.7603 10.6668 12.8914 10.5356 12.8914 10.3738C12.8914 10.212 12.7603 10.0809 12.5984 10.0809H5.7832C5.62137 10.0809 5.49023 10.212 5.49023 10.3738C5.49023 10.5356 5.62137 10.6668 5.7832 10.6668ZM12.5984 11.5007H10.7816C10.6197 11.5007 10.4886 11.6318 10.4886 11.7936C10.4886 11.9554 10.6197 12.0866 10.7816 12.0866H12.5984C12.6761 12.0866 12.7507 12.0557 12.8056 12.0008C12.8605 11.9458 12.8914 11.8713 12.8914 11.7936C12.8914 11.7159 12.8605 11.6414 12.8056 11.5865C12.7507 11.5315 12.6761 11.5007 12.5984 11.5007Z" fill="#13484E"/>
<path id="Vector_2" d="M19.1749 1.96694L15.3828 0.0717489C15.2878 0.0245579 15.1832 0 15.0772 0C14.9711 0 14.8665 0.0245579 14.7716 0.0717489L10.9794 1.96694H10.9793C10.7462 2.08347 10.6014 2.31776 10.6014 2.57843V3.12362H6.48445C6.32262 3.12362 6.19148 3.2548 6.19148 3.41659C6.19148 3.57839 6.32262 3.70956 6.48445 3.70956H10.6014V4.60054C10.6014 5.02788 10.6334 5.43413 10.6975 5.82132H5.78297C5.62113 5.82132 5.49 5.95249 5.49 6.11429C5.49 6.27608 5.62113 6.40726 5.78297 6.40726H10.8229C10.8984 6.6923 10.9958 6.9711 11.1141 7.24116H5.78297C5.62113 7.24116 5.49 7.37233 5.49 7.53413C5.49 7.69593 5.62113 7.8271 5.78297 7.8271H11.4137C11.5173 8.00319 11.6303 8.17364 11.7521 8.33773C11.8341 8.44826 11.9197 8.55608 12.0088 8.66101H8.63289C8.47106 8.66101 8.33992 8.79218 8.33992 8.95398C8.33992 9.11577 8.47106 9.24694 8.63289 9.24694H12.5677C13.1201 9.76675 13.8182 10.2785 14.7196 10.8301C14.8299 10.8976 14.9535 10.9313 15.0771 10.9313C15.2007 10.9313 15.3243 10.8976 15.4346 10.8301C15.4646 10.8118 15.4939 10.7936 15.5234 10.7754V17.89H7.8582V17.3437C7.8582 17.1819 7.72707 17.0508 7.56523 17.0508C7.4034 17.0508 7.27227 17.1819 7.27227 17.3437V19.3164C7.27227 19.3702 7.22848 19.4141 7.17461 19.4141H1.13086C1.10497 19.414 1.08015 19.4037 1.06184 19.3854C1.04353 19.3671 1.03323 19.3423 1.0332 19.3164V15.0966C1.0332 15.0428 1.07699 14.9989 1.13086 14.9989H7.17461C7.22848 14.9989 7.27227 15.0428 7.27227 15.0966V15.9766C7.27227 16.1384 7.4034 16.2695 7.56523 16.2695C7.72707 16.2695 7.8582 16.1384 7.8582 15.9766V15.0966C7.8582 15.0377 7.84992 14.9809 7.83586 14.9263H12.5982C12.76 14.9263 12.8912 14.7951 12.8912 14.6334C12.8912 14.4716 12.76 14.3404 12.5982 14.3404H6.9168V13.5065H12.5982C12.76 13.5065 12.8911 13.3753 12.8911 13.2135C12.8911 13.0517 12.76 12.9205 12.5982 12.9205H6.90453C6.8782 12.6331 6.80667 12.3517 6.69258 12.0866H9.72664C9.88848 12.0866 10.0196 11.9555 10.0196 11.7937C10.0196 11.6319 9.88848 11.5007 9.72664 11.5007H6.34902C5.84352 10.8396 5.04727 10.4121 4.15273 10.4121C3.68496 10.4121 3.24422 10.5293 2.85762 10.7353V3.70956H5.11727C5.2791 3.70956 5.41023 3.57839 5.41023 3.41659C5.41023 3.2548 5.2791 3.12362 5.11727 3.12362H2.75996C2.4907 3.12362 2.27168 3.34265 2.27168 3.61191V11.1535C1.72898 11.6585 1.38867 12.3782 1.38867 13.1762V14.413H1.13086C0.753945 14.413 0.447266 14.7196 0.447266 15.0966V19.3164C0.447266 19.6933 0.753945 20 1.13086 20H7.17461C7.55152 20 7.8582 19.6933 7.8582 19.3164V18.4759H15.6211C15.8904 18.4759 16.1094 18.2569 16.1094 17.9876V10.399C17.1522 9.70116 17.8742 9.04976 18.4022 8.33773C19.1764 7.29358 19.5529 6.07112 19.5529 4.60058V2.57843C19.5529 2.3178 19.408 2.08351 19.1749 1.96694ZM5.15902 14.413H3.14648V13.1762C3.14648 12.6214 3.59793 12.17 4.15277 12.17C4.70762 12.17 5.15906 12.6214 5.15906 13.1762V14.413H5.15902ZM1.97461 13.1762C1.97461 11.9752 2.95176 10.9981 4.15277 10.9981C5.35379 10.9981 6.3309 11.9752 6.3309 13.1762V14.413H5.745V13.1762C5.745 12.2983 5.03074 11.584 4.15277 11.584C3.2748 11.584 2.56055 12.2983 2.56055 13.1762V14.413H1.97461V13.1762ZM18.967 4.60058C18.967 7.41605 17.4984 8.88034 15.1288 10.3303C15.1132 10.3398 15.0954 10.3448 15.0771 10.3448C15.0589 10.3448 15.0411 10.3398 15.0255 10.3303C12.6559 8.8803 11.1873 7.41605 11.1873 4.60058V2.57843C11.1873 2.54116 11.208 2.50769 11.2413 2.49105L15.0335 0.595811C15.047 0.589067 15.062 0.585558 15.0771 0.585558C15.0923 0.585558 15.1072 0.589067 15.1208 0.595811L18.9129 2.49101C18.9292 2.49906 18.9429 2.51152 18.9524 2.52697C18.962 2.54242 18.967 2.56023 18.9669 2.57839V4.60058H18.967Z" fill="#13484E"/>
<path id="Vector_3" d="M15.0594 2.03638C13.4246 2.03638 12.0947 3.36634 12.0947 5.00106C12.0947 6.63579 13.4247 7.96575 15.0594 7.96575C16.3101 7.96575 17.4325 7.17435 17.8523 5.99642C17.8784 5.92323 17.8743 5.84267 17.841 5.77247C17.8077 5.70227 17.7479 5.64817 17.6747 5.62208C17.6015 5.59599 17.521 5.60004 17.4508 5.63334C17.3806 5.66664 17.3265 5.72647 17.3004 5.79966C16.9635 6.74478 16.0629 7.37978 15.0594 7.37978C13.7478 7.37978 12.6807 6.31267 12.6807 5.00102C12.6807 3.68938 13.7478 2.62228 15.0594 2.62228C16.2143 2.62228 17.1989 3.44653 17.4006 4.58212C17.4289 4.74142 17.5811 4.84778 17.7403 4.81935C17.7782 4.81262 17.8144 4.7985 17.8468 4.77778C17.8792 4.75707 17.9072 4.73018 17.9293 4.69863C17.9513 4.66709 17.9669 4.63152 17.9752 4.59395C17.9835 4.55637 17.9843 4.51754 17.9775 4.47966C17.7261 3.06392 16.4988 2.03638 15.0594 2.03638Z" fill="#13484E"/>
<path id="Vector_4" d="M16.0757 4.19928L14.9213 5.35361L14.2501 4.68236C14.2229 4.65516 14.1906 4.63357 14.1551 4.61885C14.1195 4.60412 14.0814 4.59655 14.043 4.59655C14.0045 4.59655 13.9664 4.60412 13.9308 4.61885C13.8953 4.63357 13.863 4.65516 13.8358 4.68236C13.7809 4.7373 13.75 4.81182 13.75 4.88951C13.75 4.96721 13.7809 5.04172 13.8358 5.09666L14.7142 5.97506C14.7414 6.00227 14.7737 6.02386 14.8092 6.03859C14.8448 6.05331 14.8829 6.06089 14.9213 6.06089C14.9598 6.06089 14.9979 6.05331 15.0335 6.03859C15.069 6.02386 15.1013 6.00227 15.1285 5.97506L16.49 4.61357C16.5174 4.58641 16.5392 4.5541 16.5541 4.51851C16.5689 4.48291 16.5766 4.44473 16.5767 4.40615C16.5768 4.36756 16.5693 4.32935 16.5545 4.29369C16.5398 4.25803 16.5182 4.22563 16.4909 4.19835C16.4636 4.17107 16.4312 4.14945 16.3956 4.13472C16.3599 4.12 16.3217 4.11246 16.2831 4.11255C16.2445 4.11264 16.2063 4.12034 16.1707 4.13522C16.1351 4.15011 16.1028 4.17187 16.0757 4.19928Z" fill="#13484E"/>
</g>
</g>
<defs>
<clipPath id="clip0_972_702">
<rect width="20" height="20" fill="#13484E"/>
</clipPath>
</defs>
</svg>
