<svg width="16" height="16" viewBox="0 0 16 16" fill="none" xmlns="http://www.w3.org/2000/svg">
<g id="Frame" clip-path="url(#clip0_1557_1990)">
<g id="Group">
<path id="Vector" d="M6.4395 12.8738C7.86959 12.8738 9.25881 12.3967 10.387 11.5179L14.6436 15.7744C14.9615 16.0815 15.4682 16.0727 15.7753 15.7547C16.0749 15.4445 16.0749 14.9528 15.7753 14.6427L11.5188 10.3861C13.6994 7.57912 13.1916 3.53585 10.3846 1.35525C7.57756 -0.825358 3.53433 -0.317571 1.35372 2.48946C-0.826884 5.29648 -0.319097 9.33975 2.48793 11.5204C3.61802 12.3983 5.00847 12.8745 6.4395 12.8738ZM3.01943 3.0185C4.9083 1.12959 7.97077 1.12956 9.85967 3.01843C11.7486 4.9073 11.7486 7.96976 9.85974 9.85866C7.97087 11.7476 4.90841 11.7476 3.0195 9.85874L3.01943 9.85866C1.13056 7.98356 1.11943 4.93226 2.99454 3.04339L3.01943 3.0185Z" fill="#979696"/>
</g>
</g>
<defs>
<clipPath id="clip0_1557_1990">
<rect width="16" height="16" fill="white"/>
</clipPath>
</defs>
</svg>
