<svg width="24" height="25" viewBox="0 0 24 25" fill="none" xmlns="http://www.w3.org/2000/svg">
<g id="Frame">
<g id="Group">
<path id="Vector" d="M1.5 22.4607C1.44281 22.4607 1.38506 22.4542 1.32787 22.441C1.16346 22.402 1.01699 22.3087 0.912135 22.1762C0.80728 22.0437 0.750159 21.8797 0.75 21.7107C0.75 14.8955 1.61212 9.22735 12 8.96954V3.71073C12 3.56491 12.0425 3.42226 12.1224 3.30024C12.2022 3.17821 12.3159 3.0821 12.4495 3.02367C12.5831 2.96524 12.7308 2.94701 12.8746 2.97123C13.0184 2.99545 13.152 3.06107 13.2591 3.16004L23.0091 12.16C23.1628 12.3012 23.25 12.5013 23.25 12.7107C23.25 12.9202 23.1628 13.1202 23.0091 13.2616L13.2591 22.2616C13.1521 22.361 13.0184 22.4268 12.8745 22.451C12.7305 22.4753 12.5826 22.4568 12.4491 22.3979C12.3155 22.3394 12.202 22.2432 12.1222 22.1212C12.0425 21.9991 12 21.8565 12 21.7107V16.4695C4.87425 16.6402 3.5595 19.2689 2.17088 22.0462C2.10861 22.1708 2.01286 22.2756 1.89436 22.3488C1.77586 22.422 1.6393 22.4608 1.5 22.4607ZM12.75 14.9607C13.1646 14.9607 13.5 15.2962 13.5 15.7107V19.9975L21.3941 12.7107L13.5 5.42391V9.71073C13.5 10.1253 13.1646 10.4607 12.75 10.4607C4.46475 10.4607 2.68069 13.6651 2.32987 18.7833C3.88331 16.6966 6.531 14.9607 12.75 14.9607Z" fill="black"/>
</g>
</g>
</svg>
