<svg width="20" height="20" viewBox="0 0 20 20" fill="#13484E" xmlns="http://www.w3.org/2000/svg">
<g id="Frame">
<g id="Group">
<path id="Vector" fill-rule="evenodd" clip-rule="evenodd" d="M1.8137 16.0204C4.77659 16.0218 7.73837 16.0218 10.7026 16.0204C10.7675 16.5668 11.0397 17.0674 11.463 17.4189H3.35992C2.54036 17.4189 1.94903 16.7982 1.8137 16.0204ZM16.6448 2.58866C17.4644 2.58866 18.0568 3.20911 18.1921 3.98688H15.015C15.0731 3.59676 15.2698 3.24065 15.5692 2.98383C15.8685 2.72702 16.2504 2.58672 16.6448 2.58866ZM5.64725 2.58866H15.2617C14.7964 2.97888 14.4921 3.56199 14.4921 4.21377L14.4908 15.7682C14.4919 15.9846 14.4503 16.1991 14.3682 16.3993C14.2862 16.5995 14.1654 16.7816 14.0127 16.935C13.8601 17.0884 13.6787 17.2101 13.4788 17.2931C13.279 17.3762 13.0648 17.4189 12.8484 17.4189H12.8401C12.4051 17.4208 11.9871 17.25 11.6779 16.944C11.3687 16.638 11.1935 16.2219 11.1908 15.7869C11.2004 15.6536 11.117 15.5136 10.9373 15.5173H3.9977V4.23955C3.99637 4.02249 4.03812 3.80733 4.12054 3.60652C4.20295 3.40572 4.32438 3.22326 4.4778 3.06971C4.63123 2.91616 4.81359 2.79458 5.01433 2.71201C5.21507 2.62944 5.4302 2.58751 5.64725 2.58866ZM5.64725 2.08533C4.45836 2.08533 3.49325 3.05066 3.49325 4.23933V15.5171H1.45703C1.28348 15.5171 1.20703 15.65 1.20703 15.768C1.20703 16.9569 2.17125 17.922 3.35992 17.922H12.8404C14.1646 17.922 14.9633 16.7878 14.9944 15.768V4.49022H18.5477C18.6866 4.49022 18.7999 4.37799 18.7999 4.23933C18.7999 3.05044 17.8346 2.08533 16.645 2.08533H5.64725Z" fill="#13484E"/>
<path id="Vector_2" d="M16.7199 7.50064H17.4434L17.4548 16.5971L17.0996 17.0738L16.7316 16.5864L16.7199 7.50064ZM16.4434 6.99753C16.3813 7.00355 16.3236 7.0325 16.2817 7.07871C16.2397 7.12493 16.2165 7.18512 16.2165 7.24753L16.2283 16.6715C16.2283 16.7253 16.2456 16.7786 16.2792 16.8226L16.8972 17.6446C16.9207 17.6761 16.9512 17.7016 16.9864 17.7191C17.0215 17.7367 17.0603 17.7457 17.0995 17.7456C17.1388 17.7455 17.1775 17.7362 17.2125 17.7184C17.2475 17.7006 17.2779 17.6749 17.3012 17.6433L17.9096 16.83C17.9421 16.7858 17.9596 16.734 17.9583 16.6793L17.947 7.24753C17.947 7.10864 17.8332 6.9962 17.6943 6.99753H16.4676C16.4596 6.9962 16.4514 6.9962 16.4434 6.99753ZM16.515 6.08531C16.1794 6.08531 16.2048 6.58864 16.5414 6.58864H17.6343C17.9823 6.58864 17.9823 6.08531 17.6343 6.08531H16.515ZM6.34586 5.73242C5.78564 5.73242 5.3252 6.18976 5.3252 6.74976V8.27198C5.3252 8.83109 5.78564 9.28687 6.34586 9.28687H7.83231C8.39231 9.28687 8.85408 8.83087 8.85408 8.27198V7.85976C8.85408 7.52331 8.34964 7.52331 8.34964 7.85976V8.27198C8.34964 8.55909 8.12342 8.78376 7.83231 8.78376H6.34586C6.05431 8.78376 5.82986 8.55909 5.82986 8.27198V6.74976C5.82986 6.46176 6.05453 6.23709 6.34586 6.23709H7.73742C8.07431 6.23709 8.07431 5.73242 7.73742 5.73242H6.34586Z" fill="#13484E"/>
<path id="Vector_3" d="M9.00564 5.94064C8.93992 5.94197 8.87732 5.96893 8.8312 6.01576L7.22231 7.61887L6.71875 7.11864C6.69539 7.09524 6.66765 7.07667 6.63711 7.06398C6.60657 7.0513 6.57383 7.04476 6.54076 7.04472C6.5077 7.04469 6.47495 7.05118 6.44438 7.0638C6.41382 7.07643 6.38604 7.09495 6.36264 7.11831C6.33924 7.14167 6.32066 7.16941 6.30798 7.19995C6.29529 7.23049 6.28875 7.26323 6.28872 7.2963C6.28869 7.32937 6.29517 7.36212 6.3078 7.39268C6.32042 7.42324 6.33895 7.45102 6.36231 7.47442L7.04497 8.15376C7.09211 8.20041 7.15576 8.22658 7.22208 8.22658C7.28841 8.22658 7.35205 8.20041 7.3992 8.15376L9.18742 6.37242C9.34986 6.21153 9.23253 5.93598 9.00564 5.94064ZM9.87964 8.78353C9.8455 8.78178 9.81136 8.78698 9.7793 8.79884C9.74723 8.81069 9.71792 8.82894 9.69313 8.85249C9.66835 8.87603 9.64861 8.90437 9.63512 8.93578C9.62164 8.96719 9.61468 9.00102 9.61468 9.0352C9.61468 9.06938 9.62164 9.10321 9.63512 9.13462C9.64861 9.16603 9.66835 9.19437 9.69313 9.21791C9.71792 9.24146 9.74723 9.25971 9.7793 9.27156C9.81136 9.28342 9.8455 9.28862 9.87964 9.28687H12.9061C12.9402 9.28862 12.9744 9.28342 13.0064 9.27156C13.0385 9.25971 13.0678 9.24146 13.0926 9.21791C13.1174 9.19437 13.1371 9.16603 13.1506 9.13462C13.1641 9.10321 13.171 9.06938 13.171 9.0352C13.171 9.00102 13.1641 8.96719 13.1506 8.93578C13.1371 8.90437 13.1174 8.87603 13.0926 8.85249C13.0678 8.82894 13.0385 8.81069 13.0064 8.79884C12.9744 8.78698 12.9402 8.78178 12.9061 8.78353H9.87964ZM10.7672 5.73242C10.7002 5.73236 10.6358 5.75887 10.5883 5.80615C10.5408 5.85343 10.5139 5.91761 10.5136 5.98464C10.5136 6.12487 10.6274 6.23709 10.7672 6.23709H12.9061C13.243 6.23709 13.243 5.73242 12.9061 5.73242H10.7672ZM9.87964 7.76598C9.84569 7.76455 9.81179 7.77001 9.78 7.78202C9.74821 7.79403 9.71918 7.81234 9.69465 7.83586C9.67012 7.85938 9.6506 7.88762 9.63727 7.91888C9.62393 7.95014 9.61706 7.98377 9.61706 8.01776C9.61706 8.05174 9.62393 8.08537 9.63727 8.11663C9.6506 8.14789 9.67012 8.17613 9.69465 8.19965C9.71918 8.22317 9.74821 8.24148 9.78 8.25349C9.81179 8.2655 9.84569 8.27096 9.87964 8.26953H12.9061C12.94 8.27096 12.9739 8.2655 13.0057 8.25349C13.0375 8.24148 13.0665 8.22317 13.0911 8.19965C13.1156 8.17613 13.1351 8.14789 13.1485 8.11663C13.1618 8.08537 13.1687 8.05174 13.1687 8.01776C13.1687 7.98377 13.1618 7.95014 13.1485 7.91888C13.1351 7.88762 13.1156 7.85938 13.0911 7.83586C13.0665 7.81234 13.0375 7.79403 13.0057 7.78202C12.9739 7.77001 12.94 7.76455 12.9061 7.76598H9.87964ZM9.87964 6.74976C9.84569 6.74833 9.81179 6.75378 9.78 6.76579C9.74821 6.7778 9.71918 6.79612 9.69465 6.81964C9.67012 6.84316 9.6506 6.8714 9.63727 6.90266C9.62393 6.93392 9.61706 6.96755 9.61706 7.00153C9.61706 7.03552 9.62393 7.06915 9.63727 7.10041C9.6506 7.13167 9.67012 7.15991 9.69465 7.18343C9.71918 7.20695 9.74821 7.22526 9.78 7.23727C9.81179 7.24928 9.84569 7.25474 9.87964 7.25331H12.9061C12.94 7.25474 12.9739 7.24928 13.0057 7.23727C13.0375 7.22526 13.0665 7.20695 13.0911 7.18343C13.1156 7.15991 13.1351 7.13167 13.1485 7.10041C13.1618 7.06915 13.1687 7.03552 13.1687 7.00153C13.1687 6.96755 13.1618 6.93392 13.1485 6.90266C13.1351 6.8714 13.1156 6.84316 13.0911 6.81964C13.0665 6.79612 13.0375 6.7778 13.0057 6.76579C12.9739 6.75378 12.94 6.74833 12.9061 6.74976H9.87964ZM9.87964 13.464C9.54297 13.464 9.54297 13.9686 9.87964 13.9686H12.9061C13.243 13.9686 13.243 13.464 12.9061 13.464H9.87964ZM10.7672 10.412C10.4303 10.412 10.4303 10.9175 10.7672 10.9175H12.9061C13.243 10.9175 13.243 10.412 12.9061 10.412H10.7672ZM9.87964 12.4466C9.73942 12.4466 9.62697 12.5604 9.62697 12.6989C9.62697 12.8391 9.73942 12.9524 9.87964 12.9524H12.9061C13.243 12.9524 13.243 12.4469 12.9061 12.4469H9.87964V12.4466ZM9.87964 11.4293C9.73942 11.4293 9.62697 11.5426 9.62697 11.6829C9.62697 11.8218 9.73942 11.9351 9.87964 11.9351H12.9061C13.243 11.9351 13.243 11.4295 12.9061 11.4295L9.87964 11.4293ZM6.34586 10.414C5.78564 10.414 5.3252 10.8711 5.3252 11.4313V12.9535C5.3252 13.5126 5.78564 13.9686 6.34586 13.9686H7.83231C8.39231 13.9686 8.85408 13.5124 8.85408 12.9535V12.5415C8.85408 12.2042 8.34964 12.2042 8.34964 12.5415V12.9535C8.34964 13.2404 8.12342 13.4649 7.83231 13.4649H6.34586C6.05431 13.4649 5.82986 13.2404 5.82986 12.9535V11.4313C5.82986 11.1431 6.05453 10.9186 6.34586 10.9186H7.73742C8.07431 10.9186 8.07431 10.414 7.73742 10.414H6.34586Z" fill="#13484E"/>
<path id="Vector_4" d="M9.0053 10.6229C8.93965 10.6241 8.87708 10.6509 8.83085 10.6975L7.22197 12.3009L6.71841 11.8009C6.69546 11.7759 6.6677 11.7558 6.6368 11.7418C6.60589 11.7279 6.57248 11.7203 6.53857 11.7195C6.50466 11.7188 6.47095 11.7249 6.43946 11.7375C6.40797 11.7501 6.37936 11.7689 6.35533 11.7929C6.3313 11.8168 6.31236 11.8454 6.29963 11.8768C6.28691 11.9082 6.28067 11.9419 6.28129 11.9758C6.28191 12.0097 6.28938 12.0432 6.30324 12.0741C6.3171 12.1051 6.33708 12.1329 6.36197 12.156L7.04463 12.8358C7.09172 12.8825 7.15538 12.9088 7.22174 12.9088C7.2881 12.9088 7.35177 12.8825 7.39885 12.8358L9.18708 11.0544C9.34952 10.8935 9.23219 10.618 9.0053 10.6229Z" fill="#13484E"/>
</g>
</g>
</svg>
