<svg width="20" height="20" viewBox="0 0 20 20" fill="none" xmlns="http://www.w3.org/2000/svg">
<g id="Frame">
<g id="Group">
<path id="Vector" d="M18.3312 5.065C18.048 4.91219 17.7281 4.84022 17.4067 4.85698C17.0852 4.87373 16.7746 4.97856 16.5087 5.16L13.125 7.43V5.625C13.1243 5.12792 12.9266 4.65139 12.5751 4.29991C12.2236 3.94842 11.7471 3.75066 11.25 3.75H2.5C2.00292 3.75066 1.52639 3.94842 1.17491 4.29991C0.823418 4.65139 0.625661 5.12792 0.625 5.625V14.375C0.625661 14.8721 0.823418 15.3486 1.17491 15.7001C1.52639 16.0516 2.00292 16.2493 2.5 16.25H11.25C11.7471 16.2493 12.2236 16.0516 12.5751 15.7001C12.9266 15.3486 13.1243 14.8721 13.125 14.375V12.57L16.5087 14.84C16.7741 15.0228 17.0848 15.1284 17.4066 15.1452C17.7283 15.1619 18.0484 15.0892 18.3312 14.935C18.6534 14.7562 18.9208 14.4929 19.1047 14.1736C19.2886 13.8543 19.382 13.4909 19.375 13.1225V6.8775C19.382 6.50908 19.2886 6.1457 19.1047 5.82638C18.9208 5.50705 18.6534 5.24384 18.3312 5.065ZM11.875 14.375C11.875 14.5408 11.8092 14.6997 11.6919 14.8169C11.5747 14.9342 11.4158 15 11.25 15H2.5C2.33424 15 2.17527 14.9342 2.05806 14.8169C1.94085 14.6997 1.875 14.5408 1.875 14.375V5.625C1.875 5.45924 1.94085 5.30027 2.05806 5.18306C2.17527 5.06585 2.33424 5 2.5 5H11.25C11.4158 5 11.5747 5.06585 11.6919 5.18306C11.8092 5.30027 11.875 5.45924 11.875 5.625V14.375ZM18.125 13.1225C18.1316 13.2644 18.0995 13.4054 18.0321 13.5305C17.9647 13.6555 17.8646 13.7599 17.7425 13.8325C17.6595 13.8796 17.5646 13.9018 17.4693 13.8965C17.374 13.8912 17.2823 13.8585 17.205 13.8025L13.125 11.065V8.935L17.205 6.1975C17.2827 6.14245 17.3744 6.11044 17.4694 6.10513C17.5645 6.09983 17.6592 6.12144 17.7425 6.1675C17.8646 6.24007 17.9647 6.34447 18.0321 6.46953C18.0995 6.59458 18.1316 6.7356 18.125 6.8775V13.1225Z" fill="#13484E"/>
</g>
</g>
</svg>
