<svg width="35" height="35" viewBox="0 0 35 35" fill="none" xmlns="http://www.w3.org/2000/svg">
<g id="Frame" clip-path="url(#clip0_210_234)">
<g id="Group">
<g id="Group_2">
<path id="Vector" d="M32.0833 2.33337H2.91667C2.1434 2.3343 1.40208 2.64189 0.855295 3.18867C0.308514 3.73545 0.00092625 4.47678 0 5.25004L0 26.25C0.00092625 27.0233 0.308514 27.7646 0.855295 28.3114C1.40208 28.8582 2.1434 29.1658 2.91667 29.1667H20.4167V32.0834C20.4167 32.1987 20.4509 32.3115 20.515 32.4074C20.5791 32.5033 20.6702 32.578 20.7768 32.6222C20.8834 32.6663 21.0006 32.6779 21.1138 32.6554C21.2269 32.6329 21.3308 32.5773 21.4124 32.4958L23.3333 30.5749L25.2542 32.4958C25.3358 32.5773 25.4398 32.6329 25.5529 32.6554C25.666 32.6779 25.7833 32.6663 25.8899 32.6222C25.9965 32.578 26.0876 32.5033 26.1516 32.4074C26.2157 32.3115 26.25 32.1987 26.25 32.0834V29.1667H32.0833C32.8566 29.1658 33.5979 28.8582 34.1447 28.3114C34.6915 27.7646 34.9991 27.0233 35 26.25V5.25004C34.9991 4.47678 34.6915 3.73545 34.1447 3.18867C33.5979 2.64189 32.8566 2.3343 32.0833 2.33337ZM18.8475 13.7463C18.803 13.7258 18.7641 13.6951 18.7338 13.6566C18.7035 13.6182 18.6827 13.5731 18.6731 13.5251C18.6636 13.4771 18.6655 13.4275 18.6788 13.3804C18.6921 13.3332 18.7163 13.2899 18.7495 13.254C19.0012 12.9804 19.141 12.6221 19.141 12.2503C19.141 11.8785 19.0012 11.5203 18.7495 11.2467C18.7162 11.2107 18.6919 11.1673 18.6786 11.1201C18.6653 11.0729 18.6634 11.0232 18.673 10.9751C18.6826 10.927 18.7035 10.8819 18.7339 10.8434C18.7644 10.8049 18.8035 10.7742 18.8481 10.7538C19.1851 10.5969 19.451 10.3193 19.5932 9.9758C19.7353 9.6323 19.7434 9.24795 19.6157 8.89879C19.5988 8.85285 19.5929 8.80353 19.5986 8.75489C19.6044 8.70624 19.6215 8.65965 19.6487 8.61891C19.6759 8.57817 19.7124 8.54445 19.7551 8.5205C19.7978 8.49655 19.8456 8.48306 19.8946 8.48112C20.2661 8.46551 20.6183 8.31091 20.8812 8.04795C21.1442 7.78499 21.2988 7.43285 21.3144 7.06129C21.3163 7.01228 21.3298 6.96441 21.3538 6.92162C21.3778 6.87883 21.4116 6.84233 21.4524 6.81512C21.4932 6.78791 21.5399 6.77077 21.5886 6.76509C21.6373 6.75941 21.6867 6.76536 21.7327 6.78246C22.0819 6.90937 22.4661 6.90089 22.8094 6.7587C23.1528 6.61651 23.4304 6.3509 23.5877 6.01421C23.608 5.96967 23.6386 5.9306 23.677 5.90022C23.7154 5.86983 23.7605 5.84899 23.8085 5.83942C23.8565 5.82986 23.9061 5.83183 23.9532 5.84518C24.0003 5.85853 24.0436 5.88287 24.0794 5.91621C24.647 6.43829 25.5203 6.43829 26.0872 5.91621C26.1232 5.88289 26.1665 5.85858 26.2137 5.84528C26.2609 5.83197 26.3106 5.83005 26.3586 5.83968C26.4067 5.8493 26.4518 5.87019 26.4902 5.90064C26.5286 5.93108 26.5592 5.9702 26.5796 6.01479C26.7365 6.35161 27.0141 6.61733 27.3574 6.75946C27.7008 6.90159 28.0849 6.9098 28.434 6.78246C28.48 6.76536 28.5294 6.75941 28.5781 6.76509C28.6268 6.77077 28.6735 6.78791 28.7143 6.81512C28.7551 6.84233 28.7889 6.87883 28.8129 6.92162C28.8368 6.96441 28.8503 7.01228 28.8522 7.06129C28.868 7.43334 29.0231 7.78588 29.2866 8.04898C29.5501 8.31208 29.9029 8.46653 30.275 8.48171C30.3239 8.48355 30.3717 8.49696 30.4144 8.52084C30.4572 8.54472 30.4937 8.57839 30.5209 8.61909C30.5481 8.65979 30.5652 8.70636 30.571 8.75498C30.5767 8.8036 30.5708 8.85288 30.5538 8.89879C30.4261 9.24801 30.4342 9.63247 30.5764 9.97602C30.7187 10.3196 30.9848 10.5972 31.3221 10.7538C31.3665 10.7743 31.4055 10.805 31.4358 10.8435C31.4661 10.8819 31.4869 10.927 31.4965 10.975C31.506 11.023 31.5041 11.0726 31.4908 11.1197C31.4775 11.1668 31.4533 11.2102 31.4201 11.2461C31.1683 11.5197 31.0286 11.878 31.0286 12.2498C31.0286 12.6215 31.1683 12.9798 31.4201 13.2534C31.4534 13.2894 31.4777 13.3328 31.491 13.38C31.5043 13.4272 31.5062 13.4769 31.4966 13.525C31.487 13.5731 31.4661 13.6182 31.4357 13.6567C31.4052 13.6952 31.3661 13.7259 31.3215 13.7463C30.9844 13.9031 30.7185 14.1808 30.5764 14.5243C30.4342 14.8678 30.4262 15.2521 30.5538 15.6013C30.5708 15.6472 30.5767 15.6965 30.5709 15.7452C30.5652 15.7938 30.548 15.8404 30.5208 15.8812C30.4936 15.9219 30.4572 15.9556 30.4145 15.9796C30.3717 16.0035 30.3239 16.017 30.275 16.019C29.9024 16.0339 29.5492 16.1886 29.2855 16.4522C29.0219 16.7159 28.8672 17.0692 28.8522 17.4417C28.8503 17.4907 28.8368 17.5386 28.8129 17.5814C28.7889 17.6242 28.7551 17.6607 28.7143 17.6879C28.6735 17.7151 28.6268 17.7322 28.5781 17.7379C28.5294 17.7436 28.48 17.7376 28.434 17.7205C28.0847 17.5935 27.7005 17.6019 27.3572 17.7441C27.0138 17.8863 26.7362 18.152 26.579 18.4888C26.5594 18.5337 26.5292 18.5731 26.4908 18.6037C26.4525 18.6342 26.4072 18.6548 26.3591 18.6638C26.311 18.6739 26.2611 18.6722 26.2138 18.6589C26.1665 18.6455 26.1231 18.621 26.0872 18.5874C25.8135 18.3357 25.4552 18.1961 25.0833 18.1961C24.7115 18.1961 24.3532 18.3357 24.0794 18.5874C24.0436 18.621 24.0001 18.6455 23.9528 18.6588C23.9055 18.6721 23.8557 18.6738 23.8076 18.6638C23.7593 18.6548 23.714 18.6342 23.6756 18.6037C23.6372 18.5732 23.6068 18.5337 23.5871 18.4888C23.4302 18.1519 23.1527 17.8861 22.8093 17.7439C22.466 17.6018 22.0817 17.5936 21.7327 17.7211C21.6867 17.7382 21.6373 17.7442 21.5886 17.7385C21.5399 17.7328 21.4932 17.7157 21.4524 17.6885C21.4116 17.6613 21.3778 17.6248 21.3538 17.582C21.3298 17.5392 21.3163 17.4913 21.3144 17.4423C21.2995 17.0696 21.1448 16.7162 20.8812 16.4524C20.6176 16.1886 20.2643 16.0336 19.8917 16.0184C19.8427 16.0165 19.795 16.0031 19.7522 15.9792C19.7095 15.9554 19.673 15.9217 19.6458 15.881C19.6186 15.8403 19.6014 15.7937 19.5957 15.7451C19.59 15.6965 19.5958 15.6472 19.6128 15.6013C19.7408 15.2524 19.7331 14.8682 19.5914 14.5247C19.4497 14.1812 19.1842 13.9034 18.8475 13.7463ZM25.2548 24.6704L25.0833 24.8419V19.3585C25.1615 19.3585 25.2367 19.3877 25.2939 19.4408C25.4643 19.6008 25.6707 19.7175 25.8957 19.7811C26.1207 19.8446 26.3576 19.8532 26.5866 19.806C26.8153 19.7613 27.0301 19.6625 27.2127 19.5177C27.3954 19.373 27.5408 19.1866 27.6366 18.9741C27.6695 18.9032 27.728 18.8473 27.8003 18.8174C27.8726 18.7876 27.9535 18.7861 28.0268 18.8131C28.2042 18.8761 28.392 18.9041 28.5804 18.8965V24.8419L27.2428 23.5043C27.1334 23.3949 26.9851 23.3335 26.8304 23.3335C26.6757 23.3335 26.5274 23.3949 26.418 23.5043L25.2548 24.6704ZM25.0833 30.6752L23.7458 29.3376C23.6364 29.2283 23.488 29.1668 23.3333 29.1668C23.1787 29.1668 23.0303 29.2283 22.9209 29.3376L21.5833 30.6752V18.8954C21.7717 18.903 21.9596 18.875 22.1369 18.812C22.2101 18.7847 22.2909 18.7862 22.3631 18.8159C22.4354 18.8456 22.4937 18.9015 22.5266 18.9724C22.6227 19.1854 22.7685 19.3722 22.9518 19.517C23.1352 19.6619 23.3506 19.7606 23.5801 19.8048C23.6909 19.827 23.8035 19.8363 23.9167 19.8334V26.25C23.9167 26.3654 23.9509 26.4782 24.015 26.5741C24.0791 26.67 24.1702 26.7447 24.2768 26.7889C24.3834 26.833 24.5006 26.8445 24.6138 26.8221C24.7269 26.7996 24.8308 26.744 24.9124 26.6625L25.0833 26.4915V30.6752ZM33.8333 26.25C33.8333 26.7142 33.649 27.1593 33.3208 27.4875C32.9926 27.8157 32.5475 28 32.0833 28H26.25V25.3249L26.8333 24.7415L28.7542 26.6625C28.8358 26.744 28.9398 26.7996 29.0529 26.8221C29.166 26.8445 29.2833 26.833 29.3899 26.7889C29.4965 26.7447 29.5876 26.67 29.6516 26.5741C29.7157 26.4782 29.75 26.3654 29.75 26.25V18.2625C29.9133 18.0338 30.0061 17.7631 30.0177 17.4825C30.0212 17.4045 30.0538 17.3306 30.1091 17.2754C30.1644 17.2202 30.2384 17.1877 30.3164 17.1845C30.5496 17.1755 30.7772 17.1114 30.9808 16.9974C31.1844 16.8835 31.3581 16.7229 31.4877 16.5289C31.6173 16.3349 31.6991 16.113 31.7264 15.8813C31.7536 15.6496 31.7256 15.4147 31.6447 15.1959C31.6178 15.1226 31.6195 15.042 31.6493 14.9699C31.6791 14.8979 31.7349 14.8396 31.8057 14.8068C32.0178 14.7093 32.2038 14.563 32.3484 14.3798C32.493 14.1966 32.5922 13.9817 32.6377 13.7528C32.6832 13.5239 32.6739 13.2874 32.6103 13.0628C32.5468 12.8382 32.431 12.6318 32.2723 12.4606C32.2195 12.4031 32.1901 12.3279 32.1901 12.2498C32.1901 12.1716 32.2195 12.0964 32.2723 12.0389C32.431 11.8677 32.5468 11.6614 32.6104 11.4369C32.6739 11.2123 32.6832 10.9759 32.6377 10.747C32.5922 10.5181 32.493 10.3032 32.3484 10.1201C32.2038 9.93693 32.0178 9.79066 31.8057 9.69329C31.7347 9.66066 31.6787 9.60249 31.6487 9.53037C31.6188 9.45825 31.6171 9.3775 31.6441 9.30421C31.7251 9.08541 31.7531 8.85053 31.7258 8.61882C31.6985 8.38711 31.6167 8.16517 31.4871 7.97115C31.3575 7.77714 31.1838 7.61659 30.9802 7.50265C30.7767 7.38871 30.549 7.32462 30.3158 7.31562C30.2378 7.31234 30.1638 7.2799 30.1085 7.22471C30.0532 7.16952 30.0206 7.09559 30.0172 7.01754C30.0084 6.78433 29.9446 6.5565 29.8308 6.35275C29.717 6.149 29.5565 5.97514 29.3625 5.84541C29.1685 5.71568 28.9465 5.63378 28.7147 5.60644C28.483 5.5791 28.248 5.6071 28.0292 5.68812C27.956 5.71576 27.875 5.71457 27.8027 5.68478C27.7303 5.655 27.672 5.59886 27.6395 5.52771C27.5421 5.3156 27.3957 5.12962 27.2125 4.98499C27.0293 4.84036 26.8144 4.74122 26.5855 4.69568C26.3566 4.65015 26.1201 4.65952 25.8955 4.72302C25.6709 4.78653 25.4645 4.90237 25.2933 5.06104C25.2359 5.11388 25.1608 5.14321 25.0828 5.14321C25.0047 5.14321 24.9296 5.11388 24.8722 5.06104C24.701 4.90237 24.4947 4.78653 24.2701 4.72301C24.0456 4.6595 23.8091 4.65013 23.5803 4.69567C23.3514 4.74121 23.1365 4.84036 22.9534 4.98499C22.7702 5.12962 22.624 5.31561 22.5266 5.52771C22.4939 5.59891 22.4355 5.65511 22.3631 5.68498C22.2907 5.71486 22.2097 5.71619 22.1363 5.68871C21.9175 5.60768 21.6825 5.57969 21.4508 5.60703C21.219 5.63437 20.997 5.71626 20.803 5.84599C20.609 5.97572 20.4485 6.14959 20.3347 6.35334C20.2209 6.55709 20.1571 6.78491 20.1483 7.01812C20.1449 7.09618 20.1123 7.1701 20.057 7.22529C20.0017 7.28048 19.9277 7.31292 19.8497 7.31621C19.6165 7.3252 19.3888 7.38929 19.1852 7.50323C18.9817 7.61718 18.808 7.77773 18.6784 7.97174C18.5488 8.16575 18.467 8.3877 18.4397 8.61941C18.4124 8.85111 18.4404 9.08599 18.5214 9.30479C18.5483 9.37802 18.5466 9.45867 18.5168 9.53074C18.487 9.60281 18.4312 9.66104 18.3604 9.69387C18.1483 9.79132 17.9623 9.93764 17.8177 10.1209C17.6731 10.3041 17.5739 10.5189 17.5284 10.7479C17.4829 10.9768 17.4922 11.2133 17.5557 11.4379C17.6192 11.6625 17.7351 11.8688 17.8937 12.04C17.9466 12.0975 17.976 12.1728 17.976 12.2509C17.976 12.329 17.9466 12.4043 17.8937 12.4618C17.7351 12.6329 17.6192 12.8392 17.5557 13.0638C17.4922 13.2884 17.4828 13.5248 17.5284 13.7537C17.5739 13.9826 17.6731 14.1974 17.8177 14.3806C17.9623 14.5637 18.1483 14.71 18.3604 14.8074C18.4314 14.84 18.4874 14.8982 18.5173 14.9703C18.5473 15.0424 18.549 15.1232 18.522 15.1965C18.441 15.4153 18.413 15.6501 18.4403 15.8818C18.4676 16.1136 18.5494 16.3355 18.6789 16.5295C18.8085 16.7235 18.9822 16.8841 19.1858 16.998C19.3894 17.112 19.6171 17.1761 19.8502 17.185C20.0118 17.192 20.1419 17.3215 20.1489 17.4831C20.1606 17.7631 20.2539 18.0338 20.4167 18.2625V28H2.91667C2.45254 28 2.00742 27.8157 1.67923 27.4875C1.35104 27.1593 1.16667 26.7142 1.16667 26.25V5.25004C1.16667 4.78591 1.35104 4.34079 1.67923 4.0126C2.00742 3.68442 2.45254 3.50004 2.91667 3.50004H32.0833C32.5475 3.50004 32.9926 3.68442 33.3208 4.0126C33.649 4.34079 33.8333 4.78591 33.8333 5.25004V26.25Z" fill="#13484E"/>
<path id="Vector_2" d="M6.41667 23.3333C5.95254 23.3333 5.50742 23.149 5.17923 22.8208C4.85104 22.4926 4.66667 22.0475 4.66667 21.5833V9.91667C4.66667 9.45254 4.85104 9.00742 5.17923 8.67923C5.50742 8.35104 5.95254 8.16667 6.41667 8.16667H16.9167C17.0714 8.16667 17.2198 8.10521 17.3291 7.99581C17.4385 7.88642 17.5 7.73804 17.5 7.58333C17.5 7.42862 17.4385 7.28025 17.3291 7.17085C17.2198 7.06146 17.0714 7 16.9167 7H6.41667C5.6434 7.00093 4.90208 7.30851 4.3553 7.85529C3.80851 8.40208 3.50093 9.1434 3.5 9.91667V21.5833C3.50093 22.3566 3.80851 23.0979 4.3553 23.6447C4.90208 24.1915 5.6434 24.4991 6.41667 24.5H17.5C17.6547 24.5 17.8031 24.4385 17.9125 24.3291C18.0219 24.2197 18.0833 24.0714 18.0833 23.9167C18.0833 23.762 18.0219 23.6136 17.9125 23.5042C17.8031 23.3948 17.6547 23.3333 17.5 23.3333H6.41667Z" fill="#13484E"/>
<path id="Vector_3" d="M7.00006 16.3334H15.1667C15.3214 16.3334 15.4698 16.2719 15.5792 16.1625C15.6886 16.0531 15.7501 15.9048 15.7501 15.75C15.7501 15.5953 15.6886 15.447 15.5792 15.3376C15.4698 15.2282 15.3214 15.1667 15.1667 15.1667H7.00006C6.84535 15.1667 6.69697 15.2282 6.58758 15.3376C6.47818 15.447 6.41672 15.5953 6.41672 15.75C6.41672 15.9048 6.47818 16.0531 6.58758 16.1625C6.69697 16.2719 6.84535 16.3334 7.00006 16.3334ZM7.00006 14H15.1667C15.3214 14 15.4698 13.9386 15.5792 13.8292C15.6886 13.7198 15.7501 13.5714 15.7501 13.4167C15.7501 13.262 15.6886 13.1136 15.5792 13.0042C15.4698 12.8948 15.3214 12.8334 15.1667 12.8334H7.00006C6.84535 12.8334 6.69697 12.8948 6.58758 13.0042C6.47818 13.1136 6.41672 13.262 6.41672 13.4167C6.41672 13.5714 6.47818 13.7198 6.58758 13.8292C6.69697 13.9386 6.84535 14 7.00006 14ZM7.00006 11.6667H15.1667C15.3214 11.6667 15.4698 11.6053 15.5792 11.4959C15.6886 11.3865 15.7501 11.2381 15.7501 11.0834C15.7501 10.9287 15.6886 10.7803 15.5792 10.6709C15.4698 10.5615 15.3214 10.5 15.1667 10.5H7.00006C6.84535 10.5 6.69697 10.5615 6.58758 10.6709C6.47818 10.7803 6.41672 10.9287 6.41672 11.0834C6.41672 11.2381 6.47818 11.3865 6.58758 11.4959C6.69697 11.6053 6.84535 11.6667 7.00006 11.6667ZM6.46514 21.8167C6.49575 21.887 6.53992 21.9505 6.5951 22.0037C6.65029 22.0569 6.71542 22.0987 6.78677 22.1267C6.85811 22.1547 6.93428 22.1684 7.01092 22.1669C7.08755 22.1655 7.16315 22.149 7.23339 22.1183C7.77344 21.9177 8.26977 21.6148 8.69522 21.2264C8.85316 21.0688 8.99126 20.8925 9.10647 20.7014C9.32931 20.9522 9.59064 21.1645 9.88172 21.3314C10.2871 21.5962 10.7917 21.661 11.2508 21.5064C11.427 21.4381 11.5862 21.3325 11.7175 21.1972C11.9817 21.3623 12.2722 21.4795 12.5767 21.5443L13.0177 21.6487C13.9178 21.9124 14.8529 22.036 15.7909 22.0162C15.8673 22.0107 15.9419 21.9902 16.0104 21.9558C16.0789 21.9215 16.1399 21.874 16.19 21.8161C16.2402 21.7582 16.2784 21.6909 16.3025 21.6182C16.3267 21.5455 16.3363 21.4687 16.3308 21.3923C16.3253 21.3159 16.3047 21.2413 16.2704 21.1729C16.2361 21.1044 16.1886 21.0433 16.1306 20.9932C16.0727 20.9431 16.0055 20.9048 15.9328 20.8807C15.8601 20.8565 15.7833 20.8469 15.7069 20.8525C14.8885 20.863 14.0736 20.7492 13.2896 20.5141L12.8386 20.4074C12.2944 20.282 12.1544 20.0626 12.0966 19.908C12.0475 19.7767 11.9526 19.6676 11.8295 19.6005C11.7064 19.5334 11.5633 19.5128 11.4263 19.5427C11.2893 19.5725 11.1676 19.6506 11.0835 19.7628C10.9995 19.875 10.9586 20.0138 10.9685 20.1536C10.9717 20.205 10.9614 20.2564 10.9385 20.3025C10.9157 20.3487 10.8812 20.3881 10.8384 20.4167C10.7021 20.434 10.5643 20.3986 10.4534 20.3175C9.98164 20.0238 9.62688 19.575 9.45006 19.0482C9.4015 18.917 9.30738 18.8076 9.18486 18.7399C9.06235 18.6723 8.91961 18.651 8.78268 18.6798C8.64575 18.7087 8.52376 18.7858 8.43895 18.8971C8.35415 19.0084 8.31219 19.1465 8.32072 19.2862C8.32558 19.4927 8.28802 19.6979 8.21036 19.8892C8.1327 20.0806 8.01659 20.254 7.86922 20.3986C7.54532 20.6819 7.17142 20.9023 6.76672 21.0485C6.69645 21.0791 6.63291 21.1232 6.57972 21.1784C6.52652 21.2336 6.48473 21.2987 6.45672 21.3701C6.42871 21.4414 6.41504 21.5176 6.41649 21.5942C6.41793 21.6709 6.43446 21.7465 6.46514 21.8167ZM25.0834 16.9167C26.0064 16.9167 26.9086 16.643 27.6761 16.1302C28.4435 15.6175 29.0416 14.8886 29.3948 14.0359C29.748 13.1832 29.8405 12.2449 29.6604 11.3396C29.4803 10.4344 29.0359 9.60286 28.3832 8.95021C27.7306 8.29757 26.8991 7.85311 25.9938 7.67304C25.0886 7.49298 24.1503 7.5854 23.2975 7.9386C22.4448 8.29181 21.716 8.88995 21.2032 9.65738C20.6904 10.4248 20.4167 11.3271 20.4167 12.25C20.4181 13.4873 20.9102 14.6735 21.7851 15.5483C22.66 16.4232 23.8461 16.9153 25.0834 16.9167ZM25.0834 8.75004C25.543 8.75004 25.9981 8.84057 26.4228 9.01646C26.8474 9.19236 27.2333 9.45016 27.5583 9.77517C27.8833 10.1002 28.1411 10.486 28.317 10.9107C28.4929 11.3353 28.5834 11.7904 28.5834 12.25C28.5834 12.7097 28.4929 13.1648 28.317 13.5894C28.1411 14.0141 27.8833 14.3999 27.5583 14.7249C27.2333 15.0499 26.8474 15.3077 26.4228 15.4836C25.9981 15.6595 25.543 15.75 25.0834 15.75C24.1551 15.75 23.2649 15.3813 22.6085 14.7249C21.9521 14.0685 21.5834 13.1783 21.5834 12.25C21.5834 11.3218 21.9521 10.4315 22.6085 9.77517C23.2649 9.11879 24.1551 8.75004 25.0834 8.75004Z" fill="#13484E"/>
</g>
</g>
</g>
<defs>
<clipPath id="clip0_210_234">
<rect width="35" height="35" fill="white"/>
</clipPath>
</defs>
</svg>
