<svg width="35" height="35" viewBox="0 0 35 35" fill="red" xmlns="http://www.w3.org/2000/svg">
<g id="Frame" clip-path="url(#clip0_210_297)">
<g id="Group">
<path id="Vector" d="M34.4657 18.5938L34.475 18.5894C34.6165 18.5853 34.7509 18.5265 34.85 18.4253C34.949 18.3242 35.0049 18.1885 35.006 18.0469C35.0068 17.9754 34.9934 17.9044 34.9666 17.8381C34.9398 17.7718 34.9 17.7115 34.8497 17.6606C34.7994 17.6097 34.7395 17.5694 34.6735 17.5418C34.6075 17.5142 34.5367 17.5001 34.4652 17.5001C34.3109 17.4508 33.9062 16.7853 33.9062 15.586C33.9062 14.3867 34.3115 13.7212 34.4657 13.6719L34.4734 13.6681C34.6075 13.6585 34.7335 13.5999 34.8271 13.5033C34.9208 13.4067 34.9755 13.279 34.9809 13.1446C34.9864 13.0102 34.942 12.8785 34.8565 12.7747C34.7709 12.6709 34.6501 12.6023 34.5171 12.582L16.8919 10.5094C16.2058 10.4279 15.5124 10.4279 14.8263 10.5094L2.12242 12.0351H2.11422C1.08555 12.1062 0.546875 13.5795 0.546875 15.0391C0.511094 15.907 0.73996 16.7652 1.20312 17.5001C0.7398 18.2348 0.510921 19.0931 0.546875 19.961C0.517502 20.7964 0.726125 21.6229 1.14844 22.3443C0.393203 23.1044 0 24.6816 0 26.2501C0 28.4058 0.738828 30.5884 2.15141 30.6251L20.7173 32.8093C20.7385 32.8117 20.7599 32.8128 20.7812 32.8126C20.803 32.8127 20.8247 32.8114 20.8463 32.8087L25.1562 32.2914V34.4532C25.1562 34.5728 25.1954 34.6891 25.2678 34.7844C25.3402 34.8796 25.4418 34.9484 25.5571 34.9804C25.6047 34.9934 25.6538 35 25.7031 35.0001C25.7975 35 25.8902 34.9756 25.9724 34.9291C26.0545 34.8827 26.1232 34.8157 26.1718 34.7348L27.3941 32.6977L28.5469 34.2344C28.6157 34.3263 28.7118 34.3941 28.8213 34.4283C28.9309 34.4625 29.0484 34.4614 29.1573 34.4251C29.2662 34.3888 29.3609 34.3192 29.428 34.2261C29.4951 34.133 29.5312 34.0211 29.5312 33.9063V31.7669L34.5182 31.1681C34.6567 31.1516 34.7837 31.0829 34.8732 30.9759C34.9626 30.8688 35.0078 30.7317 34.9995 30.5925C34.9912 30.4532 34.93 30.3224 34.8284 30.2268C34.7269 30.1312 34.5926 30.0781 34.4531 30.0782C34.0703 30.0782 33.3594 28.8324 33.3594 26.7969C33.3594 24.779 34.0309 23.6108 34.4531 23.5157C34.5989 23.5161 34.7388 23.4588 34.8424 23.3564C34.946 23.2539 35.0049 23.1145 35.006 22.9688C35.0072 22.8351 34.9588 22.7057 34.8703 22.6056C34.7817 22.5054 34.6592 22.4416 34.5264 22.4263C34.5048 22.4237 34.4831 22.4223 34.4613 22.4219C34.3044 22.3618 33.9062 21.6979 33.9062 20.5079C33.9062 19.3047 34.3115 18.643 34.4657 18.5938ZM17.657 31.3475C17.1407 30.3119 16.8984 29.1613 16.9531 28.0055C16.9131 26.8959 17.1289 25.7919 17.5837 24.779L19.3845 24.9906C18.8265 26.0516 18.554 27.2394 18.5938 28.4376C18.5752 29.4987 18.7802 30.5518 19.1953 31.5285L17.657 31.3475ZM15.4498 31.0877C14.9506 30.0576 14.7155 28.9195 14.7656 27.7758C14.7217 26.6568 14.944 25.5433 15.4142 24.5269L16.4369 24.6472C16.0298 25.719 15.8338 26.8593 15.8594 28.0055C15.8423 29.0916 16.0176 30.1721 16.3773 31.1971L15.4498 31.0877ZM6.61008 30.0487C6.19358 29.0637 5.99455 28.0004 6.02656 26.9315C5.96263 25.7446 6.22596 24.563 6.78781 23.5157L14.2051 24.3869C14.2215 24.3869 14.2362 24.3967 14.2527 24.3967C14.2568 24.397 14.261 24.397 14.2652 24.3967C13.8504 25.474 13.6489 26.6217 13.6719 27.7758C13.6561 28.8514 13.8274 29.9216 14.1783 30.9384L6.61008 30.0487ZM4.42641 29.7922C4.00576 28.8051 3.80532 27.7381 3.83906 26.6657C3.7743 25.4813 4.03531 24.3018 4.59375 23.2554L5.61203 23.3751C5.1321 24.4973 4.89969 25.7097 4.93062 26.9298C4.91784 27.9381 5.06552 28.9419 5.36812 29.9037L4.42641 29.7922ZM2.19953 21.8751C2.04531 21.8258 1.64062 21.1603 1.64062 19.961C1.64062 18.7721 2.03766 18.1093 2.18313 18.0502L4.77367 18.3521C4.78297 18.3521 4.79008 18.3592 4.79883 18.3603L15.7987 19.6509C15.5539 20.3664 15.4357 21.119 15.4492 21.8751C15.4478 22.4048 15.5045 22.9332 15.6182 23.4506L14.572 23.3281C14.3153 22.6936 14.1949 22.0122 14.2188 21.3282C14.2182 21.0015 14.2549 20.6758 14.3281 20.3575C14.3443 20.2875 14.3465 20.215 14.3346 20.1442C14.3228 20.0733 14.2971 20.0055 14.259 19.9446C14.221 19.8837 14.1713 19.8309 14.1128 19.7892C14.0543 19.7474 13.9882 19.7177 13.9182 19.7015C13.8483 19.6853 13.7758 19.6831 13.7049 19.695C13.6341 19.7068 13.5663 19.7325 13.5054 19.7706C13.4445 19.8086 13.3916 19.8583 13.3499 19.9168C13.3082 19.9753 13.2784 20.0414 13.2623 20.1114C13.1708 20.5105 13.1247 20.9187 13.125 21.3282C13.1191 21.9559 13.1991 22.5815 13.3629 23.1876L6.5882 22.3913H6.57672L4.39687 22.1343H4.38266L2.19953 21.8751ZM5.27188 13.4904L7.39539 13.7392H7.40086L19.5524 15.1715C19.2683 15.8187 19.1278 16.5199 19.1406 17.2266C19.1362 17.822 19.2333 18.4138 19.4277 18.9766L7.59172 17.587C7.44621 17.0229 7.37597 16.442 7.38281 15.8594C7.38204 15.5172 7.40304 15.1753 7.4457 14.8357C7.4549 14.7644 7.44997 14.6921 7.4312 14.6227C7.41243 14.5534 7.38018 14.4885 7.33631 14.4316C7.29243 14.3747 7.23778 14.327 7.17548 14.2913C7.11318 14.2555 7.04445 14.2324 6.9732 14.2232C6.90196 14.214 6.82961 14.2189 6.76027 14.2377C6.69093 14.2565 6.62597 14.2887 6.5691 14.3326C6.51222 14.3765 6.46454 14.4311 6.42879 14.4934C6.39303 14.5557 6.3699 14.6244 6.3607 14.6957C6.31213 15.0817 6.2882 15.4704 6.28906 15.8594C6.28743 16.3938 6.33743 16.9271 6.43836 17.4519L5.21773 17.3087C5.00107 16.6662 4.90088 15.9902 4.92188 15.3126C4.92128 14.6884 5.04008 14.0699 5.27188 13.4904ZM20.7812 15.3126C20.8028 15.3126 20.8244 15.3114 20.8458 15.3087L33.0958 13.8404C32.903 14.402 32.8072 14.9923 32.8125 15.586C32.7994 16.2942 32.9407 16.9968 33.2265 17.645L20.7873 19.1358C20.6287 19.0729 20.2344 18.415 20.2344 17.2266C20.2344 16.0273 20.6391 15.3618 20.7812 15.3126ZM16.7891 23.5879C16.6191 23.0331 16.5361 22.4553 16.543 21.8751C16.5044 21.1563 16.6418 20.439 16.9433 19.7854L19.5541 20.0917C19.2688 20.7392 19.1277 21.441 19.1406 22.1485C19.1362 22.7439 19.2333 23.3357 19.4277 23.8985L16.7891 23.5879ZM20.7889 24.0582C20.6292 23.9953 20.2344 23.3374 20.2344 22.1485C20.2344 20.9492 20.6391 20.2837 20.7812 20.2344C20.803 20.2345 20.8247 20.2333 20.8463 20.2306L33.0963 18.7622C32.9034 19.3238 32.8074 19.9141 32.8125 20.5079C32.8018 21.2167 32.9474 21.9191 33.2391 22.5652L20.7889 24.0582ZM14.9559 11.5938C15.5563 11.5227 16.163 11.5227 16.7634 11.5938L29.8227 13.1294L20.7812 14.215L7.52883 12.6531H7.52336L6.82937 12.5716L14.9559 11.5938ZM2.18039 13.1251L4.15352 13.3564C3.93847 13.9862 3.82854 14.6471 3.82812 15.3126C3.823 15.9362 3.89147 16.5583 4.03211 17.1659L2.19953 16.9532C2.04531 16.904 1.64062 16.2384 1.64062 15.0391C1.64062 13.859 2.03219 13.1962 2.18039 13.1278V13.1251ZM2.1875 29.5313C1.80469 29.5313 1.09375 28.2855 1.09375 26.2501C1.09375 24.2266 1.79266 22.9874 2.1793 22.9715L3.42289 23.1176C2.94581 24.2382 2.71475 25.4481 2.74531 26.6657C2.73298 27.676 2.88234 28.6819 3.18773 29.6451L2.25148 29.5357C2.23027 29.5328 2.2089 29.5314 2.1875 29.5313ZM27.7812 31.3907C27.728 31.3182 27.6575 31.2603 27.5761 31.2221C27.4947 31.1838 27.4051 31.1666 27.3153 31.1719C27.2263 31.1771 27.14 31.2039 27.0637 31.25C26.9875 31.2961 26.9236 31.3602 26.8778 31.4366L26.25 32.479V27.7879L28.4375 27.5243V32.2657L27.7812 31.3907ZM29.5312 30.665V27.3925L29.8747 27.3509C30.0188 27.3337 30.1502 27.26 30.2399 27.146C30.3296 27.0319 30.3704 26.8869 30.3532 26.7428C30.336 26.5987 30.2623 26.4673 30.1482 26.3776C30.0342 26.2878 29.8892 26.2471 29.7451 26.2643L28.9248 26.3638H28.9209L25.6397 26.7576C25.6337 26.7576 25.6287 26.7619 25.6227 26.7625L24.9413 26.8451C24.803 26.8615 24.6762 26.9301 24.5867 27.0369C24.4973 27.1437 24.4519 27.2805 24.4599 27.4196C24.468 27.5587 24.5287 27.6894 24.6299 27.7852C24.731 27.881 24.8649 27.9346 25.0042 27.935C25.0258 27.9351 25.0473 27.9338 25.0688 27.9312L25.1562 27.9202V31.19L20.7812 31.715L20.7331 31.7095C20.3558 31.6182 19.6875 30.4517 19.6875 28.4376C19.6875 26.4021 20.3984 25.1563 20.7812 25.1563C20.803 25.1564 20.8247 25.1551 20.8463 25.1525L32.8672 23.7115C32.4526 24.6864 32.2477 25.7376 32.2656 26.7969C32.226 27.9941 32.4972 29.181 33.0526 30.2422L29.5312 30.665Z" fill="#FCAA47"/>
</g>
</g>
<defs>
<clipPath id="clip0_210_297">
<rect width="35" height="35" fill="white"/>
</clipPath>
</defs>
</svg>
