<svg width="35" height="35" viewBox="0 0 35 35" fill="none" xmlns="http://www.w3.org/2000/svg">
<g id="Frame">
<g id="Group">
<path id="Vector" d="M3.85 29.8308H17.5458V31.15C17.5458 31.2428 17.5827 31.3318 17.6484 31.3975C17.714 31.4631 17.803 31.5 17.8958 31.5H31.15C31.2428 31.5 31.3318 31.4631 31.3975 31.3975C31.4631 31.3318 31.5 31.2428 31.5 31.15V11.7425C31.5 11.6497 31.4631 11.5606 31.3975 11.495C31.3318 11.4294 31.2428 11.3925 31.15 11.3925H23.2281V3.85C23.2281 3.75717 23.1912 3.66815 23.1256 3.60251C23.0599 3.53687 22.9709 3.5 22.8781 3.5H3.85C3.75717 3.5 3.66815 3.53687 3.60251 3.60251C3.53687 3.66815 3.5 3.75717 3.5 3.85V29.4808C3.5 29.5737 3.53687 29.6627 3.60251 29.7283C3.66815 29.794 3.75717 29.8308 3.85 29.8308ZM30.8 30.8H18.2458V12.0925H30.8V30.8ZM17.8958 11.3925C17.803 11.3925 17.714 11.4294 17.6484 11.495C17.5827 11.5606 17.5458 11.6497 17.5458 11.7425V22.2985H14.4739C14.3811 22.2985 14.292 22.3354 14.2264 22.401C14.1608 22.4666 14.1239 22.5557 14.1239 22.6485C14.1239 22.7413 14.1608 22.8303 14.2264 22.896C14.292 22.9616 14.3811 22.9985 14.4739 22.9985H17.5458V24.213H14.4739C14.3811 24.213 14.292 24.2499 14.2264 24.3155C14.1608 24.3811 14.1239 24.4702 14.1239 24.563C14.1239 24.6558 14.1608 24.7448 14.2264 24.8105C14.292 24.8761 14.3811 24.913 14.4739 24.913H17.5458V26.1275H14.4739C14.3811 26.1275 14.292 26.1644 14.2264 26.23C14.1608 26.2956 14.1239 26.3847 14.1239 26.4775C14.1239 26.5703 14.1608 26.6593 14.2264 26.725C14.292 26.7906 14.3811 26.8275 14.4739 26.8275H17.5458V29.1308H4.2V5.19645L5.5916 7.6839C5.62199 7.73825 5.66632 7.78351 5.72003 7.81501C5.77374 7.84651 5.83488 7.86311 5.89715 7.8631H20.8225C20.9492 7.8631 21.0661 7.7945 21.1281 7.6839L22.5281 5.18105V11.3925H17.8958ZM4.44465 4.2H22.275L20.6174 7.1631H6.10225L4.44465 4.2Z" fill="#13484E"/>
<path id="Vector_2" d="M12.1796 22.2985H6.41653C6.3237 22.2985 6.23468 22.3354 6.16904 22.401C6.1034 22.4667 6.06653 22.5557 6.06653 22.6485V26.4775C6.06653 26.5703 6.1034 26.6594 6.16904 26.725C6.23468 26.7906 6.3237 26.8275 6.41653 26.8275H12.1796C12.2725 26.8275 12.3615 26.7906 12.4271 26.725C12.4928 26.6594 12.5296 26.5703 12.5296 26.4775V22.6485C12.5296 22.5557 12.4928 22.4667 12.4271 22.401C12.3615 22.3354 12.2725 22.2985 12.1796 22.2985ZM11.8296 26.1275H6.76653V22.9985H11.8296V26.1275ZM25.3526 15.127H28.8365C28.9293 15.127 29.0183 15.0901 29.084 15.0245C29.1496 14.9589 29.1865 14.8698 29.1865 14.777C29.1865 14.6842 29.1496 14.5952 29.084 14.5295C29.0183 14.4639 28.9293 14.427 28.8365 14.427H25.3526C25.2598 14.427 25.1707 14.4639 25.1051 14.5295C25.0395 14.5952 25.0026 14.6842 25.0026 14.777C25.0026 14.8698 25.0395 14.9589 25.1051 15.0245C25.1707 15.0901 25.2598 15.127 25.3526 15.127ZM25.3526 17.8721H28.8365C28.9293 17.8721 29.0183 17.8352 29.084 17.7695C29.1496 17.7039 29.1865 17.6149 29.1865 17.5221C29.1865 17.4292 29.1496 17.3402 29.084 17.2746C29.0183 17.2089 28.9293 17.1721 28.8365 17.1721H25.3526C25.2598 17.1721 25.1707 17.2089 25.1051 17.2746C25.0395 17.3402 25.0026 17.4292 25.0026 17.5221C25.0026 17.6149 25.0395 17.7039 25.1051 17.7695C25.1707 17.8352 25.2598 17.8721 25.3526 17.8721ZM20.2097 17.8721H22.9547C23.0476 17.8721 23.1366 17.8352 23.2022 17.7695C23.2679 17.7039 23.3047 17.6149 23.3047 17.5221V14.777C23.3047 14.6842 23.2679 14.5952 23.2022 14.5295C23.1366 14.4639 23.0476 14.427 22.9547 14.427H20.2097C20.1169 14.427 20.0278 14.4639 19.9622 14.5295C19.8966 14.5952 19.8597 14.6842 19.8597 14.777V17.5221C19.8597 17.6149 19.8966 17.7039 19.9622 17.7695C20.0278 17.8352 20.1169 17.8721 20.2097 17.8721ZM20.5597 15.127H22.6047V17.1721H20.5597V15.127ZM25.3526 20.3287H28.8365C28.9293 20.3287 29.0183 20.2918 29.084 20.2262C29.1496 20.1606 29.1865 20.0715 29.1865 19.9787C29.1865 19.8859 29.1496 19.7969 29.084 19.7312C29.0183 19.6656 28.9293 19.6287 28.8365 19.6287H25.3526C25.2598 19.6287 25.1707 19.6656 25.1051 19.7312C25.0395 19.7969 25.0026 19.8859 25.0026 19.9787C25.0026 20.0715 25.0395 20.1606 25.1051 20.2262C25.1707 20.2918 25.2598 20.3287 25.3526 20.3287ZM25.3526 23.0734H28.8365C28.9293 23.0734 29.0183 23.0365 29.084 22.9709C29.1496 22.9053 29.1865 22.8162 29.1865 22.7234C29.1865 22.6306 29.1496 22.5416 29.084 22.4759C29.0183 22.4103 28.9293 22.3734 28.8365 22.3734H25.3526C25.2598 22.3734 25.1707 22.4103 25.1051 22.4759C25.0395 22.5416 25.0026 22.6306 25.0026 22.7234C25.0026 22.8162 25.0395 22.9053 25.1051 22.9709C25.1707 23.0365 25.2598 23.0734 25.3526 23.0734ZM20.2097 23.0734H22.9547C23.0476 23.0734 23.1366 23.0365 23.2022 22.9709C23.2679 22.9053 23.3047 22.8162 23.3047 22.7234V19.9784C23.3047 19.8855 23.2679 19.7965 23.2022 19.7309C23.1366 19.6652 23.0476 19.6284 22.9547 19.6284H20.2097C20.1169 19.6284 20.0278 19.6652 19.9622 19.7309C19.8966 19.7965 19.8597 19.8855 19.8597 19.9784V22.7234C19.8597 22.8162 19.8966 22.9053 19.9622 22.9709C20.0278 23.0365 20.1169 23.0734 20.2097 23.0734ZM20.5597 20.3287H22.6047V22.3738H20.5597V20.3287ZM25.3526 25.7205H28.8365C28.9293 25.7205 29.0183 25.6836 29.084 25.6179C29.1496 25.5523 29.1865 25.4633 29.1865 25.3705C29.1865 25.2776 29.1496 25.1886 29.084 25.123C29.0183 25.0573 28.9293 25.0205 28.8365 25.0205H25.3526C25.2598 25.0205 25.1707 25.0573 25.1051 25.123C25.0395 25.1886 25.0026 25.2776 25.0026 25.3705C25.0026 25.4633 25.0395 25.5523 25.1051 25.6179C25.1707 25.6836 25.2598 25.7205 25.3526 25.7205ZM25.3526 28.4655H28.8365C28.9293 28.4655 29.0183 28.4286 29.084 28.363C29.1496 28.2974 29.1865 28.2083 29.1865 28.1155C29.1865 28.0227 29.1496 27.9337 29.084 27.868C29.0183 27.8024 28.9293 27.7655 28.8365 27.7655H25.3526C25.2598 27.7655 25.1707 27.8024 25.1051 27.868C25.0395 27.9337 25.0026 28.0227 25.0026 28.1155C25.0026 28.2083 25.0395 28.2974 25.1051 28.363C25.1707 28.4286 25.2598 28.4655 25.3526 28.4655ZM20.2097 28.4655H22.9547C23.0476 28.4655 23.1366 28.4286 23.2022 28.363C23.2679 28.2974 23.3047 28.2083 23.3047 28.1155V25.3705C23.3047 25.2776 23.2679 25.1886 23.2022 25.123C23.1366 25.0573 23.0476 25.0205 22.9547 25.0205H20.2097C20.1169 25.0205 20.0278 25.0573 19.9622 25.123C19.8966 25.1886 19.8597 25.2776 19.8597 25.3705V28.1155C19.8597 28.2083 19.8966 28.2974 19.9622 28.363C20.0278 28.4286 20.1169 28.4655 20.2097 28.4655ZM20.5597 25.7205H22.6047V27.7655H20.5597V25.7205Z" fill="#13484E"/>
</g>
</g>
</svg>
