<svg width="35" height="35" viewBox="0 0 35 35" fill="none" xmlns="http://www.w3.org/2000/svg">
<g id="Frame" clip-path="url(#clip0_210_251)">
<g id="Group">
<path id="Vector" d="M23.0381 31.478H29.3231C29.4682 31.478 29.6073 31.4204 29.7098 31.3178C29.8124 31.2153 29.87 31.0762 29.87 30.9311V18.3613C29.87 18.2163 29.8124 18.0772 29.7098 17.9746C29.6073 17.8721 29.4682 17.8145 29.3231 17.8145H23.0381C22.8931 17.8145 22.754 17.8721 22.6514 17.9746C22.5489 18.0772 22.4912 18.2163 22.4912 18.3613V30.9311C22.4912 31.0762 22.5489 31.2153 22.6514 31.3178C22.754 31.4204 22.8931 31.478 23.0381 31.478ZM26.7275 25.1931H28.7763V27.2418H26.7275V25.1931ZM25.6338 27.2418H23.5849V25.1931H25.6338V27.2418ZM28.7763 24.0993H26.7275V22.0506H28.7763V24.0993ZM25.6338 24.0993H23.5849V22.0506H25.6338V24.0993ZM23.585 28.3356H25.6339V30.3842H23.585V28.3356ZM26.7275 30.3842V28.3356H28.7763V30.3842H26.7275ZM28.7763 20.9569H26.7275V18.9082H28.7763V20.9569ZM25.6338 18.9082V20.9569H23.5849V18.9082H25.6338ZM11.681 17.8145H5.39593C5.25089 17.8145 5.11179 17.8721 5.00923 17.9746C4.90667 18.0772 4.84906 18.2163 4.84906 18.3613V30.9311C4.84906 31.0762 4.90667 31.2153 5.00923 31.3178C5.11179 31.4204 5.25089 31.478 5.39593 31.478H11.681C11.826 31.478 11.9651 31.4204 12.0677 31.3178C12.1702 31.2153 12.2278 31.0762 12.2278 30.9311V18.3613C12.2278 18.2163 12.1702 18.0772 12.0677 17.9746C11.9651 17.8721 11.826 17.8145 11.681 17.8145ZM7.99154 24.0993H5.94281V22.0506H7.99161L7.99154 24.0993ZM9.08529 22.0506H11.1341V24.0993H9.08529V22.0506ZM5.94281 25.1931H7.99161V27.2418H5.94281V25.1931ZM9.08529 25.1931H11.1341V27.2418H9.08529V25.1931ZM11.1341 20.9569H9.08529V18.9082H11.1341V20.9569ZM7.99154 18.9082V20.9569H5.94281V18.9082H7.99154ZM5.94281 28.3356H7.99161V30.3842H5.94281V28.3356ZM9.08529 30.3842V28.3356H11.1341V30.3842H9.08529ZM13.8048 9.58699H10.6623C10.5173 9.58699 10.3782 9.64461 10.2756 9.74717C10.1731 9.84973 10.1155 9.98883 10.1155 10.1339V13.2763C10.1155 13.4214 10.1731 13.5605 10.2756 13.663C10.3782 13.7656 10.5173 13.8232 10.6623 13.8232H13.8048C13.9499 13.8232 14.089 13.7656 14.1915 13.663C14.2941 13.5605 14.3517 13.4214 14.3517 13.2763V10.1339C14.3517 9.98883 14.2941 9.84973 14.1915 9.74717C14.089 9.64461 13.9499 9.58699 13.8048 9.58699ZM13.2579 12.7295H11.2092V10.6807H13.2579V12.7295ZM19.0712 9.58699H15.9287C15.7837 9.58699 15.6446 9.64461 15.542 9.74717C15.4395 9.84973 15.3819 9.98883 15.3819 10.1339V13.2763C15.3819 13.4214 15.4395 13.5605 15.542 13.663C15.6446 13.7656 15.7837 13.8232 15.9287 13.8232H19.0712C19.2163 13.8232 19.3554 13.7656 19.4579 13.663C19.5605 13.5605 19.6181 13.4214 19.6181 13.2763V10.1339C19.6181 9.98883 19.5605 9.84973 19.4579 9.74717C19.3554 9.64461 19.2163 9.58699 19.0712 9.58699ZM18.5243 12.7295H16.4756V10.6807H18.5243V12.7295ZM24.3376 9.58699H21.1952C21.0501 9.58699 20.911 9.64461 20.8085 9.74717C20.7059 9.84973 20.6483 9.98883 20.6483 10.1339V13.2763C20.6483 13.4214 20.7059 13.5605 20.8085 13.663C20.911 13.7656 21.0501 13.8232 21.1952 13.8232H24.3376C24.4826 13.8232 24.6217 13.7656 24.7243 13.663C24.8268 13.5605 24.8844 13.4214 24.8844 13.2763V10.1339C24.8844 9.98883 24.8268 9.84973 24.7243 9.74717C24.6217 9.64461 24.4826 9.58699 24.3376 9.58699ZM23.7907 12.7295H21.742V10.6807H23.7907V12.7295ZM33.6395 33.3594H32.65V15.3861C32.65 15.2411 32.5924 15.102 32.4898 14.9994C32.3873 14.8969 32.2482 14.8392 32.1031 14.8392H27.0085V8.02409C27.0085 7.87905 26.9509 7.73995 26.8483 7.63739C26.7458 7.53483 26.6067 7.47722 26.4616 7.47722H18.0469V5.42145H22.6315C22.7279 5.42144 22.8226 5.39596 22.906 5.34758C22.9894 5.2992 23.0585 5.22964 23.1063 5.14594C23.1541 5.06225 23.179 4.9674 23.1784 4.87101C23.1777 4.77461 23.1516 4.68009 23.1027 4.59703L22.1529 2.98416L23.1027 1.37122C23.1516 1.28816 23.1777 1.19365 23.1784 1.09726C23.179 1.00086 23.1541 0.906015 23.1063 0.822326C23.0585 0.738637 22.9894 0.669082 22.906 0.620708C22.8226 0.572335 22.7279 0.546864 22.6315 0.546875H17.5C17.3549 0.546875 17.2158 0.604492 17.1133 0.707051C17.0107 0.80961 16.9531 0.94871 16.9531 1.09375V7.47722H8.53841C8.39337 7.47722 8.25427 7.53483 8.15171 7.63739C8.04916 7.73995 7.99154 7.87905 7.99154 8.02409V14.8392H2.89692C2.75188 14.8392 2.61278 14.8969 2.51022 14.9994C2.40766 15.102 2.35004 15.2411 2.35004 15.3861V33.3592H1.36047C1.21543 33.3592 1.07633 33.4168 0.973775 33.5193C0.871216 33.6219 0.813599 33.761 0.813599 33.906C0.813599 34.0511 0.871216 34.1902 0.973775 34.2927C1.07633 34.3953 1.21543 34.4529 1.36047 34.4529H2.89295C2.89432 34.4529 2.89562 34.4531 2.89692 34.4531H33.6395C33.7845 34.4531 33.9236 34.3955 34.0262 34.2929C34.1288 34.1904 34.1864 34.0513 34.1864 33.9062C34.1864 33.7612 34.1288 33.6221 34.0262 33.5196C33.9236 33.417 33.7845 33.3594 33.6395 33.3594ZM21.0472 3.2617L21.6749 4.3277H18.0469V1.64062H21.6748L21.0471 2.70662C20.9976 2.79073 20.9715 2.88656 20.9715 2.98417C20.9715 3.08178 20.9976 3.1776 21.0472 3.2617ZM9.08529 8.57097H17.4986L17.5 8.57104L17.5014 8.57097H25.9148V14.8392H9.08536V8.57097H9.08529ZM3.44379 15.933H8.53711L8.53848 15.9331L8.53985 15.933H14.3925V21.3131C14.3925 21.4581 14.4501 21.5972 14.5527 21.6998C14.6552 21.8023 14.7943 21.86 14.9394 21.86C15.0844 21.86 15.2235 21.8023 15.3261 21.6998C15.4286 21.5972 15.4863 21.4581 15.4863 21.3131V15.933H16.9531V22.5328C16.9531 22.6779 17.0107 22.817 17.1133 22.9195C17.2158 23.0221 17.3549 23.0797 17.5 23.0797C17.645 23.0797 17.7841 23.0221 17.8867 22.9195C17.9892 22.817 18.0469 22.6779 18.0469 22.5328V15.933H19.5137V21.3131C19.5137 21.4581 19.5713 21.5972 19.6739 21.6998C19.7765 21.8023 19.9156 21.86 20.0606 21.86C20.2056 21.86 20.3447 21.8023 20.4473 21.6998C20.5498 21.5972 20.6075 21.4581 20.6075 21.3131V15.933H26.4603L26.4616 15.9331L26.463 15.933H31.5563V33.3594H21.3667V25.9098C21.3667 25.7647 21.3091 25.6256 21.2066 25.5231C21.104 25.4205 20.9649 25.3629 20.8199 25.3629H14.18C14.0349 25.3629 13.8958 25.4205 13.7933 25.5231C13.6907 25.6256 13.6331 25.7647 13.6331 25.9098V33.3594H3.44379V15.933ZM18.0469 26.4567H20.273V33.3594H18.0469V26.4567ZM16.9531 33.3594H14.7269V26.4567H16.9531V33.3594Z" fill="#13484E"/>
</g>
</g>
<defs>
<clipPath id="clip0_210_251">
<rect width="35" height="35" fill="white"/>
</clipPath>
</defs>
</svg>
