<svg width="35" height="35" viewBox="0 0 35 35" fill="none" xmlns="http://www.w3.org/2000/svg">
<g id="Frame" clip-path="url(#clip0_210_220)">
<g id="Group">
<path id="Vector" d="M13.7349 28.7026C13.4508 28.4172 12.9891 28.4163 12.7037 28.7006C12.4184 28.9847 12.4175 29.4464 12.7017 29.7318L13.6309 30.6647C13.6985 30.7329 13.779 30.7869 13.8677 30.8237C13.9564 30.8606 14.0515 30.8795 14.1475 30.8793C14.243 30.8794 14.3376 30.8607 14.4259 30.8242C14.5142 30.7878 14.5945 30.7343 14.6621 30.6668C14.9474 30.3827 14.9483 29.9209 14.6641 29.6356L13.7349 28.7026ZM17.6087 29.4788H16.2499C15.8472 29.4788 15.5207 29.8053 15.5207 30.208C15.5207 30.6107 15.8472 30.9371 16.2499 30.9371H17.6087C18.0114 30.9371 18.3379 30.6107 18.3379 30.208C18.3379 29.8053 18.0113 29.4788 17.6087 29.4788ZM25.4391 19.2808C25.246 18.9273 24.8031 18.7972 24.4497 18.9902C24.0962 19.1832 23.9661 19.6262 24.1591 19.9796L24.943 21.4153C24.9889 21.4994 25.0509 21.5736 25.1254 21.6337C25.2 21.6938 25.2856 21.7386 25.3775 21.7656C25.4694 21.7926 25.5657 21.8012 25.6609 21.7909C25.7561 21.7807 25.8484 21.7518 25.9324 21.7059C26.2859 21.5129 26.416 21.0698 26.223 20.7165L25.4391 19.2808Z" fill="#13484E"/>
<path id="Vector_2" d="M35 16.0373C35 15.0783 34.4178 14.2527 33.5882 13.8946V8.18027L34.6018 7.66183C34.7292 7.59662 34.8346 7.49534 34.9049 7.37063C34.9752 7.2459 35.0072 7.10326 34.9969 6.96048C34.9867 6.81769 34.9346 6.68109 34.8472 6.56769C34.7599 6.45429 34.641 6.36912 34.5056 6.32279L17.904 0.647833C17.7525 0.596246 17.5883 0.595734 17.4365 0.646375L0.497555 6.32126C0.360757 6.36714 0.240641 6.45255 0.152403 6.56671C0.0641645 6.68087 0.0117702 6.81864 0.00184871 6.96258C-0.00807273 7.10652 0.0249246 7.25017 0.0966658 7.37536C0.168407 7.50054 0.275668 7.60163 0.404878 7.66584L8.70032 11.7848L7.95576 15.8429C7.95241 15.8475 7.94862 15.8514 7.94541 15.8561C6.54716 17.8448 5.80808 20.1835 5.80808 22.6191C5.80808 29.1102 11.0886 34.3912 17.5792 34.3912C24.0703 34.3912 29.3513 29.1102 29.3513 22.6191C29.3513 20.3259 28.6922 18.1121 27.4468 16.2018C27.4431 16.1731 27.4378 16.1447 27.4308 16.1167L26.628 11.7407L32.1298 8.92628V13.7671C31.101 14.01 30.3326 14.9353 30.3326 16.0373C30.3326 17.0722 31.0083 17.9516 31.9408 18.2576C31.9387 18.2803 31.9374 18.3031 31.9374 18.326C31.9374 18.5185 32.0147 18.7059 32.1503 18.8415C32.2875 18.9781 32.473 19.0549 32.6666 19.0552C32.8583 19.0552 33.0457 18.9778 33.182 18.8415C33.3183 18.7045 33.3951 18.5193 33.3957 18.326C33.3957 18.303 33.3944 18.2801 33.3922 18.2573C34.3247 17.9508 35 17.0718 35 16.0373ZM27.8928 22.619C27.893 28.3061 23.2663 32.9329 17.5792 32.9329C11.8928 32.9329 7.26641 28.3061 7.26641 22.6191C7.26641 20.6185 7.83538 18.693 8.91564 17.0248H17.4042C18.0091 17.3792 18.0531 17.5939 18.0532 17.5959C18.053 17.6662 17.8055 18.0571 16.6656 18.5509C15.8563 18.9015 15.0267 19.119 14.9327 19.1432C14.4906 19.2406 11.1755 20.0404 10.5776 22.2301C10.2457 23.4455 10.8196 24.7486 12.2835 26.1033C12.2902 26.1095 12.2969 26.1154 12.3036 26.1213C12.4056 26.2088 14.5354 28.004 17.567 28.0038C18.0399 28.0038 18.5119 27.96 18.9768 27.8729C19.67 27.7434 20.1517 27.8158 20.4082 28.0881C20.8812 28.5903 20.7193 29.7792 20.6258 30.1543C20.5966 30.2686 20.5955 30.3883 20.6228 30.5031C20.65 30.6179 20.7047 30.7243 20.7822 30.8133C20.8597 30.9023 20.9575 30.9712 21.0675 31.014C21.1774 31.0568 21.2961 31.0723 21.4133 31.0592C21.4863 31.0511 23.2126 30.8427 24.3549 29.3989C25.1581 28.3837 25.4654 27.0448 25.2684 25.4193C24.9158 22.5048 23.6159 20.7219 22.6426 19.7675C23.5567 19.3295 24.6946 18.5097 25.2673 17.0247H26.2425C27.3218 18.6914 27.8928 20.6206 27.8928 22.619ZM20.7997 20.1477C20.9034 20.2071 23.3431 21.6461 23.8208 25.5947C24.006 27.1223 23.643 28.2544 22.7422 28.9594C22.5591 29.1027 22.3699 29.2154 22.1904 29.3039C22.1994 28.5944 22.0629 27.7214 21.4739 27.0927C20.8551 26.4322 19.9251 26.2126 18.7091 26.4396C15.734 26.9959 13.408 25.1414 13.2612 25.021C12.5547 24.3647 11.766 23.4188 11.9842 22.6157C12.2987 21.4589 14.5072 20.7297 15.2552 20.5656C15.2626 20.5641 15.2699 20.5623 15.2773 20.5605C15.3152 20.551 16.2194 20.3235 17.1584 19.9265C18.6248 19.3066 19.3903 18.6073 19.4989 17.7886C19.5339 17.5246 19.4991 17.2701 19.3983 17.025H23.6478C22.7815 18.4547 21.1109 18.7802 21.0322 18.7948C20.7281 18.8481 20.4888 19.0861 20.4374 19.3906C20.412 19.5387 20.4332 19.6912 20.4981 19.8268C20.563 19.9624 20.6684 20.0746 20.7997 20.1477ZM9.48913 15.5664L10.3522 10.8623H24.9842L25.8472 15.5664H9.48913ZM26.3533 10.2433L26.309 10.0016C26.2782 9.83382 26.1896 9.68217 26.0585 9.57299C25.9275 9.46381 25.7623 9.40403 25.5918 9.40403H9.74463C9.57407 9.40403 9.4089 9.46381 9.27787 9.57299C9.14683 9.68217 9.05821 9.83382 9.02742 10.0016L8.97412 10.2924L2.63299 7.14391L17.6659 2.10762L32.407 7.1466L26.3533 10.2433ZM32.6658 16.9154C32.1836 16.9154 31.7911 16.5215 31.7911 16.0373C31.7911 15.5551 32.1836 15.1626 32.6658 15.1626C33.1488 15.1626 33.5417 15.5551 33.5417 16.0373C33.5416 16.5215 33.1488 16.9154 32.6658 16.9154Z" fill="#13484E"/>
</g>
</g>
<defs>
<clipPath id="clip0_210_220">
<rect width="35" height="35" fill="white"/>
</clipPath>
</defs>
</svg>
