<svg width="35" height="35" viewBox="0 0 35 35" fill="none" xmlns="http://www.w3.org/2000/svg">
<g id="Frame" clip-path="url(#clip0_210_224)">
<g id="Group">
<path id="Vector" d="M34.9772 19.6707C34.9999 19.5691 34.9944 19.4632 34.9615 19.3645C34.5615 13.5849 29.7791 9.08762 23.9857 9.04321C22.0522 2.5618 15.2305 -1.12507 8.74907 0.808487C2.26758 2.74205 -1.41922 9.56375 0.51427 16.0452C1.01737 17.7316 1.87803 19.2898 3.03762 20.6136C4.1972 21.9374 5.62848 22.9958 7.23397 23.7166C6.08499 24.3313 5.01756 25.0876 4.05663 25.9677L2.39241 27.493C1.67989 28.1461 1.63162 29.253 2.28465 29.9655C2.35763 30.0452 2.43784 30.1179 2.52424 30.1827L4.4002 31.5897C7.1005 33.6064 10.3788 34.6991 13.7491 34.7058H15.4185C18.7884 34.6988 22.0662 33.6061 24.7662 31.5897L25.4265 31.0945C30.9152 30.3512 35.0071 25.6616 35 20.1228C35 19.97 34.9831 19.8218 34.9772 19.6707ZM31.9183 14.2896C32.9742 15.7278 33.6194 17.4259 33.7849 19.2023L33.2903 19.4496L30.4262 17.5404L31.3566 14.2896H31.9183ZM27.9716 11.0843C29.0746 11.5783 30.0783 12.2691 30.9337 13.123H30.9168C30.79 13.123 30.6667 13.1644 30.5656 13.2408C30.4644 13.3173 30.3909 13.4245 30.3562 13.5464L29.263 17.3719L27.3888 18.2363L24.5002 16.3108V14.0102L27.7517 11.7352C27.8525 11.664 27.9281 11.5625 27.9676 11.4456C28.0072 11.3286 28.0085 11.2021 27.9716 11.0843ZM14.7955 13.8422C14.733 13.8933 14.6817 13.9569 14.645 14.0288C14.6382 14.0497 14.6326 14.0709 14.6281 14.0924L13.0753 12.5396L14.9285 10.6864C15.4214 11.1345 15.9499 11.5419 16.5088 11.9044H16.5076C15.8636 12.4817 15.2891 13.132 14.7955 13.8422ZM14.0279 15.1412C13.3664 16.4501 12.9735 17.8781 12.8723 19.3411C12.3327 17.8138 11.4929 16.4098 10.4026 15.2118L12.2494 13.3627L14.0279 15.1412ZM15.4051 15.0607L15.8718 15.2941L16.8132 17.6472L14.4671 19.9962L14.0168 19.7711C14.0741 18.1089 14.5517 16.4883 15.4051 15.0607ZM14.3225 21.2253C14.432 21.2799 14.5559 21.2987 14.6767 21.2791C14.7976 21.2594 14.9091 21.2022 14.9956 21.1156L17.6404 18.4714L19.9346 19.389L21.0225 23.1963C21.0331 23.2258 21.0464 23.2543 21.0622 23.2815C19.029 22.3518 16.8194 21.8713 14.5838 21.8728C14.4461 21.8728 14.3091 21.8786 14.1714 21.8821L14.1702 21.8792C14.1236 21.6178 14.0792 21.3542 14.0536 21.0905L14.3225 21.2253ZM20.3488 18.3005L17.949 17.3404L16.8757 14.6571C16.8226 14.5242 16.7225 14.4154 16.5945 14.3514L16.0695 14.0878C17.0674 12.7891 18.3701 11.7564 19.8623 11.0813C19.8253 11.1992 19.8267 11.3257 19.8662 11.4426C19.9057 11.5596 19.9813 11.6611 20.0822 11.7323L23.3336 14.0102V16.3108L20.3488 18.3005ZM23.9169 17.3229L26.6784 19.1679C26.683 19.1802 26.6819 19.193 26.6877 19.2052C26.6984 19.2254 26.7105 19.245 26.7239 19.2636L25.8104 22.4561H22.0235L21.0948 19.2052L23.9169 17.3229ZM26.5728 10.5785V10.5814L26.7244 11.0312L23.9169 12.994L21.1094 11.0283L21.2611 10.5785C22.9969 10.0823 24.837 10.0823 26.5728 10.5785ZM22.7864 9.09805C20.8674 9.2965 19.0342 9.99594 17.4707 11.1262C16.8594 10.7605 16.2847 10.3368 15.7545 9.86103L20.4858 5.13147C21.5211 6.2786 22.3048 7.62977 22.7864 9.09805ZM19.654 4.31074L14.9291 9.03563C13.2774 7.20436 12.2859 4.87317 12.1123 2.4132L12.0446 1.47172C14.8497 1.41683 17.5704 2.43192 19.654 4.31074ZM10.8815 1.55689L10.9486 2.49603C11.1411 5.23653 12.2523 7.83199 14.1026 9.86278L12.2505 11.7148L4.84702 4.31074C6.52769 2.79444 8.63478 1.83286 10.8815 1.55689ZM4.02221 5.13555L11.4257 12.5396L9.57833 14.387C7.54563 12.5375 4.94849 11.4277 2.20692 11.2371L1.26719 11.17C1.54353 8.92318 2.50552 6.81609 4.02221 5.13555ZM1.18261 12.3337L2.12409 12.4008C4.58479 12.5728 6.91731 13.5626 8.7506 15.213L4.02046 19.9437C2.14214 17.8597 1.12749 15.1388 1.18261 12.3337ZM4.83886 20.7767L9.57833 16.0396C11.0815 17.7144 12.0365 19.8088 12.3153 22.0419C11.0707 22.2242 9.85294 22.5572 8.68877 23.0336C7.26606 22.5494 5.95634 21.7816 4.83886 20.7767ZM26.0245 29.1771C26.0001 29.2036 25.9733 29.2279 25.9445 29.2495L24.0657 30.657C21.568 32.5221 18.5358 33.5328 15.4185 33.5392H13.7491C10.6318 33.5328 7.59965 32.5221 5.10194 30.657L3.2254 29.2495C3.15683 29.1981 3.10044 29.1322 3.06023 29.0565C3.02002 28.9808 2.99698 28.8972 2.99274 28.8116C2.98851 28.726 3.00319 28.6405 3.03574 28.5613C3.06829 28.482 3.11791 28.4109 3.18106 28.3529L4.84236 26.8275C6.02993 25.7452 7.39039 24.8694 8.86727 24.2364C8.95583 24.2199 9.03932 24.183 9.11109 24.1285C14.2761 21.9953 20.2093 23.0478 24.3252 26.8275L25.9889 28.3529C26.1029 28.4575 26.1707 28.6031 26.1773 28.7576C26.184 28.9122 26.129 29.0631 26.0245 29.1771ZM25.111 25.9677C24.1001 25.0419 22.9715 24.2535 21.7546 23.6227H26.0087L27.292 24.906L26.2409 27.006L25.111 25.9677ZM27.1876 29.4798C27.3037 29.2301 27.356 28.9555 27.3398 28.6807C27.3236 28.4058 27.2394 28.1392 27.0948 27.9049L28.3606 25.3727H31.7229L31.9825 25.8918C30.794 27.5553 29.1187 28.8089 27.1876 29.4798ZM32.7 24.7211L32.6084 24.5286C32.5597 24.4312 32.4847 24.3494 32.392 24.2923C32.2992 24.2353 32.1923 24.2054 32.0834 24.206H28.2417L26.9053 22.8696L27.9337 19.27L29.6982 18.4562L32.9263 20.6081C33.0117 20.665 33.1106 20.6983 33.213 20.7048C33.3154 20.7113 33.4177 20.6906 33.5096 20.6449L33.8147 20.492C33.7636 21.9673 33.3827 23.4123 32.7 24.7211Z" fill="#13484E"/>
<path id="Vector_2" d="M19.8337 27.7059H19.2504V27.1226C19.2504 26.9679 19.1889 26.8196 19.0795 26.7102C18.9701 26.6008 18.8218 26.5393 18.6671 26.5393C18.5124 26.5393 18.364 26.6008 18.2546 26.7102C18.1452 26.8196 18.0837 26.9679 18.0837 27.1226V27.7059H16.9171V27.1226C16.9171 26.9679 16.8556 26.8196 16.7463 26.7102C16.6369 26.6008 16.4885 26.5393 16.3338 26.5393C16.1791 26.5393 16.0307 26.6008 15.9213 26.7102C15.8119 26.8196 15.7505 26.9679 15.7505 27.1226V27.7059H14.5838V27.1226C14.5838 26.9679 14.5224 26.8196 14.413 26.7102C14.3036 26.6008 14.1552 26.5393 14.0005 26.5393C13.8458 26.5393 13.6974 26.6008 13.588 26.7102C13.4786 26.8196 13.4172 26.9679 13.4172 27.1226V27.7059H12.2505V27.1226C12.2505 26.9679 12.1891 26.8196 12.0797 26.7102C11.9703 26.6008 11.8219 26.5393 11.6672 26.5393C11.5125 26.5393 11.3641 26.6008 11.2548 26.7102C11.1454 26.8196 11.0839 26.9679 11.0839 27.1226V27.7059H9.91726V27.1226C9.91726 26.9679 9.85581 26.8196 9.74641 26.7102C9.63702 26.6008 9.48865 26.5393 9.33394 26.5393C9.17924 26.5393 9.03087 26.6008 8.92147 26.7102C8.81208 26.8196 8.75062 26.9679 8.75062 27.1226V27.7059H8.1673C8.0126 27.7059 7.86423 27.7674 7.75483 27.8768C7.64544 27.9862 7.58398 28.1346 7.58398 28.2893C7.58398 28.444 7.64544 28.5923 7.75483 28.7017C7.86423 28.8111 8.0126 28.8726 8.1673 28.8726H8.75062V29.4559C8.75062 29.6106 8.81208 29.759 8.92147 29.8684C9.03087 29.9778 9.17924 30.0392 9.33394 30.0392C9.48865 30.0392 9.63702 29.9778 9.74641 29.8684C9.85581 29.759 9.91726 29.6106 9.91726 29.4559V28.8726H11.0839V29.4559C11.0839 29.6106 11.1454 29.759 11.2548 29.8684C11.3641 29.9778 11.5125 30.0392 11.6672 30.0392C11.8219 30.0392 11.9703 29.9778 12.0797 29.8684C12.1891 29.759 12.2505 29.6106 12.2505 29.4559V28.8726H13.4172V29.4559C13.4172 29.6106 13.4786 29.759 13.588 29.8684C13.6974 29.9778 13.8458 30.0392 14.0005 30.0392C14.1552 30.0392 14.3036 29.9778 14.413 29.8684C14.5224 29.759 14.5838 29.6106 14.5838 29.4559V28.8726H15.7505V29.4559C15.7505 29.6106 15.8119 29.759 15.9213 29.8684C16.0307 29.9778 16.1791 30.0392 16.3338 30.0392C16.4885 30.0392 16.6369 29.9778 16.7463 29.8684C16.8556 29.759 16.9171 29.6106 16.9171 29.4559V28.8726H18.0837V29.4559C18.0837 29.6106 18.1452 29.759 18.2546 29.8684C18.364 29.9778 18.5124 30.0392 18.6671 30.0392C18.8218 30.0392 18.9701 29.9778 19.0795 29.8684C19.1889 29.759 19.2504 29.6106 19.2504 29.4559V28.8726H19.8337C19.9884 28.8726 20.1368 28.8111 20.2462 28.7017C20.3556 28.5923 20.417 28.444 20.417 28.2893C20.417 28.1346 20.3556 27.9862 20.2462 27.8768C20.1368 27.7674 19.9884 27.7059 19.8337 27.7059Z" fill="#13484E"/>
</g>
</g>
<defs>
<clipPath id="clip0_210_224">
<rect width="35" height="35" fill="white"/>
</clipPath>
</defs>
</svg>
