<svg width="191" height="64" viewBox="0 0 191 64" fill="none" xmlns="http://www.w3.org/2000/svg">
<rect width="191" height="64" fill="#858585"/>
<g id="Home Page" clip-path="url(#clip0_1_232)">
<rect width="1440" height="5208" transform="translate(-149 -3805)" fill="white"/>
<g id="App section">
<rect id="Rectangle 16" x="-149" y="-440" width="1440" height="686" fill="#F8F8F6"/>
<g id="Mask group" opacity="0.6">
<mask id="mask0_1_232" style="mask-type:alpha" maskUnits="userSpaceOnUse" x="-149" y="-440" width="1440" height="686">
<rect id="Rectangle 17" x="1291" y="246" width="1440" height="686" transform="rotate(180 1291 246)" fill="#F8F8F6"/>
</mask>
<g mask="url(#mask0_1_232)">
<g id="Group">
<path id="Vector" d="M1764.64 -442.41C1756.27 -402.333 1707 -357.402 1654.85 -346.552C1602.71 -335.702 1538.89 -350.954 1493.34 -327.276C1451.7 -305.625 1450.72 -239.743 1405.53 -223.669C1358.55 -207.107 1278.07 -246.458 1229.82 -232.866C1160.99 -213.549 1125.36 -154.948 1102.33 -102.165C1079.55 -49.424 1055.91 9.41478 994.071 40.7014C947.454 64.3535 889.306 66.0511 836.911 60.6593C784.516 55.2676 733.735 43.4585 680.055 43.2393C626.376 43.02 566.78 57.0646 533.59 91.4429C486.987 139.714 510.185 223.709 445.936 258.166C385.835 290.361 309.22 253.559 235.552 277.434C180.042 295.382 188.197 396.314 140.535 442.97C113.686 468.972 52.5213 479.896 13.291 472.168" stroke="#ABB1B1" stroke-width="0.35" stroke-miterlimit="10"/>
<path id="Vector_2" d="M1742.28 -444.34C1733.89 -404.457 1685.04 -360.19 1633.44 -349.231C1581.84 -338.272 1518.54 -353.607 1473.25 -329.971C1432.1 -308.598 1431.05 -243.102 1386.35 -227.306C1339.89 -210.828 1259.99 -249.876 1212.26 -236.368C1144.17 -217.371 1108.74 -159.199 1085.9 -106.844C1063.32 -54.5324 1039.85 3.68398 978.489 34.6931C932.1 58.1097 874.5 59.9168 822.623 54.441C770.487 49.0072 720.286 37.5011 667.124 37.1978C613.962 36.8945 554.884 50.8551 521.889 84.8044C475.741 132.604 498.813 215.826 435.051 250.005C375.436 281.923 299.659 245.382 226.736 268.937C171.744 286.801 180.001 386.724 132.535 432.951C105.945 458.911 45.2657 469.557 6.32552 461.981" stroke="#ABB1B1" stroke-width="0.35" stroke-miterlimit="10"/>
<path id="Vector_3" d="M1719.89 -446.463C1711.7 -407.009 1663.33 -363.019 1611.96 -352.295C1560.85 -341.614 1498.13 -356.646 1453.32 -333.288C1412.69 -311.999 1411.52 -247.277 1367.07 -231.522C1321.1 -215.322 1242.07 -253.916 1194.57 -240.643C1127 -221.73 1091.76 -163.987 1069.35 -112.297C1046.93 -60.6073 1023.65 -2.81985 963.041 27.8698C917.137 51.0089 860.055 52.732 808.468 47.4077C756.881 42.0833 706.939 30.5352 654.326 30.3413C601.713 30.1474 543.12 43.8306 510.353 77.5444C464.401 124.915 487.348 207.363 424.361 241.417C365.232 273.057 290.036 236.818 217.889 260.248C163.383 277.834 171.514 376.983 124.503 422.739C98.14 448.464 37.9787 459.026 -0.444041 451.366" stroke="#ABB1B1" stroke-width="0.35" stroke-miterlimit="10"/>
<path id="Vector_4" d="M1697.51 -448.586C1689.25 -409.519 1641.34 -366 1590.52 -355.167C1539.66 -344.528 1477.49 -359.451 1433.17 -336.37C1392.77 -315.316 1391.76 -251.217 1347.83 -235.546C1302.12 -219.388 1223.93 -257.721 1176.94 -244.532C1110.12 -225.939 1075.07 -168.624 1052.86 -117.363C1030.64 -66.1025 1007.55 -8.74399 947.428 21.6682C902.011 44.5298 845.478 46.3623 794.408 40.954C743.37 35.7391 693.976 24.3003 641.622 24.0645C589.526 23.7866 531.452 37.3857 499.17 70.8221C453.673 117.722 476.525 199.589 413.735 233.214C355.092 264.577 280.766 228.793 209.105 251.944C155.117 269.447 163.091 367.629 116.566 413.107C90.6891 438.554 30.7864 449.075 -7.34617 441.566" stroke="#ABB1B1" stroke-width="0.35" stroke-miterlimit="10"/>
<path id="Vector_5" d="M1675.12 -450.71C1667.06 -412.071 1619.38 -368.788 1569.3 -358.275C1518.96 -347.719 1457.34 -362.532 1413.53 -339.536C1373.62 -318.759 1372.55 -255.047 1328.84 -239.612C1283.62 -223.731 1206.04 -261.568 1159.57 -248.463C1093.26 -229.953 1058.64 -173.303 1036.62 -122.472C1014.6 -71.6397 991.681 -14.9035 932.042 15.2312C887.142 38.0088 830.837 39.6058 780.347 34.5003C729.827 29.2014 680.724 17.9141 629.177 17.7457C577.63 17.5772 520.073 31.0923 487.988 64.0998C442.944 110.529 465.413 191.664 403.367 224.969C345.469 256.013 271.724 220.532 200.549 243.406C147.046 260.631 154.895 358.039 108.824 403.046C83.1749 428.258 23.7897 438.694 -14.0841 431.143" stroke="#ABB1B1" stroke-width="0.35" stroke-miterlimit="10"/>
<path id="Vector_6" d="M1652.74 -452.833C1644.64 -414.388 1597.67 -371.618 1547.85 -361.146C1498.03 -350.674 1436.96 -365.379 1393.38 -342.617C1353.73 -321.883 1352.79 -258.986 1309.6 -243.635C1264.9 -227.839 1187.9 -265.373 1141.91 -252.545C1076.12 -234.12 1041.93 -178.134 1020.1 -127.731C998.276 -77.3281 975.778 -21.2563 916.625 8.60096C871.953 31.1431 816.455 32.8075 766.483 27.618C716.252 22.4705 667.698 11.2927 616.669 11.0403C565.381 10.8298 508.6 24.2189 476.742 56.9908C432.185 103.142 454.496 183.311 392.937 216.338C335.525 247.104 262.36 211.926 191.961 234.674C138.976 251.815 146.668 348.256 101.31 392.75C75.8881 417.726 17.2791 428.037 -20.3045 420.637" stroke="#ABB1B1" stroke-width="0.35" stroke-miterlimit="10"/>
<path id="Vector_7" d="M1630.38 -454.763C1622.48 -416.747 1575.71 -374.406 1526.41 -364.018C1477.11 -353.631 1416.58 -368.225 1373.49 -345.742C1334.32 -325.285 1333.28 -262.968 1290.36 -247.659C1245.91 -231.905 1169.75 -269.178 1124.28 -256.435C1059.24 -238.328 1025.27 -182.578 1003.61 -132.798C981.981 -82.8237 959.679 -27.1808 901.012 2.39892C856.826 24.6636 801.877 26.4375 752.164 21.206C702.45 15.9745 654.445 4.90608 603.706 4.80505C552.936 4.51057 496.672 17.8156 465.041 50.3521C420.939 96.0327 442.866 175.469 382.051 208.177C325.125 238.666 252.799 203.748 182.918 226.412C130.45 243.469 138.244 338.901 93.0827 382.966C67.8877 407.707 9.79624 417.933 -27.4973 410.685" stroke="#ABB1B1" stroke-width="0.35" stroke-miterlimit="10"/>
<path id="Vector_8" d="M1607.99 -456.886C1600.03 -419.257 1554 -377.235 1504.96 -366.89C1456.18 -356.586 1396.2 -371.071 1353.6 -348.865C1314.65 -328.643 1313.81 -266.756 1271.37 -251.725C1227.41 -236.247 1151.87 -273.024 1106.66 -260.323C1042.13 -242.301 1008.58 -187.215 987.12 -137.863C965.655 -88.5116 943.549 -33.2977 885.627 -4.03746C841.958 18.1432 787.236 19.6816 738.072 14.5595C688.907 9.43747 641.192 -1.47949 590.939 -1.858C540.718 -2.04305 484.682 11.0265 453.537 43.2855C409.889 88.4953 431.722 167.351 371.362 199.588C314.922 229.799 243.176 195.185 174.299 217.488C122.317 234.267 129.985 328.925 85.3098 372.713C60.3421 397.218 2.76827 407.36 -34.0077 400.028" stroke="#ABB1B1" stroke-width="0.35" stroke-miterlimit="10"/>
<path id="Vector_9" d="M1585.61 -459.009C1577.84 -421.809 1532.01 -380.216 1483.74 -369.997C1435.48 -359.777 1376.05 -374.153 1333.7 -351.989C1295.28 -331.851 1294.31 -270.738 1252.13 -255.748C1208.69 -240.355 1133.98 -276.871 1089.03 -264.212C1025.28 -246.316 991.897 -191.852 970.629 -142.929C949.36 -94.0068 927.419 -39.4153 869.983 -10.4325C826.541 11.5127 772.627 13.1186 724.011 8.10593C675.396 3.09329 628.198 -7.90771 578.236 -8.13477C528.531 -8.40385 473.013 4.58168 442.095 36.6052C398.644 81.3861 420.351 159.468 360.736 191.386C304.782 221.319 233.906 187.159 165.515 209.184C114.051 225.88 121.562 319.57 77.341 362.887C52.6007 387.157 -4.4558 397.215 -40.9417 390.035" stroke="#ABB1B1" stroke-width="0.35" stroke-miterlimit="10"/>
<path id="Vector_10" d="M1563.22 -461.133C1555.42 -424.126 1510.05 -383.004 1462.3 -372.869C1414.26 -362.885 1355.7 -376.806 1313.81 -355.113C1275.61 -335.211 1274.58 -274.484 1233.15 -259.814C1189.93 -244.657 1116.09 -280.718 1071.63 -268.336C1008.36 -250.718 975.438 -196.725 954.365 -148.231C933.293 -99.7375 911.547 -45.5749 854.856 -16.9116C811.9 4.75608 758.535 6.47139 710.178 1.41673C661.822 -3.63793 615.204 -14.336 566.018 -14.6891C516.862 -14.8488 461.861 -1.94726 431.399 29.6054C388.402 73.9152 409.983 151.224 350.885 183.057C295.676 212.671 225.123 178.856 157.507 200.755C106.529 217.173 113.914 310.09 70.1484 352.936C45.6355 376.97 -10.9033 386.944 -46.8717 379.68" stroke="#ABB1B1" stroke-width="0.35" stroke-miterlimit="10"/>
<path id="Vector_11" d="M1540.87 -463.062C1533.26 -426.485 1488.37 -385.64 1440.85 -375.74C1393.33 -365.84 1335.32 -379.652 1293.66 -358.194C1255.95 -338.57 1254.82 -278.423 1213.62 -263.989C1170.92 -248.915 1097.66 -284.674 1053.71 -272.376C990.965 -254.842 958.492 -201.32 937.584 -153.449C916.707 -105.384 895.126 -51.8435 838.921 -23.4577C796.452 -2.06742 743.345 -0.39416 695.796 -5.38139C647.988 -10.3266 601.63 -21.0667 552.992 -21.3104C504.096 -21.512 449.871 -8.73657 419.635 22.5806C377.093 66.4195 398.29 142.996 339.678 174.552C284.955 203.889 215.241 170.334 148.111 191.956C97.6508 208.29 105.138 300.197 61.5678 342.615C37.2822 366.413 -18.7393 376.304 -54.4175 369.19" stroke="#ABB1B1" stroke-width="0.35" stroke-miterlimit="10"/>
<path id="Vector_12" d="M1518.48 -465.186C1510.81 -428.995 1466.38 -388.622 1419.41 -378.612C1372.4 -368.796 1314.68 -382.457 1273.79 -361.125C1236.34 -341.542 1235.35 -282.212 1194.66 -267.861C1152.48 -252.872 1079.8 -288.327 1036.37 -276.114C974.403 -258.705 942.096 -205.806 921.383 -158.363C900.703 -110.728 879.545 -57.8516 823.598 -29.5079C781.388 -8.15964 729.057 -6.61242 681.767 -11.6417C634.508 -16.4775 588.698 -27.1081 540.319 -27.3938C491.941 -27.6795 438.233 -14.988 408.194 15.9002C366.137 59.4617 387.177 135.071 329.052 166.35C274.815 195.409 205.939 162.115 139.327 183.653C89.3843 199.903 96.7141 290.843 53.6302 332.983C29.5719 356.546 -25.6733 366.31 -61.0614 359.348" stroke="#ABB1B1" stroke-width="0.35" stroke-miterlimit="10"/>
<path id="Vector_13" d="M1496.09 -467.309C1488.62 -431.547 1444.67 -391.451 1397.93 -381.677C1351.44 -371.945 1294.27 -385.496 1253.61 -364.4C1216.65 -345.095 1215.59 -286.151 1175.13 -272.036C1133.18 -257.282 1061.37 -292.284 1018.43 -280.347C956.94 -263.216 925.087 -210.788 904.571 -163.774C884.055 -116.761 863.124 -64.1204 807.891 -36.2896C766.167 -15.2189 714.354 -13.7556 667.385 -18.44C620.416 -23.1243 575.124 -33.839 527.294 -34.0152C479.464 -34.1915 426.242 -21.7775 396.43 8.87527C354.829 51.9658 375.516 127.037 318.104 157.802C264.353 186.584 196.058 153.593 130.222 175.005C80.7648 190.977 87.969 281.144 45.3398 322.812C21.5088 346.14 -33.2189 355.82 -68.3482 348.817" stroke="#ABB1B1" stroke-width="0.35" stroke-miterlimit="10"/>
<path id="Vector_14" d="M1473.45 -469.39C1465.94 -433.822 1422.42 -394.39 1376.45 -384.742C1330.48 -375.094 1273.86 -388.536 1233.69 -367.717C1196.95 -348.648 1196.06 -290.326 1156.11 -276.295C1114.68 -261.625 1043.45 -296.324 1001.03 -284.471C940.317 -267.466 908.628 -215.661 888.339 -168.882C868.019 -122.298 847.253 -70.2798 792.506 -42.7265C751.267 -21.9332 699.744 -20.3185 653.552 -25.1289C607.101 -29.8973 562.13 -40.2671 514.818 -40.5273C467.505 -40.7876 414.801 -28.4576 385.216 1.95966C344.069 44.5793 364.631 118.876 307.705 149.365C254.44 177.869 187.015 145.332 121.893 166.231C72.9533 182.119 80.0005 271.318 37.826 312.516C14.2224 335.609 -39.9879 345.205 -74.8271 338.353" stroke="#ABB1B1" stroke-width="0.35" stroke-miterlimit="10"/>
<path id="Vector_15" d="M1451.09 -471.32C1443.78 -436.181 1400.49 -396.985 1355.04 -387.421C1309.33 -377.815 1253.51 -391.189 1213.6 -370.412C1177.38 -351.427 1176.36 -293.879 1136.68 -279.89C1095.73 -265.498 1025.37 -299.742 982.943 -287.89C922.752 -270.969 891.518 -219.634 871.394 -173.478C851.269 -127.322 830.668 -75.9267 776.697 -48.4993C735.976 -27.7901 684.97 -26.2595 639.037 -31.1118C593.103 -35.9642 548.681 -46.2246 501.659 -46.3334C454.636 -46.4422 402.709 -34.2383 373.579 -4.29192C332.628 37.8987 353.063 111.422 296.882 141.591C244.362 169.775 177.259 137.584 112.913 158.357C64.4593 173.968 71.6397 262.351 29.661 303.12C6.28472 325.977 -47.4081 335.489 -81.6984 328.746" stroke="#ABB1B1" stroke-width="0.35" stroke-miterlimit="10"/>
<path id="Vector_16" d="M1428.71 -473.444C1421.34 -438.691 1378.78 -399.814 1333.56 -390.486C1288.37 -380.964 1233.1 -394.229 1193.67 -373.73C1157.68 -354.979 1156.86 -297.861 1117.66 -284.149C1076.97 -269.799 1007.45 -303.782 965.512 -292.207C906.065 -275.606 875.027 -224.7 855.099 -178.973C835.429 -133.288 814.765 -82.2794 761.248 -55.323C720.755 -34.8493 670.526 -33.4447 625.141 -38.1876C579.756 -42.9306 535.625 -53.0395 489.378 -53.2743C443.132 -53.5092 391.463 -41.3473 362.56 -11.6364C322.064 30.0834 342.374 102.833 286.679 132.724C234.645 160.631 168.381 128.701 104.552 149.389C56.6164 164.916 63.6396 252.332 22.4058 292.781C-0.743201 315.403 -53.9184 324.831 -87.95 318.046" stroke="#ABB1B1" stroke-width="0.35" stroke-miterlimit="10"/>
<path id="Vector_17" d="M1406.32 -475.567C1399.14 -441.243 1356.79 -402.796 1312.11 -393.358C1267.44 -383.92 1212.72 -397.075 1173.52 -376.811C1138.01 -358.339 1137.1 -301.801 1098.16 -288.131C1057.98 -273.864 989.047 -307.545 947.625 -296.054C888.696 -279.537 858.082 -229.295 838.349 -183.997C818.875 -138.741 798.634 -88.397 745.604 -61.7181C705.596 -41.5218 655.657 -39.9657 610.822 -44.5992C565.727 -49.1907 522.372 -59.4257 476.415 -59.5091C430.428 -59.7859 379.276 -47.708 350.86 -18.2746C310.818 22.9742 330.775 95.1852 275.825 124.757C224.277 152.387 158.593 120.759 95.5094 141.128C48.0908 156.571 54.9571 243.02 14.1779 282.998C-8.7437 305.384 -61.4015 314.728 -94.8841 308.053" stroke="#ABB1B1" stroke-width="0.35" stroke-miterlimit="10"/>
<path id="Vector_18" d="M1383.93 -477.69C1376.73 -443.56 1335.08 -405.626 1290.64 -396.423C1246.19 -387.221 1192.31 -400.115 1153.63 -379.935C1118.38 -361.505 1117.63 -305.589 1079.17 -292.197C1039.49 -278.208 971.16 -311.392 930.257 -299.985C871.814 -283.745 841.654 -233.974 822.117 -189.105C802.808 -144.472 782.762 -94.5566 730.25 -67.9617C690.728 -48.0429 641.338 -46.3774 596.761 -51.0529C552.184 -55.7285 509.15 -65.6185 463.712 -65.7859C418.273 -65.9533 367.607 -54.1529 339.418 -24.955C299.863 16.0163 319.663 87.26 264.94 116.597C213.878 143.949 149.033 112.582 86.4669 132.867C39.5344 148.032 46.2749 233.707 5.95038 273.215C-16.7439 295.365 -68.6254 304.583 -102.108 297.908" stroke="#ABB1B1" stroke-width="0.35" stroke-miterlimit="10"/>
<path id="Vector_19" d="M1361.58 -479.62C1354.57 -445.919 1313.12 -408.413 1269.48 -399.143C1225.81 -390.067 1172.22 -402.81 1133.77 -382.866C1099 -364.712 1098.16 -309.377 1059.96 -296.027C1020.53 -282.08 953.047 -315.003 912.629 -303.874C854.963 -287.76 824.998 -238.418 805.626 -194.171C786.513 -149.967 766.663 -100.48 714.606 -74.3565C675.343 -54.4797 626.698 -53.1337 582.669 -57.6998C538.641 -62.2659 495.866 -72.198 450.976 -72.256C406.055 -72.5074 355.907 -60.791 327.945 -31.8285C288.844 8.67185 308.26 79.1837 254.282 108.201C203.706 135.275 139.732 104.363 77.9104 124.329C31.4954 139.41 38.3375 224.075 -1.79102 263.154C-24.258 285.069 -75.6221 294.203 -108.556 287.637" stroke="#ABB1B1" stroke-width="0.35" stroke-miterlimit="10"/>
<path id="Vector_20" d="M1339.19 -481.743C1332.12 -448.429 1291.16 -411.2 1248 -402.208C1204.85 -393.216 1151.55 -405.807 1113.84 -386.182C1079.31 -368.265 1078.63 -313.552 1040.95 -300.286C1002.01 -286.616 935.129 -319.043 895.229 -307.998C838.08 -291.968 808.28 -243.248 789.363 -199.473C770.445 -155.697 750.761 -106.833 699.479 -80.835C660.702 -61.2357 612.347 -59.7383 568.836 -64.3884C525.357 -68.8451 483.131 -78.6677 438.5 -78.7677C394.128 -78.9097 344.497 -67.2773 316.99 -38.7858C278.343 1.24368 297.633 70.9818 244.141 99.7213C194.31 126.476 130.658 95.9089 69.5813 115.555C23.6523 130.359 30.3688 214.25 -9.27371 253.052C-31.5134 274.731 -82.36 283.781 -115.004 277.367" stroke="#ABB1B1" stroke-width="0.35" stroke-miterlimit="10"/>
<path id="Vector_21" d="M1316.8 -483.867C1309.96 -450.788 1269.45 -414.03 1226.56 -405.08C1183.66 -396.129 1131.17 -408.654 1093.98 -389.113C1059.96 -371.279 1058.93 -317.105 1021.74 -304.116C983.311 -290.53 916.984 -322.848 877.633 -311.693C821.229 -295.983 791.625 -247.692 772.903 -204.345C754.182 -160.999 734.661 -112.757 683.866 -87.0367C645.575 -67.7148 597.738 -66.3014 554.548 -70.6066C511.328 -75.1053 469.682 -84.625 425.568 -84.8091C381.455 -84.9931 332.6 -73.4867 305.321 -45.2307C266.87 -5.63013 286.035 63.3341 233.287 91.7542C183.943 118.232 121.129 87.9252 60.5698 107.487C15.1583 122.207 21.7178 205.131 -17.4701 243.462C-39.4824 264.906 -89.8115 273.872 -121.938 267.373" stroke="#ABB1B1" stroke-width="0.35" stroke-miterlimit="10"/>
<path id="Vector_22" d="M1294.42 -485.99C1287.51 -453.298 1247.46 -417.011 1205.08 -408.145C1162.7 -399.279 1110.76 -411.693 1073.79 -392.388C1040 -374.79 1039.14 -321.238 1002.46 -308.333C964.296 -294.789 899.066 -326.888 859.715 -315.733C803.828 -300.107 774.648 -252.481 756.122 -209.563C737.597 -166.645 718.272 -118.832 668.19 -93.6249C630.158 -74.3451 583.097 -73.0577 540.425 -77.4469C497.753 -81.8362 456.366 -91.3979 413.029 -91.708C369.433 -91.976 321.096 -80.5537 294.044 -52.5331C256.048 -13.4035 275.118 54.9804 222.825 82.9295C173.967 109.13 111.733 79.126 51.9505 98.562C7.05656 113.198 13.4589 195.155 -25.2742 233.014C-47.0592 254.223 -96.8709 263.105 -128.707 256.758" stroke="#ABB1B1" stroke-width="0.35" stroke-miterlimit="10"/>
<path id="Vector_23" d="M1272.06 -487.92C1265.35 -455.657 1225.79 -419.648 1183.92 -410.866C1142.06 -402.083 1090.67 -414.389 1054.19 -395.361C1020.89 -378.04 1019.93 -325.068 983.768 -312.248C946.088 -298.982 881.47 -330.584 842.605 -319.707C787.236 -304.164 758.51 -257.009 740.149 -214.713C721.788 -172.418 702.918 -125.076 653.095 -99.9108C615.549 -80.9084 568.778 -79.4696 526.623 -83.9428C484.469 -88.4161 443.662 -97.6749 400.584 -98.027C357.537 -98.1856 309.686 -87.0408 282.829 -59.4491C245.288 -20.7905 263.974 46.8616 212.426 74.4912C164.054 100.414 102.659 70.6711 43.3624 89.8296C-1.04554 104.188 5.48999 185.329 -33.0472 222.76C-54.6049 243.733 -103.899 252.531 -135.476 246.142" stroke="#ABB1B1" stroke-width="0.35" stroke-miterlimit="10"/>
<path id="Vector_24" d="M1249.68 -490.043C1242.9 -458.167 1203.79 -422.629 1162.45 -413.93C1121.1 -405.232 1070.26 -417.428 1034.01 -398.636C1000.96 -381.357 1000.17 -329.007 964.236 -316.422C927.072 -303.24 863.035 -334.54 824.688 -323.746C770.063 -308.523 741.533 -261.797 723.368 -219.931C705.203 -178.064 686.498 -131.345 637.16 -106.457C600.101 -87.7319 553.847 -86.3771 512.242 -90.7409C470.636 -95.1047 430.088 -104.406 387.559 -104.648C345.029 -104.891 297.696 -93.8301 271.066 -66.4738C234.011 -28.0927 252.54 38.5922 201.51 66.1377C153.623 91.783 92.8406 62.5365 34.2887 81.3755C-9.60172 95.6498 -3.22325 175.824 -41.2744 212.977C-62.6047 233.714 -111.123 242.386 -142.41 236.149" stroke="#ABB1B1" stroke-width="0.35" stroke-miterlimit="10"/>
<path id="Vector_25" d="M1227.29 -492.166C1220.74 -460.526 1181.83 -425.417 1141 -416.802C1100.18 -408.188 1049.88 -420.275 1014.15 -401.566C981.587 -384.565 980.698 -332.796 945.283 -320.295C908.347 -307.348 845.18 -338.193 807.35 -327.484C753.243 -312.345 725.137 -266.283 707.167 -224.846C689.198 -183.408 670.657 -137.311 622.065 -112.742C585.491 -94.2951 539.786 -92.8308 498.471 -97.0432C457.156 -101.256 417.415 -110.489 375.144 -110.774C333.164 -110.907 286.089 -99.8881 259.915 -73.0028C223.314 -35.0925 241.458 30.8605 190.914 58.1286C143.772 83.4543 83.5702 54.5107 25.7945 73.2237C-17.8686 87.2626 -11.357 166.621 -48.9535 203.303C-70.0565 223.805 -118.057 232.393 -149.054 226.307" stroke="#ABB1B1" stroke-width="0.35" stroke-miterlimit="10"/>
<path id="Vector_26" d="M1204.9 -494.29C1198.29 -463.036 1160.12 -428.246 1119.52 -419.867C1078.96 -411.295 1029.47 -423.314 993.963 -404.841C961.631 -388.075 960.937 -336.735 925.75 -324.47C889.332 -311.607 826.745 -342.149 789.401 -331.718C736.07 -316.705 708.128 -271.265 690.355 -230.257C672.581 -189.248 654.237 -143.58 606.13 -119.289C569.815 -100.883 524.628 -99.5031 483.83 -103.799C443.033 -108.096 403.582 -117.178 361.86 -117.353C320.138 -117.528 273.84 -106.636 248.152 -80.0278C212.006 -42.5885 230.056 22.7842 179.966 49.5814C133.311 74.6296 73.9474 45.9469 16.6892 64.5759C-26.4564 78.5307 -20.1018 156.921 -57.2436 193.133C-78.1193 213.399 -125.602 221.903 -156.082 215.733" stroke="#ABB1B1" stroke-width="0.35" stroke-miterlimit="10"/>
<path id="Vector_27" d="M1182.52 -496.413C1176.1 -465.588 1138.13 -431.227 1098.08 -422.739C1058.03 -414.251 1009.09 -426.16 974.069 -407.965C942.255 -391.283 941.436 -340.717 906.766 -328.535C870.865 -315.757 808.859 -345.996 772.032 -335.648C719.188 -320.913 691.732 -275.751 674.123 -235.365C656.514 -194.978 638.365 -149.739 591.004 -125.768C555.175 -107.64 510.505 -106.343 470.256 -110.53C430.007 -114.717 390.847 -123.648 349.901 -123.949C308.697 -124.208 262.916 -113.4 237.455 -87.0273C201.505 -50.017 219.429 14.5818 170.085 41.0595C123.915 65.8303 65.1321 37.4505 8.61867 55.76C-34.0408 69.4374 -27.5531 147.012 -64.2403 182.752C-84.8886 202.784 -131.854 211.204 -162.043 205.185" stroke="#ABB1B1" stroke-width="0.35" stroke-miterlimit="10"/>
<path id="Vector_28" d="M1160.16 -498.343C1153.68 -467.905 1116.46 -433.863 1076.89 -425.653C1037.33 -417.442 988.711 -429.007 954.208 -410.895C922.62 -394.449 921.966 -344.505 887.555 -332.365C851.881 -319.822 791.004 -349.649 754.178 -339.301C702.109 -324.692 674.818 -280.152 657.405 -240.195C639.992 -200.238 622.007 -155.621 575.163 -131.733C539.82 -113.883 495.7 -112.477 455.709 -116.706C416.01 -120.784 377.367 -129.799 336.711 -129.948C296.056 -130.098 250.761 -119.567 225.527 -93.43C190.032 -56.8905 207.831 6.93447 158.972 33.1347C113.289 57.628 55.376 29.7025 -0.651309 47.7345C-42.7933 61.3278 -36.4628 137.935 -72.6639 173.398C-93.0848 193.194 -139.533 201.53 -169.173 195.62" stroke="#ABB1B1" stroke-width="0.35" stroke-miterlimit="10"/>
<path id="Vector_29" d="M1137.77 -500.466C1131.52 -470.264 1094.46 -436.845 1055.45 -428.525C1016.4 -420.398 968.332 -431.853 934.314 -414.019C903.213 -397.85 902.496 -348.294 868.571 -336.431C833.415 -323.972 773.118 -353.496 736.778 -343.426C685.195 -329.094 658.358 -285.026 641.141 -245.497C623.924 -205.969 606.395 -161.823 560.005 -138.406C524.89 -120.791 481.286 -119.47 442.135 -123.438C402.694 -127.557 364.632 -136.269 324.494 -136.503C284.355 -136.737 239.61 -126.096 214.572 -100.388C179.563 -64.1261 196.946 -1.22635 148.832 24.6544C103.634 48.8702 46.3021 21.2476 -8.94905 39.1536C-50.5736 52.6629 -44.4002 128.303 -80.1466 163.295C-100.082 182.813 -146.271 191.107 -175.652 185.156" stroke="#ABB1B1" stroke-width="0.35" stroke-miterlimit="10"/>
<path id="Vector_30" d="M1115.13 -502.548C1108.82 -472.732 1072.24 -439.591 1033.71 -431.548C995.181 -423.505 947.662 -434.851 913.872 -417.253C883.029 -401.126 882.445 -352.385 848.779 -340.564C814.109 -328.383 754.424 -357.41 718.601 -347.424C667.536 -333.176 641.154 -289.579 624.101 -250.673C607.08 -211.573 589.715 -168.05 543.812 -144.911C509.214 -127.38 466.128 -126.142 427.235 -130.152C388.343 -134.162 350.798 -142.958 310.95 -143.04C271.361 -143.165 227.101 -132.802 202.291 -107.329C167.736 -71.538 184.994 -9.41209 137.366 16.1911C92.9134 40.0875 36.1616 12.7678 -18.6034 30.3962C-59.7419 43.6281 -53.694 118.495 -88.9858 153.016C-108.693 172.298 -154.107 180.466 -183.457 174.708" stroke="#ABB1B1" stroke-width="0.35" stroke-miterlimit="10"/>
<path id="Vector_31" d="M1092.74 -504.671C1086.63 -475.284 1050.53 -442.42 1012.26 -434.419C973.994 -426.419 927.283 -437.697 894.01 -420.183C863.653 -404.333 862.975 -356.172 829.826 -344.436C795.415 -332.297 736.569 -361.064 701.264 -351.161C650.975 -337.04 624.757 -294.064 607.901 -255.587C591.075 -216.917 573.875 -174.015 528.489 -150.96C494.377 -133.707 451.84 -132.36 413.206 -136.412C374.863 -140.313 337.608 -148.957 298.278 -149.123C258.948 -149.29 215.464 -139.052 191.139 -113.857C157.04 -78.5373 173.944 -16.9498 127.061 8.33393C83.0944 31.9528 26.9229 4.93594 -26.8072 22.3964C-67.4282 35.5442 -61.5373 109.443 -96.3744 143.493C-115.855 162.541 -160.75 170.625 -189.583 164.783" stroke="#ABB1B1" stroke-width="0.35" stroke-miterlimit="10"/>
<path id="Vector_32" d="M1070.39 -506.6C1064.21 -477.6 1028.57 -445.208 991.077 -437.333C953.325 -429.416 907.162 -440.585 874.117 -423.306C843.987 -407.692 843.246 -359.918 810.584 -348.46C776.69 -336.404 718.424 -364.868 683.636 -355.05C633.834 -341.206 608.071 -298.701 591.441 -260.46C574.781 -222.411 557.807 -179.746 513.135 -157.204C479.25 -140.186 437.231 -138.923 399.436 -142.714C361.61 -146.699 324.646 -155.191 285.864 -155.248C247.051 -155.499 204.085 -145.346 179.988 -120.386C146.343 -85.5369 163.122 -24.7232 116.466 0.325112C72.9854 23.6665 17.653 -3.08947 -35.5596 14.287C-75.6945 27.1573 -69.6706 100.241 -104.28 134.055C-123.533 152.867 -167.911 160.867 -196.454 155.176" stroke="#ABB1B1" stroke-width="0.35" stroke-miterlimit="10"/>
<path id="Vector_33" d="M1048 -508.724C1042.05 -479.96 1006.87 -448.038 969.631 -440.205C932.397 -432.372 886.814 -443.238 854.223 -426.43C824.612 -410.9 823.745 -363.9 791.6 -352.526C758.192 -340.748 700.538 -368.715 666.236 -359.175C617.21 -345.456 591.611 -303.574 575.178 -265.762C558.744 -227.949 541.904 -186.099 497.718 -163.834C464.351 -146.9 422.849 -145.721 385.313 -149.555C347.777 -153.388 311.62 -161.813 273.356 -161.954C235.092 -162.095 192.612 -152.22 168.742 -127.496C135.293 -93.0753 151.946 -33.0354 106.035 -8.30663C63.0409 14.7573 8.57881 -11.5444 -44.1791 5.36113C-83.7965 18.1475 -77.9297 90.2636 -112.085 123.607C-131.11 142.184 -174.971 150.099 -202.965 144.518" stroke="#ABB1B1" stroke-width="0.35" stroke-miterlimit="10"/>
<path id="Vector_34" d="M1025.61 -510.847C1019.6 -482.47 984.872 -451.019 948.154 -443.27C911.437 -435.521 866.403 -446.278 834.33 -429.554C804.946 -414.26 804.275 -367.688 772.357 -356.549C739.208 -344.813 682.652 -372.562 648.609 -363.063C600.1 -349.429 574.956 -308.018 558.687 -270.828C542.677 -233.679 525.774 -192.216 482.364 -170.078C449.483 -153.421 408.53 -152.133 371.511 -156.05C334.493 -159.967 298.626 -168.241 260.911 -168.273C223.165 -168.498 180.975 -158.471 157.528 -134.411C124.533 -100.462 141.061 -41.1957 95.6362 -16.7444C53.1279 6.04205 -0.753906 -19.9567 -52.7356 -3.17724C-91.8355 9.52508 -86.1257 80.6739 -119.826 113.547C-138.624 131.888 -181.968 139.719 -209.703 134.096" stroke="#ABB1B1" stroke-width="0.35" stroke-miterlimit="10"/>
</g>
</g>
</g>
<g id="Group 57517">
<g id="Left Text">
<g id="buttons">
<g id="app store">
<g id="Group_2">
<g id="Group_3">
<path id="Vector_35" d="M175.752 0.375695H15.7358C15.1525 0.375695 14.5762 0.375695 13.9945 0.378876C13.5075 0.382058 13.0244 0.391299 12.5328 0.399077C11.4647 0.411646 10.3991 0.505611 9.34535 0.680155C8.29304 0.858499 7.27369 1.19473 6.32178 1.67747C5.37104 2.1643 4.50232 2.79688 3.74713 3.55227C2.98798 4.30553 2.35517 5.1762 1.87303 6.1308C1.38957 7.0835 1.05433 8.1044 0.8789 9.15825C0.701802 10.2108 0.606504 11.2754 0.593861 12.3427C0.5791 12.8303 0.577541 13.3197 0.569763 13.8074V50.5733C0.577541 51.0672 0.5791 51.5457 0.593861 52.0397C0.606508 53.1069 0.701806 54.1715 0.8789 55.224C1.05385 56.2784 1.3891 57.2999 1.87303 58.253C2.35495 59.2045 2.98785 60.0716 3.74713 60.8207C4.49945 61.5794 5.36874 62.2125 6.32178 62.6956C7.27368 63.1796 8.29292 63.5178 9.34535 63.6989C10.3993 63.8721 11.4648 63.9661 12.5328 63.9801C13.0244 63.991 13.5075 63.9972 13.9945 63.9972C14.5762 64.0003 15.1525 64.0003 15.7358 64.0003H175.752C176.324 64.0003 176.905 64.0003 177.476 63.9972C177.961 63.9972 178.458 63.991 178.943 63.9801C180.009 63.9668 181.072 63.8728 182.124 63.6989C183.18 63.5166 184.203 63.1784 185.159 62.6956C186.111 62.2122 186.98 61.5792 187.731 60.8207C188.489 60.0687 189.123 59.2022 189.611 58.253C190.091 57.2992 190.423 56.2778 190.596 55.224C190.773 54.1713 190.872 53.107 190.891 52.0397C190.897 51.5457 190.897 51.0672 190.897 50.5733C190.909 49.9954 190.909 49.4208 190.909 48.8335V15.544C190.909 14.9615 190.909 14.3837 190.897 13.8074C190.897 13.3197 190.897 12.8303 190.891 12.3426C190.872 11.2753 190.773 10.2109 190.596 9.15819C190.423 8.10495 190.091 7.08412 189.611 6.13074C188.629 4.21734 187.072 2.65986 185.159 1.67733C184.203 1.19576 183.18 0.859625 182.124 0.680012C181.072 0.504698 180.009 0.410701 178.943 0.398854C178.458 0.391092 177.961 0.381771 177.476 0.37867C176.905 0.375488 176.324 0.375488 175.752 0.375488V0.375695Z" fill="#A6A6A6"/>
<path id="Vector_36" d="M14.0025 62.6082C13.5179 62.6082 13.045 62.602 12.5642 62.5911C11.5681 62.5782 10.5743 62.4915 9.59108 62.3317C8.67423 62.1738 7.78605 61.8801 6.95584 61.4602C6.13324 61.0438 5.38296 60.4979 4.73375 59.8432C4.07514 59.1963 3.52682 58.4459 3.11051 57.6219C2.68961 56.7925 2.39833 55.9036 2.2468 54.9859C2.08317 53.9999 1.99463 53.0029 1.98197 52.0035C1.97188 51.6681 1.95868 50.5511 1.95868 50.5511V13.807C1.95868 13.807 1.97274 12.7072 1.98205 12.3841C1.99418 11.3863 2.08219 10.3909 2.24534 9.40639C2.39715 8.48625 2.68866 7.59471 3.10978 6.76263C3.52455 5.93919 4.06983 5.18828 4.72448 4.53903C5.37838 3.8836 6.13106 3.33481 6.95506 2.91267C7.78337 2.49415 8.66986 2.20249 9.58486 2.04747C10.5714 1.88613 11.5685 1.7989 12.5681 1.78651L14.0033 1.76709H177.469L178.921 1.78729C179.911 1.79906 180.9 1.88551 181.877 2.04591C182.801 2.20288 183.697 2.49657 184.535 2.91733C186.186 3.76806 187.529 5.11401 188.376 6.76651C188.791 7.59285 189.078 8.47712 189.227 9.38931C189.393 10.3819 189.485 11.3851 189.504 12.3911C189.509 12.8416 189.509 13.3255 189.509 13.807C189.521 14.4035 189.521 14.9712 189.521 15.5436V48.8331C189.521 49.411 189.521 49.9749 189.509 50.5433C189.509 51.0606 189.509 51.5345 189.502 52.0221C189.484 53.0102 189.393 53.9956 189.23 54.9703C189.082 55.8946 188.792 56.7905 188.372 57.6267C187.952 58.4417 187.407 59.1856 186.756 59.8308C186.106 60.489 185.355 61.0381 184.53 61.4572C183.695 61.8803 182.8 62.1751 181.877 62.3317C180.894 62.4923 179.9 62.579 178.904 62.5911C178.438 62.602 177.95 62.6082 177.476 62.6082L175.752 62.6113L14.0025 62.6082Z" fill="black"/>
</g>
<g id="&#60;Group&#62;">
<g id="&#60;Group&#62;_2">
<g id="&#60;Group&#62;_3">
<path id="&#60;Path&#62;" d="M39.9679 32.667C39.985 31.3393 40.3376 30.0376 40.993 28.8829C41.6484 27.7282 42.5852 26.758 43.7163 26.0626C42.9977 25.0364 42.0498 24.1919 40.9478 23.5961C39.8458 23.0004 38.62 22.6698 37.3679 22.6306C34.6968 22.3502 32.1074 24.2289 30.7463 24.2289C29.3588 24.2289 27.2632 22.6584 25.0065 22.7048C23.5469 22.752 22.1243 23.1765 20.8775 23.9369C19.6306 24.6973 18.602 25.7677 17.8918 27.0438C14.8156 32.3699 17.1102 40.1974 20.057 44.5026C21.5313 46.6107 23.2544 48.9655 25.509 48.882C27.7153 48.7905 28.5393 47.4751 31.2025 47.4751C33.8409 47.4751 34.614 48.882 36.9144 48.8289C39.2818 48.7905 40.7734 46.7114 42.196 44.5833C43.2554 43.0812 44.0705 41.4211 44.6113 39.6643C43.2359 39.0826 42.0621 38.1089 41.2364 36.8645C40.4107 35.6202 39.9695 34.1603 39.9679 32.667Z" fill="white"/>
<path id="&#60;Path&#62;_2" d="M35.6231 19.7983C36.9139 18.2487 37.5498 16.257 37.3958 14.2461C35.4237 14.4532 33.6021 15.3958 32.2938 16.8859C31.6542 17.6139 31.1643 18.4608 30.8521 19.3782C30.54 20.2956 30.4117 21.2656 30.4746 22.2326C31.461 22.2427 32.4369 22.0289 33.3287 21.6073C34.2205 21.1856 35.005 20.5671 35.6231 19.7983Z" fill="white"/>
</g>
</g>
<g id="Group_4">
<path id="Vector_37" d="M67.8565 43.5438H60.3275L58.5194 48.8826H55.3304L62.4618 29.1304H65.775L72.9064 48.8826H69.663L67.8565 43.5438ZM61.1072 41.0802H67.0752L64.1332 32.4157H64.0509L61.1072 41.0802Z" fill="white"/>
<path id="Vector_38" d="M88.3078 41.6832C88.3078 46.1584 85.9125 49.0336 82.2979 49.0336C81.3823 49.0815 80.4716 48.8706 79.6703 48.425C78.869 47.9794 78.2093 47.3171 77.7668 46.5141H77.6984V53.647H74.7424V34.4819H77.6037V36.8772H77.6581C78.1209 36.078 78.7917 35.4191 79.5991 34.9708C80.4066 34.5225 81.3205 34.3015 82.2435 34.3313C85.8985 34.3313 88.3078 37.2205 88.3078 41.6832ZM85.2694 41.6832C85.2694 38.7676 83.7627 36.8508 81.4638 36.8508C79.2052 36.8508 77.686 38.808 77.686 41.6832C77.686 44.5849 79.2052 46.5281 81.4638 46.5281C83.7627 46.5281 85.2694 44.6252 85.2694 41.6832Z" fill="white"/>
<path id="Vector_39" d="M104.158 41.6832C104.158 46.1584 101.763 49.0336 98.1481 49.0336C97.2324 49.0815 96.3218 48.8706 95.5205 48.425C94.7191 47.9794 94.0594 47.3171 93.617 46.5141H93.5486V53.647H90.5926V34.4819H93.4538V36.8772H93.5082C93.971 36.0779 94.6418 35.4191 95.4492 34.9708C96.2567 34.5225 97.1706 34.3015 98.0937 34.3313C101.749 34.3313 104.158 37.2205 104.158 41.6832ZM101.12 41.6832C101.12 38.7676 99.6128 36.8508 97.3139 36.8508C95.0554 36.8508 93.5362 38.808 93.5362 41.6832C93.5362 44.5848 95.0554 46.5281 97.3139 46.5281C99.6129 46.5281 101.12 44.6252 101.12 41.6832H101.12Z" fill="white"/>
<path id="Vector_40" d="M114.634 43.3789C114.853 45.3377 116.755 46.6238 119.356 46.6238C121.847 46.6238 123.64 45.3376 123.64 43.5715C123.64 42.0383 122.559 41.1203 119.999 40.4912L117.439 39.8745C113.812 38.9984 112.128 37.3022 112.128 34.5497C112.128 31.1417 115.098 28.8008 119.315 28.8008C123.489 28.8008 126.35 31.1417 126.447 34.5497H123.463C123.284 32.5785 121.655 31.3886 119.273 31.3886C116.892 31.3886 115.263 32.5925 115.263 34.3447C115.263 35.7411 116.303 36.5628 118.849 37.1919L121.025 37.7262C125.078 38.6846 126.762 40.3126 126.762 43.2017C126.762 46.8971 123.818 49.2116 119.137 49.2116C114.756 49.2116 111.799 46.9515 111.608 43.3788L114.634 43.3789Z" fill="white"/>
<path id="Vector_41" d="M133.142 31.0732V34.4813H135.88V36.8221H133.142V44.7612C133.142 45.9946 133.69 46.5693 134.894 46.5693C135.219 46.5637 135.544 46.5408 135.866 46.5009V48.8278C135.325 48.929 134.775 48.9748 134.225 48.9645C131.309 48.9645 130.172 47.8694 130.172 45.0765V36.8221H128.078V34.4813H130.172V31.0732H133.142Z" fill="white"/>
<path id="Vector_42" d="M137.466 41.6825C137.466 37.1515 140.135 34.3042 144.296 34.3042C148.471 34.3042 151.128 37.1514 151.128 41.6825C151.128 46.2261 148.485 49.0609 144.296 49.0609C140.108 49.0609 137.466 46.226 137.466 41.6825ZM148.116 41.6825C148.116 38.5743 146.691 36.7398 144.296 36.7398C141.901 36.7398 140.478 38.5883 140.478 41.6825C140.478 44.8032 141.901 46.6237 144.296 46.6237C146.691 46.6237 148.116 44.8032 148.116 41.6825H148.116Z" fill="white"/>
<path id="Vector_43" d="M153.565 34.4818H156.384V36.933H156.453C156.644 36.1674 157.092 35.4909 157.723 35.0171C158.354 34.5432 159.128 34.301 159.917 34.3311C160.257 34.3299 160.597 34.3669 160.929 34.4414V37.2063C160.499 37.0749 160.051 37.0146 159.601 37.0277C159.172 37.0103 158.744 37.086 158.346 37.2497C157.949 37.4133 157.592 37.661 157.299 37.9758C157.006 38.2906 156.785 38.6649 156.651 39.0732C156.517 39.4815 156.472 39.914 156.521 40.341V48.8828H153.565L153.565 34.4818Z" fill="white"/>
<path id="Vector_44" d="M174.558 44.6525C174.16 47.2668 171.614 49.0609 168.357 49.0609C164.168 49.0609 161.568 46.254 161.568 41.7509C161.568 37.2338 164.182 34.3042 168.233 34.3042C172.217 34.3042 174.723 37.0412 174.723 41.4076V42.4204H164.551V42.599C164.505 43.129 164.571 43.6629 164.746 44.1653C164.921 44.6677 165.202 45.127 165.568 45.5128C165.934 45.8986 166.379 46.2021 166.871 46.403C167.364 46.6039 167.894 46.6976 168.425 46.6781C169.124 46.7435 169.825 46.5817 170.424 46.2168C171.023 45.8518 171.489 45.3032 171.751 44.6525L174.558 44.6525ZM164.565 40.3544H171.765C171.792 39.8779 171.719 39.401 171.553 38.9537C171.386 38.5064 171.129 38.0984 170.798 37.7552C170.466 37.412 170.067 37.141 169.626 36.9594C169.184 36.7777 168.71 36.6892 168.233 36.6994C167.752 36.6966 167.274 36.7891 166.829 36.9716C166.383 37.1541 165.979 37.423 165.638 37.7628C165.297 38.1026 165.026 38.5066 164.842 38.9514C164.658 39.3962 164.564 39.8731 164.565 40.3545V40.3544Z" fill="white"/>
</g>
</g>
</g>
<path id="Download on the" d="M64.518 12.8776C65.3394 12.8776 66.0572 13.0366 66.6714 13.3548C67.2929 13.6656 67.7702 14.117 68.1032 14.709C68.4436 15.2936 68.6138 15.9781 68.6138 16.7624C68.6138 17.5468 68.4436 18.2276 68.1032 18.8048C67.7702 19.3819 67.2929 19.8259 66.6714 20.1367C66.0572 20.4401 65.3394 20.5918 64.518 20.5918H61.9984V12.8776H64.518ZM64.518 19.5595C65.4208 19.5595 66.1127 19.3153 66.5937 18.827C67.0747 18.3386 67.3151 17.6504 67.3151 16.7624C67.3151 15.8671 67.0747 15.1678 66.5937 14.6646C66.1127 14.1614 65.4208 13.9098 64.518 13.9098H63.2638V19.5595H64.518ZM72.5207 20.6917C71.9435 20.6917 71.4218 20.5622 70.9557 20.3032C70.4895 20.0368 70.1232 19.6668 69.8568 19.1932C69.5904 18.7123 69.4572 18.1573 69.4572 17.5283C69.4572 16.9067 69.5941 16.3554 69.8679 15.8745C70.1417 15.3935 70.5154 15.0235 70.989 14.7645C71.4625 14.5055 71.9916 14.376 72.5762 14.376C73.1608 14.376 73.6899 14.5055 74.1634 14.7645C74.637 15.0235 75.0107 15.3935 75.2845 15.8745C75.5583 16.3554 75.6952 16.9067 75.6952 17.5283C75.6952 18.1499 75.5546 18.7012 75.2734 19.1821C74.9922 19.6631 74.6074 20.0368 74.119 20.3032C73.6381 20.5622 73.1053 20.6917 72.5207 20.6917ZM72.5207 19.5928C72.8463 19.5928 73.1497 19.5151 73.4309 19.3597C73.7195 19.2043 73.9526 18.9713 74.1301 18.6605C74.3077 18.3497 74.3965 17.9723 74.3965 17.5283C74.3965 17.0843 74.3114 16.7106 74.1412 16.4072C73.9711 16.0964 73.7454 15.8634 73.4642 15.708C73.183 15.5526 72.8796 15.4749 72.554 15.4749C72.2284 15.4749 71.925 15.5526 71.6438 15.708C71.37 15.8634 71.1517 16.0964 70.989 16.4072C70.8262 16.7106 70.7448 17.0843 70.7448 17.5283C70.7448 18.1869 70.9113 18.6975 71.2442 19.06C71.5846 19.4152 72.0101 19.5928 72.5207 19.5928ZM85.1598 14.4759L83.2618 20.5918H81.9298L80.6977 16.0742L79.4657 20.5918H78.1337L76.2246 14.4759H77.5122L78.7886 19.393L80.0873 14.4759H81.4081L82.6513 19.3708L83.9166 14.4759H85.1598ZM89.1911 14.376C89.6721 14.376 90.1013 14.4759 90.4787 14.6757C90.8635 14.8755 91.1632 15.1715 91.3778 15.5637C91.5923 15.9559 91.6996 16.4294 91.6996 16.9844V20.5918H90.4454V17.1731C90.4454 16.6255 90.3085 16.2074 90.0347 15.9189C89.7609 15.6229 89.3872 15.4749 88.9136 15.4749C88.4401 15.4749 88.0627 15.6229 87.7815 15.9189C87.5077 16.2074 87.3708 16.6255 87.3708 17.1731V20.5918H86.1054V14.4759H87.3708V15.1752C87.578 14.9236 87.8407 14.7275 88.1589 14.5869C88.4845 14.4463 88.8285 14.376 89.1911 14.376ZM94.579 12.3781V20.5918H93.3137V12.3781H94.579ZM98.8932 20.6917C98.316 20.6917 97.7943 20.5622 97.3281 20.3032C96.8619 20.0368 96.4956 19.6668 96.2292 19.1932C95.9629 18.7123 95.8297 18.1573 95.8297 17.5283C95.8297 16.9067 95.9666 16.3554 96.2403 15.8745C96.5141 15.3935 96.8878 15.0235 97.3614 14.7645C97.835 14.5055 98.3641 14.376 98.9487 14.376C99.5332 14.376 100.062 14.5055 100.536 14.7645C101.009 15.0235 101.383 15.3935 101.657 15.8745C101.931 16.3554 102.068 16.9067 102.068 17.5283C102.068 18.1499 101.927 18.7012 101.646 19.1821C101.365 19.6631 100.98 20.0368 100.492 20.3032C100.011 20.5622 99.4777 20.6917 98.8932 20.6917ZM98.8932 19.5928C99.2187 19.5928 99.5221 19.5151 99.8033 19.3597C100.092 19.2043 100.325 18.9713 100.503 18.6605C100.68 18.3497 100.769 17.9723 100.769 17.5283C100.769 17.0843 100.684 16.7106 100.514 16.4072C100.344 16.0964 100.118 15.8634 99.8366 15.708C99.5554 15.5526 99.252 15.4749 98.9265 15.4749C98.6009 15.4749 98.2975 15.5526 98.0163 15.708C97.7425 15.8634 97.5242 16.0964 97.3614 16.4072C97.1986 16.7106 97.1172 17.0843 97.1172 17.5283C97.1172 18.1869 97.2837 18.6975 97.6167 19.06C97.9571 19.4152 98.3826 19.5928 98.8932 19.5928ZM102.897 17.5061C102.897 16.8919 103.023 16.348 103.274 15.8745C103.533 15.4009 103.881 15.0346 104.317 14.7756C104.761 14.5092 105.25 14.376 105.783 14.376C106.264 14.376 106.682 14.4722 107.037 14.6646C107.399 14.8496 107.688 15.0827 107.903 15.3639V14.4759H109.179V20.5918H107.903V19.6816C107.688 19.9702 107.396 20.2107 107.026 20.4031C106.656 20.5955 106.234 20.6917 105.76 20.6917C105.235 20.6917 104.754 20.5585 104.317 20.2921C103.881 20.0183 103.533 19.6409 103.274 19.1599C103.023 18.6716 102.897 18.1203 102.897 17.5061ZM107.903 17.5283C107.903 17.1065 107.814 16.7402 107.636 16.4294C107.466 16.1186 107.24 15.8819 106.959 15.7191C106.678 15.5563 106.375 15.4749 106.049 15.4749C105.723 15.4749 105.42 15.5563 105.139 15.7191C104.858 15.8745 104.628 16.1075 104.451 16.4183C104.28 16.7217 104.195 17.0843 104.195 17.5061C104.195 17.9279 104.28 18.2979 104.451 18.6161C104.628 18.9343 104.858 19.1784 105.139 19.3486C105.427 19.5114 105.731 19.5928 106.049 19.5928C106.375 19.5928 106.678 19.5114 106.959 19.3486C107.24 19.1858 107.466 18.9491 107.636 18.6383C107.814 18.3201 107.903 17.9501 107.903 17.5283ZM110.419 17.5061C110.419 16.8919 110.545 16.348 110.797 15.8745C111.056 15.4009 111.404 15.0346 111.84 14.7756C112.284 14.5092 112.776 14.376 113.316 14.376C113.716 14.376 114.108 14.4648 114.493 14.6424C114.885 14.8126 115.196 15.042 115.425 15.3306V12.3781H116.702V20.5918H115.425V19.6705C115.218 19.9665 114.929 20.2107 114.56 20.4031C114.197 20.5955 113.779 20.6917 113.305 20.6917C112.772 20.6917 112.284 20.5585 111.84 20.2921C111.404 20.0183 111.056 19.6409 110.797 19.1599C110.545 18.6716 110.419 18.1203 110.419 17.5061ZM115.425 17.5283C115.425 17.1065 115.336 16.7402 115.159 16.4294C114.989 16.1186 114.763 15.8819 114.482 15.7191C114.201 15.5563 113.897 15.4749 113.572 15.4749C113.246 15.4749 112.943 15.5563 112.661 15.7191C112.38 15.8745 112.151 16.1075 111.973 16.4183C111.803 16.7217 111.718 17.0843 111.718 17.5061C111.718 17.9279 111.803 18.2979 111.973 18.6161C112.151 18.9343 112.38 19.1784 112.661 19.3486C112.95 19.5114 113.253 19.5928 113.572 19.5928C113.897 19.5928 114.201 19.5114 114.482 19.3486C114.763 19.1858 114.989 18.9491 115.159 18.6383C115.336 18.3201 115.425 17.9501 115.425 17.5283ZM123.9 20.6917C123.323 20.6917 122.801 20.5622 122.335 20.3032C121.869 20.0368 121.502 19.6668 121.236 19.1932C120.97 18.7123 120.836 18.1573 120.836 17.5283C120.836 16.9067 120.973 16.3554 121.247 15.8745C121.521 15.3935 121.895 15.0235 122.368 14.7645C122.842 14.5055 123.371 14.376 123.955 14.376C124.54 14.376 125.069 14.5055 125.543 14.7645C126.016 15.0235 126.39 15.3935 126.664 15.8745C126.937 16.3554 127.074 16.9067 127.074 17.5283C127.074 18.1499 126.934 18.7012 126.653 19.1821C126.371 19.6631 125.987 20.0368 125.498 20.3032C125.017 20.5622 124.484 20.6917 123.9 20.6917ZM123.9 19.5928C124.225 19.5928 124.529 19.5151 124.81 19.3597C125.099 19.2043 125.332 18.9713 125.509 18.6605C125.687 18.3497 125.776 17.9723 125.776 17.5283C125.776 17.0843 125.691 16.7106 125.52 16.4072C125.35 16.0964 125.125 15.8634 124.843 15.708C124.562 15.5526 124.259 15.4749 123.933 15.4749C123.608 15.4749 123.304 15.5526 123.023 15.708C122.749 15.8634 122.531 16.0964 122.368 16.4072C122.205 16.7106 122.124 17.0843 122.124 17.5283C122.124 18.1869 122.29 18.6975 122.623 19.06C122.964 19.4152 123.389 19.5928 123.9 19.5928ZM131.411 14.376C131.892 14.376 132.321 14.4759 132.698 14.6757C133.083 14.8755 133.383 15.1715 133.598 15.5637C133.812 15.9559 133.919 16.4294 133.919 16.9844V20.5918H132.665V17.1731C132.665 16.6255 132.528 16.2074 132.254 15.9189C131.981 15.6229 131.607 15.4749 131.133 15.4749C130.66 15.4749 130.282 15.6229 130.001 15.9189C129.727 16.2074 129.591 16.6255 129.591 17.1731V20.5918H128.325V14.4759H129.591V15.1752C129.798 14.9236 130.06 14.7275 130.379 14.5869C130.704 14.4463 131.048 14.376 131.411 14.376ZM139.893 15.5082V18.8936C139.893 19.1229 139.945 19.2894 140.048 19.393C140.159 19.4892 140.344 19.5373 140.603 19.5373H141.38V20.5918H140.381C139.812 20.5918 139.375 20.4586 139.072 20.1922C138.768 19.9258 138.617 19.4929 138.617 18.8936V15.5082H137.895V14.4759H138.617V12.9553H139.893V14.4759H141.38V15.5082H139.893ZM145.71 14.376C146.176 14.376 146.591 14.4759 146.953 14.6757C147.323 14.8755 147.612 15.1715 147.819 15.5637C148.034 15.9559 148.141 16.4294 148.141 16.9844V20.5918H146.887V17.1731C146.887 16.6255 146.75 16.2074 146.476 15.9189C146.202 15.6229 145.828 15.4749 145.355 15.4749C144.881 15.4749 144.504 15.6229 144.223 15.9189C143.949 16.2074 143.812 16.6255 143.812 17.1731V20.5918H142.547V12.3781H143.812V15.1863C144.027 14.9273 144.297 14.7275 144.622 14.5869C144.955 14.4463 145.318 14.376 145.71 14.376ZM155.36 17.384C155.36 17.6134 155.345 17.8206 155.316 18.0056H150.643C150.68 18.494 150.861 18.8862 151.187 19.1821C151.512 19.4781 151.912 19.6261 152.385 19.6261C153.066 19.6261 153.547 19.3412 153.828 18.7715H155.194C155.009 19.3338 154.672 19.7963 154.184 20.1589C153.703 20.5141 153.103 20.6917 152.385 20.6917C151.801 20.6917 151.276 20.5622 150.809 20.3032C150.351 20.0368 149.988 19.6668 149.722 19.1932C149.463 18.7123 149.333 18.1573 149.333 17.5283C149.333 16.8993 149.459 16.348 149.71 15.8745C149.969 15.3935 150.328 15.0235 150.787 14.7645C151.253 14.5055 151.786 14.376 152.385 14.376C152.963 14.376 153.477 14.5018 153.928 14.7534C154.38 15.005 154.731 15.3602 154.983 15.819C155.234 16.2703 155.36 16.792 155.36 17.384ZM154.039 16.9844C154.032 16.5182 153.865 16.1445 153.54 15.8634C153.214 15.5822 152.811 15.4416 152.33 15.4416C151.893 15.4416 151.52 15.5822 151.209 15.8634C150.898 16.1371 150.713 16.5108 150.654 16.9844H154.039Z" fill="white"/>
</g>
</g>
</g>
</g>
</g>
</g>
<defs>
<clipPath id="clip0_1_232">
<rect width="1440" height="5208" fill="white" transform="translate(-149 -3805)"/>
</clipPath>
</defs>
</svg>
