<svg width="137" height="97" viewBox="0 0 137 97" fill="none" xmlns="http://www.w3.org/2000/svg">
<g id="Group">
<path id="Vector" d="M4.22961 3.77237L2.62923 2.17196L4.22961 0.571563C4.38203 0.419144 4.38203 0.266733 4.22961 0.114314C4.0772 -0.0381047 3.92478 -0.0381047 3.77237 0.114314L2.17196 1.7147L0.571575 0.114314C0.419156 -0.0381047 0.266733 -0.0381047 0.114314 0.114314C-0.0381047 0.266733 -0.0381047 0.419144 0.114314 0.571563L1.71472 2.17196L0.114314 3.77237C-0.0381047 3.92478 -0.0381047 4.0772 0.114314 4.22961C0.266733 4.38203 0.419156 4.38203 0.571575 4.22961L2.17196 2.62923L3.77237 4.22961C3.92478 4.38203 4.0772 4.38203 4.22961 4.22961C4.38203 4.1534 4.38203 3.92478 4.22961 3.77237Z" fill="#13484E"/>
<path id="Vector_2" d="M17.4904 3.77237L15.89 2.17196L17.4904 0.571563C17.6428 0.419144 17.6428 0.266733 17.4904 0.114314C17.3379 -0.0381047 17.1855 -0.0381047 17.0331 0.114314L15.4327 1.7147L13.8323 0.114314C13.6799 -0.0381047 13.5275 -0.0381047 13.3751 0.114314C13.2226 0.266733 13.2226 0.419144 13.3751 0.571563L14.9755 2.17196L13.3751 3.77237C13.2226 3.92478 13.2226 4.0772 13.3751 4.22961C13.5275 4.38203 13.6799 4.38203 13.8323 4.22961L15.4327 2.62923L17.0331 4.22961C17.1855 4.38203 17.3379 4.38203 17.4904 4.22961C17.6428 4.1534 17.6428 3.92478 17.4904 3.77237Z" fill="#13484E"/>
<path id="Vector_3" d="M30.674 3.77237L29.0736 2.17196L30.674 0.571563C30.8264 0.419144 30.8264 0.266733 30.674 0.114314C30.5215 -0.0381047 30.3691 -0.0381047 30.2167 0.114314L28.6163 1.7147L27.0159 0.114314C26.8635 -0.0381047 26.7111 -0.0381047 26.5586 0.114314C26.4062 0.266733 26.4062 0.419144 26.5586 0.571563L28.1591 2.17196L26.5586 3.77237C26.4062 3.92478 26.4062 4.0772 26.5586 4.22961C26.7111 4.38203 26.8635 4.38203 27.0159 4.22961L28.6163 2.62923L30.2167 4.22961C30.3691 4.38203 30.5215 4.38203 30.674 4.22961C30.8264 4.1534 30.8264 3.92478 30.674 3.77237Z" fill="#13484E"/>
<path id="Vector_4" d="M43.9347 3.77237L42.3343 2.17196L43.9347 0.571563C44.0871 0.419144 44.0871 0.266733 43.9347 0.114314C43.7823 -0.0381047 43.6299 -0.0381047 43.4774 0.114314L41.877 1.7147L40.2766 0.114314C40.1242 -0.0381047 39.9718 -0.0381047 39.8194 0.114314C39.667 0.266733 39.667 0.419144 39.8194 0.571563L41.4198 2.17196L39.8194 3.77237C39.667 3.92478 39.667 4.0772 39.8194 4.22961C39.9718 4.38203 40.1242 4.38203 40.2766 4.22961L41.877 2.62923L43.4774 4.22961C43.6299 4.38203 43.7823 4.38203 43.9347 4.22961C44.0871 4.1534 44.0871 3.92478 43.9347 3.77237Z" fill="#13484E"/>
<path id="Vector_5" d="M57.1954 3.77237L55.595 2.17196L57.1954 0.571563C57.3479 0.419144 57.3479 0.266733 57.1954 0.114314C57.043 -0.0381047 56.8906 -0.0381047 56.7382 0.114314L55.1378 1.7147L53.5374 0.114314C53.385 -0.0381047 53.2326 -0.0381047 53.0801 0.114314C52.9277 0.266733 52.9277 0.419144 53.0801 0.571563L54.6805 2.17196L53.0801 3.77237C52.9277 3.92478 52.9277 4.0772 53.0801 4.22961C53.2326 4.38203 53.385 4.38203 53.5374 4.22961L55.1378 2.62923L56.7382 4.22961C56.8906 4.38203 57.043 4.38203 57.1954 4.22961C57.3479 4.1534 57.3479 3.92478 57.1954 3.77237Z" fill="#13484E"/>
<path id="Vector_6" d="M70.379 3.77237L68.7786 2.17196L70.379 0.571563C70.5314 0.419144 70.5314 0.266733 70.379 0.114314C70.2266 -0.0381047 70.0742 -0.0381047 69.9218 0.114314L68.3214 1.7147L66.721 0.114314C66.5686 -0.0381047 66.4161 -0.0381047 66.2637 0.114314C66.1113 0.266733 66.1113 0.419144 66.2637 0.571563L67.8641 2.17196L66.2637 3.77237C66.1113 3.92478 66.1113 4.0772 66.2637 4.22961C66.4161 4.38203 66.5686 4.38203 66.721 4.22961L68.3214 2.62923L69.9218 4.22961C70.0742 4.38203 70.2266 4.38203 70.379 4.22961C70.5314 4.1534 70.5314 3.92478 70.379 3.77237Z" fill="#13484E"/>
<path id="Vector_7" d="M83.6398 3.77237L82.0394 2.17196L83.6398 0.571563C83.7922 0.419144 83.7922 0.266733 83.6398 0.114314C83.4874 -0.0381047 83.3349 -0.0381047 83.1825 0.114314L81.5821 1.7147L79.9817 0.114314C79.8293 -0.0381047 79.6769 -0.0381047 79.5245 0.114314C79.3721 0.266733 79.3721 0.419144 79.5245 0.571563L81.1249 2.17196L79.5245 3.77237C79.3721 3.92478 79.3721 4.0772 79.5245 4.22961C79.6769 4.38203 79.8293 4.38203 79.9817 4.22961L81.5821 2.62923L83.1825 4.22961C83.3349 4.38203 83.4874 4.38203 83.6398 4.22961C83.7922 4.1534 83.7922 3.92478 83.6398 3.77237Z" fill="#13484E"/>
<path id="Vector_8" d="M96.9005 3.77237L95.3001 2.17196L96.9005 0.571563C97.0529 0.419144 97.0529 0.266733 96.9005 0.114314C96.7481 -0.0381047 96.5957 -0.0381047 96.4433 0.114314L94.8429 1.7147L93.2425 0.114314C93.0901 -0.0381047 92.9376 -0.0381047 92.7852 0.114314C92.6328 0.266733 92.6328 0.419144 92.7852 0.571563L94.3856 2.17196L92.7852 3.77237C92.6328 3.92478 92.6328 4.0772 92.7852 4.22961C92.9376 4.38203 93.0901 4.38203 93.2425 4.22961L94.8429 2.62923L96.4433 4.22961C96.5957 4.38203 96.7481 4.38203 96.9005 4.22961C97.0529 4.1534 97.0529 3.92478 96.9005 3.77237Z" fill="#13484E"/>
<path id="Vector_9" d="M110.084 3.77237L108.484 2.17196L110.084 0.571563C110.237 0.419144 110.237 0.266733 110.084 0.114314C109.932 -0.0381047 109.779 -0.0381047 109.627 0.114314L108.026 1.7147L106.426 0.114314C106.274 -0.0381047 106.121 -0.0381047 105.969 0.114314C105.816 0.266733 105.816 0.419144 105.969 0.571563L107.569 2.17196L105.969 3.77237C105.816 3.92478 105.816 4.0772 105.969 4.22961C106.121 4.38203 106.274 4.38203 106.426 4.22961L108.026 2.62923L109.627 4.22961C109.779 4.38203 109.932 4.38203 110.084 4.22961C110.237 4.1534 110.237 3.92478 110.084 3.77237Z" fill="#13484E"/>
<path id="Vector_10" d="M123.345 3.77237L121.744 2.17196L123.345 0.571563C123.497 0.419144 123.497 0.266733 123.345 0.114314C123.192 -0.0381047 123.04 -0.0381047 122.888 0.114314L121.287 1.7147L119.687 0.114314C119.534 -0.0381047 119.382 -0.0381047 119.23 0.114314C119.077 0.266733 119.077 0.419144 119.23 0.571563L120.83 2.17196L119.23 3.77237C119.077 3.92478 119.077 4.0772 119.23 4.22961C119.382 4.38203 119.534 4.38203 119.687 4.22961L121.287 2.62923L122.888 4.22961C123.04 4.38203 123.192 4.38203 123.345 4.22961C123.497 4.1534 123.497 3.92478 123.345 3.77237Z" fill="#13484E"/>
<path id="Vector_11" d="M136.606 3.77237L135.005 2.17196L136.606 0.571563C136.758 0.419144 136.758 0.266733 136.606 0.114314C136.453 -0.0381047 136.301 -0.0381047 136.148 0.114314L134.548 1.7147L132.948 0.114314C132.795 -0.0381047 132.643 -0.0381047 132.49 0.114314C132.338 0.266733 132.338 0.419144 132.49 0.571563L134.091 2.17196L132.49 3.77237C132.338 3.92478 132.338 4.0772 132.49 4.22961C132.643 4.38203 132.795 4.38203 132.948 4.22961L134.548 2.62923L136.148 4.22961C136.301 4.38203 136.453 4.38203 136.606 4.22961C136.758 4.0772 136.758 3.92478 136.606 3.77237Z" fill="#13484E"/>
<path id="Vector_12" d="M4.22961 14.3651L2.62923 12.7647L4.22961 11.1643C4.38203 11.0119 4.38203 10.8595 4.22961 10.7071C4.0772 10.5547 3.92478 10.5547 3.77237 10.7071L2.17196 12.3075L0.571575 10.7071C0.419156 10.5547 0.266733 10.5547 0.114314 10.7071C-0.0381047 10.8595 -0.0381047 11.0119 0.114314 11.1643L1.71472 12.7647L0.114314 14.3651C-0.0381047 14.5176 -0.0381047 14.67 0.114314 14.8224C0.266733 14.9748 0.419156 14.9748 0.571575 14.8224L2.17196 13.222L3.77237 14.8224C3.92478 14.9748 4.0772 14.9748 4.22961 14.8224C4.38203 14.67 4.38203 14.4413 4.22961 14.3651Z" fill="#13484E"/>
<path id="Vector_13" d="M17.4904 14.3661L15.89 12.7657L17.4904 11.1653C17.6428 11.0129 17.6428 10.8605 17.4904 10.7081C17.3379 10.5556 17.1855 10.5556 17.0331 10.7081L15.4327 12.3085L13.8323 10.7081C13.6799 10.5556 13.5275 10.5556 13.3751 10.7081C13.2226 10.8605 13.2226 11.0129 13.3751 11.1653L14.9755 12.7657L13.3751 14.3661C13.2226 14.5185 13.2226 14.671 13.3751 14.8234C13.5275 14.9758 13.6799 14.9758 13.8323 14.8234L15.4327 13.223L17.0331 14.8234C17.1855 14.9758 17.3379 14.9758 17.4904 14.8234C17.6428 14.671 17.6428 14.4423 17.4904 14.3661Z" fill="#13484E"/>
<path id="Vector_14" d="M30.674 14.3661L29.0736 12.7657L30.674 11.1653C30.8264 11.0129 30.8264 10.8605 30.674 10.7081C30.5215 10.5556 30.3691 10.5556 30.2167 10.7081L28.6163 12.3085L27.0159 10.7081C26.8635 10.5556 26.7111 10.5556 26.5586 10.7081C26.4062 10.8605 26.4062 11.0129 26.5586 11.1653L28.1591 12.7657L26.5586 14.3661C26.4062 14.5185 26.4062 14.671 26.5586 14.8234C26.7111 14.9758 26.8635 14.9758 27.0159 14.8234L28.6163 13.223L30.2167 14.8234C30.3691 14.9758 30.5215 14.9758 30.674 14.8234C30.8264 14.671 30.8264 14.4423 30.674 14.3661Z" fill="#13484E"/>
<path id="Vector_15" d="M43.9347 14.3651L42.3343 12.7647L43.9347 11.1643C44.0871 11.0119 44.0871 10.8595 43.9347 10.7071C43.7823 10.5547 43.6299 10.5547 43.4774 10.7071L41.877 12.3075L40.2766 10.7071C40.1242 10.5547 39.9718 10.5547 39.8194 10.7071C39.667 10.8595 39.667 11.0119 39.8194 11.1643L41.4198 12.7647L39.8194 14.3651C39.667 14.5176 39.667 14.67 39.8194 14.8224C39.9718 14.9748 40.1242 14.9748 40.2766 14.8224L41.877 13.222L43.4774 14.8224C43.6299 14.9748 43.7823 14.9748 43.9347 14.8224C44.0871 14.67 44.0871 14.4413 43.9347 14.3651Z" fill="#13484E"/>
<path id="Vector_16" d="M57.1954 14.3661L55.595 12.7657L57.1954 11.1653C57.3479 11.0129 57.3479 10.8605 57.1954 10.7081C57.043 10.5556 56.8906 10.5556 56.7382 10.7081L55.1378 12.3085L53.5374 10.7081C53.385 10.5556 53.2326 10.5556 53.0801 10.7081C52.9277 10.8605 52.9277 11.0129 53.0801 11.1653L54.6805 12.7657L53.0801 14.3661C52.9277 14.5185 52.9277 14.671 53.0801 14.8234C53.2326 14.9758 53.385 14.9758 53.5374 14.8234L55.1378 13.223L56.7382 14.8234C56.8906 14.9758 57.043 14.9758 57.1954 14.8234C57.3479 14.671 57.3479 14.4423 57.1954 14.3661Z" fill="#13484E"/>
<path id="Vector_17" d="M70.379 14.3661L68.7786 12.7657L70.379 11.1653C70.5314 11.0129 70.5314 10.8605 70.379 10.7081C70.2266 10.5556 70.0742 10.5556 69.9218 10.7081L68.3214 12.3085L66.721 10.7081C66.5686 10.5556 66.4161 10.5556 66.2637 10.7081C66.1113 10.8605 66.1113 11.0129 66.2637 11.1653L67.8641 12.7657L66.2637 14.3661C66.1113 14.5185 66.1113 14.671 66.2637 14.8234C66.4161 14.9758 66.5686 14.9758 66.721 14.8234L68.3214 13.223L69.9218 14.8234C70.0742 14.9758 70.2266 14.9758 70.379 14.8234C70.5314 14.671 70.5314 14.4423 70.379 14.3661Z" fill="#13484E"/>
<path id="Vector_18" d="M83.6398 14.3651L82.0394 12.7647L83.6398 11.1643C83.7922 11.0119 83.7922 10.8595 83.6398 10.7071C83.4874 10.5547 83.3349 10.5547 83.1825 10.7071L81.5821 12.3075L79.9817 10.7071C79.8293 10.5547 79.6769 10.5547 79.5245 10.7071C79.3721 10.8595 79.3721 11.0119 79.5245 11.1643L81.1249 12.7647L79.5245 14.3651C79.3721 14.5176 79.3721 14.67 79.5245 14.8224C79.6769 14.9748 79.8293 14.9748 79.9817 14.8224L81.5821 13.222L83.1825 14.8224C83.3349 14.9748 83.4874 14.9748 83.6398 14.8224C83.7922 14.67 83.7922 14.4413 83.6398 14.3651Z" fill="#13484E"/>
<path id="Vector_19" d="M96.9005 14.3651L95.3001 12.7647L96.9005 11.1643C97.0529 11.0119 97.0529 10.8595 96.9005 10.7071C96.7481 10.5547 96.5957 10.5547 96.4433 10.7071L94.8429 12.3075L93.2425 10.7071C93.0901 10.5547 92.9376 10.5547 92.7852 10.7071C92.6328 10.8595 92.6328 11.0119 92.7852 11.1643L94.3856 12.7647L92.7852 14.3651C92.6328 14.5176 92.6328 14.67 92.7852 14.8224C92.9376 14.9748 93.0901 14.9748 93.2425 14.8224L94.8429 13.222L96.4433 14.8224C96.5957 14.9748 96.7481 14.9748 96.9005 14.8224C97.0529 14.67 97.0529 14.4413 96.9005 14.3651Z" fill="#13484E"/>
<path id="Vector_20" d="M110.084 14.3651L108.484 12.7647L110.084 11.1643C110.237 11.0119 110.237 10.8595 110.084 10.7071C109.932 10.5547 109.779 10.5547 109.627 10.7071L108.026 12.3075L106.426 10.7071C106.274 10.5547 106.121 10.5547 105.969 10.7071C105.816 10.8595 105.816 11.0119 105.969 11.1643L107.569 12.7647L105.969 14.3651C105.816 14.5176 105.816 14.67 105.969 14.8224C106.121 14.9748 106.274 14.9748 106.426 14.8224L108.026 13.222L109.627 14.8224C109.779 14.9748 109.932 14.9748 110.084 14.8224C110.237 14.67 110.237 14.4413 110.084 14.3651Z" fill="#13484E"/>
<path id="Vector_21" d="M123.345 14.3651L121.744 12.7647L123.345 11.1643C123.497 11.0119 123.497 10.8595 123.345 10.7071C123.192 10.5547 123.04 10.5547 122.888 10.7071L121.287 12.3075L119.687 10.7071C119.534 10.5547 119.382 10.5547 119.23 10.7071C119.077 10.8595 119.077 11.0119 119.23 11.1643L120.83 12.7647L119.23 14.3651C119.077 14.5176 119.077 14.67 119.23 14.8224C119.382 14.9748 119.534 14.9748 119.687 14.8224L121.287 13.222L122.888 14.8224C123.04 14.9748 123.192 14.9748 123.345 14.8224C123.497 14.67 123.497 14.4413 123.345 14.3651Z" fill="#13484E"/>
<path id="Vector_22" d="M136.606 14.3661L135.005 12.7657L136.606 11.1653C136.758 11.0129 136.758 10.8605 136.606 10.7081C136.453 10.5556 136.301 10.5556 136.148 10.7081L134.548 12.3085L132.948 10.7081C132.795 10.5556 132.643 10.5556 132.49 10.7081C132.338 10.8605 132.338 11.0129 132.49 11.1653L134.091 12.7657L132.49 14.3661C132.338 14.5185 132.338 14.671 132.49 14.8234C132.643 14.9758 132.795 14.9758 132.948 14.8234L134.548 13.223L136.148 14.8234C136.301 14.9758 136.453 14.9758 136.606 14.8234C136.758 14.671 136.758 14.4423 136.606 14.3661Z" fill="#13484E"/>
<path id="Vector_23" d="M4.22961 24.8827L2.62923 23.2823L4.22961 21.6819C4.38203 21.5295 4.38203 21.3771 4.22961 21.2247C4.0772 21.0722 3.92478 21.0722 3.77237 21.2247L2.17196 22.8251L0.571575 21.2247C0.419156 21.0722 0.266733 21.0722 0.114314 21.2247C-0.0381047 21.3771 -0.0381047 21.5295 0.114314 21.6819L1.71472 23.2823L0.114314 24.8827C-0.0381047 25.0351 -0.0381047 25.1875 0.114314 25.34C0.266733 25.4924 0.419156 25.4924 0.571575 25.34L2.17196 23.7396L3.77237 25.34C3.92478 25.4924 4.0772 25.4924 4.22961 25.34C4.38203 25.2638 4.38203 25.0351 4.22961 24.8827Z" fill="#13484E"/>
<path id="Vector_24" d="M17.4904 24.8817L15.89 23.2814L17.4904 21.6809C17.6428 21.5285 17.6428 21.3761 17.4904 21.2237C17.3379 21.0713 17.1855 21.0713 17.0331 21.2237L15.4327 22.8241L13.8323 21.2237C13.6799 21.0713 13.5275 21.0713 13.3751 21.2237C13.2226 21.3761 13.2226 21.5285 13.3751 21.6809L14.9755 23.2814L13.3751 24.8817C13.2226 25.0341 13.2226 25.1866 13.3751 25.339C13.5275 25.4914 13.6799 25.4914 13.8323 25.339L15.4327 23.7386L17.0331 25.339C17.1855 25.4914 17.3379 25.4914 17.4904 25.339C17.6428 25.2628 17.6428 25.0341 17.4904 24.8817Z" fill="#13484E"/>
<path id="Vector_25" d="M30.674 24.8817L29.0736 23.2814L30.674 21.6809C30.8264 21.5285 30.8264 21.3761 30.674 21.2237C30.5215 21.0713 30.3691 21.0713 30.2167 21.2237L28.6163 22.8241L27.0159 21.2237C26.8635 21.0713 26.7111 21.0713 26.5586 21.2237C26.4062 21.3761 26.4062 21.5285 26.5586 21.6809L28.1591 23.2814L26.5586 24.8817C26.4062 25.0341 26.4062 25.1866 26.5586 25.339C26.7111 25.4914 26.8635 25.4914 27.0159 25.339L28.6163 23.7386L30.2167 25.339C30.3691 25.4914 30.5215 25.4914 30.674 25.339C30.8264 25.2628 30.8264 25.0341 30.674 24.8817Z" fill="#13484E"/>
<path id="Vector_26" d="M43.9347 24.8827L42.3343 23.2823L43.9347 21.6819C44.0871 21.5295 44.0871 21.3771 43.9347 21.2247C43.7823 21.0722 43.6299 21.0722 43.4774 21.2247L41.877 22.8251L40.2766 21.2247C40.1242 21.0722 39.9718 21.0722 39.8194 21.2247C39.667 21.3771 39.667 21.5295 39.8194 21.6819L41.4198 23.2823L39.8194 24.8827C39.667 25.0351 39.667 25.1875 39.8194 25.34C39.9718 25.4924 40.1242 25.4924 40.2766 25.34L41.877 23.7396L43.4774 25.34C43.6299 25.4924 43.7823 25.4924 43.9347 25.34C44.0871 25.2638 44.0871 25.0351 43.9347 24.8827Z" fill="#13484E"/>
<path id="Vector_27" d="M57.1945 24.8817L55.5941 23.2814L57.1945 21.6809C57.3469 21.5285 57.3469 21.3761 57.1945 21.2237C57.0421 21.0713 56.8897 21.0713 56.7373 21.2237L55.1368 22.8241L53.4602 21.2237C53.3078 21.0713 53.1554 21.0713 53.003 21.2237C52.8506 21.3761 52.8506 21.5285 53.003 21.6809L54.6034 23.2814L53.003 24.8817C52.8506 25.0341 52.8506 25.1866 53.003 25.339C53.1554 25.4914 53.3078 25.4914 53.4602 25.339L55.0606 23.7386L56.661 25.339C56.8135 25.4914 56.9659 25.4914 57.1183 25.339C57.3469 25.2628 57.3469 25.0341 57.1945 24.8817Z" fill="#13484E"/>
<path id="Vector_28" d="M70.379 24.8817L68.7786 23.2814L70.379 21.6809C70.5314 21.5285 70.5314 21.3761 70.379 21.2237C70.2266 21.0713 70.0742 21.0713 69.9218 21.2237L68.3214 22.8241L66.721 21.2237C66.5686 21.0713 66.4161 21.0713 66.2637 21.2237C66.1113 21.3761 66.1113 21.5285 66.2637 21.6809L67.8641 23.2814L66.2637 24.8817C66.1113 25.0341 66.1113 25.1866 66.2637 25.339C66.4161 25.4914 66.5686 25.4914 66.721 25.339L68.3214 23.7386L69.9218 25.339C70.0742 25.4914 70.2266 25.4914 70.379 25.339C70.5314 25.2628 70.5314 25.0341 70.379 24.8817Z" fill="#13484E"/>
<path id="Vector_29" d="M83.6398 24.8827L82.0394 23.2823L83.6398 21.6819C83.7922 21.5295 83.7922 21.3771 83.6398 21.2247C83.4874 21.0722 83.3349 21.0722 83.1825 21.2247L81.5821 22.8251L79.9817 21.2247C79.8293 21.0722 79.6769 21.0722 79.5245 21.2247C79.3721 21.3771 79.3721 21.5295 79.5245 21.6819L81.1249 23.2823L79.5245 24.8827C79.3721 25.0351 79.3721 25.1875 79.5245 25.34C79.6769 25.4924 79.8293 25.4924 79.9817 25.34L81.5821 23.7396L83.1825 25.34C83.3349 25.4924 83.4874 25.4924 83.6398 25.34C83.7922 25.2638 83.7922 25.0351 83.6398 24.8827Z" fill="#13484E"/>
<path id="Vector_30" d="M96.9005 24.8827L95.3001 23.2823L96.9005 21.6819C97.0529 21.5295 97.0529 21.3771 96.9005 21.2247C96.7481 21.0722 96.5957 21.0722 96.4433 21.2247L94.8429 22.8251L93.2425 21.2247C93.0901 21.0722 92.9376 21.0722 92.7852 21.2247C92.6328 21.3771 92.6328 21.5295 92.7852 21.6819L94.3856 23.2823L92.7852 24.8827C92.6328 25.0351 92.6328 25.1875 92.7852 25.34C92.9376 25.4924 93.0901 25.4924 93.2425 25.34L94.8429 23.7396L96.4433 25.34C96.5957 25.4924 96.7481 25.4924 96.9005 25.34C97.0529 25.2638 97.0529 25.0351 96.9005 24.8827Z" fill="#13484E"/>
<path id="Vector_31" d="M110.084 24.8827L108.484 23.2823L110.084 21.6819C110.237 21.5295 110.237 21.3771 110.084 21.2247C109.932 21.0722 109.779 21.0722 109.627 21.2247L108.026 22.8251L106.426 21.2247C106.274 21.0722 106.121 21.0722 105.969 21.2247C105.816 21.3771 105.816 21.5295 105.969 21.6819L107.569 23.2823L105.969 24.8827C105.816 25.0351 105.816 25.1875 105.969 25.34C106.121 25.4924 106.274 25.4924 106.426 25.34L108.026 23.7396L109.627 25.34C109.779 25.4924 109.932 25.4924 110.084 25.34C110.237 25.2638 110.237 25.0351 110.084 24.8827Z" fill="#13484E"/>
<path id="Vector_32" d="M123.345 24.8827L121.744 23.2823L123.345 21.6819C123.497 21.5295 123.497 21.3771 123.345 21.2247C123.192 21.0722 123.04 21.0722 122.888 21.2247L121.287 22.8251L119.687 21.2247C119.534 21.0722 119.382 21.0722 119.23 21.2247C119.077 21.3771 119.077 21.5295 119.23 21.6819L120.83 23.2823L119.23 24.8827C119.077 25.0351 119.077 25.1875 119.23 25.34C119.382 25.4924 119.534 25.4924 119.687 25.34L121.287 23.7396L122.888 25.34C123.04 25.4924 123.192 25.4924 123.345 25.34C123.497 25.2638 123.497 25.0351 123.345 24.8827Z" fill="#13484E"/>
<path id="Vector_33" d="M136.606 24.8817L135.005 23.2814L136.606 21.6809C136.758 21.5285 136.758 21.3761 136.606 21.2237C136.453 21.0713 136.301 21.0713 136.148 21.2237L134.548 22.8241L132.948 21.2237C132.795 21.0713 132.643 21.0713 132.49 21.2237C132.338 21.3761 132.338 21.5285 132.49 21.6809L134.091 23.2814L132.49 24.8817C132.338 25.0341 132.338 25.1866 132.49 25.339C132.643 25.4914 132.795 25.4914 132.948 25.339L134.548 23.7386L136.148 25.339C136.301 25.4914 136.453 25.4914 136.606 25.339C136.758 25.1866 136.758 25.0341 136.606 24.8817Z" fill="#13484E"/>
<path id="Vector_34" d="M4.22961 35.4755L2.62923 33.8751L4.22961 32.2747C4.38203 32.1223 4.38203 31.9699 4.22961 31.8174C4.0772 31.665 3.92478 31.665 3.77237 31.8174L2.17196 33.4178L0.571575 31.8174C0.419156 31.665 0.266733 31.665 0.114314 31.8174C-0.0381047 31.9699 -0.0381047 32.1223 0.114314 32.2747L1.71472 33.8751L0.114314 35.4755C-0.0381047 35.6279 -0.0381047 35.7803 0.114314 35.9327C0.266733 36.0852 0.419156 36.0852 0.571575 35.9327L2.17196 34.3324L3.77237 35.9327C3.92478 36.0852 4.0772 36.0852 4.22961 35.9327C4.38203 35.7803 4.38203 35.5517 4.22961 35.4755Z" fill="#13484E"/>
<path id="Vector_35" d="M17.4904 35.4755L15.89 33.8751L17.4904 32.2747C17.6428 32.1223 17.6428 31.9699 17.4904 31.8174C17.3379 31.665 17.1855 31.665 17.0331 31.8174L15.4327 33.4178L13.8323 31.8174C13.6799 31.665 13.5275 31.665 13.3751 31.8174C13.2226 31.9699 13.2226 32.1223 13.3751 32.2747L14.9755 33.8751L13.3751 35.4755C13.2226 35.6279 13.2226 35.7803 13.3751 35.9327C13.5275 36.0852 13.6799 36.0852 13.8323 35.9327L15.4327 34.3324L17.0331 35.9327C17.1855 36.0852 17.3379 36.0852 17.4904 35.9327C17.6428 35.7803 17.6428 35.5517 17.4904 35.4755Z" fill="#13484E"/>
<path id="Vector_36" d="M30.674 35.4755L29.0736 33.8751L30.674 32.2747C30.8264 32.1223 30.8264 31.9699 30.674 31.8174C30.5215 31.665 30.3691 31.665 30.2167 31.8174L28.6163 33.4178L27.0159 31.8174C26.8635 31.665 26.7111 31.665 26.5586 31.8174C26.4062 31.9699 26.4062 32.1223 26.5586 32.2747L28.1591 33.8751L26.5586 35.4755C26.4062 35.6279 26.4062 35.7803 26.5586 35.9327C26.7111 36.0852 26.8635 36.0852 27.0159 35.9327L28.6163 34.3324L30.2167 35.9327C30.3691 36.0852 30.5215 36.0852 30.674 35.9327C30.8264 35.7803 30.8264 35.5517 30.674 35.4755Z" fill="#13484E"/>
<path id="Vector_37" d="M43.9347 35.4755L42.3343 33.8751L43.9347 32.2747C44.0871 32.1223 44.0871 31.9699 43.9347 31.8174C43.7823 31.665 43.6299 31.665 43.4774 31.8174L41.877 33.4178L40.2766 31.8174C40.1242 31.665 39.9718 31.665 39.8194 31.8174C39.667 31.9699 39.667 32.1223 39.8194 32.2747L41.4198 33.8751L39.8194 35.4755C39.667 35.6279 39.667 35.7803 39.8194 35.9327C39.9718 36.0852 40.1242 36.0852 40.2766 35.9327L41.877 34.3324L43.4774 35.9327C43.6299 36.0852 43.7823 36.0852 43.9347 35.9327C44.0871 35.7803 44.0871 35.5517 43.9347 35.4755Z" fill="#13484E"/>
<path id="Vector_38" d="M57.1954 35.4755L55.595 33.8751L57.1954 32.2747C57.3479 32.1223 57.3479 31.9699 57.1954 31.8174C57.043 31.665 56.8906 31.665 56.7382 31.8174L55.1378 33.4178L53.5374 31.8174C53.385 31.665 53.2326 31.665 53.0801 31.8174C52.9277 31.9699 52.9277 32.1223 53.0801 32.2747L54.6805 33.8751L53.0801 35.4755C52.9277 35.6279 52.9277 35.7803 53.0801 35.9327C53.2326 36.0852 53.385 36.0852 53.5374 35.9327L55.1378 34.3324L56.7382 35.9327C56.8906 36.0852 57.043 36.0852 57.1954 35.9327C57.3479 35.7803 57.3479 35.5517 57.1954 35.4755Z" fill="#13484E"/>
<path id="Vector_39" d="M70.379 35.4755L68.7786 33.8751L70.379 32.2747C70.5314 32.1223 70.5314 31.9699 70.379 31.8174C70.2266 31.665 70.0742 31.665 69.9218 31.8174L68.3214 33.4178L66.721 31.8174C66.5686 31.665 66.4161 31.665 66.2637 31.8174C66.1113 31.9699 66.1113 32.1223 66.2637 32.2747L67.8641 33.8751L66.2637 35.4755C66.1113 35.6279 66.1113 35.7803 66.2637 35.9327C66.4161 36.0852 66.5686 36.0852 66.721 35.9327L68.3214 34.3324L69.9218 35.9327C70.0742 36.0852 70.2266 36.0852 70.379 35.9327C70.5314 35.7803 70.5314 35.5517 70.379 35.4755Z" fill="#13484E"/>
<path id="Vector_40" d="M83.6398 35.4755L82.0394 33.8751L83.6398 32.2747C83.7922 32.1223 83.7922 31.9699 83.6398 31.8174C83.4874 31.665 83.3349 31.665 83.1825 31.8174L81.5821 33.4178L79.9817 31.8174C79.8293 31.665 79.6769 31.665 79.5245 31.8174C79.3721 31.9699 79.3721 32.1223 79.5245 32.2747L81.1249 33.8751L79.5245 35.4755C79.3721 35.6279 79.3721 35.7803 79.5245 35.9327C79.6769 36.0852 79.8293 36.0852 79.9817 35.9327L81.5821 34.3324L83.1825 35.9327C83.3349 36.0852 83.4874 36.0852 83.6398 35.9327C83.7922 35.7803 83.7922 35.5517 83.6398 35.4755Z" fill="#13484E"/>
<path id="Vector_41" d="M96.9005 35.4755L95.3001 33.8751L96.9005 32.2747C97.0529 32.1223 97.0529 31.9699 96.9005 31.8174C96.7481 31.665 96.5957 31.665 96.4433 31.8174L94.8429 33.4178L93.2425 31.8174C93.0901 31.665 92.9376 31.665 92.7852 31.8174C92.6328 31.9699 92.6328 32.1223 92.7852 32.2747L94.3856 33.8751L92.7852 35.4755C92.6328 35.6279 92.6328 35.7803 92.7852 35.9327C92.9376 36.0852 93.0901 36.0852 93.2425 35.9327L94.8429 34.3324L96.4433 35.9327C96.5957 36.0852 96.7481 36.0852 96.9005 35.9327C97.0529 35.7803 97.0529 35.5517 96.9005 35.4755Z" fill="#13484E"/>
<path id="Vector_42" d="M110.084 35.4755L108.484 33.8751L110.084 32.2747C110.237 32.1223 110.237 31.9699 110.084 31.8174C109.932 31.665 109.779 31.665 109.627 31.8174L108.026 33.4178L106.426 31.8174C106.274 31.665 106.121 31.665 105.969 31.8174C105.816 31.9699 105.816 32.1223 105.969 32.2747L107.569 33.8751L105.969 35.4755C105.816 35.6279 105.816 35.7803 105.969 35.9327C106.121 36.0852 106.274 36.0852 106.426 35.9327L108.026 34.3324L109.627 35.9327C109.779 36.0852 109.932 36.0852 110.084 35.9327C110.237 35.7803 110.237 35.5517 110.084 35.4755Z" fill="#13484E"/>
<path id="Vector_43" d="M123.345 35.4755L121.744 33.8751L123.345 32.2747C123.497 32.1223 123.497 31.9699 123.345 31.8174C123.192 31.665 123.04 31.665 122.888 31.8174L121.287 33.4178L119.687 31.8174C119.534 31.665 119.382 31.665 119.23 31.8174C119.077 31.9699 119.077 32.1223 119.23 32.2747L120.83 33.8751L119.23 35.4755C119.077 35.6279 119.077 35.7803 119.23 35.9327C119.382 36.0852 119.534 36.0852 119.687 35.9327L121.287 34.3324L122.888 35.9327C123.04 36.0852 123.192 36.0852 123.345 35.9327C123.497 35.7803 123.497 35.5517 123.345 35.4755Z" fill="#13484E"/>
<path id="Vector_44" d="M136.606 35.4755L135.005 33.8751L136.606 32.2747C136.758 32.1223 136.758 31.9699 136.606 31.8174C136.453 31.665 136.301 31.665 136.148 31.8174L134.548 33.4178L132.948 31.8174C132.795 31.665 132.643 31.665 132.49 31.8174C132.338 31.9699 132.338 32.1223 132.49 32.2747L134.091 33.8751L132.49 35.4755C132.338 35.6279 132.338 35.7803 132.49 35.9327C132.643 36.0852 132.795 36.0852 132.948 35.9327L134.548 34.3324L136.148 35.9327C136.301 36.0852 136.453 36.0852 136.606 35.9327C136.758 35.7803 136.758 35.5517 136.606 35.4755Z" fill="#13484E"/>
<path id="Vector_45" d="M4.22961 45.9921L2.62923 44.3917L4.22961 42.7913C4.38203 42.6389 4.38203 42.4865 4.22961 42.334C4.0772 42.1816 3.92478 42.1816 3.77237 42.334L2.17196 43.9344L0.571575 42.334C0.419156 42.1816 0.266733 42.1816 0.114314 42.334C-0.0381047 42.4865 -0.0381047 42.6389 0.114314 42.7913L1.71472 44.3917L0.114314 45.9921C-0.0381047 46.1445 -0.0381047 46.2969 0.114314 46.4493C0.266733 46.6018 0.419156 46.6018 0.571575 46.4493L2.17196 44.8489L3.77237 46.4493C3.92478 46.6018 4.0772 46.6018 4.22961 46.4493C4.38203 46.2969 4.38203 46.1445 4.22961 45.9921Z" fill="#13484E"/>
<path id="Vector_46" d="M17.4904 45.9931L15.89 44.3927L17.4904 42.7923C17.6428 42.6398 17.6428 42.4874 17.4904 42.335C17.3379 42.1826 17.1855 42.1826 17.0331 42.335L15.4327 43.9354L13.8323 42.335C13.6799 42.1826 13.5275 42.1826 13.3751 42.335C13.2226 42.4874 13.2226 42.6398 13.3751 42.7923L14.9755 44.3927L13.3751 45.9931C13.2226 46.1455 13.2226 46.2979 13.3751 46.4503C13.5275 46.6027 13.6799 46.6027 13.8323 46.4503L15.4327 44.8499L17.0331 46.4503C17.1855 46.6027 17.3379 46.6027 17.4904 46.4503C17.6428 46.2979 17.6428 46.1455 17.4904 45.9931Z" fill="#13484E"/>
<path id="Vector_47" d="M17.4904 55.8993L15.89 54.2989L17.4904 52.6985C17.6428 52.5461 17.6428 52.3937 17.4904 52.2413C17.3379 52.0888 17.1855 52.0888 17.0331 52.2413L15.4327 53.8416L13.8323 52.2413C13.6799 52.0888 13.5275 52.0888 13.3751 52.2413C13.2226 52.3937 13.2226 52.5461 13.3751 52.6985L14.9755 54.2989L13.3751 55.8993C13.2226 56.0517 13.2226 56.2041 13.3751 56.3566C13.5275 56.509 13.6799 56.509 13.8323 56.3566L15.4327 54.7562L17.0331 56.3566C17.1855 56.509 17.3379 56.509 17.4904 56.3566C17.6428 56.2041 17.6428 56.0517 17.4904 55.8993Z" fill="#13484E"/>
<path id="Vector_48" d="M4.22963 55.8993L2.62922 54.2989L4.22963 52.6985C4.38204 52.5461 4.38204 52.3937 4.22963 52.2413C4.07721 52.0888 3.92478 52.0888 3.77236 52.2413L2.17198 53.8416L0.571575 52.2413C0.419156 52.0888 0.266733 52.0888 0.114314 52.2413C-0.0381047 52.3937 -0.0381047 52.5461 0.114314 52.6985L1.71471 54.2989L0.114314 55.8993C-0.0381047 56.0517 -0.0381047 56.2041 0.114314 56.3566C0.266733 56.509 0.419156 56.509 0.571575 56.3566L2.17198 54.7562L3.77236 56.3566C3.92478 56.509 4.07721 56.509 4.22963 56.3566C4.38204 56.2041 4.38204 56.0517 4.22963 55.8993Z" fill="#13484E"/>
<path id="Vector_49" d="M17.4904 65.8075L15.89 64.2071L17.4904 62.6067C17.6428 62.4543 17.6428 62.3019 17.4904 62.1495C17.3379 61.9971 17.1855 61.9971 17.0331 62.1495L15.4327 63.7498L13.8323 62.1495C13.6799 61.9971 13.5275 61.9971 13.3751 62.1495C13.2226 62.3019 13.2226 62.4543 13.3751 62.6067L14.9755 64.2071L13.3751 65.8075C13.2226 65.9599 13.2226 66.1124 13.3751 66.2648C13.5275 66.4172 13.6799 66.4172 13.8323 66.2648L15.4327 64.6644L17.0331 66.2648C17.1855 66.4172 17.3379 66.4172 17.4904 66.2648C17.6428 66.1124 17.6428 65.9599 17.4904 65.8075Z" fill="#13484E"/>
<path id="Vector_50" d="M4.22963 65.8065L2.62922 64.2061L4.22963 62.6057C4.38204 62.4533 4.38204 62.3009 4.22963 62.1485C4.07721 61.9961 3.92478 61.9961 3.77236 62.1485L2.17198 63.7489L0.571575 62.1485C0.419156 61.9961 0.266733 61.9961 0.114314 62.1485C-0.0381047 62.3009 -0.0381047 62.4533 0.114314 62.6057L1.71471 64.2061L0.114314 65.8065C-0.0381047 65.959 -0.0381047 66.1114 0.114314 66.2638C0.266733 66.4162 0.419156 66.4162 0.571575 66.2638L2.17198 64.6634L3.77236 66.2638C3.92478 66.4162 4.07721 66.4162 4.22963 66.2638C4.38204 66.1114 4.38204 65.959 4.22963 65.8065Z" fill="#13484E"/>
<path id="Vector_51" d="M17.4904 75.7138L15.89 74.1134L17.4904 72.513C17.6428 72.3605 17.6428 72.2081 17.4904 72.0557C17.3379 71.9033 17.1855 71.9033 17.0331 72.0557L15.4327 73.6561L13.8323 72.0557C13.6799 71.9033 13.5275 71.9033 13.3751 72.0557C13.2226 72.2081 13.2226 72.3605 13.3751 72.513L14.9755 74.1134L13.3751 75.7138C13.2226 75.8662 13.2226 76.0186 13.3751 76.171C13.5275 76.3234 13.6799 76.3234 13.8323 76.171L15.4327 74.5706L17.0331 76.171C17.1855 76.3234 17.3379 76.3234 17.4904 76.171C17.6428 76.0186 17.6428 75.8662 17.4904 75.7138Z" fill="#13484E"/>
<path id="Vector_52" d="M4.22963 75.7138L2.62922 74.1134L4.22963 72.513C4.38204 72.3605 4.38204 72.2081 4.22963 72.0557C4.07721 71.9033 3.92478 71.9033 3.77236 72.0557L2.17198 73.6561L0.571575 72.0557C0.419156 71.9033 0.266733 71.9033 0.114314 72.0557C-0.0381047 72.2081 -0.0381047 72.3605 0.114314 72.513L1.71471 74.1134L0.114314 75.7138C-0.0381047 75.8662 -0.0381047 76.0186 0.114314 76.171C0.266733 76.3234 0.419156 76.3234 0.571575 76.171L2.17198 74.5706L3.77236 76.171C3.92478 76.3234 4.07721 76.3234 4.22963 76.171C4.38204 76.0186 4.38204 75.8662 4.22963 75.7138Z" fill="#13484E"/>
<path id="Vector_53" d="M17.4904 85.621L15.89 84.0206L17.4904 82.4202C17.6428 82.2678 17.6428 82.1154 17.4904 81.9629C17.3379 81.8105 17.1855 81.8105 17.0331 81.9629L15.4327 83.5633L13.8323 81.9629C13.6799 81.8105 13.5275 81.8105 13.3751 81.9629C13.2226 82.1154 13.2226 82.2678 13.3751 82.4202L14.9755 84.0206L13.3751 85.621C13.2226 85.7734 13.2226 85.9258 13.3751 86.0782C13.5275 86.2307 13.6799 86.2307 13.8323 86.0782L15.4327 84.4778L17.0331 86.0782C17.1855 86.2307 17.3379 86.2307 17.4904 86.0782C17.6428 85.9258 17.6428 85.7734 17.4904 85.621Z" fill="#13484E"/>
<path id="Vector_54" d="M4.22963 85.621L2.62922 84.0206L4.22963 82.4202C4.38204 82.2678 4.38204 82.1154 4.22963 81.9629C4.07721 81.8105 3.92478 81.8105 3.77236 81.9629L2.17198 83.5633L0.571575 81.9629C0.419156 81.8105 0.266733 81.8105 0.114314 81.9629C-0.0381047 82.1154 -0.0381047 82.2678 0.114314 82.4202L1.71471 84.0206L0.114314 85.621C-0.0381047 85.7734 -0.0381047 85.9258 0.114314 86.0782C0.266733 86.2307 0.419156 86.2307 0.571575 86.0782L2.17198 84.4778L3.77236 86.0782C3.92478 86.2307 4.07721 86.2307 4.22963 86.0782C4.38204 85.9258 4.38204 85.7734 4.22963 85.621Z" fill="#13484E"/>
<path id="Vector_55" d="M17.4904 95.5282L15.89 93.9278L17.4904 92.3274C17.6428 92.175 17.6428 92.0226 17.4904 91.8702C17.3379 91.7178 17.1855 91.7178 17.0331 91.8702L15.4327 93.4706L13.8323 91.8702C13.6799 91.7178 13.5275 91.7178 13.3751 91.8702C13.2226 92.0226 13.2226 92.175 13.3751 92.3274L14.9755 93.9278L13.3751 95.5282C13.2226 95.6806 13.2226 95.8331 13.3751 95.9855C13.5275 96.1379 13.6799 96.1379 13.8323 95.9855L15.4327 94.3851L17.0331 95.9855C17.1855 96.1379 17.3379 96.1379 17.4904 95.9855C17.6428 95.8331 17.6428 95.6806 17.4904 95.5282Z" fill="#13484E"/>
<path id="Vector_56" d="M4.22963 95.5282L2.62922 93.9278L4.22963 92.3274C4.38204 92.175 4.38204 92.0226 4.22963 91.8702C4.07721 91.7178 3.92478 91.7178 3.77236 91.8702L2.17198 93.4706L0.571575 91.8702C0.419156 91.7178 0.266733 91.7178 0.114314 91.8702C-0.0381047 92.0226 -0.0381047 92.175 0.114314 92.3274L1.71471 93.9278L0.114314 95.5282C-0.0381047 95.6806 -0.0381047 95.8331 0.114314 95.9855C0.266733 96.1379 0.419156 96.1379 0.571575 95.9855L2.17198 94.3851L3.77236 95.9855C3.92478 96.1379 4.07721 96.1379 4.22963 95.9855C4.38204 95.8331 4.38204 95.6806 4.22963 95.5282Z" fill="#13484E"/>
<path id="Vector_57" d="M30.674 45.9931L29.0736 44.3927L30.674 42.7923C30.8264 42.6398 30.8264 42.4874 30.674 42.335C30.5215 42.1826 30.3691 42.1826 30.2167 42.335L28.6163 43.9354L27.0159 42.335C26.8635 42.1826 26.7111 42.1826 26.5586 42.335C26.4062 42.4874 26.4062 42.6398 26.5586 42.7923L28.1591 44.3927L26.5586 45.9931C26.4062 46.1455 26.4062 46.2979 26.5586 46.4503C26.7111 46.6027 26.8635 46.6027 27.0159 46.4503L28.6163 44.8499L30.2167 46.4503C30.3691 46.6027 30.5215 46.6027 30.674 46.4503C30.8264 46.2979 30.8264 46.1455 30.674 45.9931Z" fill="#13484E"/>
<path id="Vector_58" d="M30.674 55.8993L29.0736 54.2989L30.674 52.6985C30.8264 52.5461 30.8264 52.3937 30.674 52.2413C30.5215 52.0888 30.3691 52.0888 30.2167 52.2413L28.6163 53.8416L27.0159 52.2413C26.8635 52.0888 26.7111 52.0888 26.5586 52.2413C26.4062 52.3937 26.4062 52.5461 26.5586 52.6985L28.1591 54.2989L26.5586 55.8993C26.4062 56.0517 26.4062 56.2041 26.5586 56.3566C26.7111 56.509 26.8635 56.509 27.0159 56.3566L28.6163 54.7562L30.2167 56.3566C30.3691 56.509 30.5215 56.509 30.674 56.3566C30.8264 56.2041 30.8264 56.0517 30.674 55.8993Z" fill="#13484E"/>
<path id="Vector_59" d="M30.674 65.8075L29.0736 64.2071L30.674 62.6067C30.8264 62.4543 30.8264 62.3019 30.674 62.1495C30.5215 61.9971 30.3691 61.9971 30.2167 62.1495L28.6163 63.7498L27.0159 62.1495C26.8635 61.9971 26.7111 61.9971 26.5586 62.1495C26.4062 62.3019 26.4062 62.4543 26.5586 62.6067L28.1591 64.2071L26.5586 65.8075C26.4062 65.9599 26.4062 66.1124 26.5586 66.2648C26.7111 66.4172 26.8635 66.4172 27.0159 66.2648L28.6163 64.6644L30.2167 66.2648C30.3691 66.4172 30.5215 66.4172 30.674 66.2648C30.8264 66.1124 30.8264 65.9599 30.674 65.8075Z" fill="#13484E"/>
<path id="Vector_60" d="M30.674 75.7138L29.0736 74.1134L30.674 72.513C30.8264 72.3605 30.8264 72.2081 30.674 72.0557C30.5215 71.9033 30.3691 71.9033 30.2167 72.0557L28.6163 73.6561L27.0159 72.0557C26.8635 71.9033 26.7111 71.9033 26.5586 72.0557C26.4062 72.2081 26.4062 72.3605 26.5586 72.513L28.1591 74.1134L26.5586 75.7138C26.4062 75.8662 26.4062 76.0186 26.5586 76.171C26.7111 76.3234 26.8635 76.3234 27.0159 76.171L28.6163 74.5706L30.2167 76.171C30.3691 76.3234 30.5215 76.3234 30.674 76.171C30.8264 76.0186 30.8264 75.8662 30.674 75.7138Z" fill="#13484E"/>
<path id="Vector_61" d="M30.674 85.621L29.0736 84.0206L30.674 82.4202C30.8264 82.2678 30.8264 82.1154 30.674 81.9629C30.5215 81.8105 30.3691 81.8105 30.2167 81.9629L28.6163 83.5633L27.0159 81.9629C26.8635 81.8105 26.7111 81.8105 26.5586 81.9629C26.4062 82.1154 26.4062 82.2678 26.5586 82.4202L28.1591 84.0206L26.5586 85.621C26.4062 85.7734 26.4062 85.9258 26.5586 86.0782C26.7111 86.2307 26.8635 86.2307 27.0159 86.0782L28.6163 84.4778L30.2167 86.0782C30.3691 86.2307 30.5215 86.2307 30.674 86.0782C30.8264 85.9258 30.8264 85.7734 30.674 85.621Z" fill="#13484E"/>
<path id="Vector_62" d="M30.674 95.5282L29.0736 93.9278L30.674 92.3274C30.8264 92.175 30.8264 92.0226 30.674 91.8702C30.5215 91.7178 30.3691 91.7178 30.2167 91.8702L28.6163 93.4706L27.0159 91.8702C26.8635 91.7178 26.7111 91.7178 26.5586 91.8702C26.4062 92.0226 26.4062 92.175 26.5586 92.3274L28.1591 93.9278L26.5586 95.5282C26.4062 95.6806 26.4062 95.8331 26.5586 95.9855C26.7111 96.1379 26.8635 96.1379 27.0159 95.9855L28.6163 94.3851L30.2167 95.9855C30.3691 96.1379 30.5215 96.1379 30.674 95.9855C30.8264 95.8331 30.8264 95.6806 30.674 95.5282Z" fill="#13484E"/>
<path id="Vector_63" d="M43.9347 45.9921L42.3343 44.3917L43.9347 42.7913C44.0871 42.6389 44.0871 42.4865 43.9347 42.334C43.7823 42.1816 43.6299 42.1816 43.4774 42.334L41.877 43.9344L40.2766 42.334C40.1242 42.1816 39.9718 42.1816 39.8194 42.334C39.667 42.4865 39.667 42.6389 39.8194 42.7913L41.4198 44.3917L39.8194 45.9921C39.667 46.1445 39.667 46.2969 39.8194 46.4493C39.9718 46.6018 40.1242 46.6018 40.2766 46.4493L41.877 44.8489L43.4774 46.4493C43.6299 46.6018 43.7823 46.6018 43.9347 46.4493C44.0871 46.2969 44.0871 46.1445 43.9347 45.9921Z" fill="#13484E"/>
<path id="Vector_64" d="M43.9347 55.8993L42.3343 54.2989L43.9347 52.6985C44.0871 52.5461 44.0871 52.3937 43.9347 52.2413C43.7823 52.0888 43.6299 52.0888 43.4774 52.2413L41.877 53.8416L40.2766 52.2413C40.1242 52.0888 39.9718 52.0888 39.8194 52.2413C39.667 52.3937 39.667 52.5461 39.8194 52.6985L41.4198 54.2989L39.8194 55.8993C39.667 56.0517 39.667 56.2041 39.8194 56.3566C39.9718 56.509 40.1242 56.509 40.2766 56.3566L41.877 54.7562L43.4774 56.3566C43.6299 56.509 43.7823 56.509 43.9347 56.3566C44.0871 56.2041 44.0871 56.0517 43.9347 55.8993Z" fill="#13484E"/>
<path id="Vector_65" d="M43.9347 65.8065L42.3343 64.2061L43.9347 62.6057C44.0871 62.4533 44.0871 62.3009 43.9347 62.1485C43.7823 61.9961 43.6299 61.9961 43.4774 62.1485L41.877 63.7489L40.2766 62.1485C40.1242 61.9961 39.9718 61.9961 39.8194 62.1485C39.667 62.3009 39.667 62.4533 39.8194 62.6057L41.4198 64.2061L39.8194 65.8065C39.667 65.959 39.667 66.1114 39.8194 66.2638C39.9718 66.4162 40.1242 66.4162 40.2766 66.2638L41.877 64.6634L43.4774 66.2638C43.6299 66.4162 43.7823 66.4162 43.9347 66.2638C44.0871 66.1114 44.0871 65.959 43.9347 65.8065Z" fill="#13484E"/>
<path id="Vector_66" d="M43.9347 75.7138L42.3343 74.1134L43.9347 72.513C44.0871 72.3605 44.0871 72.2081 43.9347 72.0557C43.7823 71.9033 43.6299 71.9033 43.4774 72.0557L41.877 73.6561L40.2766 72.0557C40.1242 71.9033 39.9718 71.9033 39.8194 72.0557C39.667 72.2081 39.667 72.3605 39.8194 72.513L41.4198 74.1134L39.8194 75.7138C39.667 75.8662 39.667 76.0186 39.8194 76.171C39.9718 76.3234 40.1242 76.3234 40.2766 76.171L41.877 74.5706L43.4774 76.171C43.6299 76.3234 43.7823 76.3234 43.9347 76.171C44.0871 76.0186 44.0871 75.8662 43.9347 75.7138Z" fill="#13484E"/>
<path id="Vector_67" d="M43.9347 85.621L42.3343 84.0206L43.9347 82.4202C44.0871 82.2678 44.0871 82.1154 43.9347 81.9629C43.7823 81.8105 43.6299 81.8105 43.4774 81.9629L41.877 83.5633L40.2766 81.9629C40.1242 81.8105 39.9718 81.8105 39.8194 81.9629C39.667 82.1154 39.667 82.2678 39.8194 82.4202L41.4198 84.0206L39.8194 85.621C39.667 85.7734 39.667 85.9258 39.8194 86.0782C39.9718 86.2307 40.1242 86.2307 40.2766 86.0782L41.877 84.4778L43.4774 86.0782C43.6299 86.2307 43.7823 86.2307 43.9347 86.0782C44.0871 85.9258 44.0871 85.7734 43.9347 85.621Z" fill="#13484E"/>
<path id="Vector_68" d="M43.9347 95.5282L42.3343 93.9278L43.9347 92.3274C44.0871 92.175 44.0871 92.0226 43.9347 91.8702C43.7823 91.7178 43.6299 91.7178 43.4774 91.8702L41.877 93.4706L40.2766 91.8702C40.1242 91.7178 39.9718 91.7178 39.8194 91.8702C39.667 92.0226 39.667 92.175 39.8194 92.3274L41.4198 93.9278L39.8194 95.5282C39.667 95.6806 39.667 95.8331 39.8194 95.9855C39.9718 96.1379 40.1242 96.1379 40.2766 95.9855L41.877 94.3851L43.4774 95.9855C43.6299 96.1379 43.7823 96.1379 43.9347 95.9855C44.0871 95.8331 44.0871 95.6806 43.9347 95.5282Z" fill="#13484E"/>
<path id="Vector_69" d="M57.1954 45.9931L55.595 44.3927L57.1954 42.7923C57.3479 42.6398 57.3479 42.4874 57.1954 42.335C57.043 42.1826 56.8906 42.1826 56.7382 42.335L55.1378 43.9354L53.5374 42.335C53.385 42.1826 53.2326 42.1826 53.0801 42.335C52.9277 42.4874 52.9277 42.6398 53.0801 42.7923L54.6805 44.3927L53.0801 45.9931C52.9277 46.1455 52.9277 46.2979 53.0801 46.4503C53.2326 46.6027 53.385 46.6027 53.5374 46.4503L55.1378 44.8499L56.7382 46.4503C56.8906 46.6027 57.043 46.6027 57.1954 46.4503C57.3479 46.2979 57.3479 46.1455 57.1954 45.9931Z" fill="#13484E"/>
<path id="Vector_70" d="M57.1954 55.8993L55.595 54.2989L57.1954 52.6985C57.3479 52.5461 57.3479 52.3937 57.1954 52.2413C57.043 52.0888 56.8906 52.0888 56.7382 52.2413L55.1378 53.8416L53.5374 52.2413C53.385 52.0888 53.2326 52.0888 53.0801 52.2413C52.9277 52.3937 52.9277 52.5461 53.0801 52.6985L54.6805 54.2989L53.0801 55.8993C52.9277 56.0517 52.9277 56.2041 53.0801 56.3566C53.2326 56.509 53.385 56.509 53.5374 56.3566L55.1378 54.7562L56.7382 56.3566C56.8906 56.509 57.043 56.509 57.1954 56.3566C57.3479 56.2041 57.3479 56.0517 57.1954 55.8993Z" fill="#13484E"/>
<path id="Vector_71" d="M57.1954 65.8075L55.595 64.2071L57.1954 62.6067C57.3479 62.4543 57.3479 62.3019 57.1954 62.1495C57.043 61.9971 56.8906 61.9971 56.7382 62.1495L55.1378 63.7498L53.5374 62.1495C53.385 61.9971 53.2326 61.9971 53.0801 62.1495C52.9277 62.3019 52.9277 62.4543 53.0801 62.6067L54.6805 64.2071L53.0801 65.8075C52.9277 65.9599 52.9277 66.1124 53.0801 66.2648C53.2326 66.4172 53.385 66.4172 53.5374 66.2648L55.1378 64.6644L56.7382 66.2648C56.8906 66.4172 57.043 66.4172 57.1954 66.2648C57.3479 66.1124 57.3479 65.9599 57.1954 65.8075Z" fill="#13484E"/>
<path id="Vector_72" d="M57.1954 75.7138L55.595 74.1134L57.1954 72.513C57.3479 72.3605 57.3479 72.2081 57.1954 72.0557C57.043 71.9033 56.8906 71.9033 56.7382 72.0557L55.1378 73.6561L53.5374 72.0557C53.385 71.9033 53.2326 71.9033 53.0801 72.0557C52.9277 72.2081 52.9277 72.3605 53.0801 72.513L54.6805 74.1134L53.0801 75.7138C52.9277 75.8662 52.9277 76.0186 53.0801 76.171C53.2326 76.3234 53.385 76.3234 53.5374 76.171L55.1378 74.5706L56.7382 76.171C56.8906 76.3234 57.043 76.3234 57.1954 76.171C57.3479 76.0186 57.3479 75.8662 57.1954 75.7138Z" fill="#13484E"/>
<path id="Vector_73" d="M57.1954 85.621L55.595 84.0206L57.1954 82.4202C57.3479 82.2678 57.3479 82.1154 57.1954 81.9629C57.043 81.8105 56.8906 81.8105 56.7382 81.9629L55.1378 83.5633L53.5374 81.9629C53.385 81.8105 53.2326 81.8105 53.0801 81.9629C52.9277 82.1154 52.9277 82.2678 53.0801 82.4202L54.6805 84.0206L53.0801 85.621C52.9277 85.7734 52.9277 85.9258 53.0801 86.0782C53.2326 86.2307 53.385 86.2307 53.5374 86.0782L55.1378 84.4778L56.7382 86.0782C56.8906 86.2307 57.043 86.2307 57.1954 86.0782C57.3479 85.9258 57.3479 85.7734 57.1954 85.621Z" fill="#13484E"/>
<path id="Vector_74" d="M57.1954 95.5282L55.595 93.9278L57.1954 92.3274C57.3479 92.175 57.3479 92.0226 57.1954 91.8702C57.043 91.7178 56.8906 91.7178 56.7382 91.8702L55.1378 93.4706L53.5374 91.8702C53.385 91.7178 53.2326 91.7178 53.0801 91.8702C52.9277 92.0226 52.9277 92.175 53.0801 92.3274L54.6805 93.9278L53.0801 95.5282C52.9277 95.6806 52.9277 95.8331 53.0801 95.9855C53.2326 96.1379 53.385 96.1379 53.5374 95.9855L55.1378 94.3851L56.7382 95.9855C56.8906 96.1379 57.043 96.1379 57.1954 95.9855C57.3479 95.8331 57.3479 95.6806 57.1954 95.5282Z" fill="#13484E"/>
<path id="Vector_75" d="M70.379 45.9931L68.7786 44.3927L70.379 42.7923C70.5314 42.6398 70.5314 42.4874 70.379 42.335C70.2266 42.1826 70.0742 42.1826 69.9218 42.335L68.3214 43.9354L66.721 42.335C66.5686 42.1826 66.4161 42.1826 66.2637 42.335C66.1113 42.4874 66.1113 42.6398 66.2637 42.7923L67.8641 44.3927L66.2637 45.9931C66.1113 46.1455 66.1113 46.2979 66.2637 46.4503C66.4161 46.6027 66.5686 46.6027 66.721 46.4503L68.3214 44.8499L69.9218 46.4503C70.0742 46.6027 70.2266 46.6027 70.379 46.4503C70.5314 46.2979 70.5314 46.1455 70.379 45.9931Z" fill="#13484E"/>
<path id="Vector_76" d="M70.379 55.8993L68.7786 54.2989L70.379 52.6985C70.5314 52.5461 70.5314 52.3937 70.379 52.2413C70.2266 52.0888 70.0742 52.0888 69.9218 52.2413L68.3214 53.8416L66.721 52.2413C66.5686 52.0888 66.4161 52.0888 66.2637 52.2413C66.1113 52.3937 66.1113 52.5461 66.2637 52.6985L67.8641 54.2989L66.2637 55.8993C66.1113 56.0517 66.1113 56.2041 66.2637 56.3566C66.4161 56.509 66.5686 56.509 66.721 56.3566L68.3214 54.7562L69.9218 56.3566C70.0742 56.509 70.2266 56.509 70.379 56.3566C70.5314 56.2041 70.5314 56.0517 70.379 55.8993Z" fill="#13484E"/>
<path id="Vector_77" d="M70.379 65.8075L68.7786 64.2071L70.379 62.6067C70.5314 62.4543 70.5314 62.3019 70.379 62.1495C70.2266 61.9971 70.0742 61.9971 69.9218 62.1495L68.3214 63.7498L66.721 62.1495C66.5686 61.9971 66.4161 61.9971 66.2637 62.1495C66.1113 62.3019 66.1113 62.4543 66.2637 62.6067L67.8641 64.2071L66.2637 65.8075C66.1113 65.9599 66.1113 66.1124 66.2637 66.2648C66.4161 66.4172 66.5686 66.4172 66.721 66.2648L68.3214 64.6644L69.9218 66.2648C70.0742 66.4172 70.2266 66.4172 70.379 66.2648C70.5314 66.1124 70.5314 65.9599 70.379 65.8075Z" fill="#13484E"/>
<path id="Vector_78" d="M70.379 75.7138L68.7786 74.1134L70.379 72.513C70.5314 72.3605 70.5314 72.2081 70.379 72.0557C70.2266 71.9033 70.0742 71.9033 69.9218 72.0557L68.3214 73.6561L66.721 72.0557C66.5686 71.9033 66.4161 71.9033 66.2637 72.0557C66.1113 72.2081 66.1113 72.3605 66.2637 72.513L67.8641 74.1134L66.2637 75.7138C66.1113 75.8662 66.1113 76.0186 66.2637 76.171C66.4161 76.3234 66.5686 76.3234 66.721 76.171L68.3214 74.5706L69.9218 76.171C70.0742 76.3234 70.2266 76.3234 70.379 76.171C70.5314 76.0186 70.5314 75.8662 70.379 75.7138Z" fill="#13484E"/>
<path id="Vector_79" d="M70.379 85.621L68.7786 84.0206L70.379 82.4202C70.5314 82.2678 70.5314 82.1154 70.379 81.9629C70.2266 81.8105 70.0742 81.8105 69.9218 81.9629L68.3214 83.5633L66.721 81.9629C66.5686 81.8105 66.4161 81.8105 66.2637 81.9629C66.1113 82.1154 66.1113 82.2678 66.2637 82.4202L67.8641 84.0206L66.2637 85.621C66.1113 85.7734 66.1113 85.9258 66.2637 86.0782C66.4161 86.2307 66.5686 86.2307 66.721 86.0782L68.3214 84.4778L69.9218 86.0782C70.0742 86.2307 70.2266 86.2307 70.379 86.0782C70.5314 85.9258 70.5314 85.7734 70.379 85.621Z" fill="#13484E"/>
<path id="Vector_80" d="M70.379 95.5282L68.7786 93.9278L70.379 92.3274C70.5314 92.175 70.5314 92.0226 70.379 91.8702C70.2266 91.7178 70.0742 91.7178 69.9218 91.8702L68.3214 93.4706L66.721 91.8702C66.5686 91.7178 66.4161 91.7178 66.2637 91.8702C66.1113 92.0226 66.1113 92.175 66.2637 92.3274L67.8641 93.9278L66.2637 95.5282C66.1113 95.6806 66.1113 95.8331 66.2637 95.9855C66.4161 96.1379 66.5686 96.1379 66.721 95.9855L68.3214 94.3851L69.9218 95.9855C70.0742 96.1379 70.2266 96.1379 70.379 95.9855C70.5314 95.8331 70.5314 95.6806 70.379 95.5282Z" fill="#13484E"/>
<path id="Vector_81" d="M83.6398 45.9921L82.0394 44.3917L83.6398 42.7913C83.7922 42.6389 83.7922 42.4865 83.6398 42.334C83.4874 42.1816 83.3349 42.1816 83.1825 42.334L81.5821 43.9344L79.9817 42.334C79.8293 42.1816 79.6769 42.1816 79.5245 42.334C79.3721 42.4865 79.3721 42.6389 79.5245 42.7913L81.1249 44.3917L79.5245 45.9921C79.3721 46.1445 79.3721 46.2969 79.5245 46.4493C79.6769 46.6018 79.8293 46.6018 79.9817 46.4493L81.5821 44.8489L83.1825 46.4493C83.3349 46.6018 83.4874 46.6018 83.6398 46.4493C83.7922 46.2969 83.7922 46.1445 83.6398 45.9921Z" fill="#13484E"/>
<path id="Vector_82" d="M83.6398 55.8993L82.0394 54.2989L83.6398 52.6985C83.7922 52.5461 83.7922 52.3937 83.6398 52.2413C83.4874 52.0888 83.3349 52.0888 83.1825 52.2413L81.5821 53.8416L79.9817 52.2413C79.8293 52.0888 79.6769 52.0888 79.5245 52.2413C79.3721 52.3937 79.3721 52.5461 79.5245 52.6985L81.1249 54.2989L79.5245 55.8993C79.3721 56.0517 79.3721 56.2041 79.5245 56.3566C79.6769 56.509 79.8293 56.509 79.9817 56.3566L81.5821 54.7562L83.1825 56.3566C83.3349 56.509 83.4874 56.509 83.6398 56.3566C83.7922 56.2041 83.7922 56.0517 83.6398 55.8993Z" fill="#13484E"/>
<path id="Vector_83" d="M83.6398 65.8065L82.0394 64.2061L83.6398 62.6057C83.7922 62.4533 83.7922 62.3009 83.6398 62.1485C83.4874 61.9961 83.3349 61.9961 83.1825 62.1485L81.5821 63.7489L79.9817 62.1485C79.8293 61.9961 79.6769 61.9961 79.5245 62.1485C79.3721 62.3009 79.3721 62.4533 79.5245 62.6057L81.1249 64.2061L79.5245 65.8065C79.3721 65.959 79.3721 66.1114 79.5245 66.2638C79.6769 66.4162 79.8293 66.4162 79.9817 66.2638L81.5821 64.6634L83.1825 66.2638C83.3349 66.4162 83.4874 66.4162 83.6398 66.2638C83.7922 66.1114 83.7922 65.959 83.6398 65.8065Z" fill="#13484E"/>
<path id="Vector_84" d="M83.6398 75.7138L82.0394 74.1134L83.6398 72.513C83.7922 72.3605 83.7922 72.2081 83.6398 72.0557C83.4874 71.9033 83.3349 71.9033 83.1825 72.0557L81.5821 73.6561L79.9817 72.0557C79.8293 71.9033 79.6769 71.9033 79.5245 72.0557C79.3721 72.2081 79.3721 72.3605 79.5245 72.513L81.1249 74.1134L79.5245 75.7138C79.3721 75.8662 79.3721 76.0186 79.5245 76.171C79.6769 76.3234 79.8293 76.3234 79.9817 76.171L81.5821 74.5706L83.1825 76.171C83.3349 76.3234 83.4874 76.3234 83.6398 76.171C83.7922 76.0186 83.7922 75.8662 83.6398 75.7138Z" fill="#13484E"/>
<path id="Vector_85" d="M83.6398 85.621L82.0394 84.0206L83.6398 82.4202C83.7922 82.2678 83.7922 82.1154 83.6398 81.9629C83.4874 81.8105 83.3349 81.8105 83.1825 81.9629L81.5821 83.5633L79.9817 81.9629C79.8293 81.8105 79.6769 81.8105 79.5245 81.9629C79.3721 82.1154 79.3721 82.2678 79.5245 82.4202L81.1249 84.0206L79.5245 85.621C79.3721 85.7734 79.3721 85.9258 79.5245 86.0782C79.6769 86.2307 79.8293 86.2307 79.9817 86.0782L81.5821 84.4778L83.1825 86.0782C83.3349 86.2307 83.4874 86.2307 83.6398 86.0782C83.7922 85.9258 83.7922 85.7734 83.6398 85.621Z" fill="#13484E"/>
<path id="Vector_86" d="M83.6398 95.5282L82.0394 93.9278L83.6398 92.3274C83.7922 92.175 83.7922 92.0226 83.6398 91.8702C83.4874 91.7178 83.3349 91.7178 83.1825 91.8702L81.5821 93.4706L79.9817 91.8702C79.8293 91.7178 79.6769 91.7178 79.5245 91.8702C79.3721 92.0226 79.3721 92.175 79.5245 92.3274L81.1249 93.9278L79.5245 95.5282C79.3721 95.6806 79.3721 95.8331 79.5245 95.9855C79.6769 96.1379 79.8293 96.1379 79.9817 95.9855L81.5821 94.3851L83.1825 95.9855C83.3349 96.1379 83.4874 96.1379 83.6398 95.9855C83.7922 95.8331 83.7922 95.6806 83.6398 95.5282Z" fill="#13484E"/>
<path id="Vector_87" d="M96.9005 45.9921L95.3001 44.3917L96.9005 42.7913C97.0529 42.6389 97.0529 42.4865 96.9005 42.334C96.7481 42.1816 96.5957 42.1816 96.4433 42.334L94.8429 43.9344L93.2425 42.334C93.0901 42.1816 92.9376 42.1816 92.7852 42.334C92.6328 42.4865 92.6328 42.6389 92.7852 42.7913L94.3856 44.3917L92.7852 45.9921C92.6328 46.1445 92.6328 46.2969 92.7852 46.4493C92.9376 46.6018 93.0901 46.6018 93.2425 46.4493L94.8429 44.8489L96.4433 46.4493C96.5957 46.6018 96.7481 46.6018 96.9005 46.4493C97.0529 46.2969 97.0529 46.1445 96.9005 45.9921Z" fill="#13484E"/>
<path id="Vector_88" d="M96.9005 55.8993L95.3001 54.2989L96.9005 52.6985C97.0529 52.5461 97.0529 52.3937 96.9005 52.2413C96.7481 52.0888 96.5957 52.0888 96.4433 52.2413L94.8429 53.8416L93.2425 52.2413C93.0901 52.0888 92.9376 52.0888 92.7852 52.2413C92.6328 52.3937 92.6328 52.5461 92.7852 52.6985L94.3856 54.2989L92.7852 55.8993C92.6328 56.0517 92.6328 56.2041 92.7852 56.3566C92.9376 56.509 93.0901 56.509 93.2425 56.3566L94.8429 54.7562L96.4433 56.3566C96.5957 56.509 96.7481 56.509 96.9005 56.3566C97.0529 56.2041 97.0529 56.0517 96.9005 55.8993Z" fill="#13484E"/>
<path id="Vector_89" d="M96.9005 65.8065L95.3001 64.2061L96.9005 62.6057C97.0529 62.4533 97.0529 62.3009 96.9005 62.1485C96.7481 61.9961 96.5957 61.9961 96.4433 62.1485L94.8429 63.7489L93.2425 62.1485C93.0901 61.9961 92.9376 61.9961 92.7852 62.1485C92.6328 62.3009 92.6328 62.4533 92.7852 62.6057L94.3856 64.2061L92.7852 65.8065C92.6328 65.959 92.6328 66.1114 92.7852 66.2638C92.9376 66.4162 93.0901 66.4162 93.2425 66.2638L94.8429 64.6634L96.4433 66.2638C96.5957 66.4162 96.7481 66.4162 96.9005 66.2638C97.0529 66.1114 97.0529 65.959 96.9005 65.8065Z" fill="#13484E"/>
<path id="Vector_90" d="M96.9005 75.7138L95.3001 74.1134L96.9005 72.513C97.0529 72.3605 97.0529 72.2081 96.9005 72.0557C96.7481 71.9033 96.5957 71.9033 96.4433 72.0557L94.8429 73.6561L93.2425 72.0557C93.0901 71.9033 92.9376 71.9033 92.7852 72.0557C92.6328 72.2081 92.6328 72.3605 92.7852 72.513L94.3856 74.1134L92.7852 75.7138C92.6328 75.8662 92.6328 76.0186 92.7852 76.171C92.9376 76.3234 93.0901 76.3234 93.2425 76.171L94.8429 74.5706L96.4433 76.171C96.5957 76.3234 96.7481 76.3234 96.9005 76.171C97.0529 76.0186 97.0529 75.8662 96.9005 75.7138Z" fill="#13484E"/>
<path id="Vector_91" d="M96.9005 85.621L95.3001 84.0206L96.9005 82.4202C97.0529 82.2678 97.0529 82.1154 96.9005 81.9629C96.7481 81.8105 96.5957 81.8105 96.4433 81.9629L94.8429 83.5633L93.2425 81.9629C93.0901 81.8105 92.9376 81.8105 92.7852 81.9629C92.6328 82.1154 92.6328 82.2678 92.7852 82.4202L94.3856 84.0206L92.7852 85.621C92.6328 85.7734 92.6328 85.9258 92.7852 86.0782C92.9376 86.2307 93.0901 86.2307 93.2425 86.0782L94.8429 84.4778L96.4433 86.0782C96.5957 86.2307 96.7481 86.2307 96.9005 86.0782C97.0529 85.9258 97.0529 85.7734 96.9005 85.621Z" fill="#13484E"/>
<path id="Vector_92" d="M96.9005 95.5282L95.3001 93.9278L96.9005 92.3274C97.0529 92.175 97.0529 92.0226 96.9005 91.8702C96.7481 91.7178 96.5957 91.7178 96.4433 91.8702L94.8429 93.4706L93.2425 91.8702C93.0901 91.7178 92.9376 91.7178 92.7852 91.8702C92.6328 92.0226 92.6328 92.175 92.7852 92.3274L94.3856 93.9278L92.7852 95.5282C92.6328 95.6806 92.6328 95.8331 92.7852 95.9855C92.9376 96.1379 93.0901 96.1379 93.2425 95.9855L94.8429 94.3851L96.4433 95.9855C96.5957 96.1379 96.7481 96.1379 96.9005 95.9855C97.0529 95.8331 97.0529 95.6806 96.9005 95.5282Z" fill="#13484E"/>
<path id="Vector_93" d="M110.084 45.9921L108.484 44.3917L110.084 42.7913C110.237 42.6389 110.237 42.4865 110.084 42.334C109.932 42.1816 109.779 42.1816 109.627 42.334L108.026 43.9344L106.426 42.334C106.274 42.1816 106.121 42.1816 105.969 42.334C105.816 42.4865 105.816 42.6389 105.969 42.7913L107.569 44.3917L105.969 45.9921C105.816 46.1445 105.816 46.2969 105.969 46.4493C106.121 46.6018 106.274 46.6018 106.426 46.4493L108.026 44.8489L109.627 46.4493C109.779 46.6018 109.932 46.6018 110.084 46.4493C110.237 46.2969 110.237 46.1445 110.084 45.9921Z" fill="#13484E"/>
<path id="Vector_94" d="M110.084 55.8993L108.484 54.2989L110.084 52.6985C110.237 52.5461 110.237 52.3937 110.084 52.2413C109.932 52.0888 109.779 52.0888 109.627 52.2413L108.026 53.8416L106.426 52.2413C106.274 52.0888 106.121 52.0888 105.969 52.2413C105.816 52.3937 105.816 52.5461 105.969 52.6985L107.569 54.2989L105.969 55.8993C105.816 56.0517 105.816 56.2041 105.969 56.3566C106.121 56.509 106.274 56.509 106.426 56.3566L108.026 54.7562L109.627 56.3566C109.779 56.509 109.932 56.509 110.084 56.3566C110.237 56.2041 110.237 56.0517 110.084 55.8993Z" fill="#13484E"/>
<path id="Vector_95" d="M110.084 65.8065L108.484 64.2061L110.084 62.6057C110.237 62.4533 110.237 62.3009 110.084 62.1485C109.932 61.9961 109.779 61.9961 109.627 62.1485L108.026 63.7489L106.426 62.1485C106.274 61.9961 106.121 61.9961 105.969 62.1485C105.816 62.3009 105.816 62.4533 105.969 62.6057L107.569 64.2061L105.969 65.8065C105.816 65.959 105.816 66.1114 105.969 66.2638C106.121 66.4162 106.274 66.4162 106.426 66.2638L108.026 64.6634L109.627 66.2638C109.779 66.4162 109.932 66.4162 110.084 66.2638C110.237 66.1114 110.237 65.959 110.084 65.8065Z" fill="#13484E"/>
<path id="Vector_96" d="M110.084 75.7138L108.484 74.1134L110.084 72.513C110.237 72.3605 110.237 72.2081 110.084 72.0557C109.932 71.9033 109.779 71.9033 109.627 72.0557L108.026 73.6561L106.426 72.0557C106.274 71.9033 106.121 71.9033 105.969 72.0557C105.816 72.2081 105.816 72.3605 105.969 72.513L107.569 74.1134L105.969 75.7138C105.816 75.8662 105.816 76.0186 105.969 76.171C106.121 76.3234 106.274 76.3234 106.426 76.171L108.026 74.5706L109.627 76.171C109.779 76.3234 109.932 76.3234 110.084 76.171C110.237 76.0186 110.237 75.8662 110.084 75.7138Z" fill="#13484E"/>
<path id="Vector_97" d="M110.084 85.621L108.484 84.0206L110.084 82.4202C110.237 82.2678 110.237 82.1154 110.084 81.9629C109.932 81.8105 109.779 81.8105 109.627 81.9629L108.026 83.5633L106.426 81.9629C106.274 81.8105 106.121 81.8105 105.969 81.9629C105.816 82.1154 105.816 82.2678 105.969 82.4202L107.569 84.0206L105.969 85.621C105.816 85.7734 105.816 85.9258 105.969 86.0782C106.121 86.2307 106.274 86.2307 106.426 86.0782L108.026 84.4778L109.627 86.0782C109.779 86.2307 109.932 86.2307 110.084 86.0782C110.237 85.9258 110.237 85.7734 110.084 85.621Z" fill="#13484E"/>
<path id="Vector_98" d="M110.084 95.5282L108.484 93.9278L110.084 92.3274C110.237 92.175 110.237 92.0226 110.084 91.8702C109.932 91.7178 109.779 91.7178 109.627 91.8702L108.026 93.4706L106.426 91.8702C106.274 91.7178 106.121 91.7178 105.969 91.8702C105.816 92.0226 105.816 92.175 105.969 92.3274L107.569 93.9278L105.969 95.5282C105.816 95.6806 105.816 95.8331 105.969 95.9855C106.121 96.1379 106.274 96.1379 106.426 95.9855L108.026 94.3851L109.627 95.9855C109.779 96.1379 109.932 96.1379 110.084 95.9855C110.237 95.8331 110.237 95.6806 110.084 95.5282Z" fill="#13484E"/>
<path id="Vector_99" d="M123.345 45.9921L121.744 44.3917L123.345 42.7913C123.497 42.6389 123.497 42.4865 123.345 42.334C123.192 42.1816 123.04 42.1816 122.888 42.334L121.287 43.9344L119.687 42.334C119.534 42.1816 119.382 42.1816 119.23 42.334C119.077 42.4865 119.077 42.6389 119.23 42.7913L120.83 44.3917L119.23 45.9921C119.077 46.1445 119.077 46.2969 119.23 46.4493C119.382 46.6018 119.534 46.6018 119.687 46.4493L121.287 44.8489L122.888 46.4493C123.04 46.6018 123.192 46.6018 123.345 46.4493C123.497 46.2969 123.497 46.1445 123.345 45.9921Z" fill="#13484E"/>
<path id="Vector_100" d="M123.345 55.8993L121.744 54.2989L123.345 52.6985C123.497 52.5461 123.497 52.3937 123.345 52.2413C123.192 52.0888 123.04 52.0888 122.888 52.2413L121.287 53.8416L119.687 52.2413C119.534 52.0888 119.382 52.0888 119.23 52.2413C119.077 52.3937 119.077 52.5461 119.23 52.6985L120.83 54.2989L119.23 55.8993C119.077 56.0517 119.077 56.2041 119.23 56.3566C119.382 56.509 119.534 56.509 119.687 56.3566L121.287 54.7562L122.888 56.3566C123.04 56.509 123.192 56.509 123.345 56.3566C123.497 56.2041 123.497 56.0517 123.345 55.8993Z" fill="#13484E"/>
<path id="Vector_101" d="M123.345 65.8065L121.744 64.2061L123.345 62.6057C123.497 62.4533 123.497 62.3009 123.345 62.1485C123.192 61.9961 123.04 61.9961 122.888 62.1485L121.287 63.7489L119.687 62.1485C119.534 61.9961 119.382 61.9961 119.23 62.1485C119.077 62.3009 119.077 62.4533 119.23 62.6057L120.83 64.2061L119.23 65.8065C119.077 65.959 119.077 66.1114 119.23 66.2638C119.382 66.4162 119.534 66.4162 119.687 66.2638L121.287 64.6634L122.888 66.2638C123.04 66.4162 123.192 66.4162 123.345 66.2638C123.497 66.1114 123.497 65.959 123.345 65.8065Z" fill="#13484E"/>
<path id="Vector_102" d="M123.345 75.7138L121.744 74.1134L123.345 72.513C123.497 72.3605 123.497 72.2081 123.345 72.0557C123.192 71.9033 123.04 71.9033 122.888 72.0557L121.287 73.6561L119.687 72.0557C119.534 71.9033 119.382 71.9033 119.23 72.0557C119.077 72.2081 119.077 72.3605 119.23 72.513L120.83 74.1134L119.23 75.7138C119.077 75.8662 119.077 76.0186 119.23 76.171C119.382 76.3234 119.534 76.3234 119.687 76.171L121.287 74.5706L122.888 76.171C123.04 76.3234 123.192 76.3234 123.345 76.171C123.497 76.0186 123.497 75.8662 123.345 75.7138Z" fill="#13484E"/>
<path id="Vector_103" d="M123.345 85.621L121.744 84.0206L123.345 82.4202C123.497 82.2678 123.497 82.1154 123.345 81.9629C123.192 81.8105 123.04 81.8105 122.888 81.9629L121.287 83.5633L119.687 81.9629C119.534 81.8105 119.382 81.8105 119.23 81.9629C119.077 82.1154 119.077 82.2678 119.23 82.4202L120.83 84.0206L119.23 85.621C119.077 85.7734 119.077 85.9258 119.23 86.0782C119.382 86.2307 119.534 86.2307 119.687 86.0782L121.287 84.4778L122.888 86.0782C123.04 86.2307 123.192 86.2307 123.345 86.0782C123.497 85.9258 123.497 85.7734 123.345 85.621Z" fill="#13484E"/>
<path id="Vector_104" d="M123.345 95.5282L121.744 93.9278L123.345 92.3274C123.497 92.175 123.497 92.0226 123.345 91.8702C123.192 91.7178 123.04 91.7178 122.888 91.8702L121.287 93.4706L119.687 91.8702C119.534 91.7178 119.382 91.7178 119.23 91.8702C119.077 92.0226 119.077 92.175 119.23 92.3274L120.83 93.9278L119.23 95.5282C119.077 95.6806 119.077 95.8331 119.23 95.9855C119.382 96.1379 119.534 96.1379 119.687 95.9855L121.287 94.3851L122.888 95.9855C123.04 96.1379 123.192 96.1379 123.345 95.9855C123.497 95.8331 123.497 95.6806 123.345 95.5282Z" fill="#13484E"/>
<path id="Vector_105" d="M136.606 45.9931L135.005 44.3927L136.606 42.7923C136.758 42.6398 136.758 42.4874 136.606 42.335C136.453 42.1826 136.301 42.1826 136.148 42.335L134.548 43.9354L132.948 42.335C132.795 42.1826 132.643 42.1826 132.49 42.335C132.338 42.4874 132.338 42.6398 132.49 42.7923L134.091 44.3927L132.49 45.9931C132.338 46.1455 132.338 46.2979 132.49 46.4503C132.643 46.6027 132.795 46.6027 132.948 46.4503L134.548 44.8499L136.148 46.4503C136.301 46.6027 136.453 46.6027 136.606 46.4503C136.758 46.2979 136.758 46.1455 136.606 45.9931Z" fill="#13484E"/>
<path id="Vector_106" d="M136.606 55.8993L135.005 54.2989L136.606 52.6985C136.758 52.5461 136.758 52.3937 136.606 52.2413C136.453 52.0888 136.301 52.0888 136.148 52.2413L134.548 53.8416L132.948 52.2413C132.795 52.0888 132.643 52.0888 132.49 52.2413C132.338 52.3937 132.338 52.5461 132.49 52.6985L134.091 54.2989L132.49 55.8993C132.338 56.0517 132.338 56.2041 132.49 56.3566C132.643 56.509 132.795 56.509 132.948 56.3566L134.548 54.7562L136.148 56.3566C136.301 56.509 136.453 56.509 136.606 56.3566C136.758 56.2041 136.758 56.0517 136.606 55.8993Z" fill="#13484E"/>
<path id="Vector_107" d="M136.606 65.8075L135.005 64.2071L136.606 62.6067C136.758 62.4543 136.758 62.3019 136.606 62.1495C136.453 61.9971 136.301 61.9971 136.148 62.1495L134.548 63.7498L132.948 62.1495C132.795 61.9971 132.643 61.9971 132.49 62.1495C132.338 62.3019 132.338 62.4543 132.49 62.6067L134.091 64.2071L132.49 65.8075C132.338 65.9599 132.338 66.1124 132.49 66.2648C132.643 66.4172 132.795 66.4172 132.948 66.2648L134.548 64.6644L136.148 66.2648C136.301 66.4172 136.453 66.4172 136.606 66.2648C136.758 66.1124 136.758 65.9599 136.606 65.8075Z" fill="#13484E"/>
<path id="Vector_108" d="M136.606 75.7138L135.005 74.1134L136.606 72.513C136.758 72.3605 136.758 72.2081 136.606 72.0557C136.453 71.9033 136.301 71.9033 136.148 72.0557L134.548 73.6561L132.948 72.0557C132.795 71.9033 132.643 71.9033 132.49 72.0557C132.338 72.2081 132.338 72.3605 132.49 72.513L134.091 74.1134L132.49 75.7138C132.338 75.8662 132.338 76.0186 132.49 76.171C132.643 76.3234 132.795 76.3234 132.948 76.171L134.548 74.5706L136.148 76.171C136.301 76.3234 136.453 76.3234 136.606 76.171C136.758 76.0186 136.758 75.8662 136.606 75.7138Z" fill="#13484E"/>
<path id="Vector_109" d="M136.606 85.621L135.005 84.0206L136.606 82.4202C136.758 82.2678 136.758 82.1154 136.606 81.9629C136.453 81.8105 136.301 81.8105 136.148 81.9629L134.548 83.5633L132.948 81.9629C132.795 81.8105 132.643 81.8105 132.49 81.9629C132.338 82.1154 132.338 82.2678 132.49 82.4202L134.091 84.0206L132.49 85.621C132.338 85.7734 132.338 85.9258 132.49 86.0782C132.643 86.2307 132.795 86.2307 132.948 86.0782L134.548 84.4778L136.148 86.0782C136.301 86.2307 136.453 86.2307 136.606 86.0782C136.758 85.9258 136.758 85.7734 136.606 85.621Z" fill="#13484E"/>
<path id="Vector_110" d="M136.606 95.5282L135.005 93.9278L136.606 92.3274C136.758 92.175 136.758 92.0226 136.606 91.8702C136.453 91.7178 136.301 91.7178 136.148 91.8702L134.548 93.4706L132.948 91.8702C132.795 91.7178 132.643 91.7178 132.49 91.8702C132.338 92.0226 132.338 92.175 132.49 92.3274L134.091 93.9278L132.49 95.5282C132.338 95.6806 132.338 95.8331 132.49 95.9855C132.643 96.1379 132.795 96.1379 132.948 95.9855L134.548 94.3851L136.148 95.9855C136.301 96.1379 136.453 96.1379 136.606 95.9855C136.758 95.8331 136.758 95.6806 136.606 95.5282Z" fill="#13484E"/>
</g>
</svg>
