<svg width="180" height="127" viewBox="0 0 180 127" fill="none" xmlns="http://www.w3.org/2000/svg">
<path d="M5.54999 4.95L3.45 2.85L5.54999 0.749991C5.74999 0.549991 5.74999 0.35 5.54999 0.15C5.34999 -0.05 5.15 -0.05 4.95 0.15L2.85 2.24999L0.750006 0.15C0.550006 -0.05 0.35 -0.05 0.15 0.15C-0.05 0.35 -0.05 0.549991 0.15 0.749991L2.25001 2.85L0.15 4.95C-0.05 5.15 -0.05 5.34999 0.15 5.54999C0.35 5.74999 0.550006 5.74999 0.750006 5.54999L2.85 3.45L4.95 5.54999C5.15 5.74999 5.34999 5.74999 5.54999 5.54999C5.74999 5.44999 5.74999 5.15 5.54999 4.95Z" fill="#13484E"/>
<path d="M22.95 4.95L20.85 2.85L22.95 0.749991C23.15 0.549991 23.15 0.35 22.95 0.15C22.75 -0.05 22.55 -0.05 22.35 0.15L20.25 2.24999L18.15 0.15C17.95 -0.05 17.75 -0.05 17.55 0.15C17.35 0.35 17.35 0.549991 17.55 0.749991L19.65 2.85L17.55 4.95C17.35 5.15 17.35 5.34999 17.55 5.54999C17.75 5.74999 17.95 5.74999 18.15 5.54999L20.25 3.45L22.35 5.54999C22.55 5.74999 22.75 5.74999 22.95 5.54999C23.15 5.44999 23.15 5.15 22.95 4.95Z" fill="#13484E"/>
<path d="M40.25 4.95L38.15 2.85L40.25 0.749991C40.45 0.549991 40.45 0.35 40.25 0.15C40.05 -0.05 39.85 -0.05 39.65 0.15L37.55 2.24999L35.45 0.15C35.25 -0.05 35.05 -0.05 34.85 0.15C34.65 0.35 34.65 0.549991 34.85 0.749991L36.95 2.85L34.85 4.95C34.65 5.15 34.65 5.34999 34.85 5.54999C35.05 5.74999 35.25 5.74999 35.45 5.54999L37.55 3.45L39.65 5.54999C39.85 5.74999 40.05 5.74999 40.25 5.54999C40.45 5.44999 40.45 5.15 40.25 4.95Z" fill="#13484E"/>
<path d="M57.65 4.95L55.55 2.85L57.65 0.749991C57.85 0.549991 57.85 0.35 57.65 0.15C57.45 -0.05 57.25 -0.05 57.05 0.15L54.95 2.24999L52.85 0.15C52.65 -0.05 52.45 -0.05 52.25 0.15C52.05 0.35 52.05 0.549991 52.25 0.749991L54.35 2.85L52.25 4.95C52.05 5.15 52.05 5.34999 52.25 5.54999C52.45 5.74999 52.65 5.74999 52.85 5.54999L54.95 3.45L57.05 5.54999C57.25 5.74999 57.45 5.74999 57.65 5.54999C57.85 5.44999 57.85 5.15 57.65 4.95Z" fill="#13484E"/>
<path d="M75.05 4.95L72.95 2.85L75.05 0.749991C75.25 0.549991 75.25 0.35 75.05 0.15C74.85 -0.05 74.65 -0.05 74.45 0.15L72.35 2.24999L70.25 0.15C70.05 -0.05 69.85 -0.05 69.65 0.15C69.45 0.35 69.45 0.549991 69.65 0.749991L71.75 2.85L69.65 4.95C69.45 5.15 69.45 5.34999 69.65 5.54999C69.85 5.74999 70.05 5.74999 70.25 5.54999L72.35 3.45L74.45 5.54999C74.65 5.74999 74.85 5.74999 75.05 5.54999C75.25 5.44999 75.25 5.15 75.05 4.95Z" fill="#13484E"/>
<path d="M92.35 4.95L90.25 2.85L92.35 0.749991C92.55 0.549991 92.55 0.35 92.35 0.15C92.15 -0.05 91.95 -0.05 91.75 0.15L89.65 2.24999L87.55 0.15C87.35 -0.05 87.15 -0.05 86.95 0.15C86.75 0.35 86.75 0.549991 86.95 0.749991L89.05 2.85L86.95 4.95C86.75 5.15 86.75 5.34999 86.95 5.54999C87.15 5.74999 87.35 5.74999 87.55 5.54999L89.65 3.45L91.75 5.54999C91.95 5.74999 92.15 5.74999 92.35 5.54999C92.55 5.44999 92.55 5.15 92.35 4.95Z" fill="#13484E"/>
<path d="M109.75 4.95L107.65 2.85L109.75 0.749991C109.95 0.549991 109.95 0.35 109.75 0.15C109.55 -0.05 109.35 -0.05 109.15 0.15L107.05 2.24999L104.95 0.15C104.75 -0.05 104.55 -0.05 104.35 0.15C104.15 0.35 104.15 0.549991 104.35 0.749991L106.45 2.85L104.35 4.95C104.15 5.15 104.15 5.34999 104.35 5.54999C104.55 5.74999 104.75 5.74999 104.95 5.54999L107.05 3.45L109.15 5.54999C109.35 5.74999 109.55 5.74999 109.75 5.54999C109.95 5.44999 109.95 5.15 109.75 4.95Z" fill="#13484E"/>
<path d="M127.15 4.95L125.05 2.85L127.15 0.749991C127.35 0.549991 127.35 0.35 127.15 0.15C126.95 -0.05 126.75 -0.05 126.55 0.15L124.45 2.24999L122.35 0.15C122.15 -0.05 121.95 -0.05 121.75 0.15C121.55 0.35 121.55 0.549991 121.75 0.749991L123.85 2.85L121.75 4.95C121.55 5.15 121.55 5.34999 121.75 5.54999C121.95 5.74999 122.15 5.74999 122.35 5.54999L124.45 3.45L126.55 5.54999C126.75 5.74999 126.95 5.74999 127.15 5.54999C127.35 5.44999 127.35 5.15 127.15 4.95Z" fill="#13484E"/>
<path d="M144.45 4.95L142.35 2.85L144.45 0.749991C144.65 0.549991 144.65 0.35 144.45 0.15C144.25 -0.05 144.05 -0.05 143.85 0.15L141.75 2.24999L139.65 0.15C139.45 -0.05 139.25 -0.05 139.05 0.15C138.85 0.35 138.85 0.549991 139.05 0.749991L141.15 2.85L139.05 4.95C138.85 5.15 138.85 5.34999 139.05 5.54999C139.25 5.74999 139.45 5.74999 139.65 5.54999L141.75 3.45L143.85 5.54999C144.05 5.74999 144.25 5.74999 144.45 5.54999C144.65 5.44999 144.65 5.15 144.45 4.95Z" fill="#13484E"/>
<path d="M161.85 4.95L159.75 2.85L161.85 0.749991C162.05 0.549991 162.05 0.35 161.85 0.15C161.65 -0.05 161.45 -0.05 161.25 0.15L159.15 2.24999L157.05 0.15C156.85 -0.05 156.65 -0.05 156.45 0.15C156.25 0.35 156.25 0.549991 156.45 0.749991L158.55 2.85L156.45 4.95C156.25 5.15 156.25 5.34999 156.45 5.54999C156.65 5.74999 156.85 5.74999 157.05 5.54999L159.15 3.45L161.25 5.54999C161.45 5.74999 161.65 5.74999 161.85 5.54999C162.05 5.44999 162.05 5.15 161.85 4.95Z" fill="#13484E"/>
<path d="M179.25 4.95L177.15 2.85L179.25 0.749991C179.45 0.549991 179.45 0.35 179.25 0.15C179.05 -0.05 178.85 -0.05 178.65 0.15L176.55 2.24999L174.45 0.15C174.25 -0.05 174.05 -0.05 173.85 0.15C173.65 0.35 173.65 0.549991 173.85 0.749991L175.95 2.85L173.85 4.95C173.65 5.15 173.65 5.34999 173.85 5.54999C174.05 5.74999 174.25 5.74999 174.45 5.54999L176.55 3.45L178.65 5.54999C178.85 5.74999 179.05 5.74999 179.25 5.54999C179.45 5.34999 179.45 5.15 179.25 4.95Z" fill="#13484E"/>
<path d="M5.54999 18.85L3.45 16.75L5.54999 14.65C5.74999 14.45 5.74999 14.25 5.54999 14.05C5.34999 13.85 5.15 13.85 4.95 14.05L2.85 16.15L0.750006 14.05C0.550006 13.85 0.35 13.85 0.15 14.05C-0.05 14.25 -0.05 14.45 0.15 14.65L2.25001 16.75L0.15 18.85C-0.05 19.05 -0.05 19.25 0.15 19.45C0.35 19.65 0.550006 19.65 0.750006 19.45L2.85 17.35L4.95 19.45C5.15 19.65 5.34999 19.65 5.54999 19.45C5.74999 19.25 5.74999 18.95 5.54999 18.85Z" fill="#13484E"/>
<path d="M22.95 18.85L20.85 16.75L22.95 14.65C23.15 14.45 23.15 14.25 22.95 14.05C22.75 13.85 22.55 13.85 22.35 14.05L20.25 16.15L18.15 14.05C17.95 13.85 17.75 13.85 17.55 14.05C17.35 14.25 17.35 14.45 17.55 14.65L19.65 16.75L17.55 18.85C17.35 19.05 17.35 19.25 17.55 19.45C17.75 19.65 17.95 19.65 18.15 19.45L20.25 17.35L22.35 19.45C22.55 19.65 22.75 19.65 22.95 19.45C23.15 19.25 23.15 18.95 22.95 18.85Z" fill="#13484E"/>
<path d="M40.25 18.85L38.15 16.75L40.25 14.65C40.45 14.45 40.45 14.25 40.25 14.05C40.05 13.85 39.85 13.85 39.65 14.05L37.55 16.15L35.45 14.05C35.25 13.85 35.05 13.85 34.85 14.05C34.65 14.25 34.65 14.45 34.85 14.65L36.95 16.75L34.85 18.85C34.65 19.05 34.65 19.25 34.85 19.45C35.05 19.65 35.25 19.65 35.45 19.45L37.55 17.35L39.65 19.45C39.85 19.65 40.05 19.65 40.25 19.45C40.45 19.25 40.45 18.95 40.25 18.85Z" fill="#13484E"/>
<path d="M57.65 18.85L55.55 16.75L57.65 14.65C57.85 14.45 57.85 14.25 57.65 14.05C57.45 13.85 57.25 13.85 57.05 14.05L54.95 16.15L52.85 14.05C52.65 13.85 52.45 13.85 52.25 14.05C52.05 14.25 52.05 14.45 52.25 14.65L54.35 16.75L52.25 18.85C52.05 19.05 52.05 19.25 52.25 19.45C52.45 19.65 52.65 19.65 52.85 19.45L54.95 17.35L57.05 19.45C57.25 19.65 57.45 19.65 57.65 19.45C57.85 19.25 57.85 18.95 57.65 18.85Z" fill="#13484E"/>
<path d="M75.05 18.85L72.95 16.75L75.05 14.65C75.25 14.45 75.25 14.25 75.05 14.05C74.85 13.85 74.65 13.85 74.45 14.05L72.35 16.15L70.25 14.05C70.05 13.85 69.85 13.85 69.65 14.05C69.45 14.25 69.45 14.45 69.65 14.65L71.75 16.75L69.65 18.85C69.45 19.05 69.45 19.25 69.65 19.45C69.85 19.65 70.05 19.65 70.25 19.45L72.35 17.35L74.45 19.45C74.65 19.65 74.85 19.65 75.05 19.45C75.25 19.25 75.25 18.95 75.05 18.85Z" fill="#13484E"/>
<path d="M92.35 18.85L90.25 16.75L92.35 14.65C92.55 14.45 92.55 14.25 92.35 14.05C92.15 13.85 91.95 13.85 91.75 14.05L89.65 16.15L87.55 14.05C87.35 13.85 87.15 13.85 86.95 14.05C86.75 14.25 86.75 14.45 86.95 14.65L89.05 16.75L86.95 18.85C86.75 19.05 86.75 19.25 86.95 19.45C87.15 19.65 87.35 19.65 87.55 19.45L89.65 17.35L91.75 19.45C91.95 19.65 92.15 19.65 92.35 19.45C92.55 19.25 92.55 18.95 92.35 18.85Z" fill="#13484E"/>
<path d="M109.75 18.85L107.65 16.75L109.75 14.65C109.95 14.45 109.95 14.25 109.75 14.05C109.55 13.85 109.35 13.85 109.15 14.05L107.05 16.15L104.95 14.05C104.75 13.85 104.55 13.85 104.35 14.05C104.15 14.25 104.15 14.45 104.35 14.65L106.45 16.75L104.35 18.85C104.15 19.05 104.15 19.25 104.35 19.45C104.55 19.65 104.75 19.65 104.95 19.45L107.05 17.35L109.15 19.45C109.35 19.65 109.55 19.65 109.75 19.45C109.95 19.25 109.95 18.95 109.75 18.85Z" fill="#13484E"/>
<path d="M127.15 18.85L125.05 16.75L127.15 14.65C127.35 14.45 127.35 14.25 127.15 14.05C126.95 13.85 126.75 13.85 126.55 14.05L124.45 16.15L122.35 14.05C122.15 13.85 121.95 13.85 121.75 14.05C121.55 14.25 121.55 14.45 121.75 14.65L123.85 16.75L121.75 18.85C121.55 19.05 121.55 19.25 121.75 19.45C121.95 19.65 122.15 19.65 122.35 19.45L124.45 17.35L126.55 19.45C126.75 19.65 126.95 19.65 127.15 19.45C127.35 19.25 127.35 18.95 127.15 18.85Z" fill="#13484E"/>
<path d="M144.45 18.85L142.35 16.75L144.45 14.65C144.65 14.45 144.65 14.25 144.45 14.05C144.25 13.85 144.05 13.85 143.85 14.05L141.75 16.15L139.65 14.05C139.45 13.85 139.25 13.85 139.05 14.05C138.85 14.25 138.85 14.45 139.05 14.65L141.15 16.75L139.05 18.85C138.85 19.05 138.85 19.25 139.05 19.45C139.25 19.65 139.45 19.65 139.65 19.45L141.75 17.35L143.85 19.45C144.05 19.65 144.25 19.65 144.45 19.45C144.65 19.25 144.65 18.95 144.45 18.85Z" fill="#13484E"/>
<path d="M161.85 18.85L159.75 16.75L161.85 14.65C162.05 14.45 162.05 14.25 161.85 14.05C161.65 13.85 161.45 13.85 161.25 14.05L159.15 16.15L157.05 14.05C156.85 13.85 156.65 13.85 156.45 14.05C156.25 14.25 156.25 14.45 156.45 14.65L158.55 16.75L156.45 18.85C156.25 19.05 156.25 19.25 156.45 19.45C156.65 19.65 156.85 19.65 157.05 19.45L159.15 17.35L161.25 19.45C161.45 19.65 161.65 19.65 161.85 19.45C162.05 19.25 162.05 18.95 161.85 18.85Z" fill="#13484E"/>
<path d="M179.25 18.85L177.15 16.75L179.25 14.65C179.45 14.45 179.45 14.25 179.25 14.05C179.05 13.85 178.85 13.85 178.65 14.05L176.55 16.15L174.45 14.05C174.25 13.85 174.05 13.85 173.85 14.05C173.65 14.25 173.65 14.45 173.85 14.65L175.95 16.75L173.85 18.85C173.65 19.05 173.65 19.25 173.85 19.45C174.05 19.65 174.25 19.65 174.45 19.45L176.55 17.35L178.65 19.45C178.85 19.65 179.05 19.65 179.25 19.45C179.45 19.25 179.45 18.95 179.25 18.85Z" fill="#13484E"/>
<path d="M5.54999 32.6499L3.45 30.55L5.54999 28.45C5.74999 28.25 5.74999 28.05 5.54999 27.85C5.34999 27.65 5.15 27.65 4.95 27.85L2.85 29.95L0.750006 27.85C0.550006 27.65 0.35 27.65 0.15 27.85C-0.05 28.05 -0.05 28.25 0.15 28.45L2.25001 30.55L0.15 32.6499C-0.05 32.8499 -0.05 33.0499 0.15 33.2499C0.35 33.4499 0.550006 33.4499 0.750006 33.2499L2.85 31.1499L4.95 33.2499C5.15 33.4499 5.34999 33.4499 5.54999 33.2499C5.74999 33.1499 5.74999 32.8499 5.54999 32.6499Z" fill="#13484E"/>
<path d="M22.95 32.6499L20.85 30.55L22.95 28.45C23.15 28.25 23.15 28.05 22.95 27.85C22.75 27.65 22.55 27.65 22.35 27.85L20.25 29.95L18.15 27.85C17.95 27.65 17.75 27.65 17.55 27.85C17.35 28.05 17.35 28.25 17.55 28.45L19.65 30.55L17.55 32.6499C17.35 32.8499 17.35 33.0499 17.55 33.2499C17.75 33.4499 17.95 33.4499 18.15 33.2499L20.25 31.1499L22.35 33.2499C22.55 33.4499 22.75 33.4499 22.95 33.2499C23.15 33.1499 23.15 32.8499 22.95 32.6499Z" fill="#13484E"/>
<path d="M40.25 32.6499L38.15 30.55L40.25 28.45C40.45 28.25 40.45 28.05 40.25 27.85C40.05 27.65 39.85 27.65 39.65 27.85L37.55 29.95L35.45 27.85C35.25 27.65 35.05 27.65 34.85 27.85C34.65 28.05 34.65 28.25 34.85 28.45L36.95 30.55L34.85 32.6499C34.65 32.8499 34.65 33.0499 34.85 33.2499C35.05 33.4499 35.25 33.4499 35.45 33.2499L37.55 31.1499L39.65 33.2499C39.85 33.4499 40.05 33.4499 40.25 33.2499C40.45 33.1499 40.45 32.8499 40.25 32.6499Z" fill="#13484E"/>
<path d="M57.65 32.6499L55.55 30.55L57.65 28.45C57.85 28.25 57.85 28.05 57.65 27.85C57.45 27.65 57.25 27.65 57.05 27.85L54.95 29.95L52.85 27.85C52.65 27.65 52.45 27.65 52.25 27.85C52.05 28.05 52.05 28.25 52.25 28.45L54.35 30.55L52.25 32.6499C52.05 32.8499 52.05 33.0499 52.25 33.2499C52.45 33.4499 52.65 33.4499 52.85 33.2499L54.95 31.1499L57.05 33.2499C57.25 33.4499 57.45 33.4499 57.65 33.2499C57.85 33.1499 57.85 32.8499 57.65 32.6499Z" fill="#13484E"/>
<path d="M75.05 32.6499L72.95 30.55L75.05 28.45C75.25 28.25 75.25 28.05 75.05 27.85C74.85 27.65 74.65 27.65 74.45 27.85L72.35 29.95L70.15 27.85C69.95 27.65 69.75 27.65 69.55 27.85C69.35 28.05 69.35 28.25 69.55 28.45L71.65 30.55L69.55 32.6499C69.35 32.8499 69.35 33.0499 69.55 33.2499C69.75 33.4499 69.95 33.4499 70.15 33.2499L72.25 31.1499L74.35 33.2499C74.55 33.4499 74.75 33.4499 74.95 33.2499C75.25 33.1499 75.25 32.8499 75.05 32.6499Z" fill="#13484E"/>
<path d="M92.35 32.6499L90.25 30.55L92.35 28.45C92.55 28.25 92.55 28.05 92.35 27.85C92.15 27.65 91.95 27.65 91.75 27.85L89.65 29.95L87.55 27.85C87.35 27.65 87.15 27.65 86.95 27.85C86.75 28.05 86.75 28.25 86.95 28.45L89.05 30.55L86.95 32.6499C86.75 32.8499 86.75 33.0499 86.95 33.2499C87.15 33.4499 87.35 33.4499 87.55 33.2499L89.65 31.1499L91.75 33.2499C91.95 33.4499 92.15 33.4499 92.35 33.2499C92.55 33.1499 92.55 32.8499 92.35 32.6499Z" fill="#13484E"/>
<path d="M109.75 32.6499L107.65 30.55L109.75 28.45C109.95 28.25 109.95 28.05 109.75 27.85C109.55 27.65 109.35 27.65 109.15 27.85L107.05 29.95L104.95 27.85C104.75 27.65 104.55 27.65 104.35 27.85C104.15 28.05 104.15 28.25 104.35 28.45L106.45 30.55L104.35 32.6499C104.15 32.8499 104.15 33.0499 104.35 33.2499C104.55 33.4499 104.75 33.4499 104.95 33.2499L107.05 31.1499L109.15 33.2499C109.35 33.4499 109.55 33.4499 109.75 33.2499C109.95 33.1499 109.95 32.8499 109.75 32.6499Z" fill="#13484E"/>
<path d="M127.15 32.6499L125.05 30.55L127.15 28.45C127.35 28.25 127.35 28.05 127.15 27.85C126.95 27.65 126.75 27.65 126.55 27.85L124.45 29.95L122.35 27.85C122.15 27.65 121.95 27.65 121.75 27.85C121.55 28.05 121.55 28.25 121.75 28.45L123.85 30.55L121.75 32.6499C121.55 32.8499 121.55 33.0499 121.75 33.2499C121.95 33.4499 122.15 33.4499 122.35 33.2499L124.45 31.1499L126.55 33.2499C126.75 33.4499 126.95 33.4499 127.15 33.2499C127.35 33.1499 127.35 32.8499 127.15 32.6499Z" fill="#13484E"/>
<path d="M144.45 32.6499L142.35 30.55L144.45 28.45C144.65 28.25 144.65 28.05 144.45 27.85C144.25 27.65 144.05 27.65 143.85 27.85L141.75 29.95L139.65 27.85C139.45 27.65 139.25 27.65 139.05 27.85C138.85 28.05 138.85 28.25 139.05 28.45L141.15 30.55L139.05 32.6499C138.85 32.8499 138.85 33.0499 139.05 33.2499C139.25 33.4499 139.45 33.4499 139.65 33.2499L141.75 31.1499L143.85 33.2499C144.05 33.4499 144.25 33.4499 144.45 33.2499C144.65 33.1499 144.65 32.8499 144.45 32.6499Z" fill="#13484E"/>
<path d="M161.85 32.6499L159.75 30.55L161.85 28.45C162.05 28.25 162.05 28.05 161.85 27.85C161.65 27.65 161.45 27.65 161.25 27.85L159.15 29.95L157.05 27.85C156.85 27.65 156.65 27.65 156.45 27.85C156.25 28.05 156.25 28.25 156.45 28.45L158.55 30.55L156.45 32.6499C156.25 32.8499 156.25 33.0499 156.45 33.2499C156.65 33.4499 156.85 33.4499 157.05 33.2499L159.15 31.1499L161.25 33.2499C161.45 33.4499 161.65 33.4499 161.85 33.2499C162.05 33.1499 162.05 32.8499 161.85 32.6499Z" fill="#13484E"/>
<path d="M179.25 32.6499L177.15 30.55L179.25 28.45C179.45 28.25 179.45 28.05 179.25 27.85C179.05 27.65 178.85 27.65 178.65 27.85L176.55 29.95L174.45 27.85C174.25 27.65 174.05 27.65 173.85 27.85C173.65 28.05 173.65 28.25 173.85 28.45L175.95 30.55L173.85 32.6499C173.65 32.8499 173.65 33.0499 173.85 33.2499C174.05 33.4499 174.25 33.4499 174.45 33.2499L176.55 31.1499L178.65 33.2499C178.85 33.4499 179.05 33.4499 179.25 33.2499C179.45 33.0499 179.45 32.8499 179.25 32.6499Z" fill="#13484E"/>
<path d="M5.54999 46.55L3.45 44.45L5.54999 42.35C5.74999 42.15 5.74999 41.95 5.54999 41.75C5.34999 41.55 5.15 41.55 4.95 41.75L2.85 43.85L0.750006 41.75C0.550006 41.55 0.35 41.55 0.15 41.75C-0.05 41.95 -0.05 42.15 0.15 42.35L2.25001 44.45L0.15 46.55C-0.05 46.75 -0.05 46.95 0.15 47.15C0.35 47.35 0.550006 47.35 0.750006 47.15L2.85 45.05L4.95 47.15C5.15 47.35 5.34999 47.35 5.54999 47.15C5.74999 46.95 5.74999 46.65 5.54999 46.55Z" fill="#13484E"/>
<path d="M22.95 46.55L20.85 44.45L22.95 42.35C23.15 42.15 23.15 41.95 22.95 41.75C22.75 41.55 22.55 41.55 22.35 41.75L20.25 43.85L18.15 41.75C17.95 41.55 17.75 41.55 17.55 41.75C17.35 41.95 17.35 42.15 17.55 42.35L19.65 44.45L17.55 46.55C17.35 46.75 17.35 46.95 17.55 47.15C17.75 47.35 17.95 47.35 18.15 47.15L20.25 45.05L22.35 47.15C22.55 47.35 22.75 47.35 22.95 47.15C23.15 46.95 23.15 46.65 22.95 46.55Z" fill="#13484E"/>
<path d="M40.25 46.55L38.15 44.45L40.25 42.35C40.45 42.15 40.45 41.95 40.25 41.75C40.05 41.55 39.85 41.55 39.65 41.75L37.55 43.85L35.45 41.75C35.25 41.55 35.05 41.55 34.85 41.75C34.65 41.95 34.65 42.15 34.85 42.35L36.95 44.45L34.85 46.55C34.65 46.75 34.65 46.95 34.85 47.15C35.05 47.35 35.25 47.35 35.45 47.15L37.55 45.05L39.65 47.15C39.85 47.35 40.05 47.35 40.25 47.15C40.45 46.95 40.45 46.65 40.25 46.55Z" fill="#13484E"/>
<path d="M57.65 46.55L55.55 44.45L57.65 42.35C57.85 42.15 57.85 41.95 57.65 41.75C57.45 41.55 57.25 41.55 57.05 41.75L54.95 43.85L52.85 41.75C52.65 41.55 52.45 41.55 52.25 41.75C52.05 41.95 52.05 42.15 52.25 42.35L54.35 44.45L52.25 46.55C52.05 46.75 52.05 46.95 52.25 47.15C52.45 47.35 52.65 47.35 52.85 47.15L54.95 45.05L57.05 47.15C57.25 47.35 57.45 47.35 57.65 47.15C57.85 46.95 57.85 46.65 57.65 46.55Z" fill="#13484E"/>
<path d="M75.05 46.55L72.95 44.45L75.05 42.35C75.25 42.15 75.25 41.95 75.05 41.75C74.85 41.55 74.65 41.55 74.45 41.75L72.35 43.85L70.25 41.75C70.05 41.55 69.85 41.55 69.65 41.75C69.45 41.95 69.45 42.15 69.65 42.35L71.75 44.45L69.65 46.55C69.45 46.75 69.45 46.95 69.65 47.15C69.85 47.35 70.05 47.35 70.25 47.15L72.35 45.05L74.45 47.15C74.65 47.35 74.85 47.35 75.05 47.15C75.25 46.95 75.25 46.65 75.05 46.55Z" fill="#13484E"/>
<path d="M92.35 46.55L90.25 44.45L92.35 42.35C92.55 42.15 92.55 41.95 92.35 41.75C92.15 41.55 91.95 41.55 91.75 41.75L89.65 43.85L87.55 41.75C87.35 41.55 87.15 41.55 86.95 41.75C86.75 41.95 86.75 42.15 86.95 42.35L89.05 44.45L86.95 46.55C86.75 46.75 86.75 46.95 86.95 47.15C87.15 47.35 87.35 47.35 87.55 47.15L89.65 45.05L91.75 47.15C91.95 47.35 92.15 47.35 92.35 47.15C92.55 46.95 92.55 46.65 92.35 46.55Z" fill="#13484E"/>
<path d="M109.75 46.55L107.65 44.45L109.75 42.35C109.95 42.15 109.95 41.95 109.75 41.75C109.55 41.55 109.35 41.55 109.15 41.75L107.05 43.85L104.95 41.75C104.75 41.55 104.55 41.55 104.35 41.75C104.15 41.95 104.15 42.15 104.35 42.35L106.45 44.45L104.35 46.55C104.15 46.75 104.15 46.95 104.35 47.15C104.55 47.35 104.75 47.35 104.95 47.15L107.05 45.05L109.15 47.15C109.35 47.35 109.55 47.35 109.75 47.15C109.95 46.95 109.95 46.65 109.75 46.55Z" fill="#13484E"/>
<path d="M127.15 46.55L125.05 44.45L127.15 42.35C127.35 42.15 127.35 41.95 127.15 41.75C126.95 41.55 126.75 41.55 126.55 41.75L124.45 43.85L122.35 41.75C122.15 41.55 121.95 41.55 121.75 41.75C121.55 41.95 121.55 42.15 121.75 42.35L123.85 44.45L121.75 46.55C121.55 46.75 121.55 46.95 121.75 47.15C121.95 47.35 122.15 47.35 122.35 47.15L124.45 45.05L126.55 47.15C126.75 47.35 126.95 47.35 127.15 47.15C127.35 46.95 127.35 46.65 127.15 46.55Z" fill="#13484E"/>
<path d="M144.45 46.55L142.35 44.45L144.45 42.35C144.65 42.15 144.65 41.95 144.45 41.75C144.25 41.55 144.05 41.55 143.85 41.75L141.75 43.85L139.65 41.75C139.45 41.55 139.25 41.55 139.05 41.75C138.85 41.95 138.85 42.15 139.05 42.35L141.15 44.45L139.05 46.55C138.85 46.75 138.85 46.95 139.05 47.15C139.25 47.35 139.45 47.35 139.65 47.15L141.75 45.05L143.85 47.15C144.05 47.35 144.25 47.35 144.45 47.15C144.65 46.95 144.65 46.65 144.45 46.55Z" fill="#13484E"/>
<path d="M161.85 46.55L159.75 44.45L161.85 42.35C162.05 42.15 162.05 41.95 161.85 41.75C161.65 41.55 161.45 41.55 161.25 41.75L159.15 43.85L157.05 41.75C156.85 41.55 156.65 41.55 156.45 41.75C156.25 41.95 156.25 42.15 156.45 42.35L158.55 44.45L156.45 46.55C156.25 46.75 156.25 46.95 156.45 47.15C156.65 47.35 156.85 47.35 157.05 47.15L159.15 45.05L161.25 47.15C161.45 47.35 161.65 47.35 161.85 47.15C162.05 46.95 162.05 46.65 161.85 46.55Z" fill="#13484E"/>
<path d="M179.25 46.55L177.15 44.45L179.25 42.35C179.45 42.15 179.45 41.95 179.25 41.75C179.05 41.55 178.85 41.55 178.65 41.75L176.55 43.85L174.45 41.75C174.25 41.55 174.05 41.55 173.85 41.75C173.65 41.95 173.65 42.15 173.85 42.35L175.95 44.45L173.85 46.55C173.65 46.75 173.65 46.95 173.85 47.15C174.05 47.35 174.25 47.35 174.45 47.15L176.55 45.05L178.65 47.15C178.85 47.35 179.05 47.35 179.25 47.15C179.45 46.95 179.45 46.65 179.25 46.55Z" fill="#13484E"/>
<path d="M5.54999 60.35L3.45 58.25L5.54999 56.15C5.74999 55.95 5.74999 55.75 5.54999 55.55C5.34999 55.35 5.15 55.35 4.95 55.55L2.85 57.65L0.750006 55.55C0.550006 55.35 0.35 55.35 0.15 55.55C-0.05 55.75 -0.05 55.95 0.15 56.15L2.25001 58.25L0.15 60.35C-0.05 60.55 -0.05 60.75 0.15 60.95C0.35 61.15 0.550006 61.15 0.750006 60.95L2.85 58.85L4.95 60.95C5.15 61.15 5.34999 61.15 5.54999 60.95C5.74999 60.75 5.74999 60.55 5.54999 60.35Z" fill="#13484E"/>
<path d="M22.95 60.35L20.85 58.25L22.95 56.15C23.15 55.95 23.15 55.75 22.95 55.55C22.75 55.35 22.55 55.35 22.35 55.55L20.25 57.65L18.15 55.55C17.95 55.35 17.75 55.35 17.55 55.55C17.35 55.75 17.35 55.95 17.55 56.15L19.65 58.25L17.55 60.35C17.35 60.55 17.35 60.75 17.55 60.95C17.75 61.15 17.95 61.15 18.15 60.95L20.25 58.85L22.35 60.95C22.55 61.15 22.75 61.15 22.95 60.95C23.15 60.75 23.15 60.55 22.95 60.35Z" fill="#13484E"/>
<path d="M22.95 73.35L20.85 71.25L22.95 69.15C23.15 68.95 23.15 68.75 22.95 68.55C22.75 68.35 22.55 68.35 22.35 68.55L20.25 70.65L18.15 68.55C17.95 68.35 17.75 68.35 17.55 68.55C17.35 68.75 17.35 68.95 17.55 69.15L19.65 71.25L17.55 73.35C17.35 73.55 17.35 73.75 17.55 73.95C17.75 74.15 17.95 74.15 18.15 73.95L20.25 71.85L22.35 73.95C22.55 74.15 22.75 74.15 22.95 73.95C23.15 73.75 23.15 73.55 22.95 73.35Z" fill="#13484E"/>
<path d="M22.95 86.35L20.85 84.25L22.95 82.15C23.15 81.95 23.15 81.75 22.95 81.55C22.75 81.35 22.55 81.35 22.35 81.55L20.25 83.65L18.15 81.55C17.95 81.35 17.75 81.35 17.55 81.55C17.35 81.75 17.35 81.95 17.55 82.15L19.65 84.25L17.55 86.35C17.35 86.55 17.35 86.75 17.55 86.95C17.75 87.15 17.95 87.15 18.15 86.95L20.25 84.85L22.35 86.95C22.55 87.15 22.75 87.15 22.95 86.95C23.15 86.75 23.15 86.55 22.95 86.35Z" fill="#13484E"/>
<path d="M22.95 99.35L20.85 97.25L22.95 95.15C23.15 94.95 23.15 94.75 22.95 94.55C22.75 94.35 22.55 94.35 22.35 94.55L20.25 96.65L18.15 94.55C17.95 94.35 17.75 94.35 17.55 94.55C17.35 94.75 17.35 94.95 17.55 95.15L19.65 97.25L17.55 99.35C17.35 99.55 17.35 99.75 17.55 99.95C17.75 100.15 17.95 100.15 18.15 99.95L20.25 97.85L22.35 99.95C22.55 100.15 22.75 100.15 22.95 99.95C23.15 99.75 23.15 99.55 22.95 99.35Z" fill="#13484E"/>
<path d="M22.95 112.35L20.85 110.25L22.95 108.15C23.15 107.95 23.15 107.75 22.95 107.55C22.75 107.35 22.55 107.35 22.35 107.55L20.25 109.65L18.15 107.55C17.95 107.35 17.75 107.35 17.55 107.55C17.35 107.75 17.35 107.95 17.55 108.15L19.65 110.25L17.55 112.35C17.35 112.55 17.35 112.75 17.55 112.95C17.75 113.15 17.95 113.15 18.15 112.95L20.25 110.85L22.35 112.95C22.55 113.15 22.75 113.15 22.95 112.95C23.15 112.75 23.15 112.55 22.95 112.35Z" fill="#13484E"/>
<path d="M22.95 125.35L20.85 123.25L22.95 121.15C23.15 120.95 23.15 120.75 22.95 120.55C22.75 120.35 22.55 120.35 22.35 120.55L20.25 122.65L18.15 120.55C17.95 120.35 17.75 120.35 17.55 120.55C17.35 120.75 17.35 120.95 17.55 121.15L19.65 123.25L17.55 125.35C17.35 125.55 17.35 125.75 17.55 125.95C17.75 126.15 17.95 126.15 18.15 125.95L20.25 123.85L22.35 125.95C22.55 126.15 22.75 126.15 22.95 125.95C23.15 125.75 23.15 125.55 22.95 125.35Z" fill="#13484E"/>
<path d="M40.25 60.35L38.15 58.25L40.25 56.15C40.45 55.95 40.45 55.75 40.25 55.55C40.05 55.35 39.85 55.35 39.65 55.55L37.55 57.65L35.45 55.55C35.25 55.35 35.05 55.35 34.85 55.55C34.65 55.75 34.65 55.95 34.85 56.15L36.95 58.25L34.85 60.35C34.65 60.55 34.65 60.75 34.85 60.95C35.05 61.15 35.25 61.15 35.45 60.95L37.55 58.85L39.65 60.95C39.85 61.15 40.05 61.15 40.25 60.95C40.45 60.75 40.45 60.55 40.25 60.35Z" fill="#13484E"/>
<path d="M40.25 73.35L38.15 71.25L40.25 69.15C40.45 68.95 40.45 68.75 40.25 68.55C40.05 68.35 39.85 68.35 39.65 68.55L37.55 70.65L35.45 68.55C35.25 68.35 35.05 68.35 34.85 68.55C34.65 68.75 34.65 68.95 34.85 69.15L36.95 71.25L34.85 73.35C34.65 73.55 34.65 73.75 34.85 73.95C35.05 74.15 35.25 74.15 35.45 73.95L37.55 71.85L39.65 73.95C39.85 74.15 40.05 74.15 40.25 73.95C40.45 73.75 40.45 73.55 40.25 73.35Z" fill="#13484E"/>
<path d="M40.25 86.35L38.15 84.25L40.25 82.15C40.45 81.95 40.45 81.75 40.25 81.55C40.05 81.35 39.85 81.35 39.65 81.55L37.55 83.65L35.45 81.55C35.25 81.35 35.05 81.35 34.85 81.55C34.65 81.75 34.65 81.95 34.85 82.15L36.95 84.25L34.85 86.35C34.65 86.55 34.65 86.75 34.85 86.95C35.05 87.15 35.25 87.15 35.45 86.95L37.55 84.85L39.65 86.95C39.85 87.15 40.05 87.15 40.25 86.95C40.45 86.75 40.45 86.55 40.25 86.35Z" fill="#13484E"/>
<path d="M40.25 99.35L38.15 97.25L40.25 95.15C40.45 94.95 40.45 94.75 40.25 94.55C40.05 94.35 39.85 94.35 39.65 94.55L37.55 96.65L35.45 94.55C35.25 94.35 35.05 94.35 34.85 94.55C34.65 94.75 34.65 94.95 34.85 95.15L36.95 97.25L34.85 99.35C34.65 99.55 34.65 99.75 34.85 99.95C35.05 100.15 35.25 100.15 35.45 99.95L37.55 97.85L39.65 99.95C39.85 100.15 40.05 100.15 40.25 99.95C40.45 99.75 40.45 99.55 40.25 99.35Z" fill="#13484E"/>
<path d="M40.25 112.35L38.15 110.25L40.25 108.15C40.45 107.95 40.45 107.75 40.25 107.55C40.05 107.35 39.85 107.35 39.65 107.55L37.55 109.65L35.45 107.55C35.25 107.35 35.05 107.35 34.85 107.55C34.65 107.75 34.65 107.95 34.85 108.15L36.95 110.25L34.85 112.35C34.65 112.55 34.65 112.75 34.85 112.95C35.05 113.15 35.25 113.15 35.45 112.95L37.55 110.85L39.65 112.95C39.85 113.15 40.05 113.15 40.25 112.95C40.45 112.75 40.45 112.55 40.25 112.35Z" fill="#13484E"/>
<path d="M40.25 125.35L38.15 123.25L40.25 121.15C40.45 120.95 40.45 120.75 40.25 120.55C40.05 120.35 39.85 120.35 39.65 120.55L37.55 122.65L35.45 120.55C35.25 120.35 35.05 120.35 34.85 120.55C34.65 120.75 34.65 120.95 34.85 121.15L36.95 123.25L34.85 125.35C34.65 125.55 34.65 125.75 34.85 125.95C35.05 126.15 35.25 126.15 35.45 125.95L37.55 123.85L39.65 125.95C39.85 126.15 40.05 126.15 40.25 125.95C40.45 125.75 40.45 125.55 40.25 125.35Z" fill="#13484E"/>
<path d="M57.65 60.35L55.55 58.25L57.65 56.15C57.85 55.95 57.85 55.75 57.65 55.55C57.45 55.35 57.25 55.35 57.05 55.55L54.95 57.65L52.85 55.55C52.65 55.35 52.45 55.35 52.25 55.55C52.05 55.75 52.05 55.95 52.25 56.15L54.35 58.25L52.25 60.35C52.05 60.55 52.05 60.75 52.25 60.95C52.45 61.15 52.65 61.15 52.85 60.95L54.95 58.85L57.05 60.95C57.25 61.15 57.45 61.15 57.65 60.95C57.85 60.75 57.85 60.55 57.65 60.35Z" fill="#13484E"/>
<path d="M57.65 73.35L55.55 71.25L57.65 69.15C57.85 68.95 57.85 68.75 57.65 68.55C57.45 68.35 57.25 68.35 57.05 68.55L54.95 70.65L52.85 68.55C52.65 68.35 52.45 68.35 52.25 68.55C52.05 68.75 52.05 68.95 52.25 69.15L54.35 71.25L52.25 73.35C52.05 73.55 52.05 73.75 52.25 73.95C52.45 74.15 52.65 74.15 52.85 73.95L54.95 71.85L57.05 73.95C57.25 74.15 57.45 74.15 57.65 73.95C57.85 73.75 57.85 73.55 57.65 73.35Z" fill="#13484E"/>
<path d="M57.65 86.35L55.55 84.25L57.65 82.15C57.85 81.95 57.85 81.75 57.65 81.55C57.45 81.35 57.25 81.35 57.05 81.55L54.95 83.65L52.85 81.55C52.65 81.35 52.45 81.35 52.25 81.55C52.05 81.75 52.05 81.95 52.25 82.15L54.35 84.25L52.25 86.35C52.05 86.55 52.05 86.75 52.25 86.95C52.45 87.15 52.65 87.15 52.85 86.95L54.95 84.85L57.05 86.95C57.25 87.15 57.45 87.15 57.65 86.95C57.85 86.75 57.85 86.55 57.65 86.35Z" fill="#13484E"/>
<path d="M57.65 99.35L55.55 97.25L57.65 95.15C57.85 94.95 57.85 94.75 57.65 94.55C57.45 94.35 57.25 94.35 57.05 94.55L54.95 96.65L52.85 94.55C52.65 94.35 52.45 94.35 52.25 94.55C52.05 94.75 52.05 94.95 52.25 95.15L54.35 97.25L52.25 99.35C52.05 99.55 52.05 99.75 52.25 99.95C52.45 100.15 52.65 100.15 52.85 99.95L54.95 97.85L57.05 99.95C57.25 100.15 57.45 100.15 57.65 99.95C57.85 99.75 57.85 99.55 57.65 99.35Z" fill="#13484E"/>
<path d="M57.65 112.35L55.55 110.25L57.65 108.15C57.85 107.95 57.85 107.75 57.65 107.55C57.45 107.35 57.25 107.35 57.05 107.55L54.95 109.65L52.85 107.55C52.65 107.35 52.45 107.35 52.25 107.55C52.05 107.75 52.05 107.95 52.25 108.15L54.35 110.25L52.25 112.35C52.05 112.55 52.05 112.75 52.25 112.95C52.45 113.15 52.65 113.15 52.85 112.95L54.95 110.85L57.05 112.95C57.25 113.15 57.45 113.15 57.65 112.95C57.85 112.75 57.85 112.55 57.65 112.35Z" fill="#13484E"/>
<path d="M57.65 125.35L55.55 123.25L57.65 121.15C57.85 120.95 57.85 120.75 57.65 120.55C57.45 120.35 57.25 120.35 57.05 120.55L54.95 122.65L52.85 120.55C52.65 120.35 52.45 120.35 52.25 120.55C52.05 120.75 52.05 120.95 52.25 121.15L54.35 123.25L52.25 125.35C52.05 125.55 52.05 125.75 52.25 125.95C52.45 126.15 52.65 126.15 52.85 125.95L54.95 123.85L57.05 125.95C57.25 126.15 57.45 126.15 57.65 125.95C57.85 125.75 57.85 125.55 57.65 125.35Z" fill="#13484E"/>
<path d="M75.05 60.35L72.95 58.25L75.05 56.15C75.25 55.95 75.25 55.75 75.05 55.55C74.85 55.35 74.65 55.35 74.45 55.55L72.35 57.65L70.25 55.55C70.05 55.35 69.85 55.35 69.65 55.55C69.45 55.75 69.45 55.95 69.65 56.15L71.75 58.25L69.65 60.35C69.45 60.55 69.45 60.75 69.65 60.95C69.85 61.15 70.05 61.15 70.25 60.95L72.35 58.85L74.45 60.95C74.65 61.15 74.85 61.15 75.05 60.95C75.25 60.75 75.25 60.55 75.05 60.35Z" fill="#13484E"/>
<path d="M75.05 73.35L72.95 71.25L75.05 69.15C75.25 68.95 75.25 68.75 75.05 68.55C74.85 68.35 74.65 68.35 74.45 68.55L72.35 70.65L70.25 68.55C70.05 68.35 69.85 68.35 69.65 68.55C69.45 68.75 69.45 68.95 69.65 69.15L71.75 71.25L69.65 73.35C69.45 73.55 69.45 73.75 69.65 73.95C69.85 74.15 70.05 74.15 70.25 73.95L72.35 71.85L74.45 73.95C74.65 74.15 74.85 74.15 75.05 73.95C75.25 73.75 75.25 73.55 75.05 73.35Z" fill="#13484E"/>
<path d="M75.05 86.35L72.95 84.25L75.05 82.15C75.25 81.95 75.25 81.75 75.05 81.55C74.85 81.35 74.65 81.35 74.45 81.55L72.35 83.65L70.25 81.55C70.05 81.35 69.85 81.35 69.65 81.55C69.45 81.75 69.45 81.95 69.65 82.15L71.75 84.25L69.65 86.35C69.45 86.55 69.45 86.75 69.65 86.95C69.85 87.15 70.05 87.15 70.25 86.95L72.35 84.85L74.45 86.95C74.65 87.15 74.85 87.15 75.05 86.95C75.25 86.75 75.25 86.55 75.05 86.35Z" fill="#13484E"/>
<path d="M75.05 99.35L72.95 97.25L75.05 95.15C75.25 94.95 75.25 94.75 75.05 94.55C74.85 94.35 74.65 94.35 74.45 94.55L72.35 96.65L70.25 94.55C70.05 94.35 69.85 94.35 69.65 94.55C69.45 94.75 69.45 94.95 69.65 95.15L71.75 97.25L69.65 99.35C69.45 99.55 69.45 99.75 69.65 99.95C69.85 100.15 70.05 100.15 70.25 99.95L72.35 97.85L74.45 99.95C74.65 100.15 74.85 100.15 75.05 99.95C75.25 99.75 75.25 99.55 75.05 99.35Z" fill="#13484E"/>
<path d="M75.05 112.35L72.95 110.25L75.05 108.15C75.25 107.95 75.25 107.75 75.05 107.55C74.85 107.35 74.65 107.35 74.45 107.55L72.35 109.65L70.25 107.55C70.05 107.35 69.85 107.35 69.65 107.55C69.45 107.75 69.45 107.95 69.65 108.15L71.75 110.25L69.65 112.35C69.45 112.55 69.45 112.75 69.65 112.95C69.85 113.15 70.05 113.15 70.25 112.95L72.35 110.85L74.45 112.95C74.65 113.15 74.85 113.15 75.05 112.95C75.25 112.75 75.25 112.55 75.05 112.35Z" fill="#13484E"/>
<path d="M75.05 125.35L72.95 123.25L75.05 121.15C75.25 120.95 75.25 120.75 75.05 120.55C74.85 120.35 74.65 120.35 74.45 120.55L72.35 122.65L70.25 120.55C70.05 120.35 69.85 120.35 69.65 120.55C69.45 120.75 69.45 120.95 69.65 121.15L71.75 123.25L69.65 125.35C69.45 125.55 69.45 125.75 69.65 125.95C69.85 126.15 70.05 126.15 70.25 125.95L72.35 123.85L74.45 125.95C74.65 126.15 74.85 126.15 75.05 125.95C75.25 125.75 75.25 125.55 75.05 125.35Z" fill="#13484E"/>
<path d="M92.35 60.35L90.25 58.25L92.35 56.15C92.55 55.95 92.55 55.75 92.35 55.55C92.15 55.35 91.95 55.35 91.75 55.55L89.65 57.65L87.55 55.55C87.35 55.35 87.15 55.35 86.95 55.55C86.75 55.75 86.75 55.95 86.95 56.15L89.05 58.25L86.95 60.35C86.75 60.55 86.75 60.75 86.95 60.95C87.15 61.15 87.35 61.15 87.55 60.95L89.65 58.85L91.75 60.95C91.95 61.15 92.15 61.15 92.35 60.95C92.55 60.75 92.55 60.55 92.35 60.35Z" fill="#13484E"/>
<path d="M92.35 73.35L90.25 71.25L92.35 69.15C92.55 68.95 92.55 68.75 92.35 68.55C92.15 68.35 91.95 68.35 91.75 68.55L89.65 70.65L87.55 68.55C87.35 68.35 87.15 68.35 86.95 68.55C86.75 68.75 86.75 68.95 86.95 69.15L89.05 71.25L86.95 73.35C86.75 73.55 86.75 73.75 86.95 73.95C87.15 74.15 87.35 74.15 87.55 73.95L89.65 71.85L91.75 73.95C91.95 74.15 92.15 74.15 92.35 73.95C92.55 73.75 92.55 73.55 92.35 73.35Z" fill="#13484E"/>
<path d="M92.35 86.35L90.25 84.25L92.35 82.15C92.55 81.95 92.55 81.75 92.35 81.55C92.15 81.35 91.95 81.35 91.75 81.55L89.65 83.65L87.55 81.55C87.35 81.35 87.15 81.35 86.95 81.55C86.75 81.75 86.75 81.95 86.95 82.15L89.05 84.25L86.95 86.35C86.75 86.55 86.75 86.75 86.95 86.95C87.15 87.15 87.35 87.15 87.55 86.95L89.65 84.85L91.75 86.95C91.95 87.15 92.15 87.15 92.35 86.95C92.55 86.75 92.55 86.55 92.35 86.35Z" fill="#13484E"/>
<path d="M92.35 99.35L90.25 97.25L92.35 95.15C92.55 94.95 92.55 94.75 92.35 94.55C92.15 94.35 91.95 94.35 91.75 94.55L89.65 96.65L87.55 94.55C87.35 94.35 87.15 94.35 86.95 94.55C86.75 94.75 86.75 94.95 86.95 95.15L89.05 97.25L86.95 99.35C86.75 99.55 86.75 99.75 86.95 99.95C87.15 100.15 87.35 100.15 87.55 99.95L89.65 97.85L91.75 99.95C91.95 100.15 92.15 100.15 92.35 99.95C92.55 99.75 92.55 99.55 92.35 99.35Z" fill="#13484E"/>
<path d="M92.35 112.35L90.25 110.25L92.35 108.15C92.55 107.95 92.55 107.75 92.35 107.55C92.15 107.35 91.95 107.35 91.75 107.55L89.65 109.65L87.55 107.55C87.35 107.35 87.15 107.35 86.95 107.55C86.75 107.75 86.75 107.95 86.95 108.15L89.05 110.25L86.95 112.35C86.75 112.55 86.75 112.75 86.95 112.95C87.15 113.15 87.35 113.15 87.55 112.95L89.65 110.85L91.75 112.95C91.95 113.15 92.15 113.15 92.35 112.95C92.55 112.75 92.55 112.55 92.35 112.35Z" fill="#13484E"/>
<path d="M92.35 125.35L90.25 123.25L92.35 121.15C92.55 120.95 92.55 120.75 92.35 120.55C92.15 120.35 91.95 120.35 91.75 120.55L89.65 122.65L87.55 120.55C87.35 120.35 87.15 120.35 86.95 120.55C86.75 120.75 86.75 120.95 86.95 121.15L89.05 123.25L86.95 125.35C86.75 125.55 86.75 125.75 86.95 125.95C87.15 126.15 87.35 126.15 87.55 125.95L89.65 123.85L91.75 125.95C91.95 126.15 92.15 126.15 92.35 125.95C92.55 125.75 92.55 125.55 92.35 125.35Z" fill="#13484E"/>
<path d="M109.75 60.35L107.65 58.25L109.75 56.15C109.95 55.95 109.95 55.75 109.75 55.55C109.55 55.35 109.35 55.35 109.15 55.55L107.05 57.65L104.95 55.55C104.75 55.35 104.55 55.35 104.35 55.55C104.15 55.75 104.15 55.95 104.35 56.15L106.45 58.25L104.35 60.35C104.15 60.55 104.15 60.75 104.35 60.95C104.55 61.15 104.75 61.15 104.95 60.95L107.05 58.85L109.15 60.95C109.35 61.15 109.55 61.15 109.75 60.95C109.95 60.75 109.95 60.55 109.75 60.35Z" fill="#13484E"/>
<path d="M109.75 73.35L107.65 71.25L109.75 69.15C109.95 68.95 109.95 68.75 109.75 68.55C109.55 68.35 109.35 68.35 109.15 68.55L107.05 70.65L104.95 68.55C104.75 68.35 104.55 68.35 104.35 68.55C104.15 68.75 104.15 68.95 104.35 69.15L106.45 71.25L104.35 73.35C104.15 73.55 104.15 73.75 104.35 73.95C104.55 74.15 104.75 74.15 104.95 73.95L107.05 71.85L109.15 73.95C109.35 74.15 109.55 74.15 109.75 73.95C109.95 73.75 109.95 73.55 109.75 73.35Z" fill="#13484E"/>
<path d="M109.75 86.35L107.65 84.25L109.75 82.15C109.95 81.95 109.95 81.75 109.75 81.55C109.55 81.35 109.35 81.35 109.15 81.55L107.05 83.65L104.95 81.55C104.75 81.35 104.55 81.35 104.35 81.55C104.15 81.75 104.15 81.95 104.35 82.15L106.45 84.25L104.35 86.35C104.15 86.55 104.15 86.75 104.35 86.95C104.55 87.15 104.75 87.15 104.95 86.95L107.05 84.85L109.15 86.95C109.35 87.15 109.55 87.15 109.75 86.95C109.95 86.75 109.95 86.55 109.75 86.35Z" fill="#13484E"/>
<path d="M109.75 99.35L107.65 97.25L109.75 95.15C109.95 94.95 109.95 94.75 109.75 94.55C109.55 94.35 109.35 94.35 109.15 94.55L107.05 96.65L104.95 94.55C104.75 94.35 104.55 94.35 104.35 94.55C104.15 94.75 104.15 94.95 104.35 95.15L106.45 97.25L104.35 99.35C104.15 99.55 104.15 99.75 104.35 99.95C104.55 100.15 104.75 100.15 104.95 99.95L107.05 97.85L109.15 99.95C109.35 100.15 109.55 100.15 109.75 99.95C109.95 99.75 109.95 99.55 109.75 99.35Z" fill="#13484E"/>
<path d="M109.75 112.35L107.65 110.25L109.75 108.15C109.95 107.95 109.95 107.75 109.75 107.55C109.55 107.35 109.35 107.35 109.15 107.55L107.05 109.65L104.95 107.55C104.75 107.35 104.55 107.35 104.35 107.55C104.15 107.75 104.15 107.95 104.35 108.15L106.45 110.25L104.35 112.35C104.15 112.55 104.15 112.75 104.35 112.95C104.55 113.15 104.75 113.15 104.95 112.95L107.05 110.85L109.15 112.95C109.35 113.15 109.55 113.15 109.75 112.95C109.95 112.75 109.95 112.55 109.75 112.35Z" fill="#13484E"/>
<path d="M109.75 125.35L107.65 123.25L109.75 121.15C109.95 120.95 109.95 120.75 109.75 120.55C109.55 120.35 109.35 120.35 109.15 120.55L107.05 122.65L104.95 120.55C104.75 120.35 104.55 120.35 104.35 120.55C104.15 120.75 104.15 120.95 104.35 121.15L106.45 123.25L104.35 125.35C104.15 125.55 104.15 125.75 104.35 125.95C104.55 126.15 104.75 126.15 104.95 125.95L107.05 123.85L109.15 125.95C109.35 126.15 109.55 126.15 109.75 125.95C109.95 125.75 109.95 125.55 109.75 125.35Z" fill="#13484E"/>
<path d="M127.15 60.35L125.05 58.25L127.15 56.15C127.35 55.95 127.35 55.75 127.15 55.55C126.95 55.35 126.75 55.35 126.55 55.55L124.45 57.65L122.35 55.55C122.15 55.35 121.95 55.35 121.75 55.55C121.55 55.75 121.55 55.95 121.75 56.15L123.85 58.25L121.75 60.35C121.55 60.55 121.55 60.75 121.75 60.95C121.95 61.15 122.15 61.15 122.35 60.95L124.45 58.85L126.55 60.95C126.75 61.15 126.95 61.15 127.15 60.95C127.35 60.75 127.35 60.55 127.15 60.35Z" fill="#13484E"/>
<path d="M127.15 73.35L125.05 71.25L127.15 69.15C127.35 68.95 127.35 68.75 127.15 68.55C126.95 68.35 126.75 68.35 126.55 68.55L124.45 70.65L122.35 68.55C122.15 68.35 121.95 68.35 121.75 68.55C121.55 68.75 121.55 68.95 121.75 69.15L123.85 71.25L121.75 73.35C121.55 73.55 121.55 73.75 121.75 73.95C121.95 74.15 122.15 74.15 122.35 73.95L124.45 71.85L126.55 73.95C126.75 74.15 126.95 74.15 127.15 73.95C127.35 73.75 127.35 73.55 127.15 73.35Z" fill="#13484E"/>
<path d="M127.15 86.35L125.05 84.25L127.15 82.15C127.35 81.95 127.35 81.75 127.15 81.55C126.95 81.35 126.75 81.35 126.55 81.55L124.45 83.65L122.35 81.55C122.15 81.35 121.95 81.35 121.75 81.55C121.55 81.75 121.55 81.95 121.75 82.15L123.85 84.25L121.75 86.35C121.55 86.55 121.55 86.75 121.75 86.95C121.95 87.15 122.15 87.15 122.35 86.95L124.45 84.85L126.55 86.95C126.75 87.15 126.95 87.15 127.15 86.95C127.35 86.75 127.35 86.55 127.15 86.35Z" fill="#13484E"/>
<path d="M127.15 99.35L125.05 97.25L127.15 95.15C127.35 94.95 127.35 94.75 127.15 94.55C126.95 94.35 126.75 94.35 126.55 94.55L124.45 96.65L122.35 94.55C122.15 94.35 121.95 94.35 121.75 94.55C121.55 94.75 121.55 94.95 121.75 95.15L123.85 97.25L121.75 99.35C121.55 99.55 121.55 99.75 121.75 99.95C121.95 100.15 122.15 100.15 122.35 99.95L124.45 97.85L126.55 99.95C126.75 100.15 126.95 100.15 127.15 99.95C127.35 99.75 127.35 99.55 127.15 99.35Z" fill="#13484E"/>
<path d="M127.15 112.35L125.05 110.25L127.15 108.15C127.35 107.95 127.35 107.75 127.15 107.55C126.95 107.35 126.75 107.35 126.55 107.55L124.45 109.65L122.35 107.55C122.15 107.35 121.95 107.35 121.75 107.55C121.55 107.75 121.55 107.95 121.75 108.15L123.85 110.25L121.75 112.35C121.55 112.55 121.55 112.75 121.75 112.95C121.95 113.15 122.15 113.15 122.35 112.95L124.45 110.85L126.55 112.95C126.75 113.15 126.95 113.15 127.15 112.95C127.35 112.75 127.35 112.55 127.15 112.35Z" fill="#13484E"/>
<path d="M127.15 125.35L125.05 123.25L127.15 121.15C127.35 120.95 127.35 120.75 127.15 120.55C126.95 120.35 126.75 120.35 126.55 120.55L124.45 122.65L122.35 120.55C122.15 120.35 121.95 120.35 121.75 120.55C121.55 120.75 121.55 120.95 121.75 121.15L123.85 123.25L121.75 125.35C121.55 125.55 121.55 125.75 121.75 125.95C121.95 126.15 122.15 126.15 122.35 125.95L124.45 123.85L126.55 125.95C126.75 126.15 126.95 126.15 127.15 125.95C127.35 125.75 127.35 125.55 127.15 125.35Z" fill="#13484E"/>
<path d="M144.45 60.35L142.35 58.25L144.45 56.15C144.65 55.95 144.65 55.75 144.45 55.55C144.25 55.35 144.05 55.35 143.85 55.55L141.75 57.65L139.65 55.55C139.45 55.35 139.25 55.35 139.05 55.55C138.85 55.75 138.85 55.95 139.05 56.15L141.15 58.25L139.05 60.35C138.85 60.55 138.85 60.75 139.05 60.95C139.25 61.15 139.45 61.15 139.65 60.95L141.75 58.85L143.85 60.95C144.05 61.15 144.25 61.15 144.45 60.95C144.65 60.75 144.65 60.55 144.45 60.35Z" fill="#13484E"/>
<path d="M144.45 73.35L142.35 71.25L144.45 69.15C144.65 68.95 144.65 68.75 144.45 68.55C144.25 68.35 144.05 68.35 143.85 68.55L141.75 70.65L139.65 68.55C139.45 68.35 139.25 68.35 139.05 68.55C138.85 68.75 138.85 68.95 139.05 69.15L141.15 71.25L139.05 73.35C138.85 73.55 138.85 73.75 139.05 73.95C139.25 74.15 139.45 74.15 139.65 73.95L141.75 71.85L143.85 73.95C144.05 74.15 144.25 74.15 144.45 73.95C144.65 73.75 144.65 73.55 144.45 73.35Z" fill="#13484E"/>
<path d="M144.45 86.35L142.35 84.25L144.45 82.15C144.65 81.95 144.65 81.75 144.45 81.55C144.25 81.35 144.05 81.35 143.85 81.55L141.75 83.65L139.65 81.55C139.45 81.35 139.25 81.35 139.05 81.55C138.85 81.75 138.85 81.95 139.05 82.15L141.15 84.25L139.05 86.35C138.85 86.55 138.85 86.75 139.05 86.95C139.25 87.15 139.45 87.15 139.65 86.95L141.75 84.85L143.85 86.95C144.05 87.15 144.25 87.15 144.45 86.95C144.65 86.75 144.65 86.55 144.45 86.35Z" fill="#13484E"/>
<path d="M144.45 99.35L142.35 97.25L144.45 95.15C144.65 94.95 144.65 94.75 144.45 94.55C144.25 94.35 144.05 94.35 143.85 94.55L141.75 96.65L139.65 94.55C139.45 94.35 139.25 94.35 139.05 94.55C138.85 94.75 138.85 94.95 139.05 95.15L141.15 97.25L139.05 99.35C138.85 99.55 138.85 99.75 139.05 99.95C139.25 100.15 139.45 100.15 139.65 99.95L141.75 97.85L143.85 99.95C144.05 100.15 144.25 100.15 144.45 99.95C144.65 99.75 144.65 99.55 144.45 99.35Z" fill="#13484E"/>
<path d="M144.45 112.35L142.35 110.25L144.45 108.15C144.65 107.95 144.65 107.75 144.45 107.55C144.25 107.35 144.05 107.35 143.85 107.55L141.75 109.65L139.65 107.55C139.45 107.35 139.25 107.35 139.05 107.55C138.85 107.75 138.85 107.95 139.05 108.15L141.15 110.25L139.05 112.35C138.85 112.55 138.85 112.75 139.05 112.95C139.25 113.15 139.45 113.15 139.65 112.95L141.75 110.85L143.85 112.95C144.05 113.15 144.25 113.15 144.45 112.95C144.65 112.75 144.65 112.55 144.45 112.35Z" fill="#13484E"/>
<path d="M144.45 125.35L142.35 123.25L144.45 121.15C144.65 120.95 144.65 120.75 144.45 120.55C144.25 120.35 144.05 120.35 143.85 120.55L141.75 122.65L139.65 120.55C139.45 120.35 139.25 120.35 139.05 120.55C138.85 120.75 138.85 120.95 139.05 121.15L141.15 123.25L139.05 125.35C138.85 125.55 138.85 125.75 139.05 125.95C139.25 126.15 139.45 126.15 139.65 125.95L141.75 123.85L143.85 125.95C144.05 126.15 144.25 126.15 144.45 125.95C144.65 125.75 144.65 125.55 144.45 125.35Z" fill="#13484E"/>
<path d="M161.85 60.35L159.75 58.25L161.85 56.15C162.05 55.95 162.05 55.75 161.85 55.55C161.65 55.35 161.45 55.35 161.25 55.55L159.15 57.65L157.05 55.55C156.85 55.35 156.65 55.35 156.45 55.55C156.25 55.75 156.25 55.95 156.45 56.15L158.55 58.25L156.45 60.35C156.25 60.55 156.25 60.75 156.45 60.95C156.65 61.15 156.85 61.15 157.05 60.95L159.15 58.85L161.25 60.95C161.45 61.15 161.65 61.15 161.85 60.95C162.05 60.75 162.05 60.55 161.85 60.35Z" fill="#13484E"/>
<path d="M161.85 73.35L159.75 71.25L161.85 69.15C162.05 68.95 162.05 68.75 161.85 68.55C161.65 68.35 161.45 68.35 161.25 68.55L159.15 70.65L157.05 68.55C156.85 68.35 156.65 68.35 156.45 68.55C156.25 68.75 156.25 68.95 156.45 69.15L158.55 71.25L156.45 73.35C156.25 73.55 156.25 73.75 156.45 73.95C156.65 74.15 156.85 74.15 157.05 73.95L159.15 71.85L161.25 73.95C161.45 74.15 161.65 74.15 161.85 73.95C162.05 73.75 162.05 73.55 161.85 73.35Z" fill="#13484E"/>
<path d="M161.85 86.35L159.75 84.25L161.85 82.15C162.05 81.95 162.05 81.75 161.85 81.55C161.65 81.35 161.45 81.35 161.25 81.55L159.15 83.65L157.05 81.55C156.85 81.35 156.65 81.35 156.45 81.55C156.25 81.75 156.25 81.95 156.45 82.15L158.55 84.25L156.45 86.35C156.25 86.55 156.25 86.75 156.45 86.95C156.65 87.15 156.85 87.15 157.05 86.95L159.15 84.85L161.25 86.95C161.45 87.15 161.65 87.15 161.85 86.95C162.05 86.75 162.05 86.55 161.85 86.35Z" fill="#13484E"/>
<path d="M161.85 99.35L159.75 97.25L161.85 95.15C162.05 94.95 162.05 94.75 161.85 94.55C161.65 94.35 161.45 94.35 161.25 94.55L159.15 96.65L157.05 94.55C156.85 94.35 156.65 94.35 156.45 94.55C156.25 94.75 156.25 94.95 156.45 95.15L158.55 97.25L156.45 99.35C156.25 99.55 156.25 99.75 156.45 99.95C156.65 100.15 156.85 100.15 157.05 99.95L159.15 97.85L161.25 99.95C161.45 100.15 161.65 100.15 161.85 99.95C162.05 99.75 162.05 99.55 161.85 99.35Z" fill="#13484E"/>
<path d="M161.85 112.35L159.75 110.25L161.85 108.15C162.05 107.95 162.05 107.75 161.85 107.55C161.65 107.35 161.45 107.35 161.25 107.55L159.15 109.65L157.05 107.55C156.85 107.35 156.65 107.35 156.45 107.55C156.25 107.75 156.25 107.95 156.45 108.15L158.55 110.25L156.45 112.35C156.25 112.55 156.25 112.75 156.45 112.95C156.65 113.15 156.85 113.15 157.05 112.95L159.15 110.85L161.25 112.95C161.45 113.15 161.65 113.15 161.85 112.95C162.05 112.75 162.05 112.55 161.85 112.35Z" fill="#13484E"/>
<path d="M161.85 125.35L159.75 123.25L161.85 121.15C162.05 120.95 162.05 120.75 161.85 120.55C161.65 120.35 161.45 120.35 161.25 120.55L159.15 122.65L157.05 120.55C156.85 120.35 156.65 120.35 156.45 120.55C156.25 120.75 156.25 120.95 156.45 121.15L158.55 123.25L156.45 125.35C156.25 125.55 156.25 125.75 156.45 125.95C156.65 126.15 156.85 126.15 157.05 125.95L159.15 123.85L161.25 125.95C161.45 126.15 161.65 126.15 161.85 125.95C162.05 125.75 162.05 125.55 161.85 125.35Z" fill="#13484E"/>
<path d="M179.25 60.35L177.15 58.25L179.25 56.15C179.45 55.95 179.45 55.75 179.25 55.55C179.05 55.35 178.85 55.35 178.65 55.55L176.55 57.65L174.45 55.55C174.25 55.35 174.05 55.35 173.85 55.55C173.65 55.75 173.65 55.95 173.85 56.15L175.95 58.25L173.85 60.35C173.65 60.55 173.65 60.75 173.85 60.95C174.05 61.15 174.25 61.15 174.45 60.95L176.55 58.85L178.65 60.95C178.85 61.15 179.05 61.15 179.25 60.95C179.45 60.75 179.45 60.55 179.25 60.35Z" fill="#13484E"/>
<path d="M179.25 73.35L177.15 71.25L179.25 69.15C179.45 68.95 179.45 68.75 179.25 68.55C179.05 68.35 178.85 68.35 178.65 68.55L176.55 70.65L174.45 68.55C174.25 68.35 174.05 68.35 173.85 68.55C173.65 68.75 173.65 68.95 173.85 69.15L175.95 71.25L173.85 73.35C173.65 73.55 173.65 73.75 173.85 73.95C174.05 74.15 174.25 74.15 174.45 73.95L176.55 71.85L178.65 73.95C178.85 74.15 179.05 74.15 179.25 73.95C179.45 73.75 179.45 73.55 179.25 73.35Z" fill="#13484E"/>
<path d="M179.25 86.35L177.15 84.25L179.25 82.15C179.45 81.95 179.45 81.75 179.25 81.55C179.05 81.35 178.85 81.35 178.65 81.55L176.55 83.65L174.45 81.55C174.25 81.35 174.05 81.35 173.85 81.55C173.65 81.75 173.65 81.95 173.85 82.15L175.95 84.25L173.85 86.35C173.65 86.55 173.65 86.75 173.85 86.95C174.05 87.15 174.25 87.15 174.45 86.95L176.55 84.85L178.65 86.95C178.85 87.15 179.05 87.15 179.25 86.95C179.45 86.75 179.45 86.55 179.25 86.35Z" fill="#13484E"/>
<path d="M179.25 99.35L177.15 97.25L179.25 95.15C179.45 94.95 179.45 94.75 179.25 94.55C179.05 94.35 178.85 94.35 178.65 94.55L176.55 96.65L174.45 94.55C174.25 94.35 174.05 94.35 173.85 94.55C173.65 94.75 173.65 94.95 173.85 95.15L175.95 97.25L173.85 99.35C173.65 99.55 173.65 99.75 173.85 99.95C174.05 100.15 174.25 100.15 174.45 99.95L176.55 97.85L178.65 99.95C178.85 100.15 179.05 100.15 179.25 99.95C179.45 99.75 179.45 99.55 179.25 99.35Z" fill="#13484E"/>
<path d="M179.25 112.35L177.15 110.25L179.25 108.15C179.45 107.95 179.45 107.75 179.25 107.55C179.05 107.35 178.85 107.35 178.65 107.55L176.55 109.65L174.45 107.55C174.25 107.35 174.05 107.35 173.85 107.55C173.65 107.75 173.65 107.95 173.85 108.15L175.95 110.25L173.85 112.35C173.65 112.55 173.65 112.75 173.85 112.95C174.05 113.15 174.25 113.15 174.45 112.95L176.55 110.85L178.65 112.95C178.85 113.15 179.05 113.15 179.25 112.95C179.45 112.75 179.45 112.55 179.25 112.35Z" fill="#13484E"/>
<path d="M179.25 125.35L177.15 123.25L179.25 121.15C179.45 120.95 179.45 120.75 179.25 120.55C179.05 120.35 178.85 120.35 178.65 120.55L176.55 122.65L174.45 120.55C174.25 120.35 174.05 120.35 173.85 120.55C173.65 120.75 173.65 120.95 173.85 121.15L175.95 123.25L173.85 125.35C173.65 125.55 173.65 125.75 173.85 125.95C174.05 126.15 174.25 126.15 174.45 125.95L176.55 123.85L178.65 125.95C178.85 126.15 179.05 126.15 179.25 125.95C179.45 125.75 179.45 125.55 179.25 125.35Z" fill="#13484E"/>
</svg>
