<svg width="78" height="94" viewBox="0 0 78 94" fill="none" xmlns="http://www.w3.org/2000/svg">
<g id="Group">
<path id="Vector" fill-rule="evenodd" clip-rule="evenodd" d="M74.2506 12.5813C73.0959 12.7664 55.0843 18.7771 47.7459 16.9223C45.0499 16.2387 43.4215 17.294 44.9558 18.7009C46.1016 19.737 48.6685 25.5734 49.1189 26.497C49.0771 26.524 36.0986 30.1919 30.9485 40.4962C30.7571 40.887 29.6664 41.4456 28.3497 41.8839C17.7985 45.1349 7.67902 57.6515 2.99204 73.1989C2.5876 74.5875 1.88634 76.5243 1.4595 77.5124C-0.206104 81.4376 5.75169 83.861 8.52202 75.0993C12.3491 63.0736 16.6807 55.7605 23.4068 50.0378C27.3285 46.6663 27.557 46.6071 27.0353 49.0499C24.677 60.0941 39.405 66.7646 48.4104 59.8019C55.213 54.5633 52.7113 43.7044 40.6693 41.133C38.9146 40.7583 37.5187 40.3883 37.5407 40.2851C38.1091 37.9602 46.7187 30.6611 50.1555 29.5603C50.8139 29.3411 54.1866 34.7739 53.8923 35.6464C53.3897 37.1579 57.0568 38.5165 58.6654 37.3851C59.0485 37.1072 60.8431 34.9363 62.613 32.5442C66.5112 27.2609 69.524 24.2709 74.0639 19.5204C77.9335 15.3822 79.8032 11.6804 74.2506 12.5813ZM33.6881 47.3767C35.2899 43.5817 40.0805 42.3743 43.311 44.9348C47.7709 48.4773 47.0763 53.0776 44.6067 56.2196C37.9686 64.7311 29.8933 56.3874 33.6881 47.3767Z" fill="#FCAA47"/>
</g>
</svg>
