<svg width="43" height="43" viewBox="0 0 43 43" fill="none" xmlns="http://www.w3.org/2000/svg">
<g filter="url(#filter0_d_154_9842)">
<path d="M4.38329 7.40708L31.5967 0.112474C31.6153 0.107452 31.6346 0.106229 31.6536 0.108837C31.6726 0.111446 31.6909 0.117844 31.7074 0.12767C31.7239 0.137495 31.7383 0.15056 31.7496 0.166044C31.761 0.181527 31.7691 0.199119 31.7735 0.217804L38.2564 27.6401C38.2644 27.6759 38.2584 27.7133 38.2397 27.7448C38.221 27.7762 38.1909 27.7993 38.1556 27.8092L11.0327 34.8557C11.0142 34.8608 10.9948 34.862 10.9758 34.8594C10.9568 34.8568 10.9385 34.8504 10.922 34.8406C10.9055 34.8307 10.8912 34.8177 10.8798 34.8022C10.8685 34.7867 10.8603 34.7691 10.8559 34.7504L4.28256 7.57616C4.27454 7.54044 4.28052 7.50299 4.29925 7.47154C4.31799 7.44009 4.34807 7.41704 4.38329 7.40708ZM26.4777 9.07344C26.4739 9.05806 26.467 9.04358 26.4575 9.03084C26.4481 9.01811 26.4362 9.00737 26.4226 8.99923C26.409 8.99108 26.3939 8.9857 26.3782 8.98339C26.3625 8.98108 26.3465 8.9819 26.3312 8.98577L12.606 12.4369C12.5749 12.4447 12.5483 12.4646 12.5318 12.4921C12.5154 12.5195 12.5105 12.5524 12.5183 12.5835L15.9782 26.3433C15.9821 26.3587 15.9889 26.3732 15.9984 26.3859C16.0079 26.3986 16.0197 26.4094 16.0333 26.4175C16.0469 26.4257 16.062 26.431 16.0777 26.4334C16.0934 26.4357 16.1094 26.4349 16.1248 26.431L29.8499 22.9798C29.881 22.972 29.9076 22.9522 29.9241 22.9247C29.9405 22.8972 29.9454 22.8643 29.9376 22.8333L26.4777 9.07344Z" fill="#FCAA47"/>
</g>
<defs>
<filter id="filter0_d_154_9842" x="0.279114" y="0.107544" width="41.9807" height="42.7532" filterUnits="userSpaceOnUse" color-interpolation-filters="sRGB">
<feFlood flood-opacity="0" result="BackgroundImageFix"/>
<feColorMatrix in="SourceAlpha" type="matrix" values="0 0 0 0 0 0 0 0 0 0 0 0 0 0 0 0 0 0 127 0" result="hardAlpha"/>
<feOffset dy="4"/>
<feGaussianBlur stdDeviation="2"/>
<feComposite in2="hardAlpha" operator="out"/>
<feColorMatrix type="matrix" values="0 0 0 0 0 0 0 0 0 0 0 0 0 0 0 0 0 0 0.25 0"/>
<feBlend mode="normal" in2="BackgroundImageFix" result="effect1_dropShadow_154_9842"/>
<feBlend mode="normal" in="SourceGraphic" in2="effect1_dropShadow_154_9842" result="shape"/>
</filter>
</defs>
</svg>
