<svg width="51" height="9" viewBox="0 0 51 9" fill="none" xmlns="http://www.w3.org/2000/svg">
<path d="M35.0065 2.62611C31.6237 5.15117 29.5211 6.69868 28.6987 7.26865C25.5561 9.4528 21.8912 8.46881 19.1898 6.36208C17.5989 5.12321 15.9961 3.89079 14.3813 2.66482C14.3392 2.63259 14.2883 2.60689 14.2317 2.58932C14.1752 2.57176 14.1142 2.5627 14.0526 2.5627C13.991 2.5627 13.93 2.57176 13.8734 2.58932C13.8169 2.60689 13.766 2.63259 13.7239 2.66482C12.3492 3.72732 10.9745 4.78338 9.59979 5.83298C6.12397 8.49139 2.53559 6.99764 0.081813 4.51667C0.0235219 4.45823 -0.00509898 4.38651 0.000746491 4.31342C0.0487716 3.69398 0.500512 3.36383 1.35596 3.32296C1.4184 3.31993 1.48112 3.3264 1.54008 3.34197C1.59903 3.35753 1.65289 3.38184 1.69814 3.41331C3.48557 4.66186 5.2955 6.79438 7.92938 4.73605C10.5467 2.68847 12.0776 1.47219 12.5218 1.08719C13.4628 0.267731 14.4083 0.345164 15.4078 1.09042C17.5809 2.70999 19.7585 4.3231 21.9407 5.92976C23.8317 7.32671 25.9838 6.83311 27.7713 5.55876C30.9619 3.28104 33.0075 1.79051 33.908 1.08719C34.921 0.296767 35.7494 0.309678 36.7984 1.09365C40.3403 3.74131 42.512 5.3555 43.3134 5.93622C45.1999 7.29768 47.2214 6.60081 49.2655 5.52325C49.3214 5.4932 49.3863 5.4729 49.4551 5.46394C49.5239 5.45498 49.5946 5.45762 49.6617 5.47164C51.0304 5.762 50.8953 6.54597 49.9949 7.13959C46.8612 9.20115 43.7636 8.543 41.0442 6.57823C39.2282 5.26624 37.4318 3.94886 35.6549 2.62611C35.6129 2.59488 35.5625 2.57006 35.5068 2.55309C35.4511 2.53613 35.3912 2.52738 35.3307 2.52738C35.2701 2.52738 35.2103 2.53613 35.1546 2.55309C35.0989 2.57006 35.0485 2.59488 35.0065 2.62611Z" fill="white"/>
</svg>
