<svg width="50" height="50" viewBox="0 0 50 50" fill="none" xmlns="http://www.w3.org/2000/svg">
<g id="call_icon">
<circle id="Ellipse 1" cx="25" cy="25" r="25" fill="#FCAA47"/>
<g id="Group">
<path id="Vector" d="M14.6004 23.3324C14.2117 22.2826 13.9303 21.2104 14.0152 20.0712C14.0688 19.3698 14.3324 18.7712 14.8461 18.2798C15.4045 17.7526 15.9317 17.1987 16.4812 16.6626C17.196 15.9567 18.0939 15.9612 18.8087 16.6626C19.251 17.0959 19.6888 17.5382 20.1266 17.9805C20.551 18.4049 20.9799 18.8293 21.4043 19.2581C22.1503 20.0131 22.1548 20.8932 21.4087 21.6437C20.8726 22.1798 20.341 22.7204 19.796 23.2475C19.653 23.386 19.6396 23.5022 19.7156 23.6764C20.073 24.5341 20.5912 25.2981 21.172 26.0129C22.3424 27.4514 23.6648 28.729 25.2418 29.7163C25.5813 29.9263 25.9521 30.0827 26.305 30.2748C26.4882 30.373 26.6088 30.3418 26.7562 30.1899C27.2878 29.6404 27.8329 29.0998 28.3779 28.5593C29.0927 27.8534 29.9862 27.849 30.7009 28.5593C31.5766 29.426 32.4477 30.2971 33.3144 31.1727C34.0426 31.9054 34.0381 32.8033 33.3054 33.5404C32.8096 34.0408 32.2869 34.5143 31.8223 35.037C31.1432 35.7965 30.2855 36.0466 29.3116 35.993C27.8909 35.9171 26.582 35.4435 25.3177 34.8315C22.5122 33.469 20.1177 31.5792 18.1118 29.1936C16.6286 27.4246 15.4045 25.5036 14.6004 23.3324ZM35.9993 24.9317C35.9993 18.9052 31.0941 14 25.0675 14V16.0818C29.9459 16.0818 33.9175 20.0533 33.9175 24.9317H35.9993ZM30.013 24.9317H32.0948C32.0948 21.0585 28.9408 17.9045 25.0675 17.9045V19.9863C26.3899 19.9863 27.6318 20.5001 28.5655 21.4338C29.4992 22.3675 30.013 23.6094 30.013 24.9317Z" fill="white"/>
</g>
</g>
</svg>
