<svg width="111" height="38" viewBox="0 0 111 38" fill="none" xmlns="http://www.w3.org/2000/svg">
<path d="M110.8 7.90002L95 0L78.9 8L62.8 0L46.7 8L30.7 0L14.6 8L0 0.800018V3L14.6 10.3L30.7 2.30002L46.7 10.3L62.8 2.30002L78.9 10.3L95 2.30002L110.8 10.2V7.90002Z" fill="#02778B"/>
<path d="M110.8 17.0001L95 9.1001L78.9 17.1001L62.8 9.1001L46.7 17.1001L30.7 9.1001L14.6 17.1001L0 9.90012V12.1001L14.6 19.4001L30.7 11.4001L46.7 19.4001L62.8 11.4001L78.9 19.4001L95 11.4001L110.8 19.3001V17.0001Z" fill="#02778B"/>
<path d="M110.8 26.1002L95 18.2002L78.9 26.2002L62.8 18.2002L46.7 26.2002L30.7 18.2002L14.6 26.2002L0 19.0002V21.2002L14.6 28.4002L30.7 20.4002L46.7 28.4002L62.8 20.4002L78.9 28.4002L95 20.4002L110.8 28.4002V26.1002Z" fill="#02778B"/>
<path d="M110.8 35.1998L95 27.2998L78.9 35.2998L62.8 27.2998L46.7 35.2998L30.7 27.2998L14.6 35.2998L0 27.9998V30.2998L14.6 37.4998L30.7 29.4998L46.7 37.4998L62.8 29.4998L78.9 37.4998L95 29.4998L110.8 37.3998V35.1998Z" fill="#02778B"/>
</svg>
