<svg width="54" height="75" viewBox="0 0 54 75" fill="none" xmlns="http://www.w3.org/2000/svg">
<path fill-rule="evenodd" clip-rule="evenodd" d="M21.954 0.498944C11.2953 2.00266 1.21577 8.94289 0.250312 23.0547C-0.444821 33.5807 -0.367547 33.6578 9.7505 31.6143C18.2852 29.8792 17.8217 30.3419 17.8217 23.8644C17.8217 18.3507 19.3664 15.2276 23.5758 13.0685C32.9215 8.32597 39.6412 20.8184 39.6412 24.7511C39.6412 29.0695 36.5516 31.3444 26.8198 34.159C18.8644 36.4724 16.3155 39.7498 16.0066 47.9624C15.9293 50.3915 15.6592 52.3193 15.3888 52.6278C14.1917 54.0929 18.3624 55.4424 22.8035 55.0569C36.1269 53.8616 35.9338 53.9772 35.2001 48.9649C34.7366 45.8418 35.0455 45.3791 38.2122 44.4151C45.8587 42.1017 50.2226 37.7063 52.5397 29.9949C58.6028 10.0996 45.2796 -2.73983 21.954 0.498944ZM34.4277 2.81235C43.1168 4.08473 51.2268 15.3048 49.7206 24.0572C48.3304 32.1541 43.9278 37.1279 35.1614 40.4053C30.9134 41.9861 29.5617 43.991 29.5231 48.695V51.3168C24.8116 51.7795 24.5027 51.7795 21.4132 52.2422C21.9538 40.8679 21.1816 39.7112 35.2774 34.7759C44.121 31.6914 46.0519 24.3271 40.2978 15.7674C31.068 2.04121 7.3175 11.1406 11.8359 26.679C12.029 27.4116 12.1448 28.0671 12.0676 28.1442C11.9518 28.2598 6.93124 29.378 6.54505 29.378C6.50643 29.378 6.23614 24.6355 6.00443 23.0161C3.95765 9.09708 18.7486 0.576058 34.4277 2.81235ZM19.7527 59.4523C12.8013 62.614 12.5309 71.0965 19.2892 73.5255C32.767 78.3837 44.9706 70.4024 37.3627 61.7272C35.1229 59.1053 23.6917 57.6401 19.7527 59.4523ZM29.639 61.7657C32.7285 62.2284 35.4318 64.6961 35.4318 67.0095C35.4318 71.2893 24.9276 73.4099 21.143 69.9012C19.2893 68.1662 18.6714 60.1078 29.639 61.7657Z" fill="#FCAA47"/>
</svg>
