<svg width="110" height="19" viewBox="0 0 110 19" fill="none" xmlns="http://www.w3.org/2000/svg">
<path d="M75.4824 4.87293C68.1884 10.6602 63.6547 14.2071 61.8813 15.5134C55.105 20.5194 47.2026 18.2641 41.3777 13.4356C37.9475 10.5962 34.4915 7.7715 31.0095 4.96165C30.9187 4.88778 30.8089 4.82888 30.687 4.78862C30.5651 4.74836 30.4337 4.7276 30.3008 4.7276C30.1679 4.7276 30.0364 4.74836 29.9145 4.78862C29.7926 4.82888 29.6828 4.88778 29.592 4.96165C26.6278 7.39686 23.6637 9.81727 20.6994 12.2229C13.2047 18.3158 5.46735 14.8922 0.176408 9.206C0.0507189 9.07206 -0.0109946 8.90768 0.00160961 8.74015C0.105163 7.32044 1.07922 6.56374 2.92377 6.47008C3.05842 6.46312 3.19366 6.47797 3.32077 6.51363C3.44788 6.5493 3.56403 6.60502 3.6616 6.67715C7.51573 9.53875 11.4184 14.4264 17.0976 9.70881C22.7413 5.01587 26.0421 2.2282 27 1.34581C29.029 -0.532348 31.0676 -0.354877 33.2228 1.35321C37.9086 5.06517 42.6042 8.76234 47.3094 12.4447C51.3868 15.6465 56.0273 14.5152 59.8815 11.5944C66.7613 6.374 71.1721 2.95778 73.1137 1.34581C75.298 -0.465799 77.0842 -0.436207 79.3462 1.36062C86.9833 7.4289 91.666 11.1285 93.394 12.4595C97.4617 15.5799 101.821 13.9827 106.228 11.513C106.349 11.4441 106.489 11.3976 106.637 11.3771C106.785 11.3566 106.938 11.3626 107.082 11.3947C110.034 12.0602 109.742 13.857 107.801 15.2176C101.044 19.9426 94.3648 18.4341 88.5011 13.931C84.5854 10.924 80.7119 7.9046 76.8804 4.87293C76.7899 4.80136 76.6813 4.74446 76.5612 4.70558C76.4411 4.6667 76.3119 4.64664 76.1814 4.64664C76.0509 4.64664 75.9218 4.6667 75.8017 4.70558C75.6816 4.74446 75.573 4.80136 75.4824 4.87293Z" fill="#FCAA47"/>
</svg>
