<svg width="17" height="12" viewBox="0 0 18 18" fill="none" xmlns="http://www.w3.org/2000/svg">
<path d="M9.00259 4.37817C8.39606 4.37808 7.79544 4.49747 7.23505 4.72953C6.67467 4.96159 6.16549 5.30178 5.7366 5.73066C5.30771 6.15954 4.96752 6.66871 4.73546 7.22908C4.50339 7.78946 4.384 8.39007 4.38409 8.99659C4.384 9.60312 4.50339 10.2037 4.73546 10.7641C4.96752 11.3245 5.30771 11.8336 5.7366 12.2625C6.16549 12.6914 6.67467 13.0316 7.23505 13.2637C7.79544 13.4957 8.39606 13.6151 9.00259 13.615C9.60913 13.6151 10.2097 13.4957 10.7701 13.2637C11.3305 13.0316 11.8397 12.6914 12.2686 12.2625C12.6975 11.8336 13.0377 11.3245 13.2697 10.7641C13.5018 10.2037 13.6212 9.60312 13.6211 8.99659C13.6212 8.39007 13.5018 7.78946 13.2697 7.22908C13.0377 6.66871 12.6975 6.15954 12.2686 5.73066C11.8397 5.30178 11.3305 4.96159 10.7701 4.72953C10.2097 4.49747 9.60913 4.37808 9.00259 4.37817ZM9.00259 11.9943C8.40991 11.9941 7.83057 11.8183 7.33783 11.4889C6.84509 11.1595 6.46108 10.6915 6.23433 10.1439C6.00759 9.59629 5.9483 8.99376 6.06397 8.41248C6.17963 7.8312 6.46505 7.29727 6.88415 6.87818C7.30324 6.4591 7.83718 6.17368 8.41847 6.05802C8.99977 5.94236 9.6023 6.00164 10.1499 6.22838C10.6975 6.45512 11.1656 6.83913 11.4949 7.33186C11.8243 7.82459 12.0002 8.40392 12.0003 8.99659C12.0005 9.39031 11.9231 9.78021 11.7726 10.144C11.622 10.5078 11.4012 10.8383 11.1228 11.1167C10.8444 11.3951 10.5138 11.6159 10.15 11.7665C9.78622 11.9171 9.39632 11.9945 9.00259 11.9943Z" fill="#02778B"/>
<path d="M12.7112 0.056539C11.0552 -0.0207096 6.95342 -0.0169597 5.29592 0.056539C3.83942 0.124788 2.55467 0.476532 1.51892 1.51226C-0.21208 3.24323 0.00917045 5.57569 0.00917045 8.99638C0.00917045 12.4973 -0.18583 14.7758 1.51892 16.4805C3.25667 18.2175 5.62292 17.9902 9.00317 17.9902C12.4712 17.9902 13.6682 17.9925 14.8944 17.5177C16.5617 16.8705 17.8202 15.3803 17.9432 12.7036C18.0212 11.0468 18.0167 6.94592 17.9432 5.28845C17.7947 2.12875 16.0989 0.212536 12.7112 0.056539ZM15.3324 15.3353C14.1977 16.47 12.6234 16.3688 8.98142 16.3688C5.23142 16.3688 3.72767 16.4243 2.63042 15.324C1.36667 14.0663 1.59542 12.0466 1.59542 8.98438C1.59542 4.8407 1.17017 1.85651 5.32892 1.64351C6.28442 1.60976 6.56567 1.59851 8.97092 1.59851L9.00467 1.62101C13.0014 1.62101 16.1372 1.20252 16.3254 5.36045C16.3682 6.30918 16.3779 6.59417 16.3779 8.99563C16.3772 12.7021 16.4477 14.2148 15.3324 15.3353Z" fill="#02778B"/>
<path d="M13.8042 5.27516C14.4002 5.27516 14.8834 4.79197 14.8834 4.19593C14.8834 3.59989 14.4002 3.1167 13.8042 3.1167C13.2081 3.1167 12.7249 3.59989 12.7249 4.19593C12.7249 4.79197 13.2081 5.27516 13.8042 5.27516Z" fill="#02778B"/>
</svg>