<svg width="14" height="14" viewBox="0 0 14 14" fill="none" xmlns="http://www.w3.org/2000/svg">
<path d="M3.67231 13.5H0.947701V4.74023H3.67231V13.5ZM2.29536 3.56836C1.44575 3.56836 0.742622 2.83594 0.742622 1.95703C0.742622 1.10742 1.44575 0.404297 2.29536 0.404297C3.17426 0.404297 3.87739 1.10742 3.87739 1.95703C3.87739 2.83594 3.17426 3.56836 2.29536 3.56836ZM13.8383 13.5H11.143V9.25195C11.143 8.22656 11.1137 6.9375 9.70747 6.9375C8.30122 6.9375 8.09614 8.02148 8.09614 9.16406V13.5H5.37153V4.74023H7.97895V5.94141H8.00825C8.38911 5.26758 9.26801 4.53516 10.5864 4.53516C13.3403 4.53516 13.8676 6.35156 13.8676 8.69531V13.5H13.8383Z" fill="#02778B"/>
</svg>
