<svg width="214" height="26" viewBox="0 0 214 26" fill="none" xmlns="http://www.w3.org/2000/svg">
<path id="Arc 2" d="M0.786687 24.2178C0.536936 24.3356 0.429976 24.6336 0.547786 24.8833C0.665596 25.1331 0.963562 25.24 1.21331 25.1222L0.786687 24.2178ZM213.182 24.67L209.862 19.9463L207.431 25.1831L213.182 24.67ZM1.21331 25.1222C2.12873 24.6904 3.0472 24.264 3.9687 23.8431L3.55322 22.9335C2.62799 23.3561 1.7058 23.7842 0.786687 24.2178L1.21331 25.1222ZM9.52563 21.387C11.386 20.5919 13.258 19.8189 15.1414 19.0682L14.7711 18.1393C12.8801 18.893 11.0005 19.6691 9.13264 20.4674L9.52563 21.387ZM20.8126 16.8884C22.7096 16.1859 24.6175 15.506 26.536 14.8489L26.2119 13.9028C24.2857 14.5626 22.37 15.2453 20.4653 15.9506L20.8126 16.8884ZM32.308 12.9509C34.2367 12.343 36.1756 11.7579 38.1243 11.1961L37.8473 10.2352C35.8907 10.7993 33.9439 11.3868 32.0073 11.9972L32.308 12.9509ZM43.9823 9.58502C45.9384 9.0729 47.9039 8.58402 49.8784 8.1187L49.6491 7.14536C47.6665 7.61257 45.693 8.10343 43.729 8.61763L43.9823 9.58502ZM55.8092 6.79789C57.7878 6.38274 59.775 5.99112 61.7705 5.62335L61.5893 4.63991C59.5857 5.00917 57.5904 5.40237 55.6039 5.8192L55.8092 6.79789ZM67.7582 4.59566C69.7542 4.27823 71.7581 3.98456 73.7697 3.71496L73.6368 2.72382C71.6172 2.99451 69.6052 3.28936 67.6011 3.60807L67.7582 4.59566ZM79.8014 2.98144C81.8103 2.76199 83.8264 2.56648 85.8494 2.39521L85.7651 1.39877C83.734 1.57073 81.7098 1.76702 79.6928 1.98736L79.8014 2.98144ZM91.9086 1.95623C93.9251 1.83468 95.9482 1.73719 97.9774 1.66403L97.9413 0.66468C95.9041 0.738131 93.873 0.836012 91.8485 0.958038L91.9086 1.95623ZM104.052 1.5182C105.064 1.50608 106.077 1.5 107.091 1.5V0.5C106.073 0.5 105.056 0.506102 104.04 0.518271L104.052 1.5182ZM107.091 1.5C108.105 1.5 109.118 1.50608 110.13 1.5182L110.142 0.518271C109.126 0.506102 108.109 0.5 107.091 0.5V1.5ZM116.205 1.66403C118.234 1.73719 120.257 1.83468 122.273 1.95623L122.334 0.958038C120.309 0.836012 118.278 0.738131 116.241 0.66468L116.205 1.66403ZM128.333 2.39521C130.356 2.56648 132.372 2.76199 134.381 2.98144L134.489 1.98736C132.472 1.76702 130.448 1.57073 128.417 1.39877L128.333 2.39521ZM140.412 3.71496C142.424 3.98456 144.428 4.27823 146.424 4.59566L146.581 3.60807C144.577 3.28936 142.565 2.99451 140.545 2.72382L140.412 3.71496ZM152.411 5.62335C154.407 5.99112 156.394 6.38274 158.373 6.79789L158.578 5.8192C156.592 5.40237 154.596 5.00917 152.593 4.63991L152.411 5.62335ZM164.304 8.1187C166.278 8.58402 168.244 9.0729 170.2 9.58502L170.453 8.61763C168.489 8.10343 166.516 7.61257 164.533 7.14536L164.304 8.1187ZM176.058 11.1961C178.006 11.7579 179.945 12.343 181.874 12.9509L182.175 11.9972C180.238 11.3868 178.291 10.7993 176.335 10.2352L176.058 11.1961ZM187.646 14.8489C189.565 15.506 191.472 16.1859 193.369 16.8884L193.717 15.9506C191.812 15.2453 189.896 14.5626 187.97 13.9028L187.646 14.8489ZM199.041 19.0682C200.924 19.8189 202.796 20.5919 204.656 21.387L205.049 20.4674C203.181 19.6691 201.302 18.893 199.411 18.1393L199.041 19.0682ZM0.573374 23.7656C0.0738719 24.0012 -0.140047 24.5971 0.0955721 25.0966C0.331191 25.5961 0.927125 25.81 1.42663 25.5744L0.573374 23.7656ZM213.182 24.67L206.543 15.2226L201.681 25.6961L213.182 24.67ZM1.42663 25.5744C2.34019 25.1435 3.25681 24.718 4.17644 24.2979L3.34548 22.4787C2.41839 22.9022 1.49434 23.3311 0.573374 23.7656L1.42663 25.5744ZM9.72212 21.8467C11.5787 21.0533 13.4469 20.2818 15.3265 19.5327L14.586 17.6748C12.6912 18.43 10.8078 19.2077 8.93614 20.0076L9.72212 21.8467ZM20.9862 17.3573C22.8794 16.6562 24.7834 15.9777 26.698 15.3219L26.0499 13.4298C24.1197 14.0909 22.2002 14.775 20.2917 15.4817L20.9862 17.3573ZM32.4583 13.4278C34.3831 12.8211 36.3181 12.2372 38.2628 11.6765L37.7088 9.75478C35.7482 10.3201 33.7975 10.9087 31.857 11.5203L32.4583 13.4278ZM44.1089 10.0687C46.061 9.55763 48.0225 9.06975 49.9931 8.60537L49.5344 6.65869C47.5478 7.12684 45.5704 7.61869 43.6024 8.13393L44.1089 10.0687ZM55.9119 7.28723C57.8864 6.87292 59.8696 6.4821 61.8612 6.11507L61.4987 4.14819C59.491 4.5182 57.4917 4.91219 55.5012 5.32986L55.9119 7.28723ZM67.8367 5.08946C69.8287 4.77266 71.8286 4.47959 73.8361 4.21053L73.5704 2.22825C71.5467 2.49948 69.5307 2.79492 67.5226 3.11428L67.8367 5.08946ZM79.8557 3.47849C81.8606 3.25947 83.8726 3.06435 85.8916 2.89343L85.7229 0.900555C83.6877 1.07285 81.6595 1.26954 79.6385 1.49032L79.8557 3.47849ZM91.9387 2.45532C93.9512 2.33402 95.9702 2.23672 97.9954 2.16371L97.9233 0.165004C95.882 0.238601 93.847 0.336675 91.8184 0.458944L91.9387 2.45532ZM104.058 2.01816C105.068 2.00607 106.079 2 107.091 2V0C106.071 0 105.052 0.00611383 104.034 0.0183069L104.058 2.01816ZM107.091 2C108.103 2 109.114 2.00607 110.124 2.01816L110.148 0.0183069C109.13 0.00611383 108.111 0 107.091 0V2ZM116.187 2.16371C118.212 2.23672 120.231 2.33402 122.243 2.45532L122.364 0.458944C120.335 0.336675 118.3 0.238601 116.259 0.165004L116.187 2.16371ZM128.29 2.89343C130.309 3.06435 132.321 3.25947 134.326 3.47849L134.544 1.49032C132.523 1.26954 130.494 1.07285 128.459 0.900554L128.29 2.89343ZM140.346 4.21053C142.353 4.47958 144.353 4.77266 146.345 5.08946L146.659 3.11428C144.651 2.79492 142.635 2.49948 140.612 2.22825L140.346 4.21053ZM152.321 6.11507C154.312 6.4821 156.296 6.87292 158.27 7.28723L158.681 5.32986C156.69 4.91219 154.691 4.5182 152.683 4.1482L152.321 6.11507ZM164.189 8.60537C166.159 9.06975 168.121 9.55764 170.073 10.0687L170.58 8.13393C168.612 7.61869 166.634 7.12684 164.648 6.65869L164.189 8.60537ZM175.919 11.6765C177.864 12.2372 179.799 12.8211 181.724 13.4278L182.325 11.5203C180.385 10.9087 178.434 10.3201 176.473 9.75479L175.919 11.6765ZM187.484 15.3219C189.399 15.9777 191.303 16.6562 193.196 17.3573L193.89 15.4817C191.982 14.775 190.062 14.0909 188.132 13.4298L187.484 15.3219ZM198.856 19.5327C200.735 20.2818 202.603 21.0533 204.46 21.8467L205.246 20.0076C203.374 19.2077 201.491 18.43 199.596 17.6748L198.856 19.5327Z" fill="#13484E"/>
</svg>
