<svg width="120" height="41" viewBox="0 0 120 41" fill="none" xmlns="http://www.w3.org/2000/svg">
<rect width="120" height="41" fill="#858585"/>
<g id="Education Loan" clip-path="url(#clip0_1_232)">
<rect width="1440" height="3045" transform="translate(-132 -1320)" fill="white"/>
<g id="Use Frispes">
<g id="Frame 4" clip-path="url(#clip1_1_232)">
<g id="Logo" clip-path="url(#clip2_1_232)">
<g id="Group">
<path id="Vector" d="M116.261 24.7257L119.59 26.9615C118.509 28.5649 115.925 31.3156 111.457 31.3156C105.909 31.3156 101.777 26.991 101.777 21.4896C101.777 15.6352 105.953 11.6636 110.99 11.6636C116.057 11.6636 118.539 15.7234 119.342 17.9151L119.78 19.0331L106.727 24.4756C107.72 26.4467 109.267 27.447 111.457 27.447C113.648 27.447 115.166 26.3585 116.261 24.7257ZM106.026 21.1807L114.743 17.5327C114.261 16.3118 112.83 15.4439 111.122 15.4439C108.946 15.4439 105.924 17.3856 106.026 21.1807Z" fill="#FF302F"/>
<path id="Vector_2" d="M72.4456 21.4896C72.4456 27.1528 68.0655 31.3156 62.6925 31.3156C57.3196 31.3156 52.9395 27.1528 52.9395 21.4896C52.9395 15.797 57.3196 11.6636 62.6925 11.6636C68.0655 11.6636 72.4456 15.7823 72.4456 21.4896ZM68.1677 21.4896C68.1677 17.9593 65.6272 15.5322 62.6779 15.5322C59.7286 15.5322 57.1882 17.9593 57.1882 21.4896C57.1882 24.9905 59.7286 27.447 62.6779 27.447C65.6418 27.447 68.1677 24.9758 68.1677 21.4896Z" fill="#FFBA40"/>
<path id="Vector_3" d="M88.8562 12.4285H92.9151V29.9035C92.9151 37.1553 88.6664 40.1414 83.6438 40.1414C78.9133 40.1414 76.0662 36.9347 75.0004 34.3311L78.7235 32.7719C79.3951 34.3752 81.0157 36.2728 83.6438 36.2728C86.8705 36.2728 88.8562 34.2576 88.8562 30.4919V29.0798H88.7102C87.7465 30.2565 85.9069 31.3156 83.5708 31.3156C78.6943 31.3156 74.2266 27.0352 74.2266 21.5191C74.2266 15.9735 78.6943 11.6489 83.5708 11.6489C85.8923 11.6489 87.7465 12.6933 88.7102 13.8407H88.8562V12.4285ZM89.1482 21.5191C89.1482 18.0476 86.8559 15.5175 83.9358 15.5175C80.9866 15.5175 78.5045 18.0476 78.5045 21.5191C78.5045 24.9464 80.9866 27.4323 83.9358 27.4323C86.8559 27.447 89.1482 24.9464 89.1482 21.5191Z" fill="#3686F7"/>
<path id="Vector_4" d="M51.1448 21.4455C51.1448 27.1086 46.7647 31.2715 41.3917 31.2715C36.0188 31.2715 31.6387 27.0939 31.6387 21.4455C31.6387 15.7528 36.0188 11.6047 41.3917 11.6047C46.7647 11.6047 51.1448 15.7528 51.1448 21.4455ZM46.8815 21.4455C46.8815 17.9151 44.341 15.4881 41.3917 15.4881C38.4425 15.4881 35.902 17.9151 35.902 21.4455C35.902 24.9463 38.4425 27.4028 41.3917 27.4028C44.341 27.4028 46.8815 24.9463 46.8815 21.4455Z" fill="#FF302F"/>
<path id="Vector_5" d="M95.4844 1.64636H99.6893V30.4183H95.4844V1.64636Z" fill="#20B15A"/>
<path id="Vector_6" d="M15.6065 27.0056C9.48889 27.0056 4.69996 22.0338 4.69996 15.8705C4.69996 9.70716 9.48889 4.73532 15.6065 4.73532C18.9062 4.73532 21.3152 6.04448 23.0965 7.72137L26.0312 4.76474C23.5491 2.36708 20.2348 0.543091 15.6065 0.543091C7.22583 0.543091 0.173828 7.42718 0.173828 15.8705C0.173828 24.3138 7.22583 31.1979 15.6065 31.1979C20.1326 31.1979 23.5491 29.6975 26.221 26.9027C28.9658 24.1373 29.8127 20.2539 29.8127 17.1061C29.8127 16.1205 29.6959 15.1056 29.5645 14.3554H15.6065V18.4447H25.5493C25.2573 21.0041 24.4543 22.7546 23.2717 23.946C21.8408 25.4023 19.5778 27.0056 15.6065 27.0056Z" fill="#3686F7"/>
</g>
</g>
</g>
</g>
</g>
<defs>
<clipPath id="clip0_1_232">
<rect width="1440" height="3045" fill="white" transform="translate(-132 -1320)"/>
</clipPath>
<clipPath id="clip1_1_232">
<rect width="1175.53" height="66.6333" fill="white" transform="translate(0 -13)"/>
</clipPath>
<clipPath id="clip2_1_232">
<rect width="120" height="39.6694" fill="white" transform="translate(0 0.481934)"/>
</clipPath>
</defs>
</svg>
