<svg width="214" height="27" viewBox="0 0 214 27" fill="none" xmlns="http://www.w3.org/2000/svg">
<path id="Arc 4" d="M0.786687 2.45214C0.536936 2.33433 0.429976 2.03636 0.547786 1.78661C0.665596 1.53686 0.963562 1.4299 1.21331 1.54771L0.786687 2.45214ZM213.182 1.99992L209.862 6.72361L207.431 1.48686L213.182 1.99992ZM1.21331 1.54771C2.12873 1.97952 3.0472 2.4059 3.9687 2.82681L3.55322 3.73642C2.62799 3.3138 1.7058 2.88569 0.786687 2.45214L1.21331 1.54771ZM9.52563 5.28296C11.386 6.07803 13.258 6.85106 15.1414 7.6017L14.7711 8.53064C12.8801 7.77695 11.0005 7.00079 9.13264 6.2025L9.52563 5.28296ZM20.8126 9.78153C22.7096 10.484 24.6175 11.1639 26.536 11.8211L26.2119 12.7671C24.2857 12.1073 22.37 11.4246 20.4653 10.7193L20.8126 9.78153ZM32.308 13.719C34.2367 14.3269 36.1756 14.912 38.1243 15.4738L37.8473 16.4347C35.8907 15.8706 33.9439 15.2831 32.0073 14.6727L32.308 13.719ZM43.9823 17.0849C45.9384 17.597 47.9039 18.0859 49.8784 18.5512L49.6491 19.5246C47.6665 19.0574 45.693 18.5665 43.729 18.0523L43.9823 17.0849ZM55.8092 19.872C57.7878 20.2872 59.775 20.6788 61.7705 21.0466L61.5893 22.03C59.5857 21.6608 57.5904 21.2676 55.6039 20.8507L55.8092 19.872ZM67.7582 22.0743C69.7542 22.3917 71.7581 22.6854 73.7697 22.955L73.6368 23.9461C71.6172 23.6754 69.6052 23.3806 67.6011 23.0618L67.7582 22.0743ZM79.8014 23.6885C81.8103 23.9079 83.8264 24.1034 85.8494 24.2747L85.7651 25.2711C83.734 25.0992 81.7098 24.9029 79.6928 24.6826L79.8014 23.6885ZM91.9086 24.7137C93.9251 24.8352 95.9482 24.9327 97.9774 25.0059L97.9413 26.0052C95.9041 25.9318 93.873 25.8339 91.8485 25.7119L91.9086 24.7137ZM104.052 25.1517C105.064 25.1638 106.077 25.1699 107.091 25.1699V26.1699C106.073 26.1699 105.056 26.1638 104.04 26.1517L104.052 25.1517ZM107.091 25.1699C108.105 25.1699 109.118 25.1638 110.13 25.1517L110.142 26.1517C109.126 26.1638 108.109 26.1699 107.091 26.1699V25.1699ZM116.205 25.0059C118.234 24.9327 120.257 24.8352 122.273 24.7137L122.334 25.7119C120.309 25.8339 118.278 25.9318 116.241 26.0052L116.205 25.0059ZM128.333 24.2747C130.356 24.1034 132.372 23.9079 134.381 23.6885L134.489 24.6826C132.472 24.9029 130.448 25.0992 128.417 25.2711L128.333 24.2747ZM140.412 22.955C142.424 22.6854 144.428 22.3917 146.424 22.0743L146.581 23.0618C144.577 23.3806 142.565 23.6754 140.545 23.9461L140.412 22.955ZM152.411 21.0466C154.407 20.6788 156.394 20.2872 158.373 19.872L158.578 20.8507C156.592 21.2676 154.596 21.6607 152.593 22.03L152.411 21.0466ZM164.304 18.5512C166.278 18.0859 168.244 17.597 170.2 17.0849L170.453 18.0523C168.489 18.5665 166.516 19.0574 164.533 19.5246L164.304 18.5512ZM176.058 15.4738C178.006 14.912 179.945 14.3269 181.874 13.719L182.175 14.6727C180.238 15.2831 178.291 15.8706 176.335 16.4347L176.058 15.4738ZM187.646 11.8211C189.565 11.1639 191.472 10.484 193.369 9.78153L193.717 10.7193C191.812 11.4246 189.896 12.1073 187.97 12.7671L187.646 11.8211ZM199.041 7.6017C200.924 6.85106 202.796 6.07803 204.656 5.28296L205.049 6.2025C203.181 7.00079 201.302 7.77695 199.411 8.53064L199.041 7.6017ZM0.573374 2.90435C0.0738719 2.66873 -0.140047 2.0728 0.0955721 1.5733C0.331191 1.07379 0.927125 0.859875 1.42663 1.09549L0.573374 2.90435ZM213.182 1.99992L206.543 11.4473L201.681 0.973797L213.182 1.99992ZM1.42663 1.09549C2.34019 1.52643 3.25681 1.95195 4.17644 2.37201L3.34548 4.19122C2.41839 3.76775 1.49434 3.33878 0.573374 2.90435L1.42663 1.09549ZM9.72212 4.82319C11.5787 5.61665 13.4469 6.38811 15.3265 7.13723L14.586 8.9951C12.6912 8.23989 10.8078 7.46218 8.93614 6.66228L9.72212 4.82319ZM20.9862 9.31265C22.8794 10.0137 24.7834 10.6922 26.698 11.348L26.0499 13.2401C24.1197 12.579 22.2002 11.8949 20.2917 11.1882L20.9862 9.31265ZM32.4583 13.2421C34.3831 13.8488 36.3181 14.4327 38.2628 14.9934L37.7088 16.9151C35.7482 16.3499 33.7975 15.7612 31.857 15.1496L32.4583 13.2421ZM44.1089 16.6012C46.061 17.1123 48.0225 17.6002 49.9931 18.0646L49.5344 20.0112C47.5478 19.5431 45.5704 19.0512 43.6024 18.536L44.1089 16.6012ZM55.9119 19.3827C57.8864 19.797 59.8696 20.1878 61.8612 20.5548L61.4987 22.5217C59.491 22.1517 57.4917 21.7577 55.5012 21.3401L55.9119 19.3827ZM67.8367 21.5805C69.8287 21.8973 71.8286 22.1903 73.8361 22.4594L73.5704 24.4417C71.5467 24.1704 69.5307 23.875 67.5226 23.5556L67.8367 21.5805ZM79.8557 23.1914C81.8606 23.4104 83.8726 23.6056 85.8916 23.7765L85.7229 25.7694C83.6877 25.5971 81.6595 25.4004 79.6385 25.1796L79.8557 23.1914ZM91.9387 24.2146C93.9512 24.3359 95.9702 24.4332 97.9954 24.5062L97.9233 26.5049C95.882 26.4313 93.847 26.3332 91.8184 26.211L91.9387 24.2146ZM104.058 24.6518C105.068 24.6639 106.079 24.6699 107.091 24.6699V26.6699C106.071 26.6699 105.052 26.6638 104.034 26.6516L104.058 24.6518ZM107.091 24.6699C108.103 24.6699 109.114 24.6639 110.124 24.6518L110.148 26.6516C109.13 26.6638 108.111 26.6699 107.091 26.6699V24.6699ZM116.187 24.5062C118.212 24.4332 120.231 24.3359 122.243 24.2146L122.364 26.211C120.335 26.3332 118.3 26.4313 116.259 26.5049L116.187 24.5062ZM128.29 23.7765C130.309 23.6056 132.321 23.4104 134.326 23.1914L134.544 25.1796C132.523 25.4004 130.494 25.5971 128.459 25.7694L128.29 23.7765ZM140.346 22.4594C142.353 22.1903 144.353 21.8973 146.345 21.5805L146.659 23.5556C144.651 23.875 142.635 24.1704 140.612 24.4417L140.346 22.4594ZM152.321 20.5548C154.312 20.1878 156.296 19.797 158.27 19.3827L158.681 21.3401C156.69 21.7577 154.691 22.1517 152.683 22.5217L152.321 20.5548ZM164.189 18.0646C166.159 17.6002 168.121 17.1123 170.073 16.6012L170.58 18.536C168.612 19.0512 166.634 19.5431 164.648 20.0112L164.189 18.0646ZM175.919 14.9934C177.864 14.4327 179.799 13.8488 181.724 13.2421L182.325 15.1496C180.385 15.7612 178.434 16.3499 176.473 16.9151L175.919 14.9934ZM187.484 11.348C189.399 10.6922 191.303 10.0137 193.196 9.31265L193.89 11.1882C191.982 11.8949 190.062 12.579 188.132 13.2401L187.484 11.348ZM198.856 7.13724C200.735 6.38811 202.603 5.61665 204.46 4.82319L205.246 6.66228C203.374 7.46218 201.491 8.23989 199.596 8.99511L198.856 7.13724Z" fill="#13484E"/>
</svg>
