<svg width="141" height="67" viewBox="0 0 141 67" fill="none" xmlns="http://www.w3.org/2000/svg">
<g id="Logo">
<g id="Group">
<path id="Vector" d="M75.0852 20.7537H67.5879V46.9578H75.0852V20.7537Z" fill="#32325D"/>
<path id="Vector_2" fill-rule="evenodd" clip-rule="evenodd" d="M59.5528 22.9698L59.0749 20.7536H52.623V46.9577H60.0905V29.1989C61.8528 26.8929 64.8397 27.3122 65.7657 27.6416V20.7536C64.8099 20.3943 61.3151 19.7354 59.5528 22.9698Z" fill="#32325D"/>
<path id="Vector_3" fill-rule="evenodd" clip-rule="evenodd" d="M124.4 33.9605C124.4 26.2939 120.696 20.2445 113.617 20.2445C106.508 20.2445 102.207 26.2939 102.207 33.9006C102.207 42.9148 107.285 47.4668 114.573 47.4668C118.128 47.4668 120.816 46.6582 122.847 45.5202V39.5307C120.816 40.5489 118.486 41.1778 115.529 41.1778C112.632 41.1778 110.063 40.1596 109.734 36.6258H124.34C124.34 36.2365 124.4 34.6792 124.4 33.9605ZM109.645 31.1155C109.645 27.7314 111.706 26.3239 113.587 26.3239C115.409 26.3239 117.351 27.7314 117.351 31.1155H109.645Z" fill="#32325D"/>
<path id="Vector_4" fill-rule="evenodd" clip-rule="evenodd" d="M90.6774 20.2445C87.7501 20.2445 85.8684 21.6221 84.8229 22.5804L84.4346 20.7237H77.8633V55.6425L85.3307 54.0553L85.3606 45.5801C86.4359 46.3588 88.019 47.4668 90.6475 47.4668C95.9942 47.4668 100.863 43.1544 100.863 33.661C100.833 24.9762 95.9046 20.2445 90.6774 20.2445ZM88.8852 40.8784C87.1229 40.8784 86.0774 40.2495 85.3606 39.4708L85.3307 28.3603C86.1073 27.4918 87.1826 26.8929 88.8852 26.8929C91.6033 26.8929 93.4851 29.9475 93.4851 33.8706C93.4851 37.8836 91.6332 40.8784 88.8852 40.8784Z" fill="#32325D"/>
<path id="Vector_5" fill-rule="evenodd" clip-rule="evenodd" d="M24.4262 28.3603C24.4262 27.1923 25.382 26.7431 26.9651 26.7431C29.2352 26.7431 32.1027 27.4319 34.3728 28.6598V21.6221C31.8936 20.6338 29.4443 20.2445 26.9651 20.2445C20.9015 20.2445 16.8691 23.4189 16.8691 28.7197C16.8691 36.9852 28.2196 35.6675 28.2196 39.2312C28.2196 40.6088 27.0248 41.058 25.3521 41.058C22.8729 41.058 19.7068 40.0398 17.1977 38.6622V45.7897C19.9756 46.9876 22.7833 47.4968 25.3521 47.4968C31.565 47.4968 35.8364 44.4122 35.8364 39.0516C35.8065 30.1272 24.4262 31.7144 24.4262 28.3603Z" fill="#32325D"/>
<path id="Vector_6" fill-rule="evenodd" clip-rule="evenodd" d="M44.6189 14.255L37.3307 15.8123L37.3008 39.8003C37.3008 44.2325 40.6163 47.4968 45.037 47.4968C47.4863 47.4968 49.2785 47.0476 50.2642 46.5085V40.4292C49.3084 40.8185 44.589 42.1961 44.589 37.7638V27.1324H50.2642V20.7536H44.589L44.6189 14.255Z" fill="#32325D"/>
<path id="Vector_7" fill-rule="evenodd" clip-rule="evenodd" d="M67.5879 18.4776L75.0852 16.8605V10.7811L67.5879 12.3683V18.4776Z" fill="#32325D"/>
</g>
</g>
</svg>
