<svg width="50" height="50" viewBox="0 0 50 50" fill="none" xmlns="http://www.w3.org/2000/svg">
<g id="Frame" clip-path="url(#clip0_1463_3619)">
<g id="Group">
<g id="Group_2">
<path id="Vector" d="M3.68884 45.0821H5.32819V46.7116C5.32177 47.1398 5.40106 47.565 5.5614 47.9621C5.72173 48.3592 5.95987 48.7202 6.2618 49.0239C6.56782 49.3348 6.93295 49.5814 7.33569 49.749C7.73843 49.9167 8.17064 50.0021 8.60688 50.0001H35.6561C36.5256 50.0001 37.3596 49.6547 37.9744 49.0398C38.5893 48.425 38.9347 47.591 38.9347 46.7215V36.8854C38.9347 36.668 38.8484 36.4595 38.6947 36.3058C38.541 36.1521 38.3325 36.0657 38.1151 36.0657C37.8977 36.0657 37.6892 36.1521 37.5355 36.3058C37.3818 36.4595 37.2954 36.668 37.2954 36.8854V46.7215C37.2954 47.1562 37.1227 47.5732 36.8153 47.8807C36.5078 48.1881 36.0908 48.3608 35.6561 48.3608H8.60688C8.3875 48.3619 8.17014 48.3189 7.96767 48.2344C7.7652 48.1499 7.58175 48.0257 7.42819 47.869C7.27851 47.7183 7.16062 47.5391 7.08149 47.3419C7.00236 47.1448 6.96361 46.9338 6.96753 46.7215V45.0821H30.738C31.6076 45.0821 32.4415 44.7367 33.0564 44.1218C33.6713 43.5069 34.0167 42.673 34.0167 41.8034V38.7379C34.0167 38.5205 33.9304 38.312 33.7766 38.1583C33.6229 38.0045 33.4144 37.9182 33.197 37.9182C32.9796 37.9182 32.7712 38.0045 32.6174 38.1583C32.4637 38.312 32.3774 38.5205 32.3774 38.7379V41.8034C32.3774 42.2382 32.2047 42.6552 31.8972 42.9626C31.5898 43.2701 31.1728 43.4428 30.738 43.4428H3.68884C3.25406 43.4428 2.83709 43.2701 2.52965 42.9626C2.22222 42.6552 2.0495 42.2382 2.0495 41.8034V4.09851C2.0495 3.66373 2.22222 3.24676 2.52965 2.93932C2.83709 2.63188 3.25406 2.45917 3.68884 2.45917H30.738C31.1728 2.45917 31.5898 2.63188 31.8972 2.93932C32.2047 3.24676 32.3774 3.66373 32.3774 4.09851V10.6559C32.3774 10.8733 32.4637 11.0818 32.6174 11.2355C32.7712 11.3892 32.9796 11.4756 33.197 11.4756C33.4144 11.4756 33.6229 11.3892 33.7766 11.2355C33.9304 11.0818 34.0167 10.8733 34.0167 10.6559V4.09851C34.0167 3.22895 33.6713 2.395 33.0564 1.78013C32.4415 1.16526 31.6076 0.819824 30.738 0.819824H3.68884C2.81928 0.819824 1.98534 1.16526 1.37046 1.78013C0.755589 2.395 0.410156 3.22895 0.410156 4.09851L0.410156 41.8034C0.410156 42.673 0.755589 43.5069 1.37046 44.1218C1.98534 44.7367 2.81928 45.0821 3.68884 45.0821Z" fill="white"/>
<path id="Vector_2" d="M4.50913 5.73769C4.29173 5.73769 4.08325 5.82405 3.92953 5.97777C3.77581 6.13149 3.68945 6.33997 3.68945 6.55737V13.9344C3.68945 14.1518 3.77581 14.3603 3.92953 14.514C4.08325 14.6677 4.29173 14.7541 4.50913 14.7541H7.78781C8.0052 14.7541 8.21369 14.6677 8.36741 14.514C8.52113 14.3603 8.60749 14.1518 8.60749 13.9344C8.60749 13.717 8.52113 13.5085 8.36741 13.3548C8.21369 13.2011 8.0052 13.1147 7.78781 13.1147H5.3288V6.55737C5.3288 6.33997 5.24244 6.13149 5.08872 5.97777C4.935 5.82405 4.72652 5.73769 4.50913 5.73769ZM15.9845 10.2459C15.9845 7.71802 14.5444 5.73769 12.7058 5.73769C10.8673 5.73769 9.42716 7.71802 9.42716 10.2459C9.42716 12.7738 10.8673 14.7541 12.7058 14.7541C14.5444 14.7541 15.9845 12.7738 15.9845 10.2459ZM11.0665 10.2459C11.0665 8.55573 11.9304 7.37704 12.7058 7.37704C13.4813 7.37704 14.3452 8.55573 14.3452 10.2459C14.3452 11.9361 13.4813 13.1147 12.7058 13.1147C11.9304 13.1147 11.0665 11.9369 11.0665 10.2459ZM20.8608 6.29835C20.8069 6.13436 20.7026 5.99157 20.5627 5.89034C20.4229 5.78912 20.2547 5.73462 20.0821 5.73462C19.9095 5.73462 19.7412 5.78912 19.6014 5.89034C19.4616 5.99157 19.3573 6.13436 19.3034 6.29835L16.8444 13.6754C16.7757 13.8819 16.7918 14.1073 16.8893 14.3019C16.9867 14.4965 17.1575 14.6444 17.364 14.7131C17.5706 14.7818 17.7959 14.7656 17.9905 14.6682C18.1851 14.5707 18.3331 14.4 18.4017 14.1934L18.7616 13.1147H21.4042L21.764 14.1934C21.7981 14.2957 21.8519 14.3902 21.9224 14.4717C21.993 14.5532 22.0789 14.6199 22.1753 14.6682C22.2716 14.7164 22.3765 14.7452 22.484 14.7529C22.5915 14.7607 22.6995 14.7471 22.8017 14.7131C22.904 14.6791 22.9986 14.6253 23.08 14.5547C23.1615 14.4841 23.2282 14.3982 23.2765 14.3019C23.3248 14.2055 23.3536 14.1006 23.3613 13.9931C23.369 13.8856 23.3554 13.7777 23.3214 13.6754L20.8608 6.29835ZM19.3075 11.4754L20.0829 9.14917L20.8583 11.4754H19.3075ZM26.6403 13.9344V9.72048L29.2026 14.3328C29.2908 14.4915 29.4292 14.6164 29.5961 14.6879C29.763 14.7594 29.949 14.7735 30.1247 14.7279C30.3005 14.6823 30.4561 14.5797 30.5673 14.436C30.6784 14.2924 30.7386 14.116 30.7386 13.9344V6.55737C30.7386 6.33997 30.6523 6.13149 30.4986 5.97777C30.3448 5.82405 30.1364 5.73769 29.919 5.73769C29.7016 5.73769 29.4931 5.82405 29.3394 5.97777C29.1856 6.13149 29.0993 6.33997 29.0993 6.55737V10.7713L26.537 6.159C26.4488 6.00031 26.3103 5.8754 26.1434 5.80388C25.9765 5.73237 25.7906 5.7183 25.6148 5.76388C25.4391 5.80946 25.2834 5.91212 25.1723 6.05573C25.0612 6.19934 25.0009 6.37579 25.0009 6.55737V13.9344C25.0009 14.1518 25.0873 14.3603 25.241 14.514C25.3947 14.6677 25.6032 14.7541 25.8206 14.7541C26.038 14.7541 26.2465 14.6677 26.4002 14.514C26.5539 14.3603 26.6403 14.1518 26.6403 13.9344ZM4.50913 20.4918H15.1649C15.3823 20.4918 15.5907 20.4054 15.7445 20.2517C15.8982 20.098 15.9845 19.8895 15.9845 19.6721C15.9845 19.4547 15.8982 19.2462 15.7445 19.0925C15.5907 18.9388 15.3823 18.8524 15.1649 18.8524H4.50913C4.29173 18.8524 4.08325 18.9388 3.92953 19.0925C3.77581 19.2462 3.68945 19.4547 3.68945 19.6721C3.68945 19.8895 3.77581 20.098 3.92953 20.2517C4.08325 20.4054 4.29173 20.4918 4.50913 20.4918ZM4.50913 24.5901H15.1649C15.3823 24.5901 15.5907 24.5038 15.7445 24.3501C15.8982 24.1964 15.9845 23.9879 15.9845 23.7705C15.9845 23.5531 15.8982 23.3446 15.7445 23.1909C15.5907 23.0372 15.3823 22.9508 15.1649 22.9508H4.50913C4.29173 22.9508 4.08325 23.0372 3.92953 23.1909C3.77581 23.3446 3.68945 23.5531 3.68945 23.7705C3.68945 23.9879 3.77581 24.1964 3.92953 24.3501C4.08325 24.5038 4.29173 24.5901 4.50913 24.5901ZM4.50913 28.6885H15.1649C15.3823 28.6885 15.5907 28.6022 15.7445 28.4484C15.8982 28.2947 15.9845 28.0862 15.9845 27.8688C15.9845 27.6514 15.8982 27.443 15.7445 27.2892C15.5907 27.1355 15.3823 27.0492 15.1649 27.0492H4.50913C4.29173 27.0492 4.08325 27.1355 3.92953 27.2892C3.77581 27.443 3.68945 27.6514 3.68945 27.8688C3.68945 28.0862 3.77581 28.2947 3.92953 28.4484C4.08325 28.6022 4.29173 28.6885 4.50913 28.6885ZM18.4436 19.6721C18.4436 19.8895 18.5299 20.098 18.6836 20.2517C18.8373 20.4054 19.0458 20.4918 19.2632 20.4918H26.919C27.1364 20.4918 27.3448 20.4054 27.4986 20.2517C27.6523 20.098 27.7386 19.8895 27.7386 19.6721C27.7386 19.4547 27.6523 19.2462 27.4986 19.0925C27.3448 18.9388 27.1364 18.8524 26.919 18.8524H19.2632C19.0458 18.8524 18.8373 18.9388 18.6836 19.0925C18.5299 19.2462 18.4436 19.4547 18.4436 19.6721ZM19.2632 24.5901H22.4436C22.6609 24.5901 22.8694 24.5038 23.0231 24.3501C23.1769 24.1964 23.2632 23.9879 23.2632 23.7705C23.2632 23.5531 23.1769 23.3446 23.0231 23.1909C22.8694 23.0372 22.6609 22.9508 22.4436 22.9508H19.2632C19.0458 22.9508 18.8373 23.0372 18.6836 23.1909C18.5299 23.3446 18.4436 23.5531 18.4436 23.7705C18.4436 23.9879 18.5299 24.1964 18.6836 24.3501C18.8373 24.5038 19.0458 24.5901 19.2632 24.5901ZM19.2632 28.6885H22.5993C22.8167 28.6885 23.0252 28.6022 23.1789 28.4484C23.3326 28.2947 23.419 28.0862 23.419 27.8688C23.419 27.6514 23.3326 27.443 23.1789 27.2892C23.0252 27.1355 22.8167 27.0492 22.5993 27.0492H19.2632C19.0458 27.0492 18.8373 27.1355 18.6836 27.2892C18.5299 27.443 18.4436 27.6514 18.4436 27.8688C18.4436 28.0862 18.5299 28.2947 18.6836 28.4484C18.8373 28.6022 19.0458 28.6885 19.2632 28.6885ZM4.50913 32.7869H15.1649C15.3823 32.7869 15.5907 32.7005 15.7445 32.5468C15.8982 32.3931 15.9845 32.1846 15.9845 31.9672C15.9845 31.7498 15.8982 31.5413 15.7445 31.3876C15.5907 31.2339 15.3823 31.1475 15.1649 31.1475H4.50913C4.29173 31.1475 4.08325 31.2339 3.92953 31.3876C3.77581 31.5413 3.68945 31.7498 3.68945 31.9672C3.68945 32.1846 3.77581 32.3931 3.92953 32.5468C4.08325 32.7005 4.29173 32.7869 4.50913 32.7869ZM24.8944 31.9672C24.8944 31.7498 24.808 31.5413 24.6543 31.3876C24.5006 31.2339 24.2921 31.1475 24.0747 31.1475H19.2632C19.0458 31.1475 18.8373 31.2339 18.6836 31.3876C18.5299 31.5413 18.4436 31.7498 18.4436 31.9672C18.4436 32.1846 18.5299 32.3931 18.6836 32.5468C18.8373 32.7005 19.0458 32.7869 19.2632 32.7869H24.0747C24.2921 32.7869 24.5006 32.7005 24.6543 32.5468C24.808 32.3931 24.8944 32.1846 24.8944 31.9672ZM5.3288 39.3442H7.89683C8.26281 39.3455 8.62181 39.2441 8.93314 39.0517C9.24447 38.8593 9.49568 38.5836 9.65831 38.2557C9.68558 38.1938 9.73243 38.1425 9.79166 38.1098C9.85089 38.0771 9.91923 38.0647 9.98617 38.0746C10.1239 38.0828 10.2403 38.1787 10.2731 38.3123L10.4181 38.818C10.5187 39.1809 10.7224 39.5067 11.0045 39.7561C11.2866 40.0055 11.635 40.1676 12.0075 40.2229C12.379 40.2839 12.7602 40.2357 13.1049 40.0843C13.4496 39.9328 13.7429 39.6846 13.9493 39.3697L14.8927 37.9549C14.9225 37.9092 14.9632 37.8717 15.0112 37.8458C15.0591 37.8198 15.1128 37.8062 15.1673 37.8062C15.2218 37.8062 15.2755 37.8198 15.3235 37.8458C15.3714 37.8717 15.4121 37.9092 15.4419 37.9549L15.7829 38.468C15.9627 38.7379 16.2065 38.9591 16.4925 39.112C16.7786 39.2648 17.0979 39.3446 17.4222 39.3442H20.0829C20.3003 39.3442 20.5088 39.2579 20.6625 39.1042C20.8162 38.9505 20.9026 38.742 20.9026 38.5246C20.9026 38.3072 20.8162 38.0987 20.6625 37.945C20.5088 37.7913 20.3003 37.7049 20.0829 37.7049H17.419C17.3648 37.705 17.3114 37.6916 17.2636 37.666C17.2158 37.6404 17.1751 37.6034 17.1452 37.5582L16.8042 37.0492C16.6248 36.7786 16.3812 36.5567 16.0951 36.4032C15.8091 36.2497 15.4895 36.1694 15.1649 36.1694C14.8402 36.1694 14.5206 36.2497 14.2346 36.4032C13.9486 36.5567 13.705 36.7786 13.5255 37.0492L12.5829 38.4606C12.5485 38.5138 12.4994 38.5559 12.4415 38.5818C12.3837 38.6077 12.3195 38.6163 12.2569 38.6065C12.1943 38.5967 12.1359 38.5689 12.0887 38.5266C12.0415 38.4843 12.0076 38.4292 11.9911 38.368L11.8468 37.8623C11.7386 37.4802 11.5173 37.1398 11.2121 36.8859C10.9068 36.632 10.5318 36.4764 10.1364 36.4395C9.74101 36.4027 9.34374 36.4865 8.99682 36.6797C8.64991 36.8729 8.36959 37.1666 8.19273 37.5221C8.16552 37.5773 8.12334 37.6237 8.07102 37.656C8.01869 37.6883 7.95833 37.7053 7.89683 37.7049H5.3288C5.11141 37.7049 4.90292 37.7913 4.7492 37.945C4.59548 38.0987 4.50913 38.3072 4.50913 38.5246C4.50913 38.742 4.59548 38.9505 4.7492 39.1042C4.90292 39.2579 5.11141 39.3442 5.3288 39.3442Z" fill="white"/>
<path id="Vector_3" d="M23.3607 39.3443H27.8968C28.2496 39.3437 28.5891 39.2093 28.8468 38.9681C30.7131 37.2468 34.5443 34.341 39.2336 34.2451C39.5925 34.2437 39.9372 34.1045 40.1964 33.8563C40.4557 33.6082 40.6099 33.27 40.6271 32.9115C40.6418 32.6099 41.0197 25.4878 43.0861 21.6148L49.4959 9.58202C49.5981 9.39006 49.6198 9.16538 49.5564 8.9574C49.4929 8.74942 49.3494 8.57518 49.1574 8.473C48.9655 8.37083 48.7408 8.34909 48.5328 8.41258C48.3248 8.47607 48.1506 8.61957 48.0484 8.81153L42.0246 20.123L38.9148 18.4673L34.7918 16.2697L42.3771 2.02464C42.4348 1.92936 42.4724 1.82331 42.4877 1.71299C42.5031 1.60267 42.4957 1.49038 42.4662 1.38298C42.4367 1.27558 42.3856 1.17532 42.3161 1.08832C42.2465 1.00133 42.1599 0.929422 42.0617 0.876995C41.9634 0.824568 41.8555 0.79272 41.7445 0.783395C41.6335 0.77407 41.5218 0.787465 41.4161 0.82276C41.3105 0.858056 41.2131 0.914512 41.13 0.988682C41.0469 1.06285 40.9798 1.15318 40.9328 1.25415L32.9582 16.2181C30.8927 20.0935 25.1918 24.3755 24.95 24.5558C24.6628 24.7705 24.4688 25.0871 24.4078 25.4405C24.3468 25.7939 24.4235 26.1572 24.6222 26.4558C27.2459 30.5476 26.8033 35.6796 26.4894 37.705H23.3607C23.1433 37.705 22.9348 37.7913 22.7811 37.945C22.6274 38.0988 22.541 38.3073 22.541 38.5246C22.541 38.742 22.6274 38.9505 22.7811 39.1042C22.9348 39.258 23.1433 39.3443 23.3607 39.3443ZM26.1041 25.7378C27.0812 24.9894 31.7287 21.3304 33.9918 17.705L38.7705 20.246L41.2804 21.5845C39.5304 25.4845 39.082 31.3853 39.0058 32.6148C35.6562 32.8345 32.4472 34.0435 29.7853 36.0886L32.4361 31.0582C33.2161 31.2525 34.0402 31.1554 34.7537 30.7852C35.4673 30.415 36.0212 29.7972 36.3116 29.0476C36.6019 28.2981 36.6088 27.4683 36.3309 26.714C36.053 25.9598 35.5094 25.3328 34.8021 24.9509C34.0948 24.5689 33.2724 24.4582 32.4893 24.6394C31.7062 24.8207 31.0161 25.2815 30.5486 25.9354C30.081 26.5893 29.8682 27.3913 29.9499 28.191C30.0317 28.9906 30.4025 29.733 30.9927 30.2787L28.3607 35.264C28.5633 31.9356 27.7782 28.6216 26.1041 25.7378ZM32.4263 29.3156C32.0426 29.1107 31.756 28.7618 31.6295 28.3456C31.5031 27.9294 31.5472 27.4801 31.7521 27.0964C31.957 26.7127 32.3059 26.4261 32.7221 26.2997C33.1383 26.1732 33.5876 26.2173 33.9713 26.4222C34.355 26.6273 34.6415 26.9764 34.7678 27.3928C34.8941 27.8091 34.8498 28.2586 34.6447 28.6423C34.4396 29.026 34.0905 29.3125 33.6741 29.4387C33.2578 29.565 32.8083 29.5207 32.4246 29.3156H32.4263Z" fill="white"/>
</g>
</g>
</g>
<defs>
<clipPath id="clip0_1463_3619">
<rect width="50" height="50" fill="white"/>
</clipPath>
</defs>
</svg>
