<svg width="163" height="41" viewBox="0 0 163 41" fill="none" xmlns="http://www.w3.org/2000/svg">
<g clip-path="url(#clip0_790_356)">
<path d="M4.06892 27.4561H0.826914C0.715669 27.4709 0.602498 27.4599 0.496203 27.4239C0.389909 27.3879 0.293356 27.3279 0.214055 27.2485C0.134754 27.1691 0.074843 27.0725 0.038982 26.9662C0.00312098 26.8599 -0.00772337 26.7468 0.00729248 26.6356V3.16779C-0.0075171 3.05671 0.00348152 2.94371 0.0394346 2.83756C0.0753877 2.73141 0.135328 2.63497 0.214603 2.55573C0.293878 2.47648 0.390356 2.41657 0.496546 2.38063C0.602737 2.34469 0.715784 2.3337 0.826914 2.3485H3.75639C4.30362 2.3485 4.66843 2.53083 4.85084 2.89551L12.7418 17.6939H12.8975V3.16901C12.8824 3.05772 12.8933 2.94445 12.9292 2.83804C12.9651 2.73163 13.0252 2.63495 13.1046 2.55554C13.184 2.47613 13.2808 2.41613 13.3872 2.38021C13.4937 2.3443 13.607 2.33345 13.7183 2.3485H16.9603C17.0716 2.33365 17.1847 2.34466 17.291 2.38067C17.3973 2.41667 17.4939 2.4767 17.5732 2.55609C17.6525 2.63547 17.7124 2.73208 17.7483 2.83838C17.7841 2.94469 17.795 3.05783 17.7799 3.16901V26.6356C17.795 26.7468 17.7841 26.8599 17.7483 26.9662C17.7124 27.0725 17.6525 27.1691 17.5732 27.2485C17.4939 27.3279 17.3973 27.3879 17.291 27.4239C17.1847 27.4599 17.0716 27.4709 16.9603 27.4561H14.1062C13.8436 27.4672 13.5837 27.3988 13.3607 27.2597C13.1376 27.1207 12.9617 26.9176 12.8561 26.6769L5.04541 12.1557H4.88975V26.638C4.9044 26.7491 4.89323 26.8621 4.85712 26.9682C4.82101 27.0743 4.76093 27.1707 4.68154 27.2498C4.60214 27.3289 4.50558 27.3887 4.39933 27.4245C4.29309 27.4602 4.18002 27.4711 4.06892 27.4561Z" fill="#02778B"/>
<path d="M37.1554 27.4573H28.5214C26.4638 27.4573 24.8757 26.9103 23.7569 25.8163C22.6381 24.7223 22.0779 23.1477 22.0763 21.0926V13.9073C22.0763 11.8522 22.6365 10.2776 23.7569 9.18362C24.8773 8.08961 26.4654 7.5426 28.5214 7.5426H31.6077C33.6637 7.5426 35.2522 8.08961 36.3734 9.18362C37.4946 10.2776 38.0544 11.8522 38.0528 13.9073V18.8669C38.0678 18.978 38.057 19.0912 38.0211 19.1975C37.9853 19.3038 37.9254 19.4004 37.8461 19.4798C37.7668 19.5592 37.6702 19.6192 37.5639 19.6552C37.4576 19.6912 37.3444 19.7022 37.2332 19.6874H27.4282C27.1156 19.6874 26.9588 19.8296 26.9588 20.1165V20.9759C26.9588 21.7863 27.1347 22.3653 27.4865 22.7129C27.8384 23.0606 28.431 23.2364 29.2644 23.2405H37.1554C37.7026 23.2405 37.9762 23.527 37.9762 24.0999V26.6769C37.9987 26.8947 37.9354 27.1127 37.7999 27.2847C37.6144 27.4211 37.3843 27.4827 37.1554 27.4573ZM27.4269 16.3676H32.7399C32.7892 16.3747 32.8395 16.3719 32.8878 16.3596C32.936 16.3472 32.9814 16.3254 33.0213 16.2955C33.0612 16.2656 33.0947 16.2281 33.1201 16.1852C33.1455 16.1423 33.1621 16.0949 33.1691 16.0455C33.174 16.0096 33.174 15.9732 33.1691 15.9373V14.0629C33.1691 13.2307 32.9997 12.6452 32.6608 12.3064C32.322 11.9677 31.7362 11.7987 30.9036 11.7995H29.262C28.4294 11.7995 27.8436 11.9685 27.5048 12.3064C27.1659 12.6444 26.9965 13.2299 26.9965 14.0629V15.9373C26.9822 16.0371 27.0081 16.1384 27.0686 16.2191C27.129 16.2998 27.2189 16.3532 27.3187 16.3676C27.355 16.3726 27.3918 16.3726 27.4282 16.3676H27.4269Z" fill="#02778B"/>
<path d="M45.9036 27.4573H42.5826C42.4713 27.4722 42.3582 27.4611 42.2519 27.4251C42.1456 27.3891 42.049 27.3291 41.9697 27.2497C41.8904 27.1703 41.8305 27.0737 41.7947 26.9674C41.7588 26.8611 41.748 26.748 41.763 26.6368V8.36312C41.748 8.25194 41.7588 8.1388 41.7947 8.03249C41.8305 7.92619 41.8904 7.82958 41.9697 7.7502C42.049 7.67081 42.1456 7.61078 42.2519 7.57477C42.3582 7.53877 42.4713 7.52776 42.5826 7.54261H45.9036C46.0149 7.52776 46.1281 7.53877 46.2343 7.57477C46.3406 7.61078 46.4372 7.67081 46.5165 7.7502C46.5958 7.82958 46.6557 7.92619 46.6916 8.03249C46.7274 8.1388 46.7383 8.25194 46.7233 8.36312V9.69052H46.8801C47.1679 8.98553 47.7099 8.4142 48.399 8.08961C49.1152 7.72759 49.9069 7.54015 50.7095 7.54261H52.1152C52.6357 7.54261 52.8955 7.81571 52.8947 8.3619V11.0617C52.9205 11.2909 52.8578 11.5213 52.7196 11.7059C52.6343 11.7716 52.5357 11.8178 52.4307 11.8416C52.3257 11.8653 52.2168 11.8659 52.1116 11.8433H49.4168C47.6211 11.8433 46.7229 12.8563 46.722 14.8822V26.6356C46.7478 26.8256 46.6977 27.0181 46.5825 27.1714C46.4674 27.3247 46.2964 27.4266 46.1067 27.4549C46.0394 27.4648 45.9711 27.4656 45.9036 27.4573Z" fill="#02778B"/>
<path d="M62.7011 27.4573H61.0995C59.0938 27.4573 57.5774 26.9107 56.5503 25.8175C55.5231 24.7243 55.0087 23.1493 55.0071 21.0926V13.9073C55.0071 11.8482 55.5203 10.2736 56.5466 9.18363C57.573 8.09366 59.0894 7.54666 61.0959 7.5426H62.6974C63.4957 7.54099 64.2838 7.72142 65.0018 8.07016C65.6933 8.38257 66.2387 8.94814 66.5255 9.65041H66.6812V0.827786C66.666 0.716146 66.6769 0.602508 66.713 0.495784C66.7492 0.389059 66.8095 0.292151 66.8894 0.212661C66.9693 0.13317 67.0665 0.0732577 67.1734 0.0376234C67.2803 0.00198907 67.3941 -0.00839853 67.5057 0.00727535H70.8255C70.9368 -0.00777615 71.0502 0.00307718 71.1566 0.0389894C71.2631 0.0749016 71.3598 0.134902 71.4392 0.214315C71.5187 0.293728 71.5787 0.390407 71.6146 0.496817C71.6506 0.603227 71.6614 0.716493 71.6463 0.827786V26.638C71.6612 26.7492 71.6502 26.8623 71.6142 26.9686C71.5782 27.0749 71.5181 27.1714 71.4387 27.2506C71.3593 27.3299 71.2626 27.3898 71.1563 27.4256C71.0499 27.4615 70.9367 27.4723 70.8255 27.4573H67.5057C67.3946 27.4721 67.2815 27.4611 67.1753 27.4252C67.0691 27.3892 66.9727 27.3293 66.8934 27.2501C66.8141 27.1708 66.7542 27.0744 66.7182 26.9683C66.6823 26.8621 66.6713 26.7491 66.6861 26.638V25.3471H66.5292C66.2428 26.0493 65.6979 26.6149 65.0067 26.9273C64.2886 27.2773 63.5 27.4586 62.7011 27.4573ZM66.6861 20.1943V14.8056C66.6861 12.8283 65.7874 11.8392 63.9901 11.8384H62.2329C61.3987 11.8384 60.8129 12.0143 60.4757 12.366C60.1384 12.7177 59.969 13.3097 59.9674 14.1419V20.858C59.9674 21.6919 60.1368 22.2843 60.4757 22.6351C60.8145 22.986 61.4003 23.1615 62.2329 23.1615H63.9901C65.7874 23.1615 66.6857 22.1724 66.6848 20.1943H66.6861Z" fill="#02778B"/>
<path d="M117.308 4.18521V0.781614C117.284 0.601169 117.332 0.418459 117.442 0.273381C117.552 0.128304 117.715 0.0326452 117.895 0.0072946C117.959 -0.00243153 118.024 -0.00243153 118.088 0.0072946H121.484C122.004 0.0072946 122.265 0.254461 122.265 0.748793V4.18521C122.277 4.27501 122.272 4.36643 122.25 4.45425C122.227 4.54207 122.187 4.62457 122.133 4.69704C122.078 4.76951 122.01 4.83053 121.932 4.87661C121.854 4.92269 121.767 4.95293 121.677 4.96561C121.613 4.97418 121.548 4.97418 121.484 4.96561H118.088C117.998 4.97829 117.906 4.97308 117.818 4.95028C117.73 4.92748 117.648 4.88755 117.575 4.83276C117.503 4.77798 117.442 4.70943 117.396 4.63106C117.35 4.55268 117.32 4.46602 117.308 4.37606C117.299 4.31279 117.299 4.24848 117.308 4.18521ZM117.308 26.6368V8.36313C117.308 7.81613 117.568 7.54262 118.088 7.54262H121.448C121.559 7.52778 121.672 7.53878 121.778 7.57479C121.885 7.61079 121.981 7.67082 122.06 7.75021C122.14 7.8296 122.2 7.9262 122.235 8.03251C122.271 8.13881 122.282 8.25196 122.267 8.36313V26.6368C122.299 26.8725 122.236 27.111 122.092 27.3005C121.914 27.4225 121.699 27.478 121.484 27.4573H118.126C118.015 27.472 117.902 27.4608 117.796 27.4247C117.69 27.3886 117.594 27.3286 117.514 27.2492C117.435 27.1698 117.376 27.0733 117.34 26.9671C117.304 26.8609 117.293 26.7479 117.308 26.6368Z" fill="#02778B"/>
<path d="M130.901 27.4573H127.58C127.469 27.4722 127.355 27.4611 127.249 27.4251C127.143 27.3891 127.046 27.3291 126.967 27.2497C126.888 27.1703 126.828 27.0737 126.792 26.9674C126.756 26.8611 126.745 26.748 126.76 26.6368V8.36312C126.745 8.25194 126.756 8.1388 126.792 8.03249C126.828 7.92619 126.888 7.82958 126.967 7.7502C127.046 7.67081 127.143 7.61078 127.249 7.57477C127.355 7.53877 127.469 7.52776 127.58 7.54261H130.901C131.012 7.52776 131.125 7.53877 131.232 7.57477C131.338 7.61078 131.435 7.67081 131.514 7.7502C131.593 7.82958 131.653 7.92619 131.689 8.03249C131.725 8.1388 131.736 8.25194 131.721 8.36312V9.65162H131.877C132.451 8.24642 133.727 7.54342 135.706 7.54261H136.956C141.044 7.54261 143.088 9.66418 143.088 13.9073V26.6368C143.088 27.1838 142.802 27.4569 142.228 27.4561H138.945C138.834 27.4709 138.721 27.4599 138.615 27.424C138.509 27.388 138.412 27.3281 138.333 27.2489C138.254 27.1696 138.194 27.0732 138.158 26.967C138.122 26.8609 138.111 26.7479 138.126 26.6368V14.1419C138.126 13.3089 137.95 12.7169 137.598 12.366C137.246 12.0151 136.653 11.8392 135.82 11.8384H134.414C132.617 11.8384 131.718 12.8275 131.718 14.8056V26.638C131.744 26.8278 131.693 27.02 131.578 27.1731C131.463 27.3261 131.292 27.4278 131.103 27.4561C131.036 27.4655 130.968 27.4659 130.901 27.4573Z" fill="#02778B"/>
<path d="M161.877 27.4573H153.243C151.184 27.4573 149.596 26.9103 148.478 25.8163C147.36 24.7223 146.8 23.1477 146.798 21.0926V13.9073C146.798 11.8522 147.358 10.2776 148.478 9.18362C149.597 8.08961 151.186 7.5426 153.243 7.5426H156.329C158.386 7.5426 159.975 8.08961 161.094 9.18362C162.214 10.2776 162.774 11.8522 162.775 13.9073V18.8669C162.801 19.0572 162.751 19.2502 162.635 19.4038C162.52 19.5575 162.348 19.6594 162.158 19.6874C162.091 19.6971 162.022 19.6971 161.954 19.6874H152.149C151.836 19.6874 151.681 19.8296 151.681 20.1165V20.9759C151.681 21.7863 151.856 22.3653 152.207 22.7129C152.558 23.0606 153.151 23.2364 153.985 23.2405H161.876C162.423 23.2405 162.696 23.527 162.696 24.0999V26.6769C162.718 26.8945 162.655 27.1121 162.521 27.2847C162.335 27.4206 162.106 27.4822 161.877 27.4573ZM152.149 16.3676H157.462C157.511 16.3747 157.562 16.3719 157.61 16.3596C157.658 16.3472 157.703 16.3254 157.743 16.2955C157.783 16.2656 157.817 16.2281 157.842 16.1852C157.868 16.1423 157.884 16.0949 157.891 16.0455C157.897 16.0097 157.897 15.9731 157.891 15.9373V14.0629C157.891 13.2307 157.722 12.6452 157.384 12.3064C157.046 11.9677 156.46 11.7987 155.627 11.7995H153.986C153.152 11.7995 152.566 11.9685 152.228 12.3064C151.89 12.6444 151.721 13.2299 151.721 14.0629V15.9373C151.706 16.0368 151.732 16.138 151.792 16.2187C151.852 16.2993 151.941 16.3529 152.041 16.3676C152.077 16.3726 152.114 16.3726 152.15 16.3676H152.149Z" fill="#02778B"/>
<path d="M93.4989 13.8575L91.0266 35.2346L95.6561 41L100.286 35.2966L97.8402 13.8636L93.4989 13.8575Z" fill="#FCAA47"/>
<path d="M97.8402 13.8575H95.6391L95.6561 40.9939L100.286 35.2917L97.8402 13.8575Z" fill="#FFB55B"/>
<path d="M113.203 14.4787C113.203 14.4787 111.064 2.00571 97.7538 0.0449913C97.7538 0.0449913 82.0667 -1.43922 78.3249 14.0034C78.3249 14.0034 76.5702 21.1218 80.8093 27.557C80.843 27.6059 80.888 27.6458 80.9405 27.6734C80.9931 27.7009 81.0516 27.7152 81.1109 27.715H84.5475C84.5944 27.715 84.6409 27.7058 84.6843 27.6878C84.7277 27.6699 84.7671 27.6436 84.8003 27.6104C84.8335 27.5772 84.8598 27.5378 84.8778 27.4944C84.8958 27.4511 84.905 27.4046 84.905 27.3577C84.9051 27.2712 84.8735 27.1878 84.8162 27.1231C82.828 24.9046 80.6816 21.2458 81.3566 16.1574C81.3566 16.1574 82.1093 7.60463 89.8689 4.63499L90.477 4.39917L93.4624 13.065H97.794L101.136 4.39309L101.518 4.59609C101.518 4.59609 108.391 7.46605 109.638 14.8908C110.174 17.0844 110.153 19.3772 109.577 21.5606C109.001 23.744 107.888 25.7488 106.339 27.3929C106.304 27.4289 106.284 27.4773 106.284 27.5278C106.284 27.5783 106.304 27.6268 106.339 27.6628C106.375 27.6966 106.422 27.7153 106.471 27.715H110.215C110.247 27.7155 110.278 27.708 110.306 27.6931C110.334 27.6782 110.358 27.6565 110.375 27.6299C112.327 24.6676 113.83 20.3949 113.203 14.4787Z" fill="#FCAA47"/>
</g>
<defs>
<clipPath id="clip0_790_356">
<rect width="162.784" height="41" fill="white"/>
</clipPath>
</defs>
</svg>
