<svg width="163" height="42" viewBox="0 0 163 42" fill="none" xmlns="http://www.w3.org/2000/svg">
<g clip-path="url(#clip0_161_1651)">
<path d="M4.06892 27.956H0.826914C0.715669 27.9708 0.602498 27.9598 0.496203 27.9238C0.389909 27.8878 0.293356 27.8278 0.214055 27.7484C0.134754 27.669 0.074843 27.5724 0.038982 27.4661C0.00312098 27.3598 -0.00772337 27.2466 0.00729248 27.1355V3.66767C-0.0075171 3.55659 0.00348152 3.44358 0.0394346 3.33744C0.0753877 3.23129 0.135328 3.13485 0.214603 3.0556C0.293878 2.97636 0.390356 2.91644 0.496546 2.88051C0.602737 2.84457 0.715784 2.83357 0.826914 2.84838H3.75639C4.30362 2.84838 4.66843 3.03071 4.85084 3.39538L12.7418 18.1937H12.8975V3.66889C12.8824 3.55759 12.8933 3.44433 12.9292 3.33792C12.9651 3.23151 13.0252 3.13483 13.1046 3.05542C13.184 2.976 13.2808 2.916 13.3872 2.88009C13.4937 2.84418 13.607 2.83333 13.7183 2.84838H16.9603C17.0716 2.83353 17.1847 2.84454 17.291 2.88054C17.3973 2.91655 17.4939 2.97658 17.5732 3.05597C17.6525 3.13535 17.7124 3.23196 17.7483 3.33826C17.7841 3.44457 17.795 3.55771 17.7799 3.66889V27.1355C17.795 27.2466 17.7841 27.3598 17.7483 27.4661C17.7124 27.5724 17.6525 27.669 17.5732 27.7484C17.4939 27.8278 17.3973 27.8878 17.291 27.9238C17.1847 27.9598 17.0716 27.9708 16.9603 27.956H14.1062C13.8436 27.9671 13.5837 27.8987 13.3607 27.7596C13.1376 27.6206 12.9617 27.4174 12.8561 27.1768L5.04541 12.6556H4.88975V27.1379C4.9044 27.249 4.89323 27.362 4.85712 27.4681C4.82101 27.5742 4.76093 27.6705 4.68154 27.7497C4.60214 27.8288 4.50558 27.8886 4.39933 27.9243C4.29309 27.9601 4.18002 27.9709 4.06892 27.956Z" fill="white"/>
<path d="M37.1554 27.9572H28.5214C26.4638 27.9572 24.8757 27.4102 23.7569 26.3162C22.6381 25.2221 22.0779 23.6476 22.0763 21.5925V14.4072C22.0763 12.3521 22.6365 10.7775 23.7569 9.6835C24.8773 8.58949 26.4654 8.04248 28.5214 8.04248H31.6077C33.6637 8.04248 35.2522 8.58949 36.3734 9.6835C37.4946 10.7775 38.0544 12.3521 38.0528 14.4072V19.3667C38.0678 19.4779 38.057 19.5911 38.0211 19.6974C37.9853 19.8037 37.9254 19.9003 37.8461 19.9797C37.7668 20.059 37.6702 20.1191 37.5639 20.1551C37.4576 20.1911 37.3444 20.2021 37.2332 20.1873H27.4282C27.1156 20.1873 26.9588 20.3295 26.9588 20.6163V21.4758C26.9588 22.2861 27.1347 22.8652 27.4865 23.2128C27.8384 23.5605 28.431 23.7363 29.2644 23.7404H37.1554C37.7026 23.7404 37.9762 24.0268 37.9762 24.5998V27.1768C37.9987 27.3946 37.9354 27.6126 37.7999 27.7846C37.6144 27.921 37.3843 27.9826 37.1554 27.9572ZM27.4269 16.8675H32.7399C32.7892 16.8746 32.8395 16.8718 32.8878 16.8594C32.936 16.8471 32.9814 16.8253 33.0213 16.7954C33.0612 16.7655 33.0947 16.728 33.1201 16.6851C33.1455 16.6422 33.1621 16.5947 33.1691 16.5454C33.174 16.5095 33.174 16.4731 33.1691 16.4372V14.5628C33.1691 13.7305 32.9997 13.145 32.6608 12.8063C32.322 12.4676 31.7362 12.2986 30.9036 12.2994H29.262C28.4294 12.2994 27.8436 12.4684 27.5048 12.8063C27.1659 13.1442 26.9965 13.7297 26.9965 14.5628V16.4372C26.9822 16.537 27.0081 16.6383 27.0686 16.719C27.129 16.7997 27.2189 16.8531 27.3187 16.8675C27.355 16.8725 27.3918 16.8725 27.4282 16.8675H27.4269Z" fill="white"/>
<path d="M45.9036 27.9572H42.5826C42.4713 27.9721 42.3582 27.9611 42.2519 27.9251C42.1456 27.8891 42.049 27.829 41.9697 27.7497C41.8904 27.6703 41.8305 27.5737 41.7947 27.4674C41.7588 27.3611 41.748 27.2479 41.763 27.1367V8.86306C41.748 8.75188 41.7588 8.63874 41.7947 8.53243C41.8305 8.42613 41.8904 8.32952 41.9697 8.25013C42.049 8.17075 42.1456 8.11072 42.2519 8.07471C42.3582 8.03871 42.4713 8.0277 42.5826 8.04255H45.9036C46.0149 8.0277 46.1281 8.03871 46.2343 8.07471C46.3406 8.11072 46.4372 8.17075 46.5165 8.25013C46.5958 8.32952 46.6557 8.42613 46.6916 8.53243C46.7274 8.63874 46.7383 8.75188 46.7233 8.86306V10.1905H46.8801C47.1679 9.48547 47.7099 8.91414 48.399 8.58955C49.1152 8.22753 49.9069 8.04009 50.7095 8.04255H52.1152C52.6357 8.04255 52.8955 8.31564 52.8947 8.86184V11.5616C52.9205 11.7908 52.8578 12.0212 52.7196 12.2059C52.6343 12.2715 52.5357 12.3178 52.4307 12.3415C52.3257 12.3652 52.2168 12.3658 52.1116 12.3432H49.4168C47.6211 12.3432 46.7229 13.3562 46.722 15.3822V27.1355C46.7478 27.3255 46.6977 27.518 46.5825 27.6713C46.4674 27.8247 46.2964 27.9265 46.1067 27.9548C46.0394 27.9647 45.9711 27.9656 45.9036 27.9572Z" fill="white"/>
<path d="M62.7011 27.9571H61.0995C59.0938 27.9571 57.5774 27.4105 56.5503 26.3173C55.5231 25.2241 55.0087 23.6491 55.0071 21.5924V14.4072C55.0071 12.348 55.5203 10.7734 56.5466 9.68344C57.573 8.59348 59.0894 8.04647 61.0959 8.04242H62.6974C63.4957 8.04081 64.2838 8.22124 65.0018 8.56998C65.6933 8.88239 66.2387 9.44796 66.5255 10.1502H66.6812V1.3276C66.666 1.21596 66.6769 1.10232 66.713 0.9956C66.7492 0.888876 66.8095 0.791968 66.8894 0.712477C66.9693 0.632987 67.0665 0.573075 67.1734 0.53744C67.2803 0.501806 67.3941 0.491418 67.5057 0.507092H70.8255C70.9368 0.492041 71.0502 0.502894 71.1566 0.538806C71.2631 0.574718 71.3598 0.634719 71.4392 0.714132C71.5187 0.793545 71.5787 0.890224 71.6146 0.996634C71.6506 1.10304 71.6614 1.21631 71.6463 1.3276V27.1378C71.6612 27.249 71.6502 27.3622 71.6142 27.4684C71.5782 27.5747 71.5181 27.6712 71.4387 27.7505C71.3593 27.8297 71.2626 27.8896 71.1563 27.9255C71.0499 27.9613 70.9367 27.9721 70.8255 27.9571H67.5057C67.3946 27.9719 67.2815 27.9609 67.1753 27.925C67.0691 27.8891 66.9727 27.8291 66.8934 27.7499C66.8141 27.6707 66.7542 27.5742 66.7182 27.4681C66.6823 27.3619 66.6713 27.2489 66.6861 27.1378V25.8469H66.5292C66.2428 26.5491 65.6979 27.1147 65.0067 27.4271C64.2886 27.7771 63.5 27.9584 62.7011 27.9571ZM66.6861 20.6941V15.3055C66.6861 13.3281 65.7874 12.3391 63.9901 12.3383H62.2329C61.3987 12.3383 60.8129 12.5141 60.4757 12.8658C60.1384 13.2175 59.969 13.8095 59.9674 14.6418V21.3578C59.9674 22.1917 60.1368 22.7841 60.4757 23.135C60.8145 23.4859 61.4003 23.6613 62.2329 23.6613H63.9901C65.7874 23.6613 66.6857 22.6722 66.6848 20.6941H66.6861Z" fill="white"/>
<path d="M117.308 4.68521V1.28161C117.284 1.10117 117.332 0.918459 117.442 0.773381C117.552 0.628304 117.715 0.532645 117.895 0.507295C117.959 0.497568 118.024 0.497568 118.088 0.507295H121.484C122.004 0.507295 122.265 0.754461 122.265 1.24879V4.68521C122.277 4.77501 122.272 4.86643 122.25 4.95425C122.227 5.04207 122.187 5.12457 122.133 5.19704C122.078 5.26951 122.01 5.33053 121.932 5.37661C121.854 5.42269 121.767 5.45293 121.677 5.46561C121.613 5.47418 121.548 5.47418 121.484 5.46561H118.088C117.998 5.47829 117.906 5.47308 117.818 5.45028C117.73 5.42748 117.648 5.38755 117.575 5.33276C117.503 5.27798 117.442 5.20943 117.396 5.13106C117.35 5.05268 117.32 4.96602 117.308 4.87606C117.299 4.81279 117.299 4.74848 117.308 4.68521ZM117.308 27.1368V8.86313C117.308 8.31613 117.568 8.04262 118.088 8.04262H121.448C121.559 8.02778 121.672 8.03878 121.778 8.07479C121.885 8.11079 121.981 8.17082 122.06 8.25021C122.14 8.3296 122.2 8.4262 122.235 8.53251C122.271 8.63881 122.282 8.75196 122.267 8.86313V27.1368C122.299 27.3725 122.236 27.611 122.092 27.8005C121.914 27.9225 121.699 27.978 121.484 27.9573H118.126C118.015 27.972 117.902 27.9608 117.796 27.9247C117.69 27.8886 117.594 27.8286 117.514 27.7492C117.435 27.6698 117.376 27.5733 117.34 27.4671C117.304 27.3609 117.293 27.2479 117.308 27.1368Z" fill="white"/>
<path d="M130.901 27.9572H127.58C127.469 27.9721 127.355 27.9611 127.249 27.9251C127.143 27.8891 127.046 27.829 126.967 27.7497C126.888 27.6703 126.828 27.5737 126.792 27.4674C126.756 27.3611 126.745 27.2479 126.76 27.1367V8.86306C126.745 8.75188 126.756 8.63874 126.792 8.53243C126.828 8.42613 126.888 8.32952 126.967 8.25013C127.046 8.17075 127.143 8.11072 127.249 8.07471C127.355 8.03871 127.469 8.0277 127.58 8.04255H130.901C131.012 8.0277 131.125 8.03871 131.232 8.07471C131.338 8.11072 131.435 8.17075 131.514 8.25013C131.593 8.32952 131.653 8.42613 131.689 8.53243C131.725 8.63874 131.736 8.75188 131.721 8.86306V10.1516H131.877C132.451 8.74636 133.727 8.04336 135.706 8.04255H136.956C141.044 8.04255 143.088 10.1641 143.088 14.4073V27.1367C143.088 27.6837 142.802 27.9568 142.228 27.956H138.945C138.834 27.9708 138.721 27.9598 138.615 27.9239C138.509 27.888 138.412 27.828 138.333 27.7488C138.254 27.6696 138.194 27.5731 138.158 27.467C138.122 27.3608 138.111 27.2478 138.126 27.1367V14.6419C138.126 13.8088 137.95 13.2168 137.598 12.8659C137.246 12.515 136.653 12.3392 135.82 12.3384H134.414C132.617 12.3384 131.718 13.3274 131.718 15.3056V27.138C131.744 27.3278 131.693 27.5199 131.578 27.673C131.463 27.8261 131.292 27.9277 131.103 27.956C131.036 27.9654 130.968 27.9658 130.901 27.9572Z" fill="white"/>
<path d="M161.877 27.9572H153.243C151.184 27.9572 149.596 27.4102 148.478 26.3162C147.36 25.2221 146.8 23.6476 146.798 21.5924V14.4072C146.798 12.3521 147.358 10.7775 148.478 9.6835C149.597 8.58949 151.186 8.04248 153.243 8.04248H156.329C158.386 8.04248 159.975 8.58949 161.094 9.6835C162.214 10.7775 162.774 12.3521 162.775 14.4072V19.3667C162.801 19.5571 162.751 19.7501 162.635 19.9037C162.52 20.0574 162.348 20.1592 162.158 20.1872C162.091 20.197 162.022 20.197 161.954 20.1872H152.149C151.836 20.1872 151.681 20.3295 151.681 20.6163V21.4758C151.681 22.2861 151.856 22.8652 152.207 23.2128C152.558 23.5605 153.151 23.7363 153.985 23.7404H161.876C162.423 23.7404 162.696 24.0268 162.696 24.5998V27.1768C162.718 27.3943 162.655 27.612 162.521 27.7846C162.335 27.9205 162.106 27.982 161.877 27.9572ZM152.149 16.8675H157.462C157.511 16.8746 157.562 16.8718 157.61 16.8594C157.658 16.8471 157.703 16.8253 157.743 16.7954C157.783 16.7655 157.817 16.728 157.842 16.6851C157.868 16.6422 157.884 16.5947 157.891 16.5454C157.897 16.5096 157.897 16.473 157.891 16.4372V14.5628C157.891 13.7305 157.722 13.145 157.384 12.8063C157.046 12.4676 156.46 12.2986 155.627 12.2994H153.986C153.152 12.2994 152.566 12.4684 152.228 12.8063C151.89 13.1442 151.721 13.7297 151.721 14.5628V16.4372C151.706 16.5367 151.732 16.6378 151.792 16.7185C151.852 16.7992 151.941 16.8528 152.041 16.8675C152.077 16.8725 152.114 16.8725 152.15 16.8675H152.149Z" fill="white"/>
<path d="M93.4989 14.3574L91.0266 35.7345L95.6561 41.4999L100.286 35.7965L97.8402 14.3635L93.4989 14.3574Z" fill="#FCAA47"/>
<path d="M97.8402 14.3574H95.6391L95.6561 41.4938L100.286 35.7916L97.8402 14.3574Z" fill="#FCAA47"/>
<path d="M113.203 14.9786C113.203 14.9786 111.064 2.50565 97.7538 0.54493C97.7538 0.54493 82.0667 -0.939283 78.3249 14.5033C78.3249 14.5033 76.5702 21.6217 80.8093 28.057C80.843 28.1058 80.888 28.1458 80.9405 28.1733C80.9931 28.2008 81.0516 28.2151 81.1109 28.215H84.5475C84.5944 28.215 84.6409 28.2057 84.6843 28.1878C84.7277 28.1698 84.7671 28.1435 84.8003 28.1103C84.8335 28.0771 84.8598 28.0377 84.8778 27.9944C84.8958 27.951 84.905 27.9045 84.905 27.8576C84.9051 27.7712 84.8735 27.6877 84.8162 27.623C82.828 25.4046 80.6816 21.7457 81.3566 16.6573C81.3566 16.6573 82.1093 8.10457 89.8689 5.13493L90.477 4.89911L93.4624 13.5649H97.794L101.136 4.89303L101.518 5.09603C101.518 5.09603 108.391 7.96599 109.638 15.3907C110.174 17.5844 110.153 19.8771 109.577 22.0605C109.001 24.2439 107.888 26.2488 106.339 27.8929C106.304 27.9288 106.284 27.9773 106.284 28.0278C106.284 28.0783 106.304 28.1268 106.339 28.1627C106.375 28.1965 106.422 28.2152 106.471 28.215H110.215C110.247 28.2155 110.278 28.2079 110.306 28.193C110.334 28.1782 110.358 28.1564 110.375 28.1299C112.327 25.1675 113.83 20.8948 113.203 14.9786Z" fill="#FCAA47"/>
</g>
<defs>
<clipPath id="clip0_161_1651">
<rect width="162.784" height="41" fill="white" transform="translate(0 0.5)"/>
</clipPath>
</defs>
</svg>
