<svg width="77" height="77" viewBox="0 0 77 77" fill="none" xmlns="http://www.w3.org/2000/svg">
<path d="M77 38.5C77 43.5559 76.0042 48.5623 74.0694 53.2333C72.1346 57.9044 69.2987 62.1486 65.7237 65.7236C62.1486 69.2987 57.9044 72.1346 53.2333 74.0694C48.5623 76.0042 43.5559 77 38.5 77C28.2892 77 18.4966 72.9438 11.2764 65.7236C4.05628 58.5035 0 48.7108 0 38.5C0 28.2892 4.05628 18.4965 11.2764 11.2764C18.4966 4.05624 28.2892 0 38.5 0C43.5559 0 48.5623 0.995832 53.2333 2.93064C57.9044 4.86544 62.1486 7.70133 65.7237 11.2764C69.2987 14.8514 72.1346 19.0957 74.0694 23.7667C76.0042 28.4377 77 33.4441 77 38.5ZM72.5848 38.5204C72.5848 29.486 68.996 20.8216 62.6077 14.4333C56.2193 8.04498 47.5549 4.45607 38.5205 4.45607C29.4861 4.45607 20.8217 8.04498 14.4334 14.4333C8.04504 20.8216 4.45605 29.486 4.45605 38.5204C4.45605 47.5549 8.04504 56.2193 14.4334 62.6076C20.8217 68.9959 29.4861 72.5848 38.5205 72.5848C42.9939 72.5848 47.4234 71.7037 51.5563 69.9918C55.6892 68.2799 59.4445 65.7708 62.6077 62.6076C65.7708 59.4444 68.2799 55.6892 69.9918 51.5563C71.7037 47.4234 72.5848 42.9938 72.5848 38.5204Z" fill="#FCAA47"/>
<path d="M63.0799 38.6225C63.0799 45.1713 60.4784 51.4519 55.8477 56.0826C51.217 60.7133 44.9365 63.3148 38.3877 63.3148C31.8389 63.3148 25.5582 60.7133 20.9275 56.0826C16.2968 51.4519 13.6953 45.1713 13.6953 38.6225C13.6953 32.0737 16.2968 25.7931 20.9275 21.1624C25.5582 16.5317 31.8389 13.9302 38.3877 13.9302C44.9365 13.9302 51.217 16.5317 55.8477 21.1624C60.4784 25.7931 63.0799 32.0737 63.0799 38.6225ZM58.6443 38.6634C58.6443 33.2883 56.509 28.1333 52.7083 24.3325C48.9075 20.5317 43.7526 18.3965 38.3774 18.3965C33.0023 18.3965 27.8473 20.5317 24.0465 24.3325C20.2457 28.1333 18.1104 33.2883 18.1104 38.6634C18.1104 41.3249 18.6347 43.9603 19.6532 46.4192C20.6717 48.8781 22.1646 51.1123 24.0465 52.9943C27.8473 56.7951 33.0023 58.9303 38.3774 58.9303C41.0389 58.9303 43.6744 58.4061 46.1333 57.3876C48.5922 56.3691 50.8263 54.8762 52.7083 52.9943C54.5902 51.1123 56.083 48.8781 57.1015 46.4192C58.1201 43.9603 58.6443 41.3249 58.6443 38.6634Z" fill="#FCAA47"/>
<path d="M51.2141 38.7148C51.2141 42.1112 49.8649 45.3684 47.4633 47.77C45.0617 50.1716 41.8044 51.5209 38.408 51.5209C35.0116 51.5209 31.7544 50.1716 29.3528 47.77C26.9512 45.3684 25.602 42.1112 25.602 38.7148C25.602 35.3184 26.9512 32.0611 29.3528 29.6595C31.7544 27.2579 35.0116 25.9087 38.408 25.9087C41.8044 25.9087 45.0617 27.2579 47.4633 29.6595C49.8649 32.0611 51.2141 35.3184 51.2141 38.7148ZM46.6763 38.6943C46.6763 36.4879 45.7998 34.3718 44.2396 32.8117C42.6794 31.2515 40.5634 30.375 38.3569 30.375C36.1505 30.375 34.0344 31.2515 32.4743 32.8117C30.9141 34.3718 30.0376 36.4879 30.0376 38.6943C30.0376 40.9008 30.9141 43.0168 32.4743 44.577C34.0344 46.1372 36.1505 47.0137 38.3569 47.0137C40.5634 47.0137 42.6794 46.1372 44.2396 44.577C45.7998 43.0168 46.6763 40.9008 46.6763 38.6943Z" fill="#FCAA47"/>
</svg>
