<svg width="55" height="55" viewBox="0 0 55 55" fill="none" xmlns="http://www.w3.org/2000/svg">
<path d="M10.3833 17.4071L37.5967 10.1125C37.6153 10.1075 37.6346 10.1062 37.6536 10.1088C37.6726 10.1114 37.6909 10.1178 37.7074 10.1277C37.7239 10.1375 37.7383 10.1506 37.7496 10.166C37.761 10.1815 37.7691 10.1991 37.7735 10.2178L44.2564 37.6401C44.2644 37.6759 44.2584 37.7133 44.2397 37.7448C44.221 37.7762 44.1909 37.7993 44.1556 37.8092L17.0327 44.8557C17.0142 44.8608 16.9948 44.862 16.9758 44.8594C16.9568 44.8568 16.9385 44.8504 16.922 44.8406C16.9055 44.8307 16.8912 44.8177 16.8798 44.8022C16.8685 44.7867 16.8603 44.7691 16.8559 44.7504L10.2826 17.5762C10.2745 17.5404 10.2805 17.503 10.2993 17.4715C10.318 17.4401 10.3481 17.417 10.3833 17.4071ZM32.4777 19.0734C32.4739 19.0581 32.467 19.0436 32.4575 19.0308C32.4481 19.0181 32.4362 19.0074 32.4226 18.9992C32.409 18.9911 32.3939 18.9857 32.3782 18.9834C32.3625 18.9811 32.3465 18.9819 32.3312 18.9858L18.606 22.4369C18.5749 22.4447 18.5483 22.4646 18.5318 22.4921C18.5154 22.5195 18.5105 22.5524 18.5183 22.5835L21.9782 36.3433C21.9821 36.3587 21.9889 36.3732 21.9984 36.3859C22.0079 36.3986 22.0197 36.4094 22.0333 36.4175C22.0469 36.4257 22.062 36.431 22.0777 36.4334C22.0934 36.4357 22.1094 36.4349 22.1248 36.431L35.8499 32.9798C35.881 32.972 35.9076 32.9522 35.9241 32.9247C35.9405 32.8972 35.9454 32.8643 35.9376 32.8333L32.4777 19.0734Z" fill="#FCAA47"/>
</svg>
