<svg width="16" height="13" viewBox="0 0 16 13" fill="none" xmlns="http://www.w3.org/2000/svg">
<path d="M14.2524 3.82812C14.2524 3.97461 14.2524 4.0918 14.2524 4.23828C14.2524 8.31055 11.1762 12.9688 5.52192 12.9688C3.76411 12.9688 2.15278 12.4707 0.805122 11.5918C1.0395 11.6211 1.27387 11.6504 1.53754 11.6504C2.97309 11.6504 4.29145 11.1523 5.34614 10.332C3.99848 10.3027 2.8559 9.42383 2.47504 8.19336C2.68012 8.22266 2.8559 8.25195 3.06098 8.25195C3.32465 8.25195 3.61762 8.19336 3.852 8.13477C2.44575 7.8418 1.39106 6.61133 1.39106 5.11719V5.08789C1.80122 5.32227 2.29926 5.43945 2.79731 5.46875C1.9477 4.91211 1.42036 3.97461 1.42036 2.91992C1.42036 2.33398 1.56684 1.80664 1.83051 1.36719C3.35395 3.21289 5.63911 4.44336 8.18793 4.58984C8.12934 4.35547 8.10004 4.12109 8.10004 3.88672C8.10004 2.1875 9.477 0.810547 11.1762 0.810547C12.0551 0.810547 12.8461 1.16211 13.4321 1.77734C14.1059 1.63086 14.7797 1.36719 15.3657 1.01562C15.1313 1.74805 14.6625 2.33398 14.018 2.71484C14.6332 2.65625 15.2485 2.48047 15.7758 2.24609C15.3657 2.86133 14.8383 3.38867 14.2524 3.82812Z" fill="#02778B"/>
</svg>
