<svg width="17" height="12" viewBox="0 0 17 12" fill="none" xmlns="http://www.w3.org/2000/svg">
<path d="M15.9516 2.03711C16.3032 3.26758 16.3032 5.9043 16.3032 5.9043C16.3032 5.9043 16.3032 8.51172 15.9516 9.77148C15.7758 10.4746 15.2192 11.002 14.5454 11.1777C13.2856 11.5 8.30512 11.5 8.30512 11.5C8.30512 11.5 3.29536 11.5 2.03559 11.1777C1.36176 11.002 0.805122 10.4746 0.629341 9.77148C0.277779 8.51172 0.277779 5.9043 0.277779 5.9043C0.277779 5.9043 0.277779 3.26758 0.629341 2.03711C0.805122 1.33398 1.36176 0.777344 2.03559 0.601562C3.29536 0.25 8.30512 0.25 8.30512 0.25C8.30512 0.25 13.2856 0.25 14.5454 0.601562C15.2192 0.777344 15.7758 1.33398 15.9516 2.03711ZM6.6645 8.27734L10.8247 5.9043L6.6645 3.53125V8.27734Z" fill="#02778B"/>
</svg>
